M48
; DRILL file {KiCad 7.0.7} date Tue Nov  7 21:11:47 2023
; FORMAT={-:-/ absolute / metric / decimal}
; #@! TF.CreationDate,2023-11-07T21:11:47-05:00
; #@! TF.GenerationSoftware,Kicad,Pcbnew,7.0.7
; #@! TF.FileFunction,Plated,1,4,PTH
FMAT,2
METRIC
; #@! TA.AperFunction,Plated,PTH,ViaDrill
T1C0.300
; #@! TA.AperFunction,Plated,PTH,ViaDrill
T2C0.400
; #@! TA.AperFunction,Plated,PTH,ViaDrill
T3C0.500
; #@! TA.AperFunction,Plated,PTH,ComponentDrill
T4C0.900
; #@! TA.AperFunction,Plated,PTH,ComponentDrill
T5C1.000
; #@! TA.AperFunction,Plated,PTH,ComponentDrill
T6C1.100
; #@! TA.AperFunction,Plated,PTH,ComponentDrill
T7C2.700
%
G90
G05
T1
X135.4Y-44.6
X136.5Y-53.1
X137.675Y-61.275
X138.25Y-41.5
X138.65Y-42.45
X138.65Y-54.581
X139.8Y-54.4
X140.0Y-57.4
X140.7Y-58.0
X141.1Y-51.7
X141.314Y-57.488
X141.325Y-46.575
X141.75Y-61.25
X142.7Y-61.4
X142.8Y-53.5
X143.25Y-52.5
X143.7Y-46.7
X144.5Y-58.0
X144.9Y-75.8
X145.2Y-57.3
X145.6Y-71.8
X146.244Y-67.745
X148.1Y-68.7
X154.75Y-51.25
X156.9Y-45.5
X157.725Y-50.625
X159.2Y-65.1
X160.25Y-93.75
X163.975Y-50.625
X165.5Y-44.3
X166.75Y-52.8
X168.5Y-45.1
X169.8Y-54.9
X170.0Y-53.7
X174.3Y-61.2
X176.825Y-51.175
X177.0Y-48.4
T2
X139.7Y-43.3
T3
X138.75Y-36.25
X140.7Y-60.2
X142.5Y-36.5
X145.0Y-47.5
X145.5Y-77.5
X145.75Y-42.25
X145.75Y-58.5
X145.75Y-73.25
X146.0Y-36.5
X146.25Y-91.75
X146.25Y-93.75
X146.4Y-54.2
X146.75Y-47.5
X147.0Y-50.0
X151.75Y-88.25
X152.0Y-53.75
X155.143Y-92.535
X155.5Y-57.5
X155.75Y-88.5
X158.39Y-56.092
X158.707Y-92.277
X159.5Y-61.5
X160.25Y-54.5
X160.25Y-87.0
X160.5Y-64.5
X161.0Y-59.75
X161.5Y-92.0
X163.25Y-57.75
X163.25Y-86.75
X164.75Y-93.75
X164.801Y-55.908
X165.0Y-63.2
X165.2Y-91.2
X166.0Y-87.0
X166.25Y-61.75
X167.0Y-58.0
X168.5Y-62.5
X170.1Y-63.1
X170.25Y-94.25
X171.75Y-61.5
X172.5Y-58.25
X173.25Y-56.0
X174.0Y-67.25
X174.2Y-69.6
X174.25Y-64.5
X174.5Y-94.0
X174.9Y-59.7
X178.0Y-88.0
X178.4Y-49.5
X178.75Y-94.25
X183.5Y-88.0
X183.75Y-94.25
X186.9Y-54.8
X186.9Y-59.7
X187.1Y-91.1
X188.5Y-94.0
X189.5Y-57.0
X189.75Y-59.25
X189.75Y-91.25
X190.0Y-88.25
X191.75Y-59.0
X193.25Y-88.5
X193.75Y-38.25
X194.0Y-36.25
T4
X151.93Y-39.47
X154.43Y-39.47
X156.93Y-39.47
X159.43Y-39.47
X166.93Y-39.47
X169.43Y-39.47
X171.93Y-39.47
X174.43Y-39.47
X181.88Y-48.48
X181.93Y-39.47
X184.38Y-48.48
X184.43Y-39.47
X186.88Y-48.48
X186.93Y-39.47
X189.38Y-48.48
X189.43Y-39.47
T5
X137.625Y-63.695
X137.625Y-67.745
X137.625Y-71.795
X137.625Y-75.845
X137.625Y-79.895
X137.625Y-83.945
X137.625Y-87.995
X137.625Y-92.045
X140.165Y-63.695
X140.165Y-67.745
X140.165Y-71.795
X140.165Y-75.845
X140.165Y-79.895
X140.165Y-83.945
X140.165Y-87.995
X140.165Y-92.045
X142.705Y-63.695
X142.705Y-67.745
X142.705Y-71.795
X142.705Y-75.845
X142.705Y-79.895
X142.705Y-83.945
X142.705Y-87.995
X142.705Y-92.045
X150.27Y-75.55
X150.27Y-78.09
X150.27Y-80.63
X150.27Y-83.17
X150.27Y-85.71
X152.91Y-62.85
X152.91Y-65.39
X152.91Y-67.93
X152.91Y-70.47
X152.91Y-73.01
X152.91Y-75.55
X152.91Y-78.09
X152.91Y-80.63
X152.91Y-83.17
X152.91Y-85.71
X155.45Y-62.85
X155.45Y-65.39
X155.45Y-67.93
X155.45Y-70.47
X155.45Y-73.01
X155.45Y-75.55
X155.45Y-78.09
X155.45Y-80.63
X155.45Y-83.17
X155.45Y-85.71
T6
X151.115Y-48.48
X153.615Y-48.48
X156.115Y-48.48
X158.615Y-48.48
X161.115Y-48.48
T7
X168.49Y-49.08
X173.49Y-49.08
T0
M30
