%TF.GenerationSoftware,KiCad,Pcbnew,7.0.7*%
%TF.CreationDate,2023-11-07T21:10:22-05:00*%
%TF.ProjectId,attachmentBoard,61747461-6368-46d6-956e-74426f617264,rev?*%
%TF.SameCoordinates,Original*%
%TF.FileFunction,Copper,L4,Bot*%
%TF.FilePolarity,Positive*%
%FSLAX46Y46*%
G04 Gerber Fmt 4.6, Leading zero omitted, Abs format (unit mm)*
G04 Created by KiCad (PCBNEW 7.0.7) date 2023-11-07 21:10:22*
%MOMM*%
%LPD*%
G01*
G04 APERTURE LIST*
G04 Aperture macros list*
%AMRoundRect*
0 Rectangle with rounded corners*
0 $1 Rounding radius*
0 $2 $3 $4 $5 $6 $7 $8 $9 X,Y pos of 4 corners*
0 Add a 4 corners polygon primitive as box body*
4,1,4,$2,$3,$4,$5,$6,$7,$8,$9,$2,$3,0*
0 Add four circle primitives for the rounded corners*
1,1,$1+$1,$2,$3*
1,1,$1+$1,$4,$5*
1,1,$1+$1,$6,$7*
1,1,$1+$1,$8,$9*
0 Add four rect primitives between the rounded corners*
20,1,$1+$1,$2,$3,$4,$5,0*
20,1,$1+$1,$4,$5,$6,$7,0*
20,1,$1+$1,$6,$7,$8,$9,0*
20,1,$1+$1,$8,$9,$2,$3,0*%
G04 Aperture macros list end*
%TA.AperFunction,ComponentPad*%
%ADD10RoundRect,0.326336X0.528664X-0.528664X0.528664X0.528664X-0.528664X0.528664X-0.528664X-0.528664X0*%
%TD*%
%TA.AperFunction,ComponentPad*%
%ADD11C,1.710000*%
%TD*%
%TA.AperFunction,ComponentPad*%
%ADD12R,1.700000X1.700000*%
%TD*%
%TA.AperFunction,ComponentPad*%
%ADD13O,1.700000X1.700000*%
%TD*%
%TA.AperFunction,SMDPad,CuDef*%
%ADD14RoundRect,0.200000X0.275000X-0.200000X0.275000X0.200000X-0.275000X0.200000X-0.275000X-0.200000X0*%
%TD*%
%TA.AperFunction,ComponentPad*%
%ADD15R,1.400000X1.400000*%
%TD*%
%TA.AperFunction,ComponentPad*%
%ADD16C,1.400000*%
%TD*%
%TA.AperFunction,ComponentPad*%
%ADD17C,4.300000*%
%TD*%
%TA.AperFunction,SMDPad,CuDef*%
%ADD18R,1.600000X3.500000*%
%TD*%
%TA.AperFunction,SMDPad,CuDef*%
%ADD19R,12.200000X9.750000*%
%TD*%
%TA.AperFunction,SMDPad,CuDef*%
%ADD20RoundRect,0.225000X-0.225000X-0.250000X0.225000X-0.250000X0.225000X0.250000X-0.225000X0.250000X0*%
%TD*%
%TA.AperFunction,SMDPad,CuDef*%
%ADD21R,0.558800X1.701800*%
%TD*%
%TA.AperFunction,ComponentPad*%
%ADD22R,1.650000X1.650000*%
%TD*%
%TA.AperFunction,ComponentPad*%
%ADD23C,1.650000*%
%TD*%
%TA.AperFunction,ViaPad*%
%ADD24C,1.000000*%
%TD*%
%TA.AperFunction,ViaPad*%
%ADD25C,0.600000*%
%TD*%
%TA.AperFunction,ViaPad*%
%ADD26C,0.800000*%
%TD*%
%TA.AperFunction,Conductor*%
%ADD27C,0.800000*%
%TD*%
%TA.AperFunction,Conductor*%
%ADD28C,0.500000*%
%TD*%
%TA.AperFunction,Conductor*%
%ADD29C,0.150000*%
%TD*%
%TA.AperFunction,Conductor*%
%ADD30C,0.300000*%
%TD*%
%TA.AperFunction,Conductor*%
%ADD31C,1.000000*%
%TD*%
%TA.AperFunction,Conductor*%
%ADD32C,0.200000*%
%TD*%
G04 APERTURE END LIST*
D10*
%TO.P,U2,1,LB+*%
%TO.N,unconnected-(U2-LB+-Pad1)*%
X152910000Y-62850000D03*
D11*
%TO.P,U2,2,LB-*%
%TO.N,unconnected-(U2-LB--Pad2)*%
X155450000Y-62850000D03*
%TO.P,U2,3,EN1+*%
%TO.N,/EN1+*%
X152910000Y-65390000D03*
%TO.P,U2,4,EN1-*%
%TO.N,/EN1-*%
X155450000Y-65390000D03*
%TO.P,U2,5,EN2+*%
%TO.N,/EN2+*%
X152910000Y-67930000D03*
%TO.P,U2,6,EN2-*%
%TO.N,/EN2-*%
X155450000Y-67930000D03*
%TO.P,U2,7,EN1A*%
%TO.N,/EN1A*%
X152910000Y-70470000D03*
%TO.P,U2,8,EN1B*%
%TO.N,/EN1B*%
X155450000Y-70470000D03*
%TO.P,U2,9,EN2A*%
%TO.N,/EN2A*%
X152910000Y-73010000D03*
%TO.P,U2,10,EN2B*%
%TO.N,/EN2B*%
X155450000Y-73010000D03*
%TO.P,U2,11,S1+*%
%TO.N,unconnected-(U2-S1+-Pad11)*%
X152910000Y-75550000D03*
%TO.P,U2,12,S1-*%
%TO.N,unconnected-(U2-S1--Pad12)*%
X155450000Y-75550000D03*
%TO.P,U2,13,S2+*%
%TO.N,unconnected-(U2-S2+-Pad13)*%
X152910000Y-78090000D03*
%TO.P,U2,14,S2-*%
%TO.N,unconnected-(U2-S2--Pad14)*%
X155450000Y-78090000D03*
%TO.P,U2,15,S3+*%
%TO.N,unconnected-(U2-S3+-Pad15)*%
X152910000Y-80630000D03*
%TO.P,U2,16,S3-*%
%TO.N,unconnected-(U2-S3--Pad16)*%
X155450000Y-80630000D03*
%TO.P,U2,17,S4+*%
%TO.N,unconnected-(U2-S4+-Pad17)*%
X152910000Y-83170000D03*
%TO.P,U2,18,S4-*%
%TO.N,unconnected-(U2-S4--Pad18)*%
X155450000Y-83170000D03*
%TO.P,U2,19,S5+*%
%TO.N,unconnected-(U2-S5+-Pad19)*%
X152910000Y-85710000D03*
%TO.P,U2,20,S5-*%
%TO.N,unconnected-(U2-S5--Pad20)*%
X155450000Y-85710000D03*
%TO.P,U2,21,S1_IO*%
%TO.N,/RxD*%
X150270000Y-75550000D03*
%TO.P,U2,22,S2_IO*%
%TO.N,/TxD*%
X150270000Y-78090000D03*
%TO.P,U2,23,S3_IO*%
%TO.N,/E_STOP*%
X150270000Y-80630000D03*
%TO.P,U2,24,S4_IO*%
%TO.N,/S4*%
X150270000Y-83170000D03*
%TO.P,U2,25,S5_IO*%
%TO.N,/S5*%
X150270000Y-85710000D03*
%TD*%
D12*
%TO.P,J13,1,Pin_1*%
%TO.N,GND*%
X137625000Y-83945000D03*
D13*
%TO.P,J13,2,Pin_2*%
%TO.N,+5V*%
X140165000Y-83945000D03*
%TO.P,J13,3,Pin_3*%
%TO.N,/SERVO2*%
X142705000Y-83945000D03*
%TD*%
D14*
%TO.P,R5,1*%
%TO.N,/A4*%
X139825000Y-53330000D03*
%TO.P,R5,2*%
%TO.N,GND*%
X139825000Y-51680000D03*
%TD*%
D15*
%TO.P,J1,1,1*%
%TO.N,+5V*%
X151930000Y-39470000D03*
D16*
%TO.P,J1,2,2*%
%TO.N,GND*%
X154430000Y-39470000D03*
%TO.P,J1,3,3*%
%TO.N,/SCL*%
X156930000Y-39470000D03*
%TO.P,J1,4,4*%
%TO.N,/SDA*%
X159430000Y-39470000D03*
%TD*%
D12*
%TO.P,J17,1,Pin_1*%
%TO.N,GND*%
X137625000Y-67745000D03*
D13*
%TO.P,J17,2,Pin_2*%
%TO.N,+5V*%
X140165000Y-67745000D03*
%TO.P,J17,3,Pin_3*%
%TO.N,/SERVO6*%
X142705000Y-67745000D03*
%TD*%
D12*
%TO.P,J14,1,Pin_1*%
%TO.N,GND*%
X137625000Y-79895000D03*
D13*
%TO.P,J14,2,Pin_2*%
%TO.N,+5V*%
X140165000Y-79895000D03*
%TO.P,J14,3,Pin_3*%
%TO.N,/SERVO3*%
X142705000Y-79895000D03*
%TD*%
D17*
%TO.P,J5,1,1*%
%TO.N,+12V*%
X168490000Y-49080000D03*
%TO.P,J5,2,2*%
%TO.N,GND*%
X173490000Y-49080000D03*
%TD*%
D15*
%TO.P,J4,1,1*%
%TO.N,/EN2+*%
X181880000Y-48480000D03*
D16*
%TO.P,J4,2,2*%
%TO.N,/EN2-*%
X184380000Y-48480000D03*
%TO.P,J4,3,3*%
%TO.N,/EN2A*%
X186880000Y-48480000D03*
%TO.P,J4,4,4*%
%TO.N,/EN2B*%
X189380000Y-48480000D03*
%TD*%
D18*
%TO.P,IC1,1,INPUT*%
%TO.N,+12V*%
X163410000Y-69580000D03*
D19*
%TO.P,IC1,2,GND*%
%TO.N,GND*%
X165950000Y-79856000D03*
D18*
%TO.P,IC1,3,OUTPUT*%
%TO.N,+5V*%
X168490000Y-69580000D03*
%TD*%
D12*
%TO.P,J16,1,Pin_1*%
%TO.N,GND*%
X137625000Y-71795000D03*
D13*
%TO.P,J16,2,Pin_2*%
%TO.N,+5V*%
X140165000Y-71795000D03*
%TO.P,J16,3,Pin_3*%
%TO.N,/SERVO5*%
X142705000Y-71795000D03*
%TD*%
D20*
%TO.P,C2,1*%
%TO.N,+12V*%
X163440000Y-64505000D03*
%TO.P,C2,2*%
%TO.N,GND*%
X164990000Y-64505000D03*
%TD*%
D14*
%TO.P,R4,1*%
%TO.N,/A3*%
X138235000Y-53330000D03*
%TO.P,R4,2*%
%TO.N,GND*%
X138235000Y-51680000D03*
%TD*%
D12*
%TO.P,J11,1,Pin_1*%
%TO.N,GND*%
X137625000Y-92045000D03*
D13*
%TO.P,J11,2,Pin_2*%
%TO.N,+5V*%
X140165000Y-92045000D03*
%TO.P,J11,3,Pin_3*%
%TO.N,/SERVO0*%
X142705000Y-92045000D03*
%TD*%
D12*
%TO.P,J15,1,Pin_1*%
%TO.N,GND*%
X137625000Y-75845000D03*
D13*
%TO.P,J15,2,Pin_2*%
%TO.N,+5V*%
X140165000Y-75845000D03*
%TO.P,J15,3,Pin_3*%
%TO.N,/SERVO4*%
X142705000Y-75845000D03*
%TD*%
D12*
%TO.P,J12,1,Pin_1*%
%TO.N,GND*%
X137625000Y-87995000D03*
D13*
%TO.P,J12,2,Pin_2*%
%TO.N,+5V*%
X140165000Y-87995000D03*
%TO.P,J12,3,Pin_3*%
%TO.N,/SERVO1*%
X142705000Y-87995000D03*
%TD*%
D21*
%TO.P,SW1,1,1*%
%TO.N,+5V*%
X137376100Y-39495100D03*
%TO.P,SW1,2,2*%
X138646100Y-39495100D03*
%TO.P,SW1,3,3*%
X139916100Y-39495100D03*
%TO.P,SW1,4,4*%
X141186100Y-39495100D03*
%TO.P,SW1,5,5*%
X142456100Y-39495100D03*
%TO.P,SW1,6,6*%
X143726100Y-39495100D03*
%TO.P,SW1,7,7*%
X144996100Y-39495100D03*
%TO.P,SW1,8,8*%
X146266100Y-39495100D03*
%TO.P,SW1,9,9*%
%TO.N,unconnected-(SW1-Pad9)*%
X146266100Y-44803700D03*
%TO.P,SW1,10,10*%
%TO.N,unconnected-(SW1-Pad10)*%
X144996100Y-44803700D03*
%TO.P,SW1,11,11*%
%TO.N,/A5*%
X143726100Y-44803700D03*
%TO.P,SW1,12,12*%
%TO.N,/A4*%
X142456100Y-44803700D03*
%TO.P,SW1,13,13*%
%TO.N,/A3*%
X141186100Y-44803700D03*
%TO.P,SW1,14,14*%
%TO.N,/A2*%
X139916100Y-44803700D03*
%TO.P,SW1,15,15*%
%TO.N,/A1*%
X138646100Y-44803700D03*
%TO.P,SW1,16,16*%
%TO.N,/A0*%
X137376100Y-44803700D03*
%TD*%
D15*
%TO.P,J3,1,1*%
%TO.N,/EN1+*%
X181930000Y-39470000D03*
D16*
%TO.P,J3,2,2*%
%TO.N,/EN1-*%
X184430000Y-39470000D03*
%TO.P,J3,3,3*%
%TO.N,/EN1A*%
X186930000Y-39470000D03*
%TO.P,J3,4,4*%
%TO.N,/EN1B*%
X189430000Y-39470000D03*
%TD*%
D12*
%TO.P,J18,1,Pin_1*%
%TO.N,GND*%
X137625000Y-63695000D03*
D13*
%TO.P,J18,2,Pin_2*%
%TO.N,+5V*%
X140165000Y-63695000D03*
%TO.P,J18,3,Pin_3*%
%TO.N,/SERVO7*%
X142705000Y-63695000D03*
%TD*%
D22*
%TO.P,J6,1,1*%
%TO.N,/E_STOP*%
X151115000Y-48480000D03*
D23*
%TO.P,J6,2,2*%
%TO.N,/RxD*%
X153615000Y-48480000D03*
%TO.P,J6,3,3*%
%TO.N,/TxD*%
X156115000Y-48480000D03*
%TO.P,J6,4,4*%
%TO.N,/SDA*%
X158615000Y-48480000D03*
%TO.P,J6,5,5*%
%TO.N,/SCL*%
X161115000Y-48480000D03*
%TD*%
D20*
%TO.P,C3,1*%
%TO.N,+5V*%
X168510000Y-64485000D03*
%TO.P,C3,2*%
%TO.N,GND*%
X170060000Y-64485000D03*
%TD*%
D15*
%TO.P,J2,1,1*%
%TO.N,+5V*%
X166930000Y-39470000D03*
D16*
%TO.P,J2,2,2*%
%TO.N,GND*%
X169430000Y-39470000D03*
%TO.P,J2,3,3*%
%TO.N,/SCL*%
X171930000Y-39470000D03*
%TO.P,J2,4,4*%
%TO.N,/SDA*%
X174430000Y-39470000D03*
%TD*%
D24*
%TO.N,+5V*%
X146400000Y-54200000D03*
X178400000Y-49500000D03*
X174200000Y-69600000D03*
X168500000Y-62500000D03*
%TO.N,GND*%
X147000000Y-50000000D03*
D25*
X148100000Y-68700000D03*
D26*
X139700000Y-43300000D03*
D24*
X172500000Y-58250000D03*
D25*
X165500000Y-44300000D03*
D24*
X145750000Y-73250000D03*
D25*
X143250000Y-52500000D03*
D24*
X191750000Y-59000000D03*
X164750000Y-93750000D03*
X165200000Y-91200000D03*
X193250000Y-88500000D03*
X140700000Y-60200000D03*
X174000000Y-67250000D03*
X174500000Y-94000000D03*
X145500000Y-77500000D03*
X165000000Y-63200000D03*
X178750000Y-94250000D03*
X146750000Y-47500000D03*
X152000000Y-53750000D03*
X145750000Y-58500000D03*
X170100000Y-63100000D03*
X194000000Y-36250000D03*
X193750000Y-38250000D03*
X155143438Y-92535263D03*
X189500000Y-57000000D03*
D25*
X141750000Y-61250000D03*
D24*
X161500000Y-92000000D03*
X158706557Y-92277066D03*
X159500000Y-61500000D03*
D25*
X141325000Y-46575000D03*
D24*
X160250000Y-87000000D03*
X145750000Y-42250000D03*
X163250000Y-86750000D03*
D25*
X137675000Y-61275000D03*
D24*
X160500000Y-64500000D03*
D25*
X138250000Y-41500000D03*
D24*
X146250000Y-91750000D03*
X155500000Y-57500000D03*
X146000000Y-36500000D03*
D25*
X145200000Y-57300000D03*
D24*
X166000000Y-87000000D03*
X178000000Y-88000000D03*
X171750000Y-61500000D03*
X161000000Y-59750000D03*
D25*
X160250000Y-93750000D03*
D24*
X155750000Y-88500000D03*
X173250000Y-56000000D03*
X142500000Y-36500000D03*
X146250000Y-93750000D03*
X158389611Y-56091803D03*
X189750000Y-59250000D03*
X151750000Y-88250000D03*
X186900000Y-54800000D03*
X174250000Y-64500000D03*
D25*
X154750000Y-51250000D03*
X141100000Y-51700000D03*
D24*
X167000000Y-58000000D03*
X186900000Y-59700000D03*
X187100000Y-91100000D03*
X170250000Y-94250000D03*
X183500000Y-88000000D03*
X145000000Y-47500000D03*
X190000000Y-88250000D03*
X188500000Y-94000000D03*
X160250000Y-54500000D03*
X189750000Y-91250000D03*
X138750000Y-36250000D03*
X164800547Y-55908196D03*
X183750000Y-94250000D03*
X166250000Y-61750000D03*
X163250000Y-57750000D03*
%TO.N,+12V*%
X174900000Y-59700000D03*
D25*
%TO.N,/SCL*%
X156900000Y-45500000D03*
%TO.N,/EN1A*%
X168500000Y-45100000D03*
%TO.N,/EN1B*%
X174300000Y-61200000D03*
%TO.N,/EN2+*%
X166750000Y-52800000D03*
X176825000Y-51175000D03*
%TO.N,/EN2-*%
X170000000Y-53700000D03*
X177000000Y-48400000D03*
%TO.N,/EN2A*%
X163975000Y-50625000D03*
X157725000Y-50625000D03*
%TO.N,/EN2B*%
X159200000Y-65100000D03*
X169800000Y-54900000D03*
%TO.N,/SERVO0*%
X140000000Y-57400000D03*
%TO.N,/SERVO1*%
X140700000Y-58000000D03*
%TO.N,/SERVO2*%
X141314195Y-57488171D03*
%TO.N,/SERVO4*%
X144900000Y-75800000D03*
%TO.N,/SERVO5*%
X145599500Y-71800000D03*
%TO.N,/SERVO6*%
X146244500Y-67745000D03*
%TO.N,/SERVO7*%
X144500000Y-58000000D03*
X142700000Y-61400000D03*
%TO.N,/A0*%
X135400000Y-44600000D03*
%TO.N,/A1*%
X138650000Y-42450000D03*
%TO.N,/A2*%
X136500000Y-53100000D03*
%TO.N,/A3*%
X138650457Y-54580945D03*
%TO.N,/A4*%
X139800000Y-54400000D03*
%TO.N,/A5*%
X143700000Y-46700000D03*
%TO.N,/E_STOP*%
X142800000Y-53500000D03*
%TD*%
D27*
%TO.N,+5V*%
X151904900Y-39495100D02*
X151930000Y-39470000D01*
X146266100Y-39495100D02*
X151904900Y-39495100D01*
X168500000Y-62500000D02*
X168500000Y-64475000D01*
X166930000Y-41630000D02*
X166930000Y-39470000D01*
X153100000Y-36600000D02*
X165700000Y-36600000D01*
X178300000Y-49400000D02*
X178300000Y-47500000D01*
X165700000Y-36600000D02*
X166930000Y-37830000D01*
D28*
X146400000Y-54200000D02*
X146400000Y-52500000D01*
D27*
X178300000Y-47500000D02*
X176400000Y-45600000D01*
X137376100Y-39495100D02*
X146266100Y-39495100D01*
X168510000Y-69600000D02*
X168490000Y-69580000D01*
D28*
X148200000Y-50700000D02*
X148200000Y-45900000D01*
X146400000Y-52500000D02*
X148200000Y-50700000D01*
D29*
X168490000Y-69290000D02*
X167800000Y-68600000D01*
D27*
X168490000Y-69580000D02*
X168490000Y-64505000D01*
X166930000Y-37830000D02*
X166930000Y-39470000D01*
D28*
X151930000Y-42170000D02*
X151930000Y-39470000D01*
D27*
X170900000Y-45600000D02*
X166930000Y-41630000D01*
X178400000Y-49500000D02*
X178300000Y-49400000D01*
D28*
X148200000Y-45900000D02*
X151930000Y-42170000D01*
D27*
X168500000Y-64475000D02*
X168510000Y-64485000D01*
X174200000Y-69600000D02*
X168510000Y-69600000D01*
X176400000Y-45600000D02*
X170900000Y-45600000D01*
X151930000Y-37770000D02*
X153100000Y-36600000D01*
D29*
X168490000Y-64505000D02*
X168510000Y-64485000D01*
D27*
X151930000Y-39470000D02*
X151930000Y-37770000D01*
D30*
%TO.N,GND*%
X141080000Y-51680000D02*
X141100000Y-51700000D01*
D28*
X165950000Y-86950000D02*
X166000000Y-87000000D01*
X164990000Y-63210000D02*
X165000000Y-63200000D01*
D31*
X165950000Y-79856000D02*
X165950000Y-86950000D01*
D30*
X139825000Y-51680000D02*
X138235000Y-51680000D01*
D27*
X170060000Y-63140000D02*
X170060000Y-64485000D01*
D28*
X170100000Y-63100000D02*
X170060000Y-63140000D01*
D30*
X139825000Y-51680000D02*
X141080000Y-51680000D01*
D27*
X164990000Y-64505000D02*
X164990000Y-63210000D01*
%TO.N,+12V*%
X174900000Y-59700000D02*
X169200000Y-59700000D01*
X168500000Y-59700000D02*
X167800000Y-59700000D01*
X163410000Y-69580000D02*
X163410000Y-64535000D01*
X163440000Y-61760000D02*
X163440000Y-64505000D01*
X168490000Y-59690000D02*
X168490000Y-59000000D01*
X167800000Y-59700000D02*
X165500000Y-59700000D01*
X168490000Y-59000000D02*
X168500000Y-59000000D01*
D32*
X163410000Y-64535000D02*
X163440000Y-64505000D01*
D27*
X168500000Y-59000000D02*
X169200000Y-59700000D01*
X168500000Y-59700000D02*
X168490000Y-59690000D01*
X165500000Y-59700000D02*
X163440000Y-61760000D01*
X168490000Y-59000000D02*
X168490000Y-49080000D01*
X169200000Y-59700000D02*
X168500000Y-59700000D01*
X168500000Y-59000000D02*
X167800000Y-59700000D01*
D32*
%TO.N,/SCL*%
X159800000Y-45500000D02*
X161115000Y-46815000D01*
X156900000Y-45500000D02*
X156930000Y-45470000D01*
X156900000Y-45500000D02*
X159800000Y-45500000D01*
X161115000Y-46815000D02*
X161115000Y-48480000D01*
X156930000Y-45470000D02*
X156930000Y-39470000D01*
%TO.N,/EN1A*%
X167800000Y-45100000D02*
X165000000Y-47900000D01*
X168500000Y-45100000D02*
X167800000Y-45100000D01*
X149125000Y-67975000D02*
X151420000Y-70270000D01*
X165000000Y-51025000D02*
X163400000Y-52625000D01*
X163400000Y-52625000D02*
X156125000Y-52625000D01*
X149125000Y-59625000D02*
X149125000Y-67975000D01*
X165000000Y-47900000D02*
X165000000Y-51025000D01*
X156125000Y-52625000D02*
X149125000Y-59625000D01*
X151420000Y-70270000D02*
X152810000Y-70270000D01*
%TO.N,/EN1B*%
X192370000Y-39470000D02*
X189430000Y-39470000D01*
X174300000Y-61200000D02*
X193800000Y-61200000D01*
X193800000Y-61200000D02*
X194200000Y-60800000D01*
X194200000Y-60800000D02*
X194200000Y-41300000D01*
X194200000Y-41300000D02*
X192370000Y-39470000D01*
%TO.N,/EN2+*%
X152000000Y-58950000D02*
X159225000Y-58950000D01*
X149875000Y-66400000D02*
X149875000Y-61075000D01*
X159225000Y-58950000D02*
X165375000Y-52800000D01*
X151205000Y-67730000D02*
X149875000Y-66400000D01*
X176825000Y-51175000D02*
X180425000Y-51175000D01*
X181880000Y-49720000D02*
X181880000Y-48480000D01*
X149875000Y-61075000D02*
X152000000Y-58950000D01*
X180425000Y-51175000D02*
X181880000Y-49720000D01*
X165375000Y-52800000D02*
X166750000Y-52800000D01*
X152810000Y-67730000D02*
X151205000Y-67730000D01*
%TO.N,/EN2-*%
X170000000Y-53700000D02*
X172600000Y-53700000D01*
X172600000Y-53700000D02*
X177000000Y-49300000D01*
X177000000Y-49300000D02*
X177000000Y-48400000D01*
%TO.N,/EN2A*%
X157725000Y-50625000D02*
X163200000Y-50625000D01*
X163200000Y-50625000D02*
X163975000Y-50625000D01*
%TO.N,/EN2B*%
X159200000Y-65100000D02*
X159200000Y-70600000D01*
X189380000Y-48480000D02*
X189380000Y-54920000D01*
X169800000Y-56300000D02*
X169800000Y-54900000D01*
X159200000Y-70600000D02*
X156990000Y-72810000D01*
X156990000Y-72810000D02*
X155350000Y-72810000D01*
X187100000Y-57200000D02*
X170700000Y-57200000D01*
X170700000Y-57200000D02*
X169800000Y-56300000D01*
X189380000Y-54920000D02*
X187100000Y-57200000D01*
%TO.N,/TxD*%
X147400000Y-77500000D02*
X147400000Y-55100000D01*
X155600000Y-50400000D02*
X156115000Y-49885000D01*
X150270000Y-77890000D02*
X147790000Y-77890000D01*
X156115000Y-49885000D02*
X156115000Y-48480000D01*
X152100000Y-50400000D02*
X155600000Y-50400000D01*
X147790000Y-77890000D02*
X147400000Y-77500000D01*
X147400000Y-55100000D02*
X152100000Y-50400000D01*
D29*
%TO.N,/SERVO0*%
X135750000Y-94525000D02*
X135225000Y-94000000D01*
X142225000Y-94525000D02*
X135750000Y-94525000D01*
X142705000Y-94045000D02*
X142225000Y-94525000D01*
X135225000Y-58075000D02*
X135900000Y-57400000D01*
X135225000Y-94000000D02*
X135225000Y-58075000D01*
X135900000Y-57400000D02*
X140000000Y-57400000D01*
X142705000Y-92045000D02*
X142705000Y-94045000D01*
D32*
%TO.N,/SERVO1*%
X136100000Y-89900000D02*
X135600000Y-89400000D01*
X142200000Y-89900000D02*
X136100000Y-89900000D01*
X136500000Y-58000000D02*
X140700000Y-58000000D01*
X135600000Y-89400000D02*
X135600000Y-58900000D01*
X135600000Y-58900000D02*
X136500000Y-58000000D01*
X142705000Y-89395000D02*
X142200000Y-89900000D01*
X142705000Y-87995000D02*
X142705000Y-89395000D01*
%TO.N,/SERVO2*%
X136100000Y-59200000D02*
X136100000Y-85400000D01*
X136700000Y-86000000D02*
X142400000Y-86000000D01*
X142705000Y-85695000D02*
X142705000Y-83945000D01*
X136100000Y-85400000D02*
X136700000Y-86000000D01*
X141314195Y-58285805D02*
X141000000Y-58600000D01*
X142400000Y-86000000D02*
X142705000Y-85695000D01*
X141000000Y-58600000D02*
X136700000Y-58600000D01*
X141314195Y-57488171D02*
X141314195Y-58285805D01*
X136700000Y-58600000D02*
X136100000Y-59200000D01*
%TO.N,/SERVO4*%
X142705000Y-75845000D02*
X144855000Y-75845000D01*
X144855000Y-75845000D02*
X144900000Y-75800000D01*
%TO.N,/SERVO5*%
X145594500Y-71795000D02*
X142705000Y-71795000D01*
X145599500Y-71800000D02*
X145594500Y-71795000D01*
%TO.N,/SERVO6*%
X146244500Y-67745000D02*
X142705000Y-67745000D01*
%TO.N,/SERVO7*%
X144500000Y-58000000D02*
X144500000Y-58900000D01*
X144500000Y-58900000D02*
X142700000Y-60700000D01*
X142700000Y-60700000D02*
X142700000Y-61400000D01*
%TO.N,/A0*%
X135400000Y-44600000D02*
X137172400Y-44600000D01*
X137172400Y-44600000D02*
X137376100Y-44803700D01*
%TO.N,/A1*%
X138650000Y-42450000D02*
X138646100Y-42453900D01*
X138646100Y-42453900D02*
X138646100Y-44803700D01*
%TO.N,/A2*%
X137000000Y-46100000D02*
X139600000Y-46100000D01*
X139916100Y-45783900D02*
X139916100Y-44803700D01*
X136500000Y-53100000D02*
X136500000Y-46600000D01*
X136500000Y-46600000D02*
X137000000Y-46100000D01*
X139600000Y-46100000D02*
X139916100Y-45783900D01*
%TO.N,/A3*%
X141186100Y-44803700D02*
X141186100Y-45813900D01*
D30*
X138650457Y-54250457D02*
X138300000Y-53900000D01*
D32*
X141186100Y-45813900D02*
X140400000Y-46600000D01*
X140400000Y-46600000D02*
X137900000Y-46600000D01*
X137000000Y-52700000D02*
X137630000Y-53330000D01*
D30*
X138300000Y-53395000D02*
X138235000Y-53330000D01*
D32*
X137000000Y-47500000D02*
X137000000Y-52700000D01*
X137900000Y-46600000D02*
X137000000Y-47500000D01*
D30*
X138300000Y-53900000D02*
X138300000Y-53395000D01*
D32*
X137630000Y-53330000D02*
X138235000Y-53330000D01*
D30*
X138650457Y-54580945D02*
X138650457Y-54250457D01*
%TO.N,/A4*%
X140670000Y-53330000D02*
X142456100Y-51543900D01*
X139825000Y-53330000D02*
X140670000Y-53330000D01*
X139800000Y-54400000D02*
X139800000Y-53355000D01*
X142456100Y-51543900D02*
X142456100Y-44803700D01*
X139800000Y-53355000D02*
X139825000Y-53330000D01*
%TO.N,/A5*%
X143700000Y-46700000D02*
X143700000Y-44829800D01*
X143700000Y-44829800D02*
X143726100Y-44803700D01*
D32*
%TO.N,/E_STOP*%
X142800000Y-53500000D02*
X143500000Y-53500000D01*
X146844500Y-79744500D02*
X147530000Y-80430000D01*
X145700000Y-56500000D02*
X146844500Y-57644500D01*
X145700000Y-55000000D02*
X145700000Y-56500000D01*
X147530000Y-80430000D02*
X150270000Y-80430000D01*
X143500000Y-53500000D02*
X144200000Y-54200000D01*
X144900000Y-54200000D02*
X145700000Y-55000000D01*
X146844500Y-57644500D02*
X146844500Y-79744500D01*
X144200000Y-54200000D02*
X144900000Y-54200000D01*
%TD*%
M02*
