%TF.GenerationSoftware,KiCad,Pcbnew,7.0.7*%
%TF.CreationDate,2023-11-07T21:11:49-05:00*%
%TF.ProjectId,attachmentBoard,61747461-6368-46d6-956e-74426f617264,rev?*%
%TF.SameCoordinates,Original*%
%TF.FileFunction,Drillmap*%
%TF.FilePolarity,Positive*%
%FSLAX45Y45*%
G04 Gerber Fmt 4.5, Leading zero omitted, Abs format (unit mm)*
G04 Created by KiCad (PCBNEW 7.0.7) date 2023-11-07 21:11:49*
%MOMM*%
%LPD*%
G01*
G04 APERTURE LIST*
%ADD10C,0.100000*%
%ADD11C,0.200000*%
%ADD12C,0.030000*%
%ADD13C,0.040000*%
%ADD14C,0.050000*%
%ADD15C,0.090000*%
%ADD16C,0.110000*%
%ADD17C,0.270000*%
G04 APERTURE END LIST*
D10*
X19500000Y-6200000D02*
X17600000Y-6200000D01*
X19500000Y-6200000D02*
X19500000Y-6200000D01*
X13490000Y-9500000D02*
X19500000Y-9500000D01*
X13490000Y-3500000D02*
X13490000Y-9500000D01*
X19500000Y-9500000D02*
X19500000Y-8700000D01*
X17600000Y-6200000D02*
X17600000Y-8700000D01*
X19500000Y-3500000D02*
X19500000Y-6200000D01*
X13490000Y-3500000D02*
X19500000Y-3500000D01*
X19500000Y-8700000D02*
X17600000Y-8700000D01*
D11*
D12*
X13525000Y-4445000D02*
X13555000Y-4475000D01*
X13555000Y-4445000D02*
X13525000Y-4475000D01*
X13635000Y-5295000D02*
X13665000Y-5325000D01*
X13665000Y-5295000D02*
X13635000Y-5325000D01*
X13752500Y-6112500D02*
X13782500Y-6142500D01*
X13782500Y-6112500D02*
X13752500Y-6142500D01*
X13810000Y-4135000D02*
X13840000Y-4165000D01*
X13840000Y-4135000D02*
X13810000Y-4165000D01*
X13850000Y-4230000D02*
X13880000Y-4260000D01*
X13880000Y-4230000D02*
X13850000Y-4260000D01*
X13850046Y-5443095D02*
X13880046Y-5473095D01*
X13880046Y-5443095D02*
X13850046Y-5473095D01*
X13965000Y-5425000D02*
X13995000Y-5455000D01*
X13995000Y-5425000D02*
X13965000Y-5455000D01*
X13985000Y-5725000D02*
X14015000Y-5755000D01*
X14015000Y-5725000D02*
X13985000Y-5755000D01*
X14055000Y-5785000D02*
X14085000Y-5815000D01*
X14085000Y-5785000D02*
X14055000Y-5815000D01*
X14095000Y-5155000D02*
X14125000Y-5185000D01*
X14125000Y-5155000D02*
X14095000Y-5185000D01*
X14116419Y-5733817D02*
X14146419Y-5763817D01*
X14146419Y-5733817D02*
X14116419Y-5763817D01*
X14117500Y-4642500D02*
X14147500Y-4672500D01*
X14147500Y-4642500D02*
X14117500Y-4672500D01*
X14160000Y-6110000D02*
X14190000Y-6140000D01*
X14190000Y-6110000D02*
X14160000Y-6140000D01*
X14255000Y-6125000D02*
X14285000Y-6155000D01*
X14285000Y-6125000D02*
X14255000Y-6155000D01*
X14265000Y-5335000D02*
X14295000Y-5365000D01*
X14295000Y-5335000D02*
X14265000Y-5365000D01*
X14310000Y-5235000D02*
X14340000Y-5265000D01*
X14340000Y-5235000D02*
X14310000Y-5265000D01*
X14355000Y-4655000D02*
X14385000Y-4685000D01*
X14385000Y-4655000D02*
X14355000Y-4685000D01*
X14435000Y-5785000D02*
X14465000Y-5815000D01*
X14465000Y-5785000D02*
X14435000Y-5815000D01*
X14475000Y-7565000D02*
X14505000Y-7595000D01*
X14505000Y-7565000D02*
X14475000Y-7595000D01*
X14505000Y-5715000D02*
X14535000Y-5745000D01*
X14535000Y-5715000D02*
X14505000Y-5745000D01*
X14544950Y-7165000D02*
X14574950Y-7195000D01*
X14574950Y-7165000D02*
X14544950Y-7195000D01*
X14609450Y-6759500D02*
X14639450Y-6789500D01*
X14639450Y-6759500D02*
X14609450Y-6789500D01*
X14795000Y-6855000D02*
X14825000Y-6885000D01*
X14825000Y-6855000D02*
X14795000Y-6885000D01*
X15460000Y-5110000D02*
X15490000Y-5140000D01*
X15490000Y-5110000D02*
X15460000Y-5140000D01*
X15675000Y-4535000D02*
X15705000Y-4565000D01*
X15705000Y-4535000D02*
X15675000Y-4565000D01*
X15757500Y-5047500D02*
X15787500Y-5077500D01*
X15787500Y-5047500D02*
X15757500Y-5077500D01*
X15905000Y-6495000D02*
X15935000Y-6525000D01*
X15935000Y-6495000D02*
X15905000Y-6525000D01*
X16010000Y-9360000D02*
X16040000Y-9390000D01*
X16040000Y-9360000D02*
X16010000Y-9390000D01*
X16382500Y-5047500D02*
X16412500Y-5077500D01*
X16412500Y-5047500D02*
X16382500Y-5077500D01*
X16535000Y-4415000D02*
X16565000Y-4445000D01*
X16565000Y-4415000D02*
X16535000Y-4445000D01*
X16660000Y-5265000D02*
X16690000Y-5295000D01*
X16690000Y-5265000D02*
X16660000Y-5295000D01*
X16835000Y-4495000D02*
X16865000Y-4525000D01*
X16865000Y-4495000D02*
X16835000Y-4525000D01*
X16965000Y-5475000D02*
X16995000Y-5505000D01*
X16995000Y-5475000D02*
X16965000Y-5505000D01*
X16985000Y-5355000D02*
X17015000Y-5385000D01*
X17015000Y-5355000D02*
X16985000Y-5385000D01*
X17415000Y-6105000D02*
X17445000Y-6135000D01*
X17445000Y-6105000D02*
X17415000Y-6135000D01*
X17667500Y-5102500D02*
X17697500Y-5132500D01*
X17697500Y-5102500D02*
X17667500Y-5132500D01*
X17685000Y-4825000D02*
X17715000Y-4855000D01*
X17715000Y-4825000D02*
X17685000Y-4855000D01*
D13*
X13990000Y-4330000D02*
G75*
G03*
X13990000Y-4330000I-20000J0D01*
G01*
D14*
X13875000Y-3600000D02*
X13875000Y-3650000D01*
X13850000Y-3625000D02*
X13900000Y-3625000D01*
X14070000Y-5995000D02*
X14070000Y-6045000D01*
X14045000Y-6020000D02*
X14095000Y-6020000D01*
X14250000Y-3625000D02*
X14250000Y-3675000D01*
X14225000Y-3650000D02*
X14275000Y-3650000D01*
X14500000Y-4725000D02*
X14500000Y-4775000D01*
X14475000Y-4750000D02*
X14525000Y-4750000D01*
X14550000Y-7725000D02*
X14550000Y-7775000D01*
X14525000Y-7750000D02*
X14575000Y-7750000D01*
X14575000Y-4200000D02*
X14575000Y-4250000D01*
X14550000Y-4225000D02*
X14600000Y-4225000D01*
X14575000Y-5825000D02*
X14575000Y-5875000D01*
X14550000Y-5850000D02*
X14600000Y-5850000D01*
X14575000Y-7300000D02*
X14575000Y-7350000D01*
X14550000Y-7325000D02*
X14600000Y-7325000D01*
X14600000Y-3625000D02*
X14600000Y-3675000D01*
X14575000Y-3650000D02*
X14625000Y-3650000D01*
X14625000Y-9150000D02*
X14625000Y-9200000D01*
X14600000Y-9175000D02*
X14650000Y-9175000D01*
X14625000Y-9350000D02*
X14625000Y-9400000D01*
X14600000Y-9375000D02*
X14650000Y-9375000D01*
X14640000Y-5395000D02*
X14640000Y-5445000D01*
X14615000Y-5420000D02*
X14665000Y-5420000D01*
X14675000Y-4725000D02*
X14675000Y-4775000D01*
X14650000Y-4750000D02*
X14700000Y-4750000D01*
X14700000Y-4975000D02*
X14700000Y-5025000D01*
X14675000Y-5000000D02*
X14725000Y-5000000D01*
X15175000Y-8800000D02*
X15175000Y-8850000D01*
X15150000Y-8825000D02*
X15200000Y-8825000D01*
X15200000Y-5350000D02*
X15200000Y-5400000D01*
X15175000Y-5375000D02*
X15225000Y-5375000D01*
X15514344Y-9228526D02*
X15514344Y-9278526D01*
X15489344Y-9253526D02*
X15539344Y-9253526D01*
X15550000Y-5725000D02*
X15550000Y-5775000D01*
X15525000Y-5750000D02*
X15575000Y-5750000D01*
X15575000Y-8825000D02*
X15575000Y-8875000D01*
X15550000Y-8850000D02*
X15600000Y-8850000D01*
X15838961Y-5584180D02*
X15838961Y-5634180D01*
X15813961Y-5609180D02*
X15863961Y-5609180D01*
X15870656Y-9202707D02*
X15870656Y-9252707D01*
X15845656Y-9227707D02*
X15895656Y-9227707D01*
X15950000Y-6125000D02*
X15950000Y-6175000D01*
X15925000Y-6150000D02*
X15975000Y-6150000D01*
X16025000Y-5425000D02*
X16025000Y-5475000D01*
X16000000Y-5450000D02*
X16050000Y-5450000D01*
X16025000Y-8675000D02*
X16025000Y-8725000D01*
X16000000Y-8700000D02*
X16050000Y-8700000D01*
X16050000Y-6425000D02*
X16050000Y-6475000D01*
X16025000Y-6450000D02*
X16075000Y-6450000D01*
X16100000Y-5950000D02*
X16100000Y-6000000D01*
X16075000Y-5975000D02*
X16125000Y-5975000D01*
X16150000Y-9175000D02*
X16150000Y-9225000D01*
X16125000Y-9200000D02*
X16175000Y-9200000D01*
X16325000Y-5750000D02*
X16325000Y-5800000D01*
X16300000Y-5775000D02*
X16350000Y-5775000D01*
X16325000Y-8650000D02*
X16325000Y-8700000D01*
X16300000Y-8675000D02*
X16350000Y-8675000D01*
X16475000Y-9350000D02*
X16475000Y-9400000D01*
X16450000Y-9375000D02*
X16500000Y-9375000D01*
X16480055Y-5565820D02*
X16480055Y-5615820D01*
X16455055Y-5590820D02*
X16505055Y-5590820D01*
X16500000Y-6295000D02*
X16500000Y-6345000D01*
X16475000Y-6320000D02*
X16525000Y-6320000D01*
X16520000Y-9095000D02*
X16520000Y-9145000D01*
X16495000Y-9120000D02*
X16545000Y-9120000D01*
X16600000Y-8675000D02*
X16600000Y-8725000D01*
X16575000Y-8700000D02*
X16625000Y-8700000D01*
X16625000Y-6150000D02*
X16625000Y-6200000D01*
X16600000Y-6175000D02*
X16650000Y-6175000D01*
X16700000Y-5775000D02*
X16700000Y-5825000D01*
X16675000Y-5800000D02*
X16725000Y-5800000D01*
X16850000Y-6225000D02*
X16850000Y-6275000D01*
X16825000Y-6250000D02*
X16875000Y-6250000D01*
X17010000Y-6285000D02*
X17010000Y-6335000D01*
X16985000Y-6310000D02*
X17035000Y-6310000D01*
X17025000Y-9400000D02*
X17025000Y-9450000D01*
X17000000Y-9425000D02*
X17050000Y-9425000D01*
X17175000Y-6125000D02*
X17175000Y-6175000D01*
X17150000Y-6150000D02*
X17200000Y-6150000D01*
X17250000Y-5800000D02*
X17250000Y-5850000D01*
X17225000Y-5825000D02*
X17275000Y-5825000D01*
X17325000Y-5575000D02*
X17325000Y-5625000D01*
X17300000Y-5600000D02*
X17350000Y-5600000D01*
X17400000Y-6700000D02*
X17400000Y-6750000D01*
X17375000Y-6725000D02*
X17425000Y-6725000D01*
X17420000Y-6935000D02*
X17420000Y-6985000D01*
X17395000Y-6960000D02*
X17445000Y-6960000D01*
X17425000Y-6425000D02*
X17425000Y-6475000D01*
X17400000Y-6450000D02*
X17450000Y-6450000D01*
X17450000Y-9375000D02*
X17450000Y-9425000D01*
X17425000Y-9400000D02*
X17475000Y-9400000D01*
X17490000Y-5945000D02*
X17490000Y-5995000D01*
X17465000Y-5970000D02*
X17515000Y-5970000D01*
X17800000Y-8775000D02*
X17800000Y-8825000D01*
X17775000Y-8800000D02*
X17825000Y-8800000D01*
X17840000Y-4925000D02*
X17840000Y-4975000D01*
X17815000Y-4950000D02*
X17865000Y-4950000D01*
X17875000Y-9400000D02*
X17875000Y-9450000D01*
X17850000Y-9425000D02*
X17900000Y-9425000D01*
X18350000Y-8775000D02*
X18350000Y-8825000D01*
X18325000Y-8800000D02*
X18375000Y-8800000D01*
X18375000Y-9400000D02*
X18375000Y-9450000D01*
X18350000Y-9425000D02*
X18400000Y-9425000D01*
X18690000Y-5455000D02*
X18690000Y-5505000D01*
X18665000Y-5480000D02*
X18715000Y-5480000D01*
X18690000Y-5945000D02*
X18690000Y-5995000D01*
X18665000Y-5970000D02*
X18715000Y-5970000D01*
X18710000Y-9085000D02*
X18710000Y-9135000D01*
X18685000Y-9110000D02*
X18735000Y-9110000D01*
X18850000Y-9375000D02*
X18850000Y-9425000D01*
X18825000Y-9400000D02*
X18875000Y-9400000D01*
X18950000Y-5675000D02*
X18950000Y-5725000D01*
X18925000Y-5700000D02*
X18975000Y-5700000D01*
X18975000Y-5900000D02*
X18975000Y-5950000D01*
X18950000Y-5925000D02*
X19000000Y-5925000D01*
X18975000Y-9100000D02*
X18975000Y-9150000D01*
X18950000Y-9125000D02*
X19000000Y-9125000D01*
X19000000Y-8800000D02*
X19000000Y-8850000D01*
X18975000Y-8825000D02*
X19025000Y-8825000D01*
X19175000Y-5875000D02*
X19175000Y-5925000D01*
X19150000Y-5900000D02*
X19200000Y-5900000D01*
X19325000Y-8825000D02*
X19325000Y-8875000D01*
X19300000Y-8850000D02*
X19350000Y-8850000D01*
X19375000Y-3800000D02*
X19375000Y-3850000D01*
X19350000Y-3825000D02*
X19400000Y-3825000D01*
X19400000Y-3600000D02*
X19400000Y-3650000D01*
X19375000Y-3625000D02*
X19425000Y-3625000D01*
D15*
X15224820Y-3978820D02*
X15224820Y-3915180D01*
X15161180Y-3915180D01*
X15161180Y-3978820D01*
X15224820Y-3978820D01*
X15474820Y-3978820D02*
X15474820Y-3915180D01*
X15411180Y-3915180D01*
X15411180Y-3978820D01*
X15474820Y-3978820D01*
X15724820Y-3978820D02*
X15724820Y-3915180D01*
X15661180Y-3915180D01*
X15661180Y-3978820D01*
X15724820Y-3978820D01*
X15974820Y-3978820D02*
X15974820Y-3915180D01*
X15911180Y-3915180D01*
X15911180Y-3978820D01*
X15974820Y-3978820D01*
X16724820Y-3978820D02*
X16724820Y-3915180D01*
X16661180Y-3915180D01*
X16661180Y-3978820D01*
X16724820Y-3978820D01*
X16974820Y-3978820D02*
X16974820Y-3915180D01*
X16911180Y-3915180D01*
X16911180Y-3978820D01*
X16974820Y-3978820D01*
X17224820Y-3978820D02*
X17224820Y-3915180D01*
X17161180Y-3915180D01*
X17161180Y-3978820D01*
X17224820Y-3978820D01*
X17474820Y-3978820D02*
X17474820Y-3915180D01*
X17411180Y-3915180D01*
X17411180Y-3978820D01*
X17474820Y-3978820D01*
X18219820Y-4879820D02*
X18219820Y-4816180D01*
X18156180Y-4816180D01*
X18156180Y-4879820D01*
X18219820Y-4879820D01*
X18224820Y-3978820D02*
X18224820Y-3915180D01*
X18161180Y-3915180D01*
X18161180Y-3978820D01*
X18224820Y-3978820D01*
X18469820Y-4879820D02*
X18469820Y-4816180D01*
X18406180Y-4816180D01*
X18406180Y-4879820D01*
X18469820Y-4879820D01*
X18474820Y-3978820D02*
X18474820Y-3915180D01*
X18411180Y-3915180D01*
X18411180Y-3978820D01*
X18474820Y-3978820D01*
X18719820Y-4879820D02*
X18719820Y-4816180D01*
X18656180Y-4816180D01*
X18656180Y-4879820D01*
X18719820Y-4879820D01*
X18724820Y-3978820D02*
X18724820Y-3915180D01*
X18661180Y-3915180D01*
X18661180Y-3978820D01*
X18724820Y-3978820D01*
X18969820Y-4879820D02*
X18969820Y-4816180D01*
X18906180Y-4816180D01*
X18906180Y-4879820D01*
X18969820Y-4879820D01*
X18974820Y-3978820D02*
X18974820Y-3915180D01*
X18911180Y-3915180D01*
X18911180Y-3978820D01*
X18974820Y-3978820D01*
D10*
X13762500Y-6419500D02*
X13812500Y-6369500D01*
X13762500Y-6319500D01*
X13712500Y-6369500D01*
X13762500Y-6419500D01*
X13762500Y-6824500D02*
X13812500Y-6774500D01*
X13762500Y-6724500D01*
X13712500Y-6774500D01*
X13762500Y-6824500D01*
X13762500Y-7229500D02*
X13812500Y-7179500D01*
X13762500Y-7129500D01*
X13712500Y-7179500D01*
X13762500Y-7229500D01*
X13762500Y-7634500D02*
X13812500Y-7584500D01*
X13762500Y-7534500D01*
X13712500Y-7584500D01*
X13762500Y-7634500D01*
X13762500Y-8039500D02*
X13812500Y-7989500D01*
X13762500Y-7939500D01*
X13712500Y-7989500D01*
X13762500Y-8039500D01*
X13762500Y-8444500D02*
X13812500Y-8394500D01*
X13762500Y-8344500D01*
X13712500Y-8394500D01*
X13762500Y-8444500D01*
X13762500Y-8849500D02*
X13812500Y-8799500D01*
X13762500Y-8749500D01*
X13712500Y-8799500D01*
X13762500Y-8849500D01*
X13762500Y-9254500D02*
X13812500Y-9204500D01*
X13762500Y-9154500D01*
X13712500Y-9204500D01*
X13762500Y-9254500D01*
X14016500Y-6419500D02*
X14066500Y-6369500D01*
X14016500Y-6319500D01*
X13966500Y-6369500D01*
X14016500Y-6419500D01*
X14016500Y-6824500D02*
X14066500Y-6774500D01*
X14016500Y-6724500D01*
X13966500Y-6774500D01*
X14016500Y-6824500D01*
X14016500Y-7229500D02*
X14066500Y-7179500D01*
X14016500Y-7129500D01*
X13966500Y-7179500D01*
X14016500Y-7229500D01*
X14016500Y-7634500D02*
X14066500Y-7584500D01*
X14016500Y-7534500D01*
X13966500Y-7584500D01*
X14016500Y-7634500D01*
X14016500Y-8039500D02*
X14066500Y-7989500D01*
X14016500Y-7939500D01*
X13966500Y-7989500D01*
X14016500Y-8039500D01*
X14016500Y-8444500D02*
X14066500Y-8394500D01*
X14016500Y-8344500D01*
X13966500Y-8394500D01*
X14016500Y-8444500D01*
X14016500Y-8849500D02*
X14066500Y-8799500D01*
X14016500Y-8749500D01*
X13966500Y-8799500D01*
X14016500Y-8849500D01*
X14016500Y-9254500D02*
X14066500Y-9204500D01*
X14016500Y-9154500D01*
X13966500Y-9204500D01*
X14016500Y-9254500D01*
X14270500Y-6419500D02*
X14320500Y-6369500D01*
X14270500Y-6319500D01*
X14220500Y-6369500D01*
X14270500Y-6419500D01*
X14270500Y-6824500D02*
X14320500Y-6774500D01*
X14270500Y-6724500D01*
X14220500Y-6774500D01*
X14270500Y-6824500D01*
X14270500Y-7229500D02*
X14320500Y-7179500D01*
X14270500Y-7129500D01*
X14220500Y-7179500D01*
X14270500Y-7229500D01*
X14270500Y-7634500D02*
X14320500Y-7584500D01*
X14270500Y-7534500D01*
X14220500Y-7584500D01*
X14270500Y-7634500D01*
X14270500Y-8039500D02*
X14320500Y-7989500D01*
X14270500Y-7939500D01*
X14220500Y-7989500D01*
X14270500Y-8039500D01*
X14270500Y-8444500D02*
X14320500Y-8394500D01*
X14270500Y-8344500D01*
X14220500Y-8394500D01*
X14270500Y-8444500D01*
X14270500Y-8849500D02*
X14320500Y-8799500D01*
X14270500Y-8749500D01*
X14220500Y-8799500D01*
X14270500Y-8849500D01*
X14270500Y-9254500D02*
X14320500Y-9204500D01*
X14270500Y-9154500D01*
X14220500Y-9204500D01*
X14270500Y-9254500D01*
X15027000Y-7605000D02*
X15077000Y-7555000D01*
X15027000Y-7505000D01*
X14977000Y-7555000D01*
X15027000Y-7605000D01*
X15027000Y-7859000D02*
X15077000Y-7809000D01*
X15027000Y-7759000D01*
X14977000Y-7809000D01*
X15027000Y-7859000D01*
X15027000Y-8113000D02*
X15077000Y-8063000D01*
X15027000Y-8013000D01*
X14977000Y-8063000D01*
X15027000Y-8113000D01*
X15027000Y-8367000D02*
X15077000Y-8317000D01*
X15027000Y-8267000D01*
X14977000Y-8317000D01*
X15027000Y-8367000D01*
X15027000Y-8621000D02*
X15077000Y-8571000D01*
X15027000Y-8521000D01*
X14977000Y-8571000D01*
X15027000Y-8621000D01*
X15291000Y-6335000D02*
X15341000Y-6285000D01*
X15291000Y-6235000D01*
X15241000Y-6285000D01*
X15291000Y-6335000D01*
X15291000Y-6589000D02*
X15341000Y-6539000D01*
X15291000Y-6489000D01*
X15241000Y-6539000D01*
X15291000Y-6589000D01*
X15291000Y-6843000D02*
X15341000Y-6793000D01*
X15291000Y-6743000D01*
X15241000Y-6793000D01*
X15291000Y-6843000D01*
X15291000Y-7097000D02*
X15341000Y-7047000D01*
X15291000Y-6997000D01*
X15241000Y-7047000D01*
X15291000Y-7097000D01*
X15291000Y-7351000D02*
X15341000Y-7301000D01*
X15291000Y-7251000D01*
X15241000Y-7301000D01*
X15291000Y-7351000D01*
X15291000Y-7605000D02*
X15341000Y-7555000D01*
X15291000Y-7505000D01*
X15241000Y-7555000D01*
X15291000Y-7605000D01*
X15291000Y-7859000D02*
X15341000Y-7809000D01*
X15291000Y-7759000D01*
X15241000Y-7809000D01*
X15291000Y-7859000D01*
X15291000Y-8113000D02*
X15341000Y-8063000D01*
X15291000Y-8013000D01*
X15241000Y-8063000D01*
X15291000Y-8113000D01*
X15291000Y-8367000D02*
X15341000Y-8317000D01*
X15291000Y-8267000D01*
X15241000Y-8317000D01*
X15291000Y-8367000D01*
X15291000Y-8621000D02*
X15341000Y-8571000D01*
X15291000Y-8521000D01*
X15241000Y-8571000D01*
X15291000Y-8621000D01*
X15545000Y-6335000D02*
X15595000Y-6285000D01*
X15545000Y-6235000D01*
X15495000Y-6285000D01*
X15545000Y-6335000D01*
X15545000Y-6589000D02*
X15595000Y-6539000D01*
X15545000Y-6489000D01*
X15495000Y-6539000D01*
X15545000Y-6589000D01*
X15545000Y-6843000D02*
X15595000Y-6793000D01*
X15545000Y-6743000D01*
X15495000Y-6793000D01*
X15545000Y-6843000D01*
X15545000Y-7097000D02*
X15595000Y-7047000D01*
X15545000Y-6997000D01*
X15495000Y-7047000D01*
X15545000Y-7097000D01*
X15545000Y-7351000D02*
X15595000Y-7301000D01*
X15545000Y-7251000D01*
X15495000Y-7301000D01*
X15545000Y-7351000D01*
X15545000Y-7605000D02*
X15595000Y-7555000D01*
X15545000Y-7505000D01*
X15495000Y-7555000D01*
X15545000Y-7605000D01*
X15545000Y-7859000D02*
X15595000Y-7809000D01*
X15545000Y-7759000D01*
X15495000Y-7809000D01*
X15545000Y-7859000D01*
X15545000Y-8113000D02*
X15595000Y-8063000D01*
X15545000Y-8013000D01*
X15495000Y-8063000D01*
X15545000Y-8113000D01*
X15545000Y-8367000D02*
X15595000Y-8317000D01*
X15545000Y-8267000D01*
X15495000Y-8317000D01*
X15545000Y-8367000D01*
X15545000Y-8621000D02*
X15595000Y-8571000D01*
X15545000Y-8521000D01*
X15495000Y-8571000D01*
X15545000Y-8621000D01*
D16*
X15056500Y-4793000D02*
X15166500Y-4903000D01*
X15166500Y-4793000D02*
X15056500Y-4903000D01*
X15166500Y-4848000D02*
G75*
G03*
X15166500Y-4848000I-55000J0D01*
G01*
X15306500Y-4793000D02*
X15416500Y-4903000D01*
X15416500Y-4793000D02*
X15306500Y-4903000D01*
X15416500Y-4848000D02*
G75*
G03*
X15416500Y-4848000I-55000J0D01*
G01*
X15556500Y-4793000D02*
X15666500Y-4903000D01*
X15666500Y-4793000D02*
X15556500Y-4903000D01*
X15666500Y-4848000D02*
G75*
G03*
X15666500Y-4848000I-55000J0D01*
G01*
X15806500Y-4793000D02*
X15916500Y-4903000D01*
X15916500Y-4793000D02*
X15806500Y-4903000D01*
X15916500Y-4848000D02*
G75*
G03*
X15916500Y-4848000I-55000J0D01*
G01*
X16056500Y-4793000D02*
X16166500Y-4903000D01*
X16166500Y-4793000D02*
X16056500Y-4903000D01*
X16166500Y-4848000D02*
G75*
G03*
X16166500Y-4848000I-55000J0D01*
G01*
D17*
X16714000Y-4773000D02*
X16984000Y-5043000D01*
X16984000Y-4773000D02*
X16714000Y-5043000D01*
X16849000Y-4773000D02*
X16849000Y-5043000D01*
X16714000Y-4908000D02*
X16984000Y-4908000D01*
X17214000Y-4773000D02*
X17484000Y-5043000D01*
X17484000Y-4773000D02*
X17214000Y-5043000D01*
X17349000Y-4773000D02*
X17349000Y-5043000D01*
X17214000Y-4908000D02*
X17484000Y-4908000D01*
D11*
X13745777Y-9816484D02*
X13745777Y-9616484D01*
X13745777Y-9616484D02*
X13793396Y-9616484D01*
X13793396Y-9616484D02*
X13821967Y-9626008D01*
X13821967Y-9626008D02*
X13841015Y-9645055D01*
X13841015Y-9645055D02*
X13850539Y-9664103D01*
X13850539Y-9664103D02*
X13860062Y-9702198D01*
X13860062Y-9702198D02*
X13860062Y-9730770D01*
X13860062Y-9730770D02*
X13850539Y-9768865D01*
X13850539Y-9768865D02*
X13841015Y-9787912D01*
X13841015Y-9787912D02*
X13821967Y-9806960D01*
X13821967Y-9806960D02*
X13793396Y-9816484D01*
X13793396Y-9816484D02*
X13745777Y-9816484D01*
X13945777Y-9816484D02*
X13945777Y-9683150D01*
X13945777Y-9721246D02*
X13955301Y-9702198D01*
X13955301Y-9702198D02*
X13964824Y-9692674D01*
X13964824Y-9692674D02*
X13983872Y-9683150D01*
X13983872Y-9683150D02*
X14002920Y-9683150D01*
X14069586Y-9816484D02*
X14069586Y-9683150D01*
X14069586Y-9616484D02*
X14060062Y-9626008D01*
X14060062Y-9626008D02*
X14069586Y-9635531D01*
X14069586Y-9635531D02*
X14079110Y-9626008D01*
X14079110Y-9626008D02*
X14069586Y-9616484D01*
X14069586Y-9616484D02*
X14069586Y-9635531D01*
X14193396Y-9816484D02*
X14174348Y-9806960D01*
X14174348Y-9806960D02*
X14164824Y-9787912D01*
X14164824Y-9787912D02*
X14164824Y-9616484D01*
X14298158Y-9816484D02*
X14279110Y-9806960D01*
X14279110Y-9806960D02*
X14269586Y-9787912D01*
X14269586Y-9787912D02*
X14269586Y-9616484D01*
X14526729Y-9816484D02*
X14526729Y-9616484D01*
X14526729Y-9616484D02*
X14593396Y-9759341D01*
X14593396Y-9759341D02*
X14660062Y-9616484D01*
X14660062Y-9616484D02*
X14660062Y-9816484D01*
X14841015Y-9816484D02*
X14841015Y-9711722D01*
X14841015Y-9711722D02*
X14831491Y-9692674D01*
X14831491Y-9692674D02*
X14812443Y-9683150D01*
X14812443Y-9683150D02*
X14774348Y-9683150D01*
X14774348Y-9683150D02*
X14755301Y-9692674D01*
X14841015Y-9806960D02*
X14821967Y-9816484D01*
X14821967Y-9816484D02*
X14774348Y-9816484D01*
X14774348Y-9816484D02*
X14755301Y-9806960D01*
X14755301Y-9806960D02*
X14745777Y-9787912D01*
X14745777Y-9787912D02*
X14745777Y-9768865D01*
X14745777Y-9768865D02*
X14755301Y-9749817D01*
X14755301Y-9749817D02*
X14774348Y-9740293D01*
X14774348Y-9740293D02*
X14821967Y-9740293D01*
X14821967Y-9740293D02*
X14841015Y-9730770D01*
X14936253Y-9683150D02*
X14936253Y-9883150D01*
X14936253Y-9692674D02*
X14955301Y-9683150D01*
X14955301Y-9683150D02*
X14993396Y-9683150D01*
X14993396Y-9683150D02*
X15012443Y-9692674D01*
X15012443Y-9692674D02*
X15021967Y-9702198D01*
X15021967Y-9702198D02*
X15031491Y-9721246D01*
X15031491Y-9721246D02*
X15031491Y-9778389D01*
X15031491Y-9778389D02*
X15021967Y-9797436D01*
X15021967Y-9797436D02*
X15012443Y-9806960D01*
X15012443Y-9806960D02*
X14993396Y-9816484D01*
X14993396Y-9816484D02*
X14955301Y-9816484D01*
X14955301Y-9816484D02*
X14936253Y-9806960D01*
X15117205Y-9797436D02*
X15126729Y-9806960D01*
X15126729Y-9806960D02*
X15117205Y-9816484D01*
X15117205Y-9816484D02*
X15107682Y-9806960D01*
X15107682Y-9806960D02*
X15117205Y-9797436D01*
X15117205Y-9797436D02*
X15117205Y-9816484D01*
X15117205Y-9692674D02*
X15126729Y-9702198D01*
X15126729Y-9702198D02*
X15117205Y-9711722D01*
X15117205Y-9711722D02*
X15107682Y-9702198D01*
X15107682Y-9702198D02*
X15117205Y-9692674D01*
X15117205Y-9692674D02*
X15117205Y-9711722D01*
D12*
X13455000Y-10130000D02*
X13485000Y-10160000D01*
X13485000Y-10130000D02*
X13455000Y-10160000D01*
D11*
X13783872Y-10036484D02*
X13802920Y-10036484D01*
X13802920Y-10036484D02*
X13821967Y-10046008D01*
X13821967Y-10046008D02*
X13831491Y-10055531D01*
X13831491Y-10055531D02*
X13841015Y-10074579D01*
X13841015Y-10074579D02*
X13850539Y-10112674D01*
X13850539Y-10112674D02*
X13850539Y-10160293D01*
X13850539Y-10160293D02*
X13841015Y-10198389D01*
X13841015Y-10198389D02*
X13831491Y-10217436D01*
X13831491Y-10217436D02*
X13821967Y-10226960D01*
X13821967Y-10226960D02*
X13802920Y-10236484D01*
X13802920Y-10236484D02*
X13783872Y-10236484D01*
X13783872Y-10236484D02*
X13764824Y-10226960D01*
X13764824Y-10226960D02*
X13755301Y-10217436D01*
X13755301Y-10217436D02*
X13745777Y-10198389D01*
X13745777Y-10198389D02*
X13736253Y-10160293D01*
X13736253Y-10160293D02*
X13736253Y-10112674D01*
X13736253Y-10112674D02*
X13745777Y-10074579D01*
X13745777Y-10074579D02*
X13755301Y-10055531D01*
X13755301Y-10055531D02*
X13764824Y-10046008D01*
X13764824Y-10046008D02*
X13783872Y-10036484D01*
X13936253Y-10217436D02*
X13945777Y-10226960D01*
X13945777Y-10226960D02*
X13936253Y-10236484D01*
X13936253Y-10236484D02*
X13926729Y-10226960D01*
X13926729Y-10226960D02*
X13936253Y-10217436D01*
X13936253Y-10217436D02*
X13936253Y-10236484D01*
X14012443Y-10036484D02*
X14136253Y-10036484D01*
X14136253Y-10036484D02*
X14069586Y-10112674D01*
X14069586Y-10112674D02*
X14098158Y-10112674D01*
X14098158Y-10112674D02*
X14117205Y-10122198D01*
X14117205Y-10122198D02*
X14126729Y-10131722D01*
X14126729Y-10131722D02*
X14136253Y-10150770D01*
X14136253Y-10150770D02*
X14136253Y-10198389D01*
X14136253Y-10198389D02*
X14126729Y-10217436D01*
X14126729Y-10217436D02*
X14117205Y-10226960D01*
X14117205Y-10226960D02*
X14098158Y-10236484D01*
X14098158Y-10236484D02*
X14041015Y-10236484D01*
X14041015Y-10236484D02*
X14021967Y-10226960D01*
X14021967Y-10226960D02*
X14012443Y-10217436D01*
X14260062Y-10036484D02*
X14279110Y-10036484D01*
X14279110Y-10036484D02*
X14298158Y-10046008D01*
X14298158Y-10046008D02*
X14307682Y-10055531D01*
X14307682Y-10055531D02*
X14317205Y-10074579D01*
X14317205Y-10074579D02*
X14326729Y-10112674D01*
X14326729Y-10112674D02*
X14326729Y-10160293D01*
X14326729Y-10160293D02*
X14317205Y-10198389D01*
X14317205Y-10198389D02*
X14307682Y-10217436D01*
X14307682Y-10217436D02*
X14298158Y-10226960D01*
X14298158Y-10226960D02*
X14279110Y-10236484D01*
X14279110Y-10236484D02*
X14260062Y-10236484D01*
X14260062Y-10236484D02*
X14241015Y-10226960D01*
X14241015Y-10226960D02*
X14231491Y-10217436D01*
X14231491Y-10217436D02*
X14221967Y-10198389D01*
X14221967Y-10198389D02*
X14212443Y-10160293D01*
X14212443Y-10160293D02*
X14212443Y-10112674D01*
X14212443Y-10112674D02*
X14221967Y-10074579D01*
X14221967Y-10074579D02*
X14231491Y-10055531D01*
X14231491Y-10055531D02*
X14241015Y-10046008D01*
X14241015Y-10046008D02*
X14260062Y-10036484D01*
X14450539Y-10036484D02*
X14469586Y-10036484D01*
X14469586Y-10036484D02*
X14488634Y-10046008D01*
X14488634Y-10046008D02*
X14498158Y-10055531D01*
X14498158Y-10055531D02*
X14507682Y-10074579D01*
X14507682Y-10074579D02*
X14517205Y-10112674D01*
X14517205Y-10112674D02*
X14517205Y-10160293D01*
X14517205Y-10160293D02*
X14507682Y-10198389D01*
X14507682Y-10198389D02*
X14498158Y-10217436D01*
X14498158Y-10217436D02*
X14488634Y-10226960D01*
X14488634Y-10226960D02*
X14469586Y-10236484D01*
X14469586Y-10236484D02*
X14450539Y-10236484D01*
X14450539Y-10236484D02*
X14431491Y-10226960D01*
X14431491Y-10226960D02*
X14421967Y-10217436D01*
X14421967Y-10217436D02*
X14412443Y-10198389D01*
X14412443Y-10198389D02*
X14402920Y-10160293D01*
X14402920Y-10160293D02*
X14402920Y-10112674D01*
X14402920Y-10112674D02*
X14412443Y-10074579D01*
X14412443Y-10074579D02*
X14421967Y-10055531D01*
X14421967Y-10055531D02*
X14431491Y-10046008D01*
X14431491Y-10046008D02*
X14450539Y-10036484D01*
X14602920Y-10236484D02*
X14602920Y-10103150D01*
X14602920Y-10122198D02*
X14612443Y-10112674D01*
X14612443Y-10112674D02*
X14631491Y-10103150D01*
X14631491Y-10103150D02*
X14660063Y-10103150D01*
X14660063Y-10103150D02*
X14679110Y-10112674D01*
X14679110Y-10112674D02*
X14688634Y-10131722D01*
X14688634Y-10131722D02*
X14688634Y-10236484D01*
X14688634Y-10131722D02*
X14698158Y-10112674D01*
X14698158Y-10112674D02*
X14717205Y-10103150D01*
X14717205Y-10103150D02*
X14745777Y-10103150D01*
X14745777Y-10103150D02*
X14764824Y-10112674D01*
X14764824Y-10112674D02*
X14774348Y-10131722D01*
X14774348Y-10131722D02*
X14774348Y-10236484D01*
X14869586Y-10236484D02*
X14869586Y-10103150D01*
X14869586Y-10122198D02*
X14879110Y-10112674D01*
X14879110Y-10112674D02*
X14898158Y-10103150D01*
X14898158Y-10103150D02*
X14926729Y-10103150D01*
X14926729Y-10103150D02*
X14945777Y-10112674D01*
X14945777Y-10112674D02*
X14955301Y-10131722D01*
X14955301Y-10131722D02*
X14955301Y-10236484D01*
X14955301Y-10131722D02*
X14964824Y-10112674D01*
X14964824Y-10112674D02*
X14983872Y-10103150D01*
X14983872Y-10103150D02*
X15012443Y-10103150D01*
X15012443Y-10103150D02*
X15031491Y-10112674D01*
X15031491Y-10112674D02*
X15041015Y-10131722D01*
X15041015Y-10131722D02*
X15041015Y-10236484D01*
X15431491Y-10026960D02*
X15260063Y-10284103D01*
X15688634Y-10036484D02*
X15707682Y-10036484D01*
X15707682Y-10036484D02*
X15726729Y-10046008D01*
X15726729Y-10046008D02*
X15736253Y-10055531D01*
X15736253Y-10055531D02*
X15745777Y-10074579D01*
X15745777Y-10074579D02*
X15755301Y-10112674D01*
X15755301Y-10112674D02*
X15755301Y-10160293D01*
X15755301Y-10160293D02*
X15745777Y-10198389D01*
X15745777Y-10198389D02*
X15736253Y-10217436D01*
X15736253Y-10217436D02*
X15726729Y-10226960D01*
X15726729Y-10226960D02*
X15707682Y-10236484D01*
X15707682Y-10236484D02*
X15688634Y-10236484D01*
X15688634Y-10236484D02*
X15669586Y-10226960D01*
X15669586Y-10226960D02*
X15660063Y-10217436D01*
X15660063Y-10217436D02*
X15650539Y-10198389D01*
X15650539Y-10198389D02*
X15641015Y-10160293D01*
X15641015Y-10160293D02*
X15641015Y-10112674D01*
X15641015Y-10112674D02*
X15650539Y-10074579D01*
X15650539Y-10074579D02*
X15660063Y-10055531D01*
X15660063Y-10055531D02*
X15669586Y-10046008D01*
X15669586Y-10046008D02*
X15688634Y-10036484D01*
X15841015Y-10217436D02*
X15850539Y-10226960D01*
X15850539Y-10226960D02*
X15841015Y-10236484D01*
X15841015Y-10236484D02*
X15831491Y-10226960D01*
X15831491Y-10226960D02*
X15841015Y-10217436D01*
X15841015Y-10217436D02*
X15841015Y-10236484D01*
X15974348Y-10036484D02*
X15993396Y-10036484D01*
X15993396Y-10036484D02*
X16012444Y-10046008D01*
X16012444Y-10046008D02*
X16021967Y-10055531D01*
X16021967Y-10055531D02*
X16031491Y-10074579D01*
X16031491Y-10074579D02*
X16041015Y-10112674D01*
X16041015Y-10112674D02*
X16041015Y-10160293D01*
X16041015Y-10160293D02*
X16031491Y-10198389D01*
X16031491Y-10198389D02*
X16021967Y-10217436D01*
X16021967Y-10217436D02*
X16012444Y-10226960D01*
X16012444Y-10226960D02*
X15993396Y-10236484D01*
X15993396Y-10236484D02*
X15974348Y-10236484D01*
X15974348Y-10236484D02*
X15955301Y-10226960D01*
X15955301Y-10226960D02*
X15945777Y-10217436D01*
X15945777Y-10217436D02*
X15936253Y-10198389D01*
X15936253Y-10198389D02*
X15926729Y-10160293D01*
X15926729Y-10160293D02*
X15926729Y-10112674D01*
X15926729Y-10112674D02*
X15936253Y-10074579D01*
X15936253Y-10074579D02*
X15945777Y-10055531D01*
X15945777Y-10055531D02*
X15955301Y-10046008D01*
X15955301Y-10046008D02*
X15974348Y-10036484D01*
X16231491Y-10236484D02*
X16117206Y-10236484D01*
X16174348Y-10236484D02*
X16174348Y-10036484D01*
X16174348Y-10036484D02*
X16155301Y-10065055D01*
X16155301Y-10065055D02*
X16136253Y-10084103D01*
X16136253Y-10084103D02*
X16117206Y-10093627D01*
X16421967Y-10236484D02*
X16307682Y-10236484D01*
X16364825Y-10236484D02*
X16364825Y-10036484D01*
X16364825Y-10036484D02*
X16345777Y-10065055D01*
X16345777Y-10065055D02*
X16326729Y-10084103D01*
X16326729Y-10084103D02*
X16307682Y-10093627D01*
X16536253Y-10122198D02*
X16517206Y-10112674D01*
X16517206Y-10112674D02*
X16507682Y-10103150D01*
X16507682Y-10103150D02*
X16498158Y-10084103D01*
X16498158Y-10084103D02*
X16498158Y-10074579D01*
X16498158Y-10074579D02*
X16507682Y-10055531D01*
X16507682Y-10055531D02*
X16517206Y-10046008D01*
X16517206Y-10046008D02*
X16536253Y-10036484D01*
X16536253Y-10036484D02*
X16574348Y-10036484D01*
X16574348Y-10036484D02*
X16593396Y-10046008D01*
X16593396Y-10046008D02*
X16602920Y-10055531D01*
X16602920Y-10055531D02*
X16612444Y-10074579D01*
X16612444Y-10074579D02*
X16612444Y-10084103D01*
X16612444Y-10084103D02*
X16602920Y-10103150D01*
X16602920Y-10103150D02*
X16593396Y-10112674D01*
X16593396Y-10112674D02*
X16574348Y-10122198D01*
X16574348Y-10122198D02*
X16536253Y-10122198D01*
X16536253Y-10122198D02*
X16517206Y-10131722D01*
X16517206Y-10131722D02*
X16507682Y-10141246D01*
X16507682Y-10141246D02*
X16498158Y-10160293D01*
X16498158Y-10160293D02*
X16498158Y-10198389D01*
X16498158Y-10198389D02*
X16507682Y-10217436D01*
X16507682Y-10217436D02*
X16517206Y-10226960D01*
X16517206Y-10226960D02*
X16536253Y-10236484D01*
X16536253Y-10236484D02*
X16574348Y-10236484D01*
X16574348Y-10236484D02*
X16593396Y-10226960D01*
X16593396Y-10226960D02*
X16602920Y-10217436D01*
X16602920Y-10217436D02*
X16612444Y-10198389D01*
X16612444Y-10198389D02*
X16612444Y-10160293D01*
X16612444Y-10160293D02*
X16602920Y-10141246D01*
X16602920Y-10141246D02*
X16593396Y-10131722D01*
X16593396Y-10131722D02*
X16574348Y-10122198D01*
X16688634Y-10036484D02*
X16688634Y-10074579D01*
X16764825Y-10036484D02*
X16764825Y-10074579D01*
X17060063Y-10312674D02*
X17050539Y-10303150D01*
X17050539Y-10303150D02*
X17031491Y-10274579D01*
X17031491Y-10274579D02*
X17021968Y-10255531D01*
X17021968Y-10255531D02*
X17012444Y-10226960D01*
X17012444Y-10226960D02*
X17002920Y-10179341D01*
X17002920Y-10179341D02*
X17002920Y-10141246D01*
X17002920Y-10141246D02*
X17012444Y-10093627D01*
X17012444Y-10093627D02*
X17021968Y-10065055D01*
X17021968Y-10065055D02*
X17031491Y-10046008D01*
X17031491Y-10046008D02*
X17050539Y-10017436D01*
X17050539Y-10017436D02*
X17060063Y-10007912D01*
X17117206Y-10036484D02*
X17241015Y-10036484D01*
X17241015Y-10036484D02*
X17174349Y-10112674D01*
X17174349Y-10112674D02*
X17202920Y-10112674D01*
X17202920Y-10112674D02*
X17221968Y-10122198D01*
X17221968Y-10122198D02*
X17231491Y-10131722D01*
X17231491Y-10131722D02*
X17241015Y-10150770D01*
X17241015Y-10150770D02*
X17241015Y-10198389D01*
X17241015Y-10198389D02*
X17231491Y-10217436D01*
X17231491Y-10217436D02*
X17221968Y-10226960D01*
X17221968Y-10226960D02*
X17202920Y-10236484D01*
X17202920Y-10236484D02*
X17145777Y-10236484D01*
X17145777Y-10236484D02*
X17126730Y-10226960D01*
X17126730Y-10226960D02*
X17117206Y-10217436D01*
X17307682Y-10036484D02*
X17441015Y-10036484D01*
X17441015Y-10036484D02*
X17355301Y-10236484D01*
X17669587Y-10236484D02*
X17669587Y-10036484D01*
X17755301Y-10236484D02*
X17755301Y-10131722D01*
X17755301Y-10131722D02*
X17745777Y-10112674D01*
X17745777Y-10112674D02*
X17726730Y-10103150D01*
X17726730Y-10103150D02*
X17698158Y-10103150D01*
X17698158Y-10103150D02*
X17679111Y-10112674D01*
X17679111Y-10112674D02*
X17669587Y-10122198D01*
X17879111Y-10236484D02*
X17860063Y-10226960D01*
X17860063Y-10226960D02*
X17850539Y-10217436D01*
X17850539Y-10217436D02*
X17841015Y-10198389D01*
X17841015Y-10198389D02*
X17841015Y-10141246D01*
X17841015Y-10141246D02*
X17850539Y-10122198D01*
X17850539Y-10122198D02*
X17860063Y-10112674D01*
X17860063Y-10112674D02*
X17879111Y-10103150D01*
X17879111Y-10103150D02*
X17907682Y-10103150D01*
X17907682Y-10103150D02*
X17926730Y-10112674D01*
X17926730Y-10112674D02*
X17936253Y-10122198D01*
X17936253Y-10122198D02*
X17945777Y-10141246D01*
X17945777Y-10141246D02*
X17945777Y-10198389D01*
X17945777Y-10198389D02*
X17936253Y-10217436D01*
X17936253Y-10217436D02*
X17926730Y-10226960D01*
X17926730Y-10226960D02*
X17907682Y-10236484D01*
X17907682Y-10236484D02*
X17879111Y-10236484D01*
X18060063Y-10236484D02*
X18041015Y-10226960D01*
X18041015Y-10226960D02*
X18031492Y-10207912D01*
X18031492Y-10207912D02*
X18031492Y-10036484D01*
X18212444Y-10226960D02*
X18193396Y-10236484D01*
X18193396Y-10236484D02*
X18155301Y-10236484D01*
X18155301Y-10236484D02*
X18136253Y-10226960D01*
X18136253Y-10226960D02*
X18126730Y-10207912D01*
X18126730Y-10207912D02*
X18126730Y-10131722D01*
X18126730Y-10131722D02*
X18136253Y-10112674D01*
X18136253Y-10112674D02*
X18155301Y-10103150D01*
X18155301Y-10103150D02*
X18193396Y-10103150D01*
X18193396Y-10103150D02*
X18212444Y-10112674D01*
X18212444Y-10112674D02*
X18221968Y-10131722D01*
X18221968Y-10131722D02*
X18221968Y-10150770D01*
X18221968Y-10150770D02*
X18126730Y-10169817D01*
X18298158Y-10226960D02*
X18317206Y-10236484D01*
X18317206Y-10236484D02*
X18355301Y-10236484D01*
X18355301Y-10236484D02*
X18374349Y-10226960D01*
X18374349Y-10226960D02*
X18383873Y-10207912D01*
X18383873Y-10207912D02*
X18383873Y-10198389D01*
X18383873Y-10198389D02*
X18374349Y-10179341D01*
X18374349Y-10179341D02*
X18355301Y-10169817D01*
X18355301Y-10169817D02*
X18326730Y-10169817D01*
X18326730Y-10169817D02*
X18307682Y-10160293D01*
X18307682Y-10160293D02*
X18298158Y-10141246D01*
X18298158Y-10141246D02*
X18298158Y-10131722D01*
X18298158Y-10131722D02*
X18307682Y-10112674D01*
X18307682Y-10112674D02*
X18326730Y-10103150D01*
X18326730Y-10103150D02*
X18355301Y-10103150D01*
X18355301Y-10103150D02*
X18374349Y-10112674D01*
X18450539Y-10312674D02*
X18460063Y-10303150D01*
X18460063Y-10303150D02*
X18479111Y-10274579D01*
X18479111Y-10274579D02*
X18488634Y-10255531D01*
X18488634Y-10255531D02*
X18498158Y-10226960D01*
X18498158Y-10226960D02*
X18507682Y-10179341D01*
X18507682Y-10179341D02*
X18507682Y-10141246D01*
X18507682Y-10141246D02*
X18498158Y-10093627D01*
X18498158Y-10093627D02*
X18488634Y-10065055D01*
X18488634Y-10065055D02*
X18479111Y-10046008D01*
X18479111Y-10046008D02*
X18460063Y-10017436D01*
X18460063Y-10017436D02*
X18450539Y-10007912D01*
D13*
X13485000Y-10409000D02*
G75*
G03*
X13485000Y-10409000I-20000J0D01*
G01*
D11*
X13783872Y-10300484D02*
X13802920Y-10300484D01*
X13802920Y-10300484D02*
X13821967Y-10310008D01*
X13821967Y-10310008D02*
X13831491Y-10319531D01*
X13831491Y-10319531D02*
X13841015Y-10338579D01*
X13841015Y-10338579D02*
X13850539Y-10376674D01*
X13850539Y-10376674D02*
X13850539Y-10424293D01*
X13850539Y-10424293D02*
X13841015Y-10462389D01*
X13841015Y-10462389D02*
X13831491Y-10481436D01*
X13831491Y-10481436D02*
X13821967Y-10490960D01*
X13821967Y-10490960D02*
X13802920Y-10500484D01*
X13802920Y-10500484D02*
X13783872Y-10500484D01*
X13783872Y-10500484D02*
X13764824Y-10490960D01*
X13764824Y-10490960D02*
X13755301Y-10481436D01*
X13755301Y-10481436D02*
X13745777Y-10462389D01*
X13745777Y-10462389D02*
X13736253Y-10424293D01*
X13736253Y-10424293D02*
X13736253Y-10376674D01*
X13736253Y-10376674D02*
X13745777Y-10338579D01*
X13745777Y-10338579D02*
X13755301Y-10319531D01*
X13755301Y-10319531D02*
X13764824Y-10310008D01*
X13764824Y-10310008D02*
X13783872Y-10300484D01*
X13936253Y-10481436D02*
X13945777Y-10490960D01*
X13945777Y-10490960D02*
X13936253Y-10500484D01*
X13936253Y-10500484D02*
X13926729Y-10490960D01*
X13926729Y-10490960D02*
X13936253Y-10481436D01*
X13936253Y-10481436D02*
X13936253Y-10500484D01*
X14117205Y-10367150D02*
X14117205Y-10500484D01*
X14069586Y-10290960D02*
X14021967Y-10433817D01*
X14021967Y-10433817D02*
X14145777Y-10433817D01*
X14260062Y-10300484D02*
X14279110Y-10300484D01*
X14279110Y-10300484D02*
X14298158Y-10310008D01*
X14298158Y-10310008D02*
X14307682Y-10319531D01*
X14307682Y-10319531D02*
X14317205Y-10338579D01*
X14317205Y-10338579D02*
X14326729Y-10376674D01*
X14326729Y-10376674D02*
X14326729Y-10424293D01*
X14326729Y-10424293D02*
X14317205Y-10462389D01*
X14317205Y-10462389D02*
X14307682Y-10481436D01*
X14307682Y-10481436D02*
X14298158Y-10490960D01*
X14298158Y-10490960D02*
X14279110Y-10500484D01*
X14279110Y-10500484D02*
X14260062Y-10500484D01*
X14260062Y-10500484D02*
X14241015Y-10490960D01*
X14241015Y-10490960D02*
X14231491Y-10481436D01*
X14231491Y-10481436D02*
X14221967Y-10462389D01*
X14221967Y-10462389D02*
X14212443Y-10424293D01*
X14212443Y-10424293D02*
X14212443Y-10376674D01*
X14212443Y-10376674D02*
X14221967Y-10338579D01*
X14221967Y-10338579D02*
X14231491Y-10319531D01*
X14231491Y-10319531D02*
X14241015Y-10310008D01*
X14241015Y-10310008D02*
X14260062Y-10300484D01*
X14450539Y-10300484D02*
X14469586Y-10300484D01*
X14469586Y-10300484D02*
X14488634Y-10310008D01*
X14488634Y-10310008D02*
X14498158Y-10319531D01*
X14498158Y-10319531D02*
X14507682Y-10338579D01*
X14507682Y-10338579D02*
X14517205Y-10376674D01*
X14517205Y-10376674D02*
X14517205Y-10424293D01*
X14517205Y-10424293D02*
X14507682Y-10462389D01*
X14507682Y-10462389D02*
X14498158Y-10481436D01*
X14498158Y-10481436D02*
X14488634Y-10490960D01*
X14488634Y-10490960D02*
X14469586Y-10500484D01*
X14469586Y-10500484D02*
X14450539Y-10500484D01*
X14450539Y-10500484D02*
X14431491Y-10490960D01*
X14431491Y-10490960D02*
X14421967Y-10481436D01*
X14421967Y-10481436D02*
X14412443Y-10462389D01*
X14412443Y-10462389D02*
X14402920Y-10424293D01*
X14402920Y-10424293D02*
X14402920Y-10376674D01*
X14402920Y-10376674D02*
X14412443Y-10338579D01*
X14412443Y-10338579D02*
X14421967Y-10319531D01*
X14421967Y-10319531D02*
X14431491Y-10310008D01*
X14431491Y-10310008D02*
X14450539Y-10300484D01*
X14602920Y-10500484D02*
X14602920Y-10367150D01*
X14602920Y-10386198D02*
X14612443Y-10376674D01*
X14612443Y-10376674D02*
X14631491Y-10367150D01*
X14631491Y-10367150D02*
X14660063Y-10367150D01*
X14660063Y-10367150D02*
X14679110Y-10376674D01*
X14679110Y-10376674D02*
X14688634Y-10395722D01*
X14688634Y-10395722D02*
X14688634Y-10500484D01*
X14688634Y-10395722D02*
X14698158Y-10376674D01*
X14698158Y-10376674D02*
X14717205Y-10367150D01*
X14717205Y-10367150D02*
X14745777Y-10367150D01*
X14745777Y-10367150D02*
X14764824Y-10376674D01*
X14764824Y-10376674D02*
X14774348Y-10395722D01*
X14774348Y-10395722D02*
X14774348Y-10500484D01*
X14869586Y-10500484D02*
X14869586Y-10367150D01*
X14869586Y-10386198D02*
X14879110Y-10376674D01*
X14879110Y-10376674D02*
X14898158Y-10367150D01*
X14898158Y-10367150D02*
X14926729Y-10367150D01*
X14926729Y-10367150D02*
X14945777Y-10376674D01*
X14945777Y-10376674D02*
X14955301Y-10395722D01*
X14955301Y-10395722D02*
X14955301Y-10500484D01*
X14955301Y-10395722D02*
X14964824Y-10376674D01*
X14964824Y-10376674D02*
X14983872Y-10367150D01*
X14983872Y-10367150D02*
X15012443Y-10367150D01*
X15012443Y-10367150D02*
X15031491Y-10376674D01*
X15031491Y-10376674D02*
X15041015Y-10395722D01*
X15041015Y-10395722D02*
X15041015Y-10500484D01*
X15431491Y-10290960D02*
X15260063Y-10548103D01*
X15688634Y-10300484D02*
X15707682Y-10300484D01*
X15707682Y-10300484D02*
X15726729Y-10310008D01*
X15726729Y-10310008D02*
X15736253Y-10319531D01*
X15736253Y-10319531D02*
X15745777Y-10338579D01*
X15745777Y-10338579D02*
X15755301Y-10376674D01*
X15755301Y-10376674D02*
X15755301Y-10424293D01*
X15755301Y-10424293D02*
X15745777Y-10462389D01*
X15745777Y-10462389D02*
X15736253Y-10481436D01*
X15736253Y-10481436D02*
X15726729Y-10490960D01*
X15726729Y-10490960D02*
X15707682Y-10500484D01*
X15707682Y-10500484D02*
X15688634Y-10500484D01*
X15688634Y-10500484D02*
X15669586Y-10490960D01*
X15669586Y-10490960D02*
X15660063Y-10481436D01*
X15660063Y-10481436D02*
X15650539Y-10462389D01*
X15650539Y-10462389D02*
X15641015Y-10424293D01*
X15641015Y-10424293D02*
X15641015Y-10376674D01*
X15641015Y-10376674D02*
X15650539Y-10338579D01*
X15650539Y-10338579D02*
X15660063Y-10319531D01*
X15660063Y-10319531D02*
X15669586Y-10310008D01*
X15669586Y-10310008D02*
X15688634Y-10300484D01*
X15841015Y-10481436D02*
X15850539Y-10490960D01*
X15850539Y-10490960D02*
X15841015Y-10500484D01*
X15841015Y-10500484D02*
X15831491Y-10490960D01*
X15831491Y-10490960D02*
X15841015Y-10481436D01*
X15841015Y-10481436D02*
X15841015Y-10500484D01*
X15974348Y-10300484D02*
X15993396Y-10300484D01*
X15993396Y-10300484D02*
X16012444Y-10310008D01*
X16012444Y-10310008D02*
X16021967Y-10319531D01*
X16021967Y-10319531D02*
X16031491Y-10338579D01*
X16031491Y-10338579D02*
X16041015Y-10376674D01*
X16041015Y-10376674D02*
X16041015Y-10424293D01*
X16041015Y-10424293D02*
X16031491Y-10462389D01*
X16031491Y-10462389D02*
X16021967Y-10481436D01*
X16021967Y-10481436D02*
X16012444Y-10490960D01*
X16012444Y-10490960D02*
X15993396Y-10500484D01*
X15993396Y-10500484D02*
X15974348Y-10500484D01*
X15974348Y-10500484D02*
X15955301Y-10490960D01*
X15955301Y-10490960D02*
X15945777Y-10481436D01*
X15945777Y-10481436D02*
X15936253Y-10462389D01*
X15936253Y-10462389D02*
X15926729Y-10424293D01*
X15926729Y-10424293D02*
X15926729Y-10376674D01*
X15926729Y-10376674D02*
X15936253Y-10338579D01*
X15936253Y-10338579D02*
X15945777Y-10319531D01*
X15945777Y-10319531D02*
X15955301Y-10310008D01*
X15955301Y-10310008D02*
X15974348Y-10300484D01*
X16231491Y-10500484D02*
X16117206Y-10500484D01*
X16174348Y-10500484D02*
X16174348Y-10300484D01*
X16174348Y-10300484D02*
X16155301Y-10329055D01*
X16155301Y-10329055D02*
X16136253Y-10348103D01*
X16136253Y-10348103D02*
X16117206Y-10357627D01*
X16412444Y-10300484D02*
X16317206Y-10300484D01*
X16317206Y-10300484D02*
X16307682Y-10395722D01*
X16307682Y-10395722D02*
X16317206Y-10386198D01*
X16317206Y-10386198D02*
X16336253Y-10376674D01*
X16336253Y-10376674D02*
X16383872Y-10376674D01*
X16383872Y-10376674D02*
X16402920Y-10386198D01*
X16402920Y-10386198D02*
X16412444Y-10395722D01*
X16412444Y-10395722D02*
X16421967Y-10414770D01*
X16421967Y-10414770D02*
X16421967Y-10462389D01*
X16421967Y-10462389D02*
X16412444Y-10481436D01*
X16412444Y-10481436D02*
X16402920Y-10490960D01*
X16402920Y-10490960D02*
X16383872Y-10500484D01*
X16383872Y-10500484D02*
X16336253Y-10500484D01*
X16336253Y-10500484D02*
X16317206Y-10490960D01*
X16317206Y-10490960D02*
X16307682Y-10481436D01*
X16488634Y-10300484D02*
X16621967Y-10300484D01*
X16621967Y-10300484D02*
X16536253Y-10500484D01*
X16688634Y-10300484D02*
X16688634Y-10338579D01*
X16764825Y-10300484D02*
X16764825Y-10338579D01*
X17060063Y-10576674D02*
X17050539Y-10567150D01*
X17050539Y-10567150D02*
X17031491Y-10538579D01*
X17031491Y-10538579D02*
X17021968Y-10519531D01*
X17021968Y-10519531D02*
X17012444Y-10490960D01*
X17012444Y-10490960D02*
X17002920Y-10443341D01*
X17002920Y-10443341D02*
X17002920Y-10405246D01*
X17002920Y-10405246D02*
X17012444Y-10357627D01*
X17012444Y-10357627D02*
X17021968Y-10329055D01*
X17021968Y-10329055D02*
X17031491Y-10310008D01*
X17031491Y-10310008D02*
X17050539Y-10281436D01*
X17050539Y-10281436D02*
X17060063Y-10271912D01*
X17241015Y-10500484D02*
X17126730Y-10500484D01*
X17183872Y-10500484D02*
X17183872Y-10300484D01*
X17183872Y-10300484D02*
X17164825Y-10329055D01*
X17164825Y-10329055D02*
X17145777Y-10348103D01*
X17145777Y-10348103D02*
X17126730Y-10357627D01*
X17479111Y-10500484D02*
X17479111Y-10300484D01*
X17564825Y-10500484D02*
X17564825Y-10395722D01*
X17564825Y-10395722D02*
X17555301Y-10376674D01*
X17555301Y-10376674D02*
X17536253Y-10367150D01*
X17536253Y-10367150D02*
X17507682Y-10367150D01*
X17507682Y-10367150D02*
X17488634Y-10376674D01*
X17488634Y-10376674D02*
X17479111Y-10386198D01*
X17688634Y-10500484D02*
X17669587Y-10490960D01*
X17669587Y-10490960D02*
X17660063Y-10481436D01*
X17660063Y-10481436D02*
X17650539Y-10462389D01*
X17650539Y-10462389D02*
X17650539Y-10405246D01*
X17650539Y-10405246D02*
X17660063Y-10386198D01*
X17660063Y-10386198D02*
X17669587Y-10376674D01*
X17669587Y-10376674D02*
X17688634Y-10367150D01*
X17688634Y-10367150D02*
X17717206Y-10367150D01*
X17717206Y-10367150D02*
X17736253Y-10376674D01*
X17736253Y-10376674D02*
X17745777Y-10386198D01*
X17745777Y-10386198D02*
X17755301Y-10405246D01*
X17755301Y-10405246D02*
X17755301Y-10462389D01*
X17755301Y-10462389D02*
X17745777Y-10481436D01*
X17745777Y-10481436D02*
X17736253Y-10490960D01*
X17736253Y-10490960D02*
X17717206Y-10500484D01*
X17717206Y-10500484D02*
X17688634Y-10500484D01*
X17869587Y-10500484D02*
X17850539Y-10490960D01*
X17850539Y-10490960D02*
X17841015Y-10471912D01*
X17841015Y-10471912D02*
X17841015Y-10300484D01*
X18021968Y-10490960D02*
X18002920Y-10500484D01*
X18002920Y-10500484D02*
X17964825Y-10500484D01*
X17964825Y-10500484D02*
X17945777Y-10490960D01*
X17945777Y-10490960D02*
X17936253Y-10471912D01*
X17936253Y-10471912D02*
X17936253Y-10395722D01*
X17936253Y-10395722D02*
X17945777Y-10376674D01*
X17945777Y-10376674D02*
X17964825Y-10367150D01*
X17964825Y-10367150D02*
X18002920Y-10367150D01*
X18002920Y-10367150D02*
X18021968Y-10376674D01*
X18021968Y-10376674D02*
X18031492Y-10395722D01*
X18031492Y-10395722D02*
X18031492Y-10414770D01*
X18031492Y-10414770D02*
X17936253Y-10433817D01*
X18098158Y-10576674D02*
X18107682Y-10567150D01*
X18107682Y-10567150D02*
X18126730Y-10538579D01*
X18126730Y-10538579D02*
X18136253Y-10519531D01*
X18136253Y-10519531D02*
X18145777Y-10490960D01*
X18145777Y-10490960D02*
X18155301Y-10443341D01*
X18155301Y-10443341D02*
X18155301Y-10405246D01*
X18155301Y-10405246D02*
X18145777Y-10357627D01*
X18145777Y-10357627D02*
X18136253Y-10329055D01*
X18136253Y-10329055D02*
X18126730Y-10310008D01*
X18126730Y-10310008D02*
X18107682Y-10281436D01*
X18107682Y-10281436D02*
X18098158Y-10271912D01*
D14*
X13460000Y-10648000D02*
X13460000Y-10698000D01*
X13435000Y-10673000D02*
X13485000Y-10673000D01*
D11*
X13783872Y-10564484D02*
X13802920Y-10564484D01*
X13802920Y-10564484D02*
X13821967Y-10574008D01*
X13821967Y-10574008D02*
X13831491Y-10583531D01*
X13831491Y-10583531D02*
X13841015Y-10602579D01*
X13841015Y-10602579D02*
X13850539Y-10640674D01*
X13850539Y-10640674D02*
X13850539Y-10688293D01*
X13850539Y-10688293D02*
X13841015Y-10726389D01*
X13841015Y-10726389D02*
X13831491Y-10745436D01*
X13831491Y-10745436D02*
X13821967Y-10754960D01*
X13821967Y-10754960D02*
X13802920Y-10764484D01*
X13802920Y-10764484D02*
X13783872Y-10764484D01*
X13783872Y-10764484D02*
X13764824Y-10754960D01*
X13764824Y-10754960D02*
X13755301Y-10745436D01*
X13755301Y-10745436D02*
X13745777Y-10726389D01*
X13745777Y-10726389D02*
X13736253Y-10688293D01*
X13736253Y-10688293D02*
X13736253Y-10640674D01*
X13736253Y-10640674D02*
X13745777Y-10602579D01*
X13745777Y-10602579D02*
X13755301Y-10583531D01*
X13755301Y-10583531D02*
X13764824Y-10574008D01*
X13764824Y-10574008D02*
X13783872Y-10564484D01*
X13936253Y-10745436D02*
X13945777Y-10754960D01*
X13945777Y-10754960D02*
X13936253Y-10764484D01*
X13936253Y-10764484D02*
X13926729Y-10754960D01*
X13926729Y-10754960D02*
X13936253Y-10745436D01*
X13936253Y-10745436D02*
X13936253Y-10764484D01*
X14126729Y-10564484D02*
X14031491Y-10564484D01*
X14031491Y-10564484D02*
X14021967Y-10659722D01*
X14021967Y-10659722D02*
X14031491Y-10650198D01*
X14031491Y-10650198D02*
X14050539Y-10640674D01*
X14050539Y-10640674D02*
X14098158Y-10640674D01*
X14098158Y-10640674D02*
X14117205Y-10650198D01*
X14117205Y-10650198D02*
X14126729Y-10659722D01*
X14126729Y-10659722D02*
X14136253Y-10678770D01*
X14136253Y-10678770D02*
X14136253Y-10726389D01*
X14136253Y-10726389D02*
X14126729Y-10745436D01*
X14126729Y-10745436D02*
X14117205Y-10754960D01*
X14117205Y-10754960D02*
X14098158Y-10764484D01*
X14098158Y-10764484D02*
X14050539Y-10764484D01*
X14050539Y-10764484D02*
X14031491Y-10754960D01*
X14031491Y-10754960D02*
X14021967Y-10745436D01*
X14260062Y-10564484D02*
X14279110Y-10564484D01*
X14279110Y-10564484D02*
X14298158Y-10574008D01*
X14298158Y-10574008D02*
X14307682Y-10583531D01*
X14307682Y-10583531D02*
X14317205Y-10602579D01*
X14317205Y-10602579D02*
X14326729Y-10640674D01*
X14326729Y-10640674D02*
X14326729Y-10688293D01*
X14326729Y-10688293D02*
X14317205Y-10726389D01*
X14317205Y-10726389D02*
X14307682Y-10745436D01*
X14307682Y-10745436D02*
X14298158Y-10754960D01*
X14298158Y-10754960D02*
X14279110Y-10764484D01*
X14279110Y-10764484D02*
X14260062Y-10764484D01*
X14260062Y-10764484D02*
X14241015Y-10754960D01*
X14241015Y-10754960D02*
X14231491Y-10745436D01*
X14231491Y-10745436D02*
X14221967Y-10726389D01*
X14221967Y-10726389D02*
X14212443Y-10688293D01*
X14212443Y-10688293D02*
X14212443Y-10640674D01*
X14212443Y-10640674D02*
X14221967Y-10602579D01*
X14221967Y-10602579D02*
X14231491Y-10583531D01*
X14231491Y-10583531D02*
X14241015Y-10574008D01*
X14241015Y-10574008D02*
X14260062Y-10564484D01*
X14450539Y-10564484D02*
X14469586Y-10564484D01*
X14469586Y-10564484D02*
X14488634Y-10574008D01*
X14488634Y-10574008D02*
X14498158Y-10583531D01*
X14498158Y-10583531D02*
X14507682Y-10602579D01*
X14507682Y-10602579D02*
X14517205Y-10640674D01*
X14517205Y-10640674D02*
X14517205Y-10688293D01*
X14517205Y-10688293D02*
X14507682Y-10726389D01*
X14507682Y-10726389D02*
X14498158Y-10745436D01*
X14498158Y-10745436D02*
X14488634Y-10754960D01*
X14488634Y-10754960D02*
X14469586Y-10764484D01*
X14469586Y-10764484D02*
X14450539Y-10764484D01*
X14450539Y-10764484D02*
X14431491Y-10754960D01*
X14431491Y-10754960D02*
X14421967Y-10745436D01*
X14421967Y-10745436D02*
X14412443Y-10726389D01*
X14412443Y-10726389D02*
X14402920Y-10688293D01*
X14402920Y-10688293D02*
X14402920Y-10640674D01*
X14402920Y-10640674D02*
X14412443Y-10602579D01*
X14412443Y-10602579D02*
X14421967Y-10583531D01*
X14421967Y-10583531D02*
X14431491Y-10574008D01*
X14431491Y-10574008D02*
X14450539Y-10564484D01*
X14602920Y-10764484D02*
X14602920Y-10631150D01*
X14602920Y-10650198D02*
X14612443Y-10640674D01*
X14612443Y-10640674D02*
X14631491Y-10631150D01*
X14631491Y-10631150D02*
X14660063Y-10631150D01*
X14660063Y-10631150D02*
X14679110Y-10640674D01*
X14679110Y-10640674D02*
X14688634Y-10659722D01*
X14688634Y-10659722D02*
X14688634Y-10764484D01*
X14688634Y-10659722D02*
X14698158Y-10640674D01*
X14698158Y-10640674D02*
X14717205Y-10631150D01*
X14717205Y-10631150D02*
X14745777Y-10631150D01*
X14745777Y-10631150D02*
X14764824Y-10640674D01*
X14764824Y-10640674D02*
X14774348Y-10659722D01*
X14774348Y-10659722D02*
X14774348Y-10764484D01*
X14869586Y-10764484D02*
X14869586Y-10631150D01*
X14869586Y-10650198D02*
X14879110Y-10640674D01*
X14879110Y-10640674D02*
X14898158Y-10631150D01*
X14898158Y-10631150D02*
X14926729Y-10631150D01*
X14926729Y-10631150D02*
X14945777Y-10640674D01*
X14945777Y-10640674D02*
X14955301Y-10659722D01*
X14955301Y-10659722D02*
X14955301Y-10764484D01*
X14955301Y-10659722D02*
X14964824Y-10640674D01*
X14964824Y-10640674D02*
X14983872Y-10631150D01*
X14983872Y-10631150D02*
X15012443Y-10631150D01*
X15012443Y-10631150D02*
X15031491Y-10640674D01*
X15031491Y-10640674D02*
X15041015Y-10659722D01*
X15041015Y-10659722D02*
X15041015Y-10764484D01*
X15431491Y-10554960D02*
X15260063Y-10812103D01*
X15688634Y-10564484D02*
X15707682Y-10564484D01*
X15707682Y-10564484D02*
X15726729Y-10574008D01*
X15726729Y-10574008D02*
X15736253Y-10583531D01*
X15736253Y-10583531D02*
X15745777Y-10602579D01*
X15745777Y-10602579D02*
X15755301Y-10640674D01*
X15755301Y-10640674D02*
X15755301Y-10688293D01*
X15755301Y-10688293D02*
X15745777Y-10726389D01*
X15745777Y-10726389D02*
X15736253Y-10745436D01*
X15736253Y-10745436D02*
X15726729Y-10754960D01*
X15726729Y-10754960D02*
X15707682Y-10764484D01*
X15707682Y-10764484D02*
X15688634Y-10764484D01*
X15688634Y-10764484D02*
X15669586Y-10754960D01*
X15669586Y-10754960D02*
X15660063Y-10745436D01*
X15660063Y-10745436D02*
X15650539Y-10726389D01*
X15650539Y-10726389D02*
X15641015Y-10688293D01*
X15641015Y-10688293D02*
X15641015Y-10640674D01*
X15641015Y-10640674D02*
X15650539Y-10602579D01*
X15650539Y-10602579D02*
X15660063Y-10583531D01*
X15660063Y-10583531D02*
X15669586Y-10574008D01*
X15669586Y-10574008D02*
X15688634Y-10564484D01*
X15841015Y-10745436D02*
X15850539Y-10754960D01*
X15850539Y-10754960D02*
X15841015Y-10764484D01*
X15841015Y-10764484D02*
X15831491Y-10754960D01*
X15831491Y-10754960D02*
X15841015Y-10745436D01*
X15841015Y-10745436D02*
X15841015Y-10764484D01*
X15974348Y-10564484D02*
X15993396Y-10564484D01*
X15993396Y-10564484D02*
X16012444Y-10574008D01*
X16012444Y-10574008D02*
X16021967Y-10583531D01*
X16021967Y-10583531D02*
X16031491Y-10602579D01*
X16031491Y-10602579D02*
X16041015Y-10640674D01*
X16041015Y-10640674D02*
X16041015Y-10688293D01*
X16041015Y-10688293D02*
X16031491Y-10726389D01*
X16031491Y-10726389D02*
X16021967Y-10745436D01*
X16021967Y-10745436D02*
X16012444Y-10754960D01*
X16012444Y-10754960D02*
X15993396Y-10764484D01*
X15993396Y-10764484D02*
X15974348Y-10764484D01*
X15974348Y-10764484D02*
X15955301Y-10754960D01*
X15955301Y-10754960D02*
X15945777Y-10745436D01*
X15945777Y-10745436D02*
X15936253Y-10726389D01*
X15936253Y-10726389D02*
X15926729Y-10688293D01*
X15926729Y-10688293D02*
X15926729Y-10640674D01*
X15926729Y-10640674D02*
X15936253Y-10602579D01*
X15936253Y-10602579D02*
X15945777Y-10583531D01*
X15945777Y-10583531D02*
X15955301Y-10574008D01*
X15955301Y-10574008D02*
X15974348Y-10564484D01*
X16231491Y-10764484D02*
X16117206Y-10764484D01*
X16174348Y-10764484D02*
X16174348Y-10564484D01*
X16174348Y-10564484D02*
X16155301Y-10593055D01*
X16155301Y-10593055D02*
X16136253Y-10612103D01*
X16136253Y-10612103D02*
X16117206Y-10621627D01*
X16326729Y-10764484D02*
X16364825Y-10764484D01*
X16364825Y-10764484D02*
X16383872Y-10754960D01*
X16383872Y-10754960D02*
X16393396Y-10745436D01*
X16393396Y-10745436D02*
X16412444Y-10716865D01*
X16412444Y-10716865D02*
X16421967Y-10678770D01*
X16421967Y-10678770D02*
X16421967Y-10602579D01*
X16421967Y-10602579D02*
X16412444Y-10583531D01*
X16412444Y-10583531D02*
X16402920Y-10574008D01*
X16402920Y-10574008D02*
X16383872Y-10564484D01*
X16383872Y-10564484D02*
X16345777Y-10564484D01*
X16345777Y-10564484D02*
X16326729Y-10574008D01*
X16326729Y-10574008D02*
X16317206Y-10583531D01*
X16317206Y-10583531D02*
X16307682Y-10602579D01*
X16307682Y-10602579D02*
X16307682Y-10650198D01*
X16307682Y-10650198D02*
X16317206Y-10669246D01*
X16317206Y-10669246D02*
X16326729Y-10678770D01*
X16326729Y-10678770D02*
X16345777Y-10688293D01*
X16345777Y-10688293D02*
X16383872Y-10688293D01*
X16383872Y-10688293D02*
X16402920Y-10678770D01*
X16402920Y-10678770D02*
X16412444Y-10669246D01*
X16412444Y-10669246D02*
X16421967Y-10650198D01*
X16488634Y-10564484D02*
X16621967Y-10564484D01*
X16621967Y-10564484D02*
X16536253Y-10764484D01*
X16688634Y-10564484D02*
X16688634Y-10602579D01*
X16764825Y-10564484D02*
X16764825Y-10602579D01*
X17060063Y-10840674D02*
X17050539Y-10831150D01*
X17050539Y-10831150D02*
X17031491Y-10802579D01*
X17031491Y-10802579D02*
X17021968Y-10783531D01*
X17021968Y-10783531D02*
X17012444Y-10754960D01*
X17012444Y-10754960D02*
X17002920Y-10707341D01*
X17002920Y-10707341D02*
X17002920Y-10669246D01*
X17002920Y-10669246D02*
X17012444Y-10621627D01*
X17012444Y-10621627D02*
X17021968Y-10593055D01*
X17021968Y-10593055D02*
X17031491Y-10574008D01*
X17031491Y-10574008D02*
X17050539Y-10545436D01*
X17050539Y-10545436D02*
X17060063Y-10535912D01*
X17221968Y-10564484D02*
X17183872Y-10564484D01*
X17183872Y-10564484D02*
X17164825Y-10574008D01*
X17164825Y-10574008D02*
X17155301Y-10583531D01*
X17155301Y-10583531D02*
X17136253Y-10612103D01*
X17136253Y-10612103D02*
X17126730Y-10650198D01*
X17126730Y-10650198D02*
X17126730Y-10726389D01*
X17126730Y-10726389D02*
X17136253Y-10745436D01*
X17136253Y-10745436D02*
X17145777Y-10754960D01*
X17145777Y-10754960D02*
X17164825Y-10764484D01*
X17164825Y-10764484D02*
X17202920Y-10764484D01*
X17202920Y-10764484D02*
X17221968Y-10754960D01*
X17221968Y-10754960D02*
X17231491Y-10745436D01*
X17231491Y-10745436D02*
X17241015Y-10726389D01*
X17241015Y-10726389D02*
X17241015Y-10678770D01*
X17241015Y-10678770D02*
X17231491Y-10659722D01*
X17231491Y-10659722D02*
X17221968Y-10650198D01*
X17221968Y-10650198D02*
X17202920Y-10640674D01*
X17202920Y-10640674D02*
X17164825Y-10640674D01*
X17164825Y-10640674D02*
X17145777Y-10650198D01*
X17145777Y-10650198D02*
X17136253Y-10659722D01*
X17136253Y-10659722D02*
X17126730Y-10678770D01*
X17412444Y-10631150D02*
X17412444Y-10764484D01*
X17364825Y-10554960D02*
X17317206Y-10697817D01*
X17317206Y-10697817D02*
X17441015Y-10697817D01*
X17669587Y-10764484D02*
X17669587Y-10564484D01*
X17755301Y-10764484D02*
X17755301Y-10659722D01*
X17755301Y-10659722D02*
X17745777Y-10640674D01*
X17745777Y-10640674D02*
X17726730Y-10631150D01*
X17726730Y-10631150D02*
X17698158Y-10631150D01*
X17698158Y-10631150D02*
X17679111Y-10640674D01*
X17679111Y-10640674D02*
X17669587Y-10650198D01*
X17879111Y-10764484D02*
X17860063Y-10754960D01*
X17860063Y-10754960D02*
X17850539Y-10745436D01*
X17850539Y-10745436D02*
X17841015Y-10726389D01*
X17841015Y-10726389D02*
X17841015Y-10669246D01*
X17841015Y-10669246D02*
X17850539Y-10650198D01*
X17850539Y-10650198D02*
X17860063Y-10640674D01*
X17860063Y-10640674D02*
X17879111Y-10631150D01*
X17879111Y-10631150D02*
X17907682Y-10631150D01*
X17907682Y-10631150D02*
X17926730Y-10640674D01*
X17926730Y-10640674D02*
X17936253Y-10650198D01*
X17936253Y-10650198D02*
X17945777Y-10669246D01*
X17945777Y-10669246D02*
X17945777Y-10726389D01*
X17945777Y-10726389D02*
X17936253Y-10745436D01*
X17936253Y-10745436D02*
X17926730Y-10754960D01*
X17926730Y-10754960D02*
X17907682Y-10764484D01*
X17907682Y-10764484D02*
X17879111Y-10764484D01*
X18060063Y-10764484D02*
X18041015Y-10754960D01*
X18041015Y-10754960D02*
X18031492Y-10735912D01*
X18031492Y-10735912D02*
X18031492Y-10564484D01*
X18212444Y-10754960D02*
X18193396Y-10764484D01*
X18193396Y-10764484D02*
X18155301Y-10764484D01*
X18155301Y-10764484D02*
X18136253Y-10754960D01*
X18136253Y-10754960D02*
X18126730Y-10735912D01*
X18126730Y-10735912D02*
X18126730Y-10659722D01*
X18126730Y-10659722D02*
X18136253Y-10640674D01*
X18136253Y-10640674D02*
X18155301Y-10631150D01*
X18155301Y-10631150D02*
X18193396Y-10631150D01*
X18193396Y-10631150D02*
X18212444Y-10640674D01*
X18212444Y-10640674D02*
X18221968Y-10659722D01*
X18221968Y-10659722D02*
X18221968Y-10678770D01*
X18221968Y-10678770D02*
X18126730Y-10697817D01*
X18298158Y-10754960D02*
X18317206Y-10764484D01*
X18317206Y-10764484D02*
X18355301Y-10764484D01*
X18355301Y-10764484D02*
X18374349Y-10754960D01*
X18374349Y-10754960D02*
X18383873Y-10735912D01*
X18383873Y-10735912D02*
X18383873Y-10726389D01*
X18383873Y-10726389D02*
X18374349Y-10707341D01*
X18374349Y-10707341D02*
X18355301Y-10697817D01*
X18355301Y-10697817D02*
X18326730Y-10697817D01*
X18326730Y-10697817D02*
X18307682Y-10688293D01*
X18307682Y-10688293D02*
X18298158Y-10669246D01*
X18298158Y-10669246D02*
X18298158Y-10659722D01*
X18298158Y-10659722D02*
X18307682Y-10640674D01*
X18307682Y-10640674D02*
X18326730Y-10631150D01*
X18326730Y-10631150D02*
X18355301Y-10631150D01*
X18355301Y-10631150D02*
X18374349Y-10640674D01*
X18450539Y-10840674D02*
X18460063Y-10831150D01*
X18460063Y-10831150D02*
X18479111Y-10802579D01*
X18479111Y-10802579D02*
X18488634Y-10783531D01*
X18488634Y-10783531D02*
X18498158Y-10754960D01*
X18498158Y-10754960D02*
X18507682Y-10707341D01*
X18507682Y-10707341D02*
X18507682Y-10669246D01*
X18507682Y-10669246D02*
X18498158Y-10621627D01*
X18498158Y-10621627D02*
X18488634Y-10593055D01*
X18488634Y-10593055D02*
X18479111Y-10574008D01*
X18479111Y-10574008D02*
X18460063Y-10545436D01*
X18460063Y-10545436D02*
X18450539Y-10535912D01*
D15*
X13471820Y-10968820D02*
X13471820Y-10905180D01*
X13408180Y-10905180D01*
X13408180Y-10968820D01*
X13471820Y-10968820D01*
D11*
X13783872Y-10828484D02*
X13802920Y-10828484D01*
X13802920Y-10828484D02*
X13821967Y-10838008D01*
X13821967Y-10838008D02*
X13831491Y-10847531D01*
X13831491Y-10847531D02*
X13841015Y-10866579D01*
X13841015Y-10866579D02*
X13850539Y-10904674D01*
X13850539Y-10904674D02*
X13850539Y-10952293D01*
X13850539Y-10952293D02*
X13841015Y-10990389D01*
X13841015Y-10990389D02*
X13831491Y-11009436D01*
X13831491Y-11009436D02*
X13821967Y-11018960D01*
X13821967Y-11018960D02*
X13802920Y-11028484D01*
X13802920Y-11028484D02*
X13783872Y-11028484D01*
X13783872Y-11028484D02*
X13764824Y-11018960D01*
X13764824Y-11018960D02*
X13755301Y-11009436D01*
X13755301Y-11009436D02*
X13745777Y-10990389D01*
X13745777Y-10990389D02*
X13736253Y-10952293D01*
X13736253Y-10952293D02*
X13736253Y-10904674D01*
X13736253Y-10904674D02*
X13745777Y-10866579D01*
X13745777Y-10866579D02*
X13755301Y-10847531D01*
X13755301Y-10847531D02*
X13764824Y-10838008D01*
X13764824Y-10838008D02*
X13783872Y-10828484D01*
X13936253Y-11009436D02*
X13945777Y-11018960D01*
X13945777Y-11018960D02*
X13936253Y-11028484D01*
X13936253Y-11028484D02*
X13926729Y-11018960D01*
X13926729Y-11018960D02*
X13936253Y-11009436D01*
X13936253Y-11009436D02*
X13936253Y-11028484D01*
X14041015Y-11028484D02*
X14079110Y-11028484D01*
X14079110Y-11028484D02*
X14098158Y-11018960D01*
X14098158Y-11018960D02*
X14107682Y-11009436D01*
X14107682Y-11009436D02*
X14126729Y-10980865D01*
X14126729Y-10980865D02*
X14136253Y-10942770D01*
X14136253Y-10942770D02*
X14136253Y-10866579D01*
X14136253Y-10866579D02*
X14126729Y-10847531D01*
X14126729Y-10847531D02*
X14117205Y-10838008D01*
X14117205Y-10838008D02*
X14098158Y-10828484D01*
X14098158Y-10828484D02*
X14060062Y-10828484D01*
X14060062Y-10828484D02*
X14041015Y-10838008D01*
X14041015Y-10838008D02*
X14031491Y-10847531D01*
X14031491Y-10847531D02*
X14021967Y-10866579D01*
X14021967Y-10866579D02*
X14021967Y-10914198D01*
X14021967Y-10914198D02*
X14031491Y-10933246D01*
X14031491Y-10933246D02*
X14041015Y-10942770D01*
X14041015Y-10942770D02*
X14060062Y-10952293D01*
X14060062Y-10952293D02*
X14098158Y-10952293D01*
X14098158Y-10952293D02*
X14117205Y-10942770D01*
X14117205Y-10942770D02*
X14126729Y-10933246D01*
X14126729Y-10933246D02*
X14136253Y-10914198D01*
X14260062Y-10828484D02*
X14279110Y-10828484D01*
X14279110Y-10828484D02*
X14298158Y-10838008D01*
X14298158Y-10838008D02*
X14307682Y-10847531D01*
X14307682Y-10847531D02*
X14317205Y-10866579D01*
X14317205Y-10866579D02*
X14326729Y-10904674D01*
X14326729Y-10904674D02*
X14326729Y-10952293D01*
X14326729Y-10952293D02*
X14317205Y-10990389D01*
X14317205Y-10990389D02*
X14307682Y-11009436D01*
X14307682Y-11009436D02*
X14298158Y-11018960D01*
X14298158Y-11018960D02*
X14279110Y-11028484D01*
X14279110Y-11028484D02*
X14260062Y-11028484D01*
X14260062Y-11028484D02*
X14241015Y-11018960D01*
X14241015Y-11018960D02*
X14231491Y-11009436D01*
X14231491Y-11009436D02*
X14221967Y-10990389D01*
X14221967Y-10990389D02*
X14212443Y-10952293D01*
X14212443Y-10952293D02*
X14212443Y-10904674D01*
X14212443Y-10904674D02*
X14221967Y-10866579D01*
X14221967Y-10866579D02*
X14231491Y-10847531D01*
X14231491Y-10847531D02*
X14241015Y-10838008D01*
X14241015Y-10838008D02*
X14260062Y-10828484D01*
X14450539Y-10828484D02*
X14469586Y-10828484D01*
X14469586Y-10828484D02*
X14488634Y-10838008D01*
X14488634Y-10838008D02*
X14498158Y-10847531D01*
X14498158Y-10847531D02*
X14507682Y-10866579D01*
X14507682Y-10866579D02*
X14517205Y-10904674D01*
X14517205Y-10904674D02*
X14517205Y-10952293D01*
X14517205Y-10952293D02*
X14507682Y-10990389D01*
X14507682Y-10990389D02*
X14498158Y-11009436D01*
X14498158Y-11009436D02*
X14488634Y-11018960D01*
X14488634Y-11018960D02*
X14469586Y-11028484D01*
X14469586Y-11028484D02*
X14450539Y-11028484D01*
X14450539Y-11028484D02*
X14431491Y-11018960D01*
X14431491Y-11018960D02*
X14421967Y-11009436D01*
X14421967Y-11009436D02*
X14412443Y-10990389D01*
X14412443Y-10990389D02*
X14402920Y-10952293D01*
X14402920Y-10952293D02*
X14402920Y-10904674D01*
X14402920Y-10904674D02*
X14412443Y-10866579D01*
X14412443Y-10866579D02*
X14421967Y-10847531D01*
X14421967Y-10847531D02*
X14431491Y-10838008D01*
X14431491Y-10838008D02*
X14450539Y-10828484D01*
X14602920Y-11028484D02*
X14602920Y-10895150D01*
X14602920Y-10914198D02*
X14612443Y-10904674D01*
X14612443Y-10904674D02*
X14631491Y-10895150D01*
X14631491Y-10895150D02*
X14660063Y-10895150D01*
X14660063Y-10895150D02*
X14679110Y-10904674D01*
X14679110Y-10904674D02*
X14688634Y-10923722D01*
X14688634Y-10923722D02*
X14688634Y-11028484D01*
X14688634Y-10923722D02*
X14698158Y-10904674D01*
X14698158Y-10904674D02*
X14717205Y-10895150D01*
X14717205Y-10895150D02*
X14745777Y-10895150D01*
X14745777Y-10895150D02*
X14764824Y-10904674D01*
X14764824Y-10904674D02*
X14774348Y-10923722D01*
X14774348Y-10923722D02*
X14774348Y-11028484D01*
X14869586Y-11028484D02*
X14869586Y-10895150D01*
X14869586Y-10914198D02*
X14879110Y-10904674D01*
X14879110Y-10904674D02*
X14898158Y-10895150D01*
X14898158Y-10895150D02*
X14926729Y-10895150D01*
X14926729Y-10895150D02*
X14945777Y-10904674D01*
X14945777Y-10904674D02*
X14955301Y-10923722D01*
X14955301Y-10923722D02*
X14955301Y-11028484D01*
X14955301Y-10923722D02*
X14964824Y-10904674D01*
X14964824Y-10904674D02*
X14983872Y-10895150D01*
X14983872Y-10895150D02*
X15012443Y-10895150D01*
X15012443Y-10895150D02*
X15031491Y-10904674D01*
X15031491Y-10904674D02*
X15041015Y-10923722D01*
X15041015Y-10923722D02*
X15041015Y-11028484D01*
X15431491Y-10818960D02*
X15260063Y-11076103D01*
X15688634Y-10828484D02*
X15707682Y-10828484D01*
X15707682Y-10828484D02*
X15726729Y-10838008D01*
X15726729Y-10838008D02*
X15736253Y-10847531D01*
X15736253Y-10847531D02*
X15745777Y-10866579D01*
X15745777Y-10866579D02*
X15755301Y-10904674D01*
X15755301Y-10904674D02*
X15755301Y-10952293D01*
X15755301Y-10952293D02*
X15745777Y-10990389D01*
X15745777Y-10990389D02*
X15736253Y-11009436D01*
X15736253Y-11009436D02*
X15726729Y-11018960D01*
X15726729Y-11018960D02*
X15707682Y-11028484D01*
X15707682Y-11028484D02*
X15688634Y-11028484D01*
X15688634Y-11028484D02*
X15669586Y-11018960D01*
X15669586Y-11018960D02*
X15660063Y-11009436D01*
X15660063Y-11009436D02*
X15650539Y-10990389D01*
X15650539Y-10990389D02*
X15641015Y-10952293D01*
X15641015Y-10952293D02*
X15641015Y-10904674D01*
X15641015Y-10904674D02*
X15650539Y-10866579D01*
X15650539Y-10866579D02*
X15660063Y-10847531D01*
X15660063Y-10847531D02*
X15669586Y-10838008D01*
X15669586Y-10838008D02*
X15688634Y-10828484D01*
X15841015Y-11009436D02*
X15850539Y-11018960D01*
X15850539Y-11018960D02*
X15841015Y-11028484D01*
X15841015Y-11028484D02*
X15831491Y-11018960D01*
X15831491Y-11018960D02*
X15841015Y-11009436D01*
X15841015Y-11009436D02*
X15841015Y-11028484D01*
X15974348Y-10828484D02*
X15993396Y-10828484D01*
X15993396Y-10828484D02*
X16012444Y-10838008D01*
X16012444Y-10838008D02*
X16021967Y-10847531D01*
X16021967Y-10847531D02*
X16031491Y-10866579D01*
X16031491Y-10866579D02*
X16041015Y-10904674D01*
X16041015Y-10904674D02*
X16041015Y-10952293D01*
X16041015Y-10952293D02*
X16031491Y-10990389D01*
X16031491Y-10990389D02*
X16021967Y-11009436D01*
X16021967Y-11009436D02*
X16012444Y-11018960D01*
X16012444Y-11018960D02*
X15993396Y-11028484D01*
X15993396Y-11028484D02*
X15974348Y-11028484D01*
X15974348Y-11028484D02*
X15955301Y-11018960D01*
X15955301Y-11018960D02*
X15945777Y-11009436D01*
X15945777Y-11009436D02*
X15936253Y-10990389D01*
X15936253Y-10990389D02*
X15926729Y-10952293D01*
X15926729Y-10952293D02*
X15926729Y-10904674D01*
X15926729Y-10904674D02*
X15936253Y-10866579D01*
X15936253Y-10866579D02*
X15945777Y-10847531D01*
X15945777Y-10847531D02*
X15955301Y-10838008D01*
X15955301Y-10838008D02*
X15974348Y-10828484D01*
X16107682Y-10828484D02*
X16231491Y-10828484D01*
X16231491Y-10828484D02*
X16164825Y-10904674D01*
X16164825Y-10904674D02*
X16193396Y-10904674D01*
X16193396Y-10904674D02*
X16212444Y-10914198D01*
X16212444Y-10914198D02*
X16221967Y-10923722D01*
X16221967Y-10923722D02*
X16231491Y-10942770D01*
X16231491Y-10942770D02*
X16231491Y-10990389D01*
X16231491Y-10990389D02*
X16221967Y-11009436D01*
X16221967Y-11009436D02*
X16212444Y-11018960D01*
X16212444Y-11018960D02*
X16193396Y-11028484D01*
X16193396Y-11028484D02*
X16136253Y-11028484D01*
X16136253Y-11028484D02*
X16117206Y-11018960D01*
X16117206Y-11018960D02*
X16107682Y-11009436D01*
X16412444Y-10828484D02*
X16317206Y-10828484D01*
X16317206Y-10828484D02*
X16307682Y-10923722D01*
X16307682Y-10923722D02*
X16317206Y-10914198D01*
X16317206Y-10914198D02*
X16336253Y-10904674D01*
X16336253Y-10904674D02*
X16383872Y-10904674D01*
X16383872Y-10904674D02*
X16402920Y-10914198D01*
X16402920Y-10914198D02*
X16412444Y-10923722D01*
X16412444Y-10923722D02*
X16421967Y-10942770D01*
X16421967Y-10942770D02*
X16421967Y-10990389D01*
X16421967Y-10990389D02*
X16412444Y-11009436D01*
X16412444Y-11009436D02*
X16402920Y-11018960D01*
X16402920Y-11018960D02*
X16383872Y-11028484D01*
X16383872Y-11028484D02*
X16336253Y-11028484D01*
X16336253Y-11028484D02*
X16317206Y-11018960D01*
X16317206Y-11018960D02*
X16307682Y-11009436D01*
X16593396Y-10895150D02*
X16593396Y-11028484D01*
X16545777Y-10818960D02*
X16498158Y-10961817D01*
X16498158Y-10961817D02*
X16621967Y-10961817D01*
X16688634Y-10828484D02*
X16688634Y-10866579D01*
X16764825Y-10828484D02*
X16764825Y-10866579D01*
X17060063Y-11104674D02*
X17050539Y-11095150D01*
X17050539Y-11095150D02*
X17031491Y-11066579D01*
X17031491Y-11066579D02*
X17021968Y-11047531D01*
X17021968Y-11047531D02*
X17012444Y-11018960D01*
X17012444Y-11018960D02*
X17002920Y-10971341D01*
X17002920Y-10971341D02*
X17002920Y-10933246D01*
X17002920Y-10933246D02*
X17012444Y-10885627D01*
X17012444Y-10885627D02*
X17021968Y-10857055D01*
X17021968Y-10857055D02*
X17031491Y-10838008D01*
X17031491Y-10838008D02*
X17050539Y-10809436D01*
X17050539Y-10809436D02*
X17060063Y-10799912D01*
X17241015Y-11028484D02*
X17126730Y-11028484D01*
X17183872Y-11028484D02*
X17183872Y-10828484D01*
X17183872Y-10828484D02*
X17164825Y-10857055D01*
X17164825Y-10857055D02*
X17145777Y-10876103D01*
X17145777Y-10876103D02*
X17126730Y-10885627D01*
X17412444Y-10828484D02*
X17374349Y-10828484D01*
X17374349Y-10828484D02*
X17355301Y-10838008D01*
X17355301Y-10838008D02*
X17345777Y-10847531D01*
X17345777Y-10847531D02*
X17326730Y-10876103D01*
X17326730Y-10876103D02*
X17317206Y-10914198D01*
X17317206Y-10914198D02*
X17317206Y-10990389D01*
X17317206Y-10990389D02*
X17326730Y-11009436D01*
X17326730Y-11009436D02*
X17336253Y-11018960D01*
X17336253Y-11018960D02*
X17355301Y-11028484D01*
X17355301Y-11028484D02*
X17393396Y-11028484D01*
X17393396Y-11028484D02*
X17412444Y-11018960D01*
X17412444Y-11018960D02*
X17421968Y-11009436D01*
X17421968Y-11009436D02*
X17431491Y-10990389D01*
X17431491Y-10990389D02*
X17431491Y-10942770D01*
X17431491Y-10942770D02*
X17421968Y-10923722D01*
X17421968Y-10923722D02*
X17412444Y-10914198D01*
X17412444Y-10914198D02*
X17393396Y-10904674D01*
X17393396Y-10904674D02*
X17355301Y-10904674D01*
X17355301Y-10904674D02*
X17336253Y-10914198D01*
X17336253Y-10914198D02*
X17326730Y-10923722D01*
X17326730Y-10923722D02*
X17317206Y-10942770D01*
X17669587Y-11028484D02*
X17669587Y-10828484D01*
X17755301Y-11028484D02*
X17755301Y-10923722D01*
X17755301Y-10923722D02*
X17745777Y-10904674D01*
X17745777Y-10904674D02*
X17726730Y-10895150D01*
X17726730Y-10895150D02*
X17698158Y-10895150D01*
X17698158Y-10895150D02*
X17679111Y-10904674D01*
X17679111Y-10904674D02*
X17669587Y-10914198D01*
X17879111Y-11028484D02*
X17860063Y-11018960D01*
X17860063Y-11018960D02*
X17850539Y-11009436D01*
X17850539Y-11009436D02*
X17841015Y-10990389D01*
X17841015Y-10990389D02*
X17841015Y-10933246D01*
X17841015Y-10933246D02*
X17850539Y-10914198D01*
X17850539Y-10914198D02*
X17860063Y-10904674D01*
X17860063Y-10904674D02*
X17879111Y-10895150D01*
X17879111Y-10895150D02*
X17907682Y-10895150D01*
X17907682Y-10895150D02*
X17926730Y-10904674D01*
X17926730Y-10904674D02*
X17936253Y-10914198D01*
X17936253Y-10914198D02*
X17945777Y-10933246D01*
X17945777Y-10933246D02*
X17945777Y-10990389D01*
X17945777Y-10990389D02*
X17936253Y-11009436D01*
X17936253Y-11009436D02*
X17926730Y-11018960D01*
X17926730Y-11018960D02*
X17907682Y-11028484D01*
X17907682Y-11028484D02*
X17879111Y-11028484D01*
X18060063Y-11028484D02*
X18041015Y-11018960D01*
X18041015Y-11018960D02*
X18031492Y-10999912D01*
X18031492Y-10999912D02*
X18031492Y-10828484D01*
X18212444Y-11018960D02*
X18193396Y-11028484D01*
X18193396Y-11028484D02*
X18155301Y-11028484D01*
X18155301Y-11028484D02*
X18136253Y-11018960D01*
X18136253Y-11018960D02*
X18126730Y-10999912D01*
X18126730Y-10999912D02*
X18126730Y-10923722D01*
X18126730Y-10923722D02*
X18136253Y-10904674D01*
X18136253Y-10904674D02*
X18155301Y-10895150D01*
X18155301Y-10895150D02*
X18193396Y-10895150D01*
X18193396Y-10895150D02*
X18212444Y-10904674D01*
X18212444Y-10904674D02*
X18221968Y-10923722D01*
X18221968Y-10923722D02*
X18221968Y-10942770D01*
X18221968Y-10942770D02*
X18126730Y-10961817D01*
X18298158Y-11018960D02*
X18317206Y-11028484D01*
X18317206Y-11028484D02*
X18355301Y-11028484D01*
X18355301Y-11028484D02*
X18374349Y-11018960D01*
X18374349Y-11018960D02*
X18383873Y-10999912D01*
X18383873Y-10999912D02*
X18383873Y-10990389D01*
X18383873Y-10990389D02*
X18374349Y-10971341D01*
X18374349Y-10971341D02*
X18355301Y-10961817D01*
X18355301Y-10961817D02*
X18326730Y-10961817D01*
X18326730Y-10961817D02*
X18307682Y-10952293D01*
X18307682Y-10952293D02*
X18298158Y-10933246D01*
X18298158Y-10933246D02*
X18298158Y-10923722D01*
X18298158Y-10923722D02*
X18307682Y-10904674D01*
X18307682Y-10904674D02*
X18326730Y-10895150D01*
X18326730Y-10895150D02*
X18355301Y-10895150D01*
X18355301Y-10895150D02*
X18374349Y-10904674D01*
X18450539Y-11104674D02*
X18460063Y-11095150D01*
X18460063Y-11095150D02*
X18479111Y-11066579D01*
X18479111Y-11066579D02*
X18488634Y-11047531D01*
X18488634Y-11047531D02*
X18498158Y-11018960D01*
X18498158Y-11018960D02*
X18507682Y-10971341D01*
X18507682Y-10971341D02*
X18507682Y-10933246D01*
X18507682Y-10933246D02*
X18498158Y-10885627D01*
X18498158Y-10885627D02*
X18488634Y-10857055D01*
X18488634Y-10857055D02*
X18479111Y-10838008D01*
X18479111Y-10838008D02*
X18460063Y-10809436D01*
X18460063Y-10809436D02*
X18450539Y-10799912D01*
D10*
X13435000Y-11251000D02*
X13485000Y-11201000D01*
X13435000Y-11151000D01*
X13385000Y-11201000D01*
X13435000Y-11251000D01*
D11*
X13850539Y-11292484D02*
X13736253Y-11292484D01*
X13793396Y-11292484D02*
X13793396Y-11092484D01*
X13793396Y-11092484D02*
X13774348Y-11121055D01*
X13774348Y-11121055D02*
X13755301Y-11140103D01*
X13755301Y-11140103D02*
X13736253Y-11149627D01*
X13936253Y-11273436D02*
X13945777Y-11282960D01*
X13945777Y-11282960D02*
X13936253Y-11292484D01*
X13936253Y-11292484D02*
X13926729Y-11282960D01*
X13926729Y-11282960D02*
X13936253Y-11273436D01*
X13936253Y-11273436D02*
X13936253Y-11292484D01*
X14069586Y-11092484D02*
X14088634Y-11092484D01*
X14088634Y-11092484D02*
X14107682Y-11102008D01*
X14107682Y-11102008D02*
X14117205Y-11111531D01*
X14117205Y-11111531D02*
X14126729Y-11130579D01*
X14126729Y-11130579D02*
X14136253Y-11168674D01*
X14136253Y-11168674D02*
X14136253Y-11216293D01*
X14136253Y-11216293D02*
X14126729Y-11254388D01*
X14126729Y-11254388D02*
X14117205Y-11273436D01*
X14117205Y-11273436D02*
X14107682Y-11282960D01*
X14107682Y-11282960D02*
X14088634Y-11292484D01*
X14088634Y-11292484D02*
X14069586Y-11292484D01*
X14069586Y-11292484D02*
X14050539Y-11282960D01*
X14050539Y-11282960D02*
X14041015Y-11273436D01*
X14041015Y-11273436D02*
X14031491Y-11254388D01*
X14031491Y-11254388D02*
X14021967Y-11216293D01*
X14021967Y-11216293D02*
X14021967Y-11168674D01*
X14021967Y-11168674D02*
X14031491Y-11130579D01*
X14031491Y-11130579D02*
X14041015Y-11111531D01*
X14041015Y-11111531D02*
X14050539Y-11102008D01*
X14050539Y-11102008D02*
X14069586Y-11092484D01*
X14260062Y-11092484D02*
X14279110Y-11092484D01*
X14279110Y-11092484D02*
X14298158Y-11102008D01*
X14298158Y-11102008D02*
X14307682Y-11111531D01*
X14307682Y-11111531D02*
X14317205Y-11130579D01*
X14317205Y-11130579D02*
X14326729Y-11168674D01*
X14326729Y-11168674D02*
X14326729Y-11216293D01*
X14326729Y-11216293D02*
X14317205Y-11254388D01*
X14317205Y-11254388D02*
X14307682Y-11273436D01*
X14307682Y-11273436D02*
X14298158Y-11282960D01*
X14298158Y-11282960D02*
X14279110Y-11292484D01*
X14279110Y-11292484D02*
X14260062Y-11292484D01*
X14260062Y-11292484D02*
X14241015Y-11282960D01*
X14241015Y-11282960D02*
X14231491Y-11273436D01*
X14231491Y-11273436D02*
X14221967Y-11254388D01*
X14221967Y-11254388D02*
X14212443Y-11216293D01*
X14212443Y-11216293D02*
X14212443Y-11168674D01*
X14212443Y-11168674D02*
X14221967Y-11130579D01*
X14221967Y-11130579D02*
X14231491Y-11111531D01*
X14231491Y-11111531D02*
X14241015Y-11102008D01*
X14241015Y-11102008D02*
X14260062Y-11092484D01*
X14450539Y-11092484D02*
X14469586Y-11092484D01*
X14469586Y-11092484D02*
X14488634Y-11102008D01*
X14488634Y-11102008D02*
X14498158Y-11111531D01*
X14498158Y-11111531D02*
X14507682Y-11130579D01*
X14507682Y-11130579D02*
X14517205Y-11168674D01*
X14517205Y-11168674D02*
X14517205Y-11216293D01*
X14517205Y-11216293D02*
X14507682Y-11254388D01*
X14507682Y-11254388D02*
X14498158Y-11273436D01*
X14498158Y-11273436D02*
X14488634Y-11282960D01*
X14488634Y-11282960D02*
X14469586Y-11292484D01*
X14469586Y-11292484D02*
X14450539Y-11292484D01*
X14450539Y-11292484D02*
X14431491Y-11282960D01*
X14431491Y-11282960D02*
X14421967Y-11273436D01*
X14421967Y-11273436D02*
X14412443Y-11254388D01*
X14412443Y-11254388D02*
X14402920Y-11216293D01*
X14402920Y-11216293D02*
X14402920Y-11168674D01*
X14402920Y-11168674D02*
X14412443Y-11130579D01*
X14412443Y-11130579D02*
X14421967Y-11111531D01*
X14421967Y-11111531D02*
X14431491Y-11102008D01*
X14431491Y-11102008D02*
X14450539Y-11092484D01*
X14602920Y-11292484D02*
X14602920Y-11159150D01*
X14602920Y-11178198D02*
X14612443Y-11168674D01*
X14612443Y-11168674D02*
X14631491Y-11159150D01*
X14631491Y-11159150D02*
X14660063Y-11159150D01*
X14660063Y-11159150D02*
X14679110Y-11168674D01*
X14679110Y-11168674D02*
X14688634Y-11187722D01*
X14688634Y-11187722D02*
X14688634Y-11292484D01*
X14688634Y-11187722D02*
X14698158Y-11168674D01*
X14698158Y-11168674D02*
X14717205Y-11159150D01*
X14717205Y-11159150D02*
X14745777Y-11159150D01*
X14745777Y-11159150D02*
X14764824Y-11168674D01*
X14764824Y-11168674D02*
X14774348Y-11187722D01*
X14774348Y-11187722D02*
X14774348Y-11292484D01*
X14869586Y-11292484D02*
X14869586Y-11159150D01*
X14869586Y-11178198D02*
X14879110Y-11168674D01*
X14879110Y-11168674D02*
X14898158Y-11159150D01*
X14898158Y-11159150D02*
X14926729Y-11159150D01*
X14926729Y-11159150D02*
X14945777Y-11168674D01*
X14945777Y-11168674D02*
X14955301Y-11187722D01*
X14955301Y-11187722D02*
X14955301Y-11292484D01*
X14955301Y-11187722D02*
X14964824Y-11168674D01*
X14964824Y-11168674D02*
X14983872Y-11159150D01*
X14983872Y-11159150D02*
X15012443Y-11159150D01*
X15012443Y-11159150D02*
X15031491Y-11168674D01*
X15031491Y-11168674D02*
X15041015Y-11187722D01*
X15041015Y-11187722D02*
X15041015Y-11292484D01*
X15431491Y-11082960D02*
X15260063Y-11340103D01*
X15688634Y-11092484D02*
X15707682Y-11092484D01*
X15707682Y-11092484D02*
X15726729Y-11102008D01*
X15726729Y-11102008D02*
X15736253Y-11111531D01*
X15736253Y-11111531D02*
X15745777Y-11130579D01*
X15745777Y-11130579D02*
X15755301Y-11168674D01*
X15755301Y-11168674D02*
X15755301Y-11216293D01*
X15755301Y-11216293D02*
X15745777Y-11254388D01*
X15745777Y-11254388D02*
X15736253Y-11273436D01*
X15736253Y-11273436D02*
X15726729Y-11282960D01*
X15726729Y-11282960D02*
X15707682Y-11292484D01*
X15707682Y-11292484D02*
X15688634Y-11292484D01*
X15688634Y-11292484D02*
X15669586Y-11282960D01*
X15669586Y-11282960D02*
X15660063Y-11273436D01*
X15660063Y-11273436D02*
X15650539Y-11254388D01*
X15650539Y-11254388D02*
X15641015Y-11216293D01*
X15641015Y-11216293D02*
X15641015Y-11168674D01*
X15641015Y-11168674D02*
X15650539Y-11130579D01*
X15650539Y-11130579D02*
X15660063Y-11111531D01*
X15660063Y-11111531D02*
X15669586Y-11102008D01*
X15669586Y-11102008D02*
X15688634Y-11092484D01*
X15841015Y-11273436D02*
X15850539Y-11282960D01*
X15850539Y-11282960D02*
X15841015Y-11292484D01*
X15841015Y-11292484D02*
X15831491Y-11282960D01*
X15831491Y-11282960D02*
X15841015Y-11273436D01*
X15841015Y-11273436D02*
X15841015Y-11292484D01*
X15974348Y-11092484D02*
X15993396Y-11092484D01*
X15993396Y-11092484D02*
X16012444Y-11102008D01*
X16012444Y-11102008D02*
X16021967Y-11111531D01*
X16021967Y-11111531D02*
X16031491Y-11130579D01*
X16031491Y-11130579D02*
X16041015Y-11168674D01*
X16041015Y-11168674D02*
X16041015Y-11216293D01*
X16041015Y-11216293D02*
X16031491Y-11254388D01*
X16031491Y-11254388D02*
X16021967Y-11273436D01*
X16021967Y-11273436D02*
X16012444Y-11282960D01*
X16012444Y-11282960D02*
X15993396Y-11292484D01*
X15993396Y-11292484D02*
X15974348Y-11292484D01*
X15974348Y-11292484D02*
X15955301Y-11282960D01*
X15955301Y-11282960D02*
X15945777Y-11273436D01*
X15945777Y-11273436D02*
X15936253Y-11254388D01*
X15936253Y-11254388D02*
X15926729Y-11216293D01*
X15926729Y-11216293D02*
X15926729Y-11168674D01*
X15926729Y-11168674D02*
X15936253Y-11130579D01*
X15936253Y-11130579D02*
X15945777Y-11111531D01*
X15945777Y-11111531D02*
X15955301Y-11102008D01*
X15955301Y-11102008D02*
X15974348Y-11092484D01*
X16107682Y-11092484D02*
X16231491Y-11092484D01*
X16231491Y-11092484D02*
X16164825Y-11168674D01*
X16164825Y-11168674D02*
X16193396Y-11168674D01*
X16193396Y-11168674D02*
X16212444Y-11178198D01*
X16212444Y-11178198D02*
X16221967Y-11187722D01*
X16221967Y-11187722D02*
X16231491Y-11206769D01*
X16231491Y-11206769D02*
X16231491Y-11254388D01*
X16231491Y-11254388D02*
X16221967Y-11273436D01*
X16221967Y-11273436D02*
X16212444Y-11282960D01*
X16212444Y-11282960D02*
X16193396Y-11292484D01*
X16193396Y-11292484D02*
X16136253Y-11292484D01*
X16136253Y-11292484D02*
X16117206Y-11282960D01*
X16117206Y-11282960D02*
X16107682Y-11273436D01*
X16326729Y-11292484D02*
X16364825Y-11292484D01*
X16364825Y-11292484D02*
X16383872Y-11282960D01*
X16383872Y-11282960D02*
X16393396Y-11273436D01*
X16393396Y-11273436D02*
X16412444Y-11244865D01*
X16412444Y-11244865D02*
X16421967Y-11206769D01*
X16421967Y-11206769D02*
X16421967Y-11130579D01*
X16421967Y-11130579D02*
X16412444Y-11111531D01*
X16412444Y-11111531D02*
X16402920Y-11102008D01*
X16402920Y-11102008D02*
X16383872Y-11092484D01*
X16383872Y-11092484D02*
X16345777Y-11092484D01*
X16345777Y-11092484D02*
X16326729Y-11102008D01*
X16326729Y-11102008D02*
X16317206Y-11111531D01*
X16317206Y-11111531D02*
X16307682Y-11130579D01*
X16307682Y-11130579D02*
X16307682Y-11178198D01*
X16307682Y-11178198D02*
X16317206Y-11197246D01*
X16317206Y-11197246D02*
X16326729Y-11206769D01*
X16326729Y-11206769D02*
X16345777Y-11216293D01*
X16345777Y-11216293D02*
X16383872Y-11216293D01*
X16383872Y-11216293D02*
X16402920Y-11206769D01*
X16402920Y-11206769D02*
X16412444Y-11197246D01*
X16412444Y-11197246D02*
X16421967Y-11178198D01*
X16593396Y-11159150D02*
X16593396Y-11292484D01*
X16545777Y-11082960D02*
X16498158Y-11225817D01*
X16498158Y-11225817D02*
X16621967Y-11225817D01*
X16688634Y-11092484D02*
X16688634Y-11130579D01*
X16764825Y-11092484D02*
X16764825Y-11130579D01*
X17060063Y-11368674D02*
X17050539Y-11359150D01*
X17050539Y-11359150D02*
X17031491Y-11330579D01*
X17031491Y-11330579D02*
X17021968Y-11311531D01*
X17021968Y-11311531D02*
X17012444Y-11282960D01*
X17012444Y-11282960D02*
X17002920Y-11235341D01*
X17002920Y-11235341D02*
X17002920Y-11197246D01*
X17002920Y-11197246D02*
X17012444Y-11149627D01*
X17012444Y-11149627D02*
X17021968Y-11121055D01*
X17021968Y-11121055D02*
X17031491Y-11102008D01*
X17031491Y-11102008D02*
X17050539Y-11073436D01*
X17050539Y-11073436D02*
X17060063Y-11063912D01*
X17221968Y-11159150D02*
X17221968Y-11292484D01*
X17174349Y-11082960D02*
X17126730Y-11225817D01*
X17126730Y-11225817D02*
X17250539Y-11225817D01*
X17336253Y-11292484D02*
X17374349Y-11292484D01*
X17374349Y-11292484D02*
X17393396Y-11282960D01*
X17393396Y-11282960D02*
X17402920Y-11273436D01*
X17402920Y-11273436D02*
X17421968Y-11244865D01*
X17421968Y-11244865D02*
X17431491Y-11206769D01*
X17431491Y-11206769D02*
X17431491Y-11130579D01*
X17431491Y-11130579D02*
X17421968Y-11111531D01*
X17421968Y-11111531D02*
X17412444Y-11102008D01*
X17412444Y-11102008D02*
X17393396Y-11092484D01*
X17393396Y-11092484D02*
X17355301Y-11092484D01*
X17355301Y-11092484D02*
X17336253Y-11102008D01*
X17336253Y-11102008D02*
X17326730Y-11111531D01*
X17326730Y-11111531D02*
X17317206Y-11130579D01*
X17317206Y-11130579D02*
X17317206Y-11178198D01*
X17317206Y-11178198D02*
X17326730Y-11197246D01*
X17326730Y-11197246D02*
X17336253Y-11206769D01*
X17336253Y-11206769D02*
X17355301Y-11216293D01*
X17355301Y-11216293D02*
X17393396Y-11216293D01*
X17393396Y-11216293D02*
X17412444Y-11206769D01*
X17412444Y-11206769D02*
X17421968Y-11197246D01*
X17421968Y-11197246D02*
X17431491Y-11178198D01*
X17669587Y-11292484D02*
X17669587Y-11092484D01*
X17755301Y-11292484D02*
X17755301Y-11187722D01*
X17755301Y-11187722D02*
X17745777Y-11168674D01*
X17745777Y-11168674D02*
X17726730Y-11159150D01*
X17726730Y-11159150D02*
X17698158Y-11159150D01*
X17698158Y-11159150D02*
X17679111Y-11168674D01*
X17679111Y-11168674D02*
X17669587Y-11178198D01*
X17879111Y-11292484D02*
X17860063Y-11282960D01*
X17860063Y-11282960D02*
X17850539Y-11273436D01*
X17850539Y-11273436D02*
X17841015Y-11254388D01*
X17841015Y-11254388D02*
X17841015Y-11197246D01*
X17841015Y-11197246D02*
X17850539Y-11178198D01*
X17850539Y-11178198D02*
X17860063Y-11168674D01*
X17860063Y-11168674D02*
X17879111Y-11159150D01*
X17879111Y-11159150D02*
X17907682Y-11159150D01*
X17907682Y-11159150D02*
X17926730Y-11168674D01*
X17926730Y-11168674D02*
X17936253Y-11178198D01*
X17936253Y-11178198D02*
X17945777Y-11197246D01*
X17945777Y-11197246D02*
X17945777Y-11254388D01*
X17945777Y-11254388D02*
X17936253Y-11273436D01*
X17936253Y-11273436D02*
X17926730Y-11282960D01*
X17926730Y-11282960D02*
X17907682Y-11292484D01*
X17907682Y-11292484D02*
X17879111Y-11292484D01*
X18060063Y-11292484D02*
X18041015Y-11282960D01*
X18041015Y-11282960D02*
X18031492Y-11263912D01*
X18031492Y-11263912D02*
X18031492Y-11092484D01*
X18212444Y-11282960D02*
X18193396Y-11292484D01*
X18193396Y-11292484D02*
X18155301Y-11292484D01*
X18155301Y-11292484D02*
X18136253Y-11282960D01*
X18136253Y-11282960D02*
X18126730Y-11263912D01*
X18126730Y-11263912D02*
X18126730Y-11187722D01*
X18126730Y-11187722D02*
X18136253Y-11168674D01*
X18136253Y-11168674D02*
X18155301Y-11159150D01*
X18155301Y-11159150D02*
X18193396Y-11159150D01*
X18193396Y-11159150D02*
X18212444Y-11168674D01*
X18212444Y-11168674D02*
X18221968Y-11187722D01*
X18221968Y-11187722D02*
X18221968Y-11206769D01*
X18221968Y-11206769D02*
X18126730Y-11225817D01*
X18298158Y-11282960D02*
X18317206Y-11292484D01*
X18317206Y-11292484D02*
X18355301Y-11292484D01*
X18355301Y-11292484D02*
X18374349Y-11282960D01*
X18374349Y-11282960D02*
X18383873Y-11263912D01*
X18383873Y-11263912D02*
X18383873Y-11254388D01*
X18383873Y-11254388D02*
X18374349Y-11235341D01*
X18374349Y-11235341D02*
X18355301Y-11225817D01*
X18355301Y-11225817D02*
X18326730Y-11225817D01*
X18326730Y-11225817D02*
X18307682Y-11216293D01*
X18307682Y-11216293D02*
X18298158Y-11197246D01*
X18298158Y-11197246D02*
X18298158Y-11187722D01*
X18298158Y-11187722D02*
X18307682Y-11168674D01*
X18307682Y-11168674D02*
X18326730Y-11159150D01*
X18326730Y-11159150D02*
X18355301Y-11159150D01*
X18355301Y-11159150D02*
X18374349Y-11168674D01*
X18450539Y-11368674D02*
X18460063Y-11359150D01*
X18460063Y-11359150D02*
X18479111Y-11330579D01*
X18479111Y-11330579D02*
X18488634Y-11311531D01*
X18488634Y-11311531D02*
X18498158Y-11282960D01*
X18498158Y-11282960D02*
X18507682Y-11235341D01*
X18507682Y-11235341D02*
X18507682Y-11197246D01*
X18507682Y-11197246D02*
X18498158Y-11149627D01*
X18498158Y-11149627D02*
X18488634Y-11121055D01*
X18488634Y-11121055D02*
X18479111Y-11102008D01*
X18479111Y-11102008D02*
X18460063Y-11073436D01*
X18460063Y-11073436D02*
X18450539Y-11063912D01*
D16*
X13375000Y-11410000D02*
X13485000Y-11520000D01*
X13485000Y-11410000D02*
X13375000Y-11520000D01*
X13485000Y-11465000D02*
G75*
G03*
X13485000Y-11465000I-55000J0D01*
G01*
D11*
X13850539Y-11556484D02*
X13736253Y-11556484D01*
X13793396Y-11556484D02*
X13793396Y-11356484D01*
X13793396Y-11356484D02*
X13774348Y-11385055D01*
X13774348Y-11385055D02*
X13755301Y-11404103D01*
X13755301Y-11404103D02*
X13736253Y-11413627D01*
X13936253Y-11537436D02*
X13945777Y-11546960D01*
X13945777Y-11546960D02*
X13936253Y-11556484D01*
X13936253Y-11556484D02*
X13926729Y-11546960D01*
X13926729Y-11546960D02*
X13936253Y-11537436D01*
X13936253Y-11537436D02*
X13936253Y-11556484D01*
X14136253Y-11556484D02*
X14021967Y-11556484D01*
X14079110Y-11556484D02*
X14079110Y-11356484D01*
X14079110Y-11356484D02*
X14060062Y-11385055D01*
X14060062Y-11385055D02*
X14041015Y-11404103D01*
X14041015Y-11404103D02*
X14021967Y-11413627D01*
X14260062Y-11356484D02*
X14279110Y-11356484D01*
X14279110Y-11356484D02*
X14298158Y-11366008D01*
X14298158Y-11366008D02*
X14307682Y-11375531D01*
X14307682Y-11375531D02*
X14317205Y-11394579D01*
X14317205Y-11394579D02*
X14326729Y-11432674D01*
X14326729Y-11432674D02*
X14326729Y-11480293D01*
X14326729Y-11480293D02*
X14317205Y-11518388D01*
X14317205Y-11518388D02*
X14307682Y-11537436D01*
X14307682Y-11537436D02*
X14298158Y-11546960D01*
X14298158Y-11546960D02*
X14279110Y-11556484D01*
X14279110Y-11556484D02*
X14260062Y-11556484D01*
X14260062Y-11556484D02*
X14241015Y-11546960D01*
X14241015Y-11546960D02*
X14231491Y-11537436D01*
X14231491Y-11537436D02*
X14221967Y-11518388D01*
X14221967Y-11518388D02*
X14212443Y-11480293D01*
X14212443Y-11480293D02*
X14212443Y-11432674D01*
X14212443Y-11432674D02*
X14221967Y-11394579D01*
X14221967Y-11394579D02*
X14231491Y-11375531D01*
X14231491Y-11375531D02*
X14241015Y-11366008D01*
X14241015Y-11366008D02*
X14260062Y-11356484D01*
X14450539Y-11356484D02*
X14469586Y-11356484D01*
X14469586Y-11356484D02*
X14488634Y-11366008D01*
X14488634Y-11366008D02*
X14498158Y-11375531D01*
X14498158Y-11375531D02*
X14507682Y-11394579D01*
X14507682Y-11394579D02*
X14517205Y-11432674D01*
X14517205Y-11432674D02*
X14517205Y-11480293D01*
X14517205Y-11480293D02*
X14507682Y-11518388D01*
X14507682Y-11518388D02*
X14498158Y-11537436D01*
X14498158Y-11537436D02*
X14488634Y-11546960D01*
X14488634Y-11546960D02*
X14469586Y-11556484D01*
X14469586Y-11556484D02*
X14450539Y-11556484D01*
X14450539Y-11556484D02*
X14431491Y-11546960D01*
X14431491Y-11546960D02*
X14421967Y-11537436D01*
X14421967Y-11537436D02*
X14412443Y-11518388D01*
X14412443Y-11518388D02*
X14402920Y-11480293D01*
X14402920Y-11480293D02*
X14402920Y-11432674D01*
X14402920Y-11432674D02*
X14412443Y-11394579D01*
X14412443Y-11394579D02*
X14421967Y-11375531D01*
X14421967Y-11375531D02*
X14431491Y-11366008D01*
X14431491Y-11366008D02*
X14450539Y-11356484D01*
X14602920Y-11556484D02*
X14602920Y-11423150D01*
X14602920Y-11442198D02*
X14612443Y-11432674D01*
X14612443Y-11432674D02*
X14631491Y-11423150D01*
X14631491Y-11423150D02*
X14660063Y-11423150D01*
X14660063Y-11423150D02*
X14679110Y-11432674D01*
X14679110Y-11432674D02*
X14688634Y-11451722D01*
X14688634Y-11451722D02*
X14688634Y-11556484D01*
X14688634Y-11451722D02*
X14698158Y-11432674D01*
X14698158Y-11432674D02*
X14717205Y-11423150D01*
X14717205Y-11423150D02*
X14745777Y-11423150D01*
X14745777Y-11423150D02*
X14764824Y-11432674D01*
X14764824Y-11432674D02*
X14774348Y-11451722D01*
X14774348Y-11451722D02*
X14774348Y-11556484D01*
X14869586Y-11556484D02*
X14869586Y-11423150D01*
X14869586Y-11442198D02*
X14879110Y-11432674D01*
X14879110Y-11432674D02*
X14898158Y-11423150D01*
X14898158Y-11423150D02*
X14926729Y-11423150D01*
X14926729Y-11423150D02*
X14945777Y-11432674D01*
X14945777Y-11432674D02*
X14955301Y-11451722D01*
X14955301Y-11451722D02*
X14955301Y-11556484D01*
X14955301Y-11451722D02*
X14964824Y-11432674D01*
X14964824Y-11432674D02*
X14983872Y-11423150D01*
X14983872Y-11423150D02*
X15012443Y-11423150D01*
X15012443Y-11423150D02*
X15031491Y-11432674D01*
X15031491Y-11432674D02*
X15041015Y-11451722D01*
X15041015Y-11451722D02*
X15041015Y-11556484D01*
X15431491Y-11346960D02*
X15260063Y-11604103D01*
X15688634Y-11356484D02*
X15707682Y-11356484D01*
X15707682Y-11356484D02*
X15726729Y-11366008D01*
X15726729Y-11366008D02*
X15736253Y-11375531D01*
X15736253Y-11375531D02*
X15745777Y-11394579D01*
X15745777Y-11394579D02*
X15755301Y-11432674D01*
X15755301Y-11432674D02*
X15755301Y-11480293D01*
X15755301Y-11480293D02*
X15745777Y-11518388D01*
X15745777Y-11518388D02*
X15736253Y-11537436D01*
X15736253Y-11537436D02*
X15726729Y-11546960D01*
X15726729Y-11546960D02*
X15707682Y-11556484D01*
X15707682Y-11556484D02*
X15688634Y-11556484D01*
X15688634Y-11556484D02*
X15669586Y-11546960D01*
X15669586Y-11546960D02*
X15660063Y-11537436D01*
X15660063Y-11537436D02*
X15650539Y-11518388D01*
X15650539Y-11518388D02*
X15641015Y-11480293D01*
X15641015Y-11480293D02*
X15641015Y-11432674D01*
X15641015Y-11432674D02*
X15650539Y-11394579D01*
X15650539Y-11394579D02*
X15660063Y-11375531D01*
X15660063Y-11375531D02*
X15669586Y-11366008D01*
X15669586Y-11366008D02*
X15688634Y-11356484D01*
X15841015Y-11537436D02*
X15850539Y-11546960D01*
X15850539Y-11546960D02*
X15841015Y-11556484D01*
X15841015Y-11556484D02*
X15831491Y-11546960D01*
X15831491Y-11546960D02*
X15841015Y-11537436D01*
X15841015Y-11537436D02*
X15841015Y-11556484D01*
X15974348Y-11356484D02*
X15993396Y-11356484D01*
X15993396Y-11356484D02*
X16012444Y-11366008D01*
X16012444Y-11366008D02*
X16021967Y-11375531D01*
X16021967Y-11375531D02*
X16031491Y-11394579D01*
X16031491Y-11394579D02*
X16041015Y-11432674D01*
X16041015Y-11432674D02*
X16041015Y-11480293D01*
X16041015Y-11480293D02*
X16031491Y-11518388D01*
X16031491Y-11518388D02*
X16021967Y-11537436D01*
X16021967Y-11537436D02*
X16012444Y-11546960D01*
X16012444Y-11546960D02*
X15993396Y-11556484D01*
X15993396Y-11556484D02*
X15974348Y-11556484D01*
X15974348Y-11556484D02*
X15955301Y-11546960D01*
X15955301Y-11546960D02*
X15945777Y-11537436D01*
X15945777Y-11537436D02*
X15936253Y-11518388D01*
X15936253Y-11518388D02*
X15926729Y-11480293D01*
X15926729Y-11480293D02*
X15926729Y-11432674D01*
X15926729Y-11432674D02*
X15936253Y-11394579D01*
X15936253Y-11394579D02*
X15945777Y-11375531D01*
X15945777Y-11375531D02*
X15955301Y-11366008D01*
X15955301Y-11366008D02*
X15974348Y-11356484D01*
X16212444Y-11423150D02*
X16212444Y-11556484D01*
X16164825Y-11346960D02*
X16117206Y-11489817D01*
X16117206Y-11489817D02*
X16241015Y-11489817D01*
X16298158Y-11356484D02*
X16421967Y-11356484D01*
X16421967Y-11356484D02*
X16355301Y-11432674D01*
X16355301Y-11432674D02*
X16383872Y-11432674D01*
X16383872Y-11432674D02*
X16402920Y-11442198D01*
X16402920Y-11442198D02*
X16412444Y-11451722D01*
X16412444Y-11451722D02*
X16421967Y-11470769D01*
X16421967Y-11470769D02*
X16421967Y-11518388D01*
X16421967Y-11518388D02*
X16412444Y-11537436D01*
X16412444Y-11537436D02*
X16402920Y-11546960D01*
X16402920Y-11546960D02*
X16383872Y-11556484D01*
X16383872Y-11556484D02*
X16326729Y-11556484D01*
X16326729Y-11556484D02*
X16307682Y-11546960D01*
X16307682Y-11546960D02*
X16298158Y-11537436D01*
X16488634Y-11356484D02*
X16612444Y-11356484D01*
X16612444Y-11356484D02*
X16545777Y-11432674D01*
X16545777Y-11432674D02*
X16574348Y-11432674D01*
X16574348Y-11432674D02*
X16593396Y-11442198D01*
X16593396Y-11442198D02*
X16602920Y-11451722D01*
X16602920Y-11451722D02*
X16612444Y-11470769D01*
X16612444Y-11470769D02*
X16612444Y-11518388D01*
X16612444Y-11518388D02*
X16602920Y-11537436D01*
X16602920Y-11537436D02*
X16593396Y-11546960D01*
X16593396Y-11546960D02*
X16574348Y-11556484D01*
X16574348Y-11556484D02*
X16517206Y-11556484D01*
X16517206Y-11556484D02*
X16498158Y-11546960D01*
X16498158Y-11546960D02*
X16488634Y-11537436D01*
X16688634Y-11356484D02*
X16688634Y-11394579D01*
X16764825Y-11356484D02*
X16764825Y-11394579D01*
X17060063Y-11632674D02*
X17050539Y-11623150D01*
X17050539Y-11623150D02*
X17031491Y-11594579D01*
X17031491Y-11594579D02*
X17021968Y-11575531D01*
X17021968Y-11575531D02*
X17012444Y-11546960D01*
X17012444Y-11546960D02*
X17002920Y-11499341D01*
X17002920Y-11499341D02*
X17002920Y-11461246D01*
X17002920Y-11461246D02*
X17012444Y-11413627D01*
X17012444Y-11413627D02*
X17021968Y-11385055D01*
X17021968Y-11385055D02*
X17031491Y-11366008D01*
X17031491Y-11366008D02*
X17050539Y-11337436D01*
X17050539Y-11337436D02*
X17060063Y-11327912D01*
X17231491Y-11356484D02*
X17136253Y-11356484D01*
X17136253Y-11356484D02*
X17126730Y-11451722D01*
X17126730Y-11451722D02*
X17136253Y-11442198D01*
X17136253Y-11442198D02*
X17155301Y-11432674D01*
X17155301Y-11432674D02*
X17202920Y-11432674D01*
X17202920Y-11432674D02*
X17221968Y-11442198D01*
X17221968Y-11442198D02*
X17231491Y-11451722D01*
X17231491Y-11451722D02*
X17241015Y-11470769D01*
X17241015Y-11470769D02*
X17241015Y-11518388D01*
X17241015Y-11518388D02*
X17231491Y-11537436D01*
X17231491Y-11537436D02*
X17221968Y-11546960D01*
X17221968Y-11546960D02*
X17202920Y-11556484D01*
X17202920Y-11556484D02*
X17155301Y-11556484D01*
X17155301Y-11556484D02*
X17136253Y-11546960D01*
X17136253Y-11546960D02*
X17126730Y-11537436D01*
X17479111Y-11556484D02*
X17479111Y-11356484D01*
X17564825Y-11556484D02*
X17564825Y-11451722D01*
X17564825Y-11451722D02*
X17555301Y-11432674D01*
X17555301Y-11432674D02*
X17536253Y-11423150D01*
X17536253Y-11423150D02*
X17507682Y-11423150D01*
X17507682Y-11423150D02*
X17488634Y-11432674D01*
X17488634Y-11432674D02*
X17479111Y-11442198D01*
X17688634Y-11556484D02*
X17669587Y-11546960D01*
X17669587Y-11546960D02*
X17660063Y-11537436D01*
X17660063Y-11537436D02*
X17650539Y-11518388D01*
X17650539Y-11518388D02*
X17650539Y-11461246D01*
X17650539Y-11461246D02*
X17660063Y-11442198D01*
X17660063Y-11442198D02*
X17669587Y-11432674D01*
X17669587Y-11432674D02*
X17688634Y-11423150D01*
X17688634Y-11423150D02*
X17717206Y-11423150D01*
X17717206Y-11423150D02*
X17736253Y-11432674D01*
X17736253Y-11432674D02*
X17745777Y-11442198D01*
X17745777Y-11442198D02*
X17755301Y-11461246D01*
X17755301Y-11461246D02*
X17755301Y-11518388D01*
X17755301Y-11518388D02*
X17745777Y-11537436D01*
X17745777Y-11537436D02*
X17736253Y-11546960D01*
X17736253Y-11546960D02*
X17717206Y-11556484D01*
X17717206Y-11556484D02*
X17688634Y-11556484D01*
X17869587Y-11556484D02*
X17850539Y-11546960D01*
X17850539Y-11546960D02*
X17841015Y-11527912D01*
X17841015Y-11527912D02*
X17841015Y-11356484D01*
X18021968Y-11546960D02*
X18002920Y-11556484D01*
X18002920Y-11556484D02*
X17964825Y-11556484D01*
X17964825Y-11556484D02*
X17945777Y-11546960D01*
X17945777Y-11546960D02*
X17936253Y-11527912D01*
X17936253Y-11527912D02*
X17936253Y-11451722D01*
X17936253Y-11451722D02*
X17945777Y-11432674D01*
X17945777Y-11432674D02*
X17964825Y-11423150D01*
X17964825Y-11423150D02*
X18002920Y-11423150D01*
X18002920Y-11423150D02*
X18021968Y-11432674D01*
X18021968Y-11432674D02*
X18031492Y-11451722D01*
X18031492Y-11451722D02*
X18031492Y-11470769D01*
X18031492Y-11470769D02*
X17936253Y-11489817D01*
X18107682Y-11546960D02*
X18126730Y-11556484D01*
X18126730Y-11556484D02*
X18164825Y-11556484D01*
X18164825Y-11556484D02*
X18183873Y-11546960D01*
X18183873Y-11546960D02*
X18193396Y-11527912D01*
X18193396Y-11527912D02*
X18193396Y-11518388D01*
X18193396Y-11518388D02*
X18183873Y-11499341D01*
X18183873Y-11499341D02*
X18164825Y-11489817D01*
X18164825Y-11489817D02*
X18136253Y-11489817D01*
X18136253Y-11489817D02*
X18117206Y-11480293D01*
X18117206Y-11480293D02*
X18107682Y-11461246D01*
X18107682Y-11461246D02*
X18107682Y-11451722D01*
X18107682Y-11451722D02*
X18117206Y-11432674D01*
X18117206Y-11432674D02*
X18136253Y-11423150D01*
X18136253Y-11423150D02*
X18164825Y-11423150D01*
X18164825Y-11423150D02*
X18183873Y-11432674D01*
X18260063Y-11632674D02*
X18269587Y-11623150D01*
X18269587Y-11623150D02*
X18288634Y-11594579D01*
X18288634Y-11594579D02*
X18298158Y-11575531D01*
X18298158Y-11575531D02*
X18307682Y-11546960D01*
X18307682Y-11546960D02*
X18317206Y-11499341D01*
X18317206Y-11499341D02*
X18317206Y-11461246D01*
X18317206Y-11461246D02*
X18307682Y-11413627D01*
X18307682Y-11413627D02*
X18298158Y-11385055D01*
X18298158Y-11385055D02*
X18288634Y-11366008D01*
X18288634Y-11366008D02*
X18269587Y-11337436D01*
X18269587Y-11337436D02*
X18260063Y-11327912D01*
X13285000Y-11629000D02*
X13485000Y-11829000D01*
X13485000Y-11629000D02*
X13285000Y-11829000D01*
X13385000Y-11629000D02*
X13385000Y-11829000D01*
X13285000Y-11729000D02*
X13485000Y-11729000D01*
X13736253Y-11639531D02*
X13745777Y-11630008D01*
X13745777Y-11630008D02*
X13764824Y-11620484D01*
X13764824Y-11620484D02*
X13812443Y-11620484D01*
X13812443Y-11620484D02*
X13831491Y-11630008D01*
X13831491Y-11630008D02*
X13841015Y-11639531D01*
X13841015Y-11639531D02*
X13850539Y-11658579D01*
X13850539Y-11658579D02*
X13850539Y-11677627D01*
X13850539Y-11677627D02*
X13841015Y-11706198D01*
X13841015Y-11706198D02*
X13726729Y-11820484D01*
X13726729Y-11820484D02*
X13850539Y-11820484D01*
X13936253Y-11801436D02*
X13945777Y-11810960D01*
X13945777Y-11810960D02*
X13936253Y-11820484D01*
X13936253Y-11820484D02*
X13926729Y-11810960D01*
X13926729Y-11810960D02*
X13936253Y-11801436D01*
X13936253Y-11801436D02*
X13936253Y-11820484D01*
X14012443Y-11620484D02*
X14145777Y-11620484D01*
X14145777Y-11620484D02*
X14060062Y-11820484D01*
X14260062Y-11620484D02*
X14279110Y-11620484D01*
X14279110Y-11620484D02*
X14298158Y-11630008D01*
X14298158Y-11630008D02*
X14307682Y-11639531D01*
X14307682Y-11639531D02*
X14317205Y-11658579D01*
X14317205Y-11658579D02*
X14326729Y-11696674D01*
X14326729Y-11696674D02*
X14326729Y-11744293D01*
X14326729Y-11744293D02*
X14317205Y-11782388D01*
X14317205Y-11782388D02*
X14307682Y-11801436D01*
X14307682Y-11801436D02*
X14298158Y-11810960D01*
X14298158Y-11810960D02*
X14279110Y-11820484D01*
X14279110Y-11820484D02*
X14260062Y-11820484D01*
X14260062Y-11820484D02*
X14241015Y-11810960D01*
X14241015Y-11810960D02*
X14231491Y-11801436D01*
X14231491Y-11801436D02*
X14221967Y-11782388D01*
X14221967Y-11782388D02*
X14212443Y-11744293D01*
X14212443Y-11744293D02*
X14212443Y-11696674D01*
X14212443Y-11696674D02*
X14221967Y-11658579D01*
X14221967Y-11658579D02*
X14231491Y-11639531D01*
X14231491Y-11639531D02*
X14241015Y-11630008D01*
X14241015Y-11630008D02*
X14260062Y-11620484D01*
X14450539Y-11620484D02*
X14469586Y-11620484D01*
X14469586Y-11620484D02*
X14488634Y-11630008D01*
X14488634Y-11630008D02*
X14498158Y-11639531D01*
X14498158Y-11639531D02*
X14507682Y-11658579D01*
X14507682Y-11658579D02*
X14517205Y-11696674D01*
X14517205Y-11696674D02*
X14517205Y-11744293D01*
X14517205Y-11744293D02*
X14507682Y-11782388D01*
X14507682Y-11782388D02*
X14498158Y-11801436D01*
X14498158Y-11801436D02*
X14488634Y-11810960D01*
X14488634Y-11810960D02*
X14469586Y-11820484D01*
X14469586Y-11820484D02*
X14450539Y-11820484D01*
X14450539Y-11820484D02*
X14431491Y-11810960D01*
X14431491Y-11810960D02*
X14421967Y-11801436D01*
X14421967Y-11801436D02*
X14412443Y-11782388D01*
X14412443Y-11782388D02*
X14402920Y-11744293D01*
X14402920Y-11744293D02*
X14402920Y-11696674D01*
X14402920Y-11696674D02*
X14412443Y-11658579D01*
X14412443Y-11658579D02*
X14421967Y-11639531D01*
X14421967Y-11639531D02*
X14431491Y-11630008D01*
X14431491Y-11630008D02*
X14450539Y-11620484D01*
X14602920Y-11820484D02*
X14602920Y-11687150D01*
X14602920Y-11706198D02*
X14612443Y-11696674D01*
X14612443Y-11696674D02*
X14631491Y-11687150D01*
X14631491Y-11687150D02*
X14660063Y-11687150D01*
X14660063Y-11687150D02*
X14679110Y-11696674D01*
X14679110Y-11696674D02*
X14688634Y-11715722D01*
X14688634Y-11715722D02*
X14688634Y-11820484D01*
X14688634Y-11715722D02*
X14698158Y-11696674D01*
X14698158Y-11696674D02*
X14717205Y-11687150D01*
X14717205Y-11687150D02*
X14745777Y-11687150D01*
X14745777Y-11687150D02*
X14764824Y-11696674D01*
X14764824Y-11696674D02*
X14774348Y-11715722D01*
X14774348Y-11715722D02*
X14774348Y-11820484D01*
X14869586Y-11820484D02*
X14869586Y-11687150D01*
X14869586Y-11706198D02*
X14879110Y-11696674D01*
X14879110Y-11696674D02*
X14898158Y-11687150D01*
X14898158Y-11687150D02*
X14926729Y-11687150D01*
X14926729Y-11687150D02*
X14945777Y-11696674D01*
X14945777Y-11696674D02*
X14955301Y-11715722D01*
X14955301Y-11715722D02*
X14955301Y-11820484D01*
X14955301Y-11715722D02*
X14964824Y-11696674D01*
X14964824Y-11696674D02*
X14983872Y-11687150D01*
X14983872Y-11687150D02*
X15012443Y-11687150D01*
X15012443Y-11687150D02*
X15031491Y-11696674D01*
X15031491Y-11696674D02*
X15041015Y-11715722D01*
X15041015Y-11715722D02*
X15041015Y-11820484D01*
X15431491Y-11610960D02*
X15260063Y-11868103D01*
X15688634Y-11620484D02*
X15707682Y-11620484D01*
X15707682Y-11620484D02*
X15726729Y-11630008D01*
X15726729Y-11630008D02*
X15736253Y-11639531D01*
X15736253Y-11639531D02*
X15745777Y-11658579D01*
X15745777Y-11658579D02*
X15755301Y-11696674D01*
X15755301Y-11696674D02*
X15755301Y-11744293D01*
X15755301Y-11744293D02*
X15745777Y-11782388D01*
X15745777Y-11782388D02*
X15736253Y-11801436D01*
X15736253Y-11801436D02*
X15726729Y-11810960D01*
X15726729Y-11810960D02*
X15707682Y-11820484D01*
X15707682Y-11820484D02*
X15688634Y-11820484D01*
X15688634Y-11820484D02*
X15669586Y-11810960D01*
X15669586Y-11810960D02*
X15660063Y-11801436D01*
X15660063Y-11801436D02*
X15650539Y-11782388D01*
X15650539Y-11782388D02*
X15641015Y-11744293D01*
X15641015Y-11744293D02*
X15641015Y-11696674D01*
X15641015Y-11696674D02*
X15650539Y-11658579D01*
X15650539Y-11658579D02*
X15660063Y-11639531D01*
X15660063Y-11639531D02*
X15669586Y-11630008D01*
X15669586Y-11630008D02*
X15688634Y-11620484D01*
X15841015Y-11801436D02*
X15850539Y-11810960D01*
X15850539Y-11810960D02*
X15841015Y-11820484D01*
X15841015Y-11820484D02*
X15831491Y-11810960D01*
X15831491Y-11810960D02*
X15841015Y-11801436D01*
X15841015Y-11801436D02*
X15841015Y-11820484D01*
X16041015Y-11820484D02*
X15926729Y-11820484D01*
X15983872Y-11820484D02*
X15983872Y-11620484D01*
X15983872Y-11620484D02*
X15964825Y-11649055D01*
X15964825Y-11649055D02*
X15945777Y-11668103D01*
X15945777Y-11668103D02*
X15926729Y-11677627D01*
X16164825Y-11620484D02*
X16183872Y-11620484D01*
X16183872Y-11620484D02*
X16202920Y-11630008D01*
X16202920Y-11630008D02*
X16212444Y-11639531D01*
X16212444Y-11639531D02*
X16221967Y-11658579D01*
X16221967Y-11658579D02*
X16231491Y-11696674D01*
X16231491Y-11696674D02*
X16231491Y-11744293D01*
X16231491Y-11744293D02*
X16221967Y-11782388D01*
X16221967Y-11782388D02*
X16212444Y-11801436D01*
X16212444Y-11801436D02*
X16202920Y-11810960D01*
X16202920Y-11810960D02*
X16183872Y-11820484D01*
X16183872Y-11820484D02*
X16164825Y-11820484D01*
X16164825Y-11820484D02*
X16145777Y-11810960D01*
X16145777Y-11810960D02*
X16136253Y-11801436D01*
X16136253Y-11801436D02*
X16126729Y-11782388D01*
X16126729Y-11782388D02*
X16117206Y-11744293D01*
X16117206Y-11744293D02*
X16117206Y-11696674D01*
X16117206Y-11696674D02*
X16126729Y-11658579D01*
X16126729Y-11658579D02*
X16136253Y-11639531D01*
X16136253Y-11639531D02*
X16145777Y-11630008D01*
X16145777Y-11630008D02*
X16164825Y-11620484D01*
X16402920Y-11620484D02*
X16364825Y-11620484D01*
X16364825Y-11620484D02*
X16345777Y-11630008D01*
X16345777Y-11630008D02*
X16336253Y-11639531D01*
X16336253Y-11639531D02*
X16317206Y-11668103D01*
X16317206Y-11668103D02*
X16307682Y-11706198D01*
X16307682Y-11706198D02*
X16307682Y-11782388D01*
X16307682Y-11782388D02*
X16317206Y-11801436D01*
X16317206Y-11801436D02*
X16326729Y-11810960D01*
X16326729Y-11810960D02*
X16345777Y-11820484D01*
X16345777Y-11820484D02*
X16383872Y-11820484D01*
X16383872Y-11820484D02*
X16402920Y-11810960D01*
X16402920Y-11810960D02*
X16412444Y-11801436D01*
X16412444Y-11801436D02*
X16421967Y-11782388D01*
X16421967Y-11782388D02*
X16421967Y-11734769D01*
X16421967Y-11734769D02*
X16412444Y-11715722D01*
X16412444Y-11715722D02*
X16402920Y-11706198D01*
X16402920Y-11706198D02*
X16383872Y-11696674D01*
X16383872Y-11696674D02*
X16345777Y-11696674D01*
X16345777Y-11696674D02*
X16326729Y-11706198D01*
X16326729Y-11706198D02*
X16317206Y-11715722D01*
X16317206Y-11715722D02*
X16307682Y-11734769D01*
X16488634Y-11620484D02*
X16612444Y-11620484D01*
X16612444Y-11620484D02*
X16545777Y-11696674D01*
X16545777Y-11696674D02*
X16574348Y-11696674D01*
X16574348Y-11696674D02*
X16593396Y-11706198D01*
X16593396Y-11706198D02*
X16602920Y-11715722D01*
X16602920Y-11715722D02*
X16612444Y-11734769D01*
X16612444Y-11734769D02*
X16612444Y-11782388D01*
X16612444Y-11782388D02*
X16602920Y-11801436D01*
X16602920Y-11801436D02*
X16593396Y-11810960D01*
X16593396Y-11810960D02*
X16574348Y-11820484D01*
X16574348Y-11820484D02*
X16517206Y-11820484D01*
X16517206Y-11820484D02*
X16498158Y-11810960D01*
X16498158Y-11810960D02*
X16488634Y-11801436D01*
X16688634Y-11620484D02*
X16688634Y-11658579D01*
X16764825Y-11620484D02*
X16764825Y-11658579D01*
X17060063Y-11896674D02*
X17050539Y-11887150D01*
X17050539Y-11887150D02*
X17031491Y-11858579D01*
X17031491Y-11858579D02*
X17021968Y-11839531D01*
X17021968Y-11839531D02*
X17012444Y-11810960D01*
X17012444Y-11810960D02*
X17002920Y-11763341D01*
X17002920Y-11763341D02*
X17002920Y-11725246D01*
X17002920Y-11725246D02*
X17012444Y-11677627D01*
X17012444Y-11677627D02*
X17021968Y-11649055D01*
X17021968Y-11649055D02*
X17031491Y-11630008D01*
X17031491Y-11630008D02*
X17050539Y-11601436D01*
X17050539Y-11601436D02*
X17060063Y-11591912D01*
X17126730Y-11639531D02*
X17136253Y-11630008D01*
X17136253Y-11630008D02*
X17155301Y-11620484D01*
X17155301Y-11620484D02*
X17202920Y-11620484D01*
X17202920Y-11620484D02*
X17221968Y-11630008D01*
X17221968Y-11630008D02*
X17231491Y-11639531D01*
X17231491Y-11639531D02*
X17241015Y-11658579D01*
X17241015Y-11658579D02*
X17241015Y-11677627D01*
X17241015Y-11677627D02*
X17231491Y-11706198D01*
X17231491Y-11706198D02*
X17117206Y-11820484D01*
X17117206Y-11820484D02*
X17241015Y-11820484D01*
X17479111Y-11820484D02*
X17479111Y-11620484D01*
X17564825Y-11820484D02*
X17564825Y-11715722D01*
X17564825Y-11715722D02*
X17555301Y-11696674D01*
X17555301Y-11696674D02*
X17536253Y-11687150D01*
X17536253Y-11687150D02*
X17507682Y-11687150D01*
X17507682Y-11687150D02*
X17488634Y-11696674D01*
X17488634Y-11696674D02*
X17479111Y-11706198D01*
X17688634Y-11820484D02*
X17669587Y-11810960D01*
X17669587Y-11810960D02*
X17660063Y-11801436D01*
X17660063Y-11801436D02*
X17650539Y-11782388D01*
X17650539Y-11782388D02*
X17650539Y-11725246D01*
X17650539Y-11725246D02*
X17660063Y-11706198D01*
X17660063Y-11706198D02*
X17669587Y-11696674D01*
X17669587Y-11696674D02*
X17688634Y-11687150D01*
X17688634Y-11687150D02*
X17717206Y-11687150D01*
X17717206Y-11687150D02*
X17736253Y-11696674D01*
X17736253Y-11696674D02*
X17745777Y-11706198D01*
X17745777Y-11706198D02*
X17755301Y-11725246D01*
X17755301Y-11725246D02*
X17755301Y-11782388D01*
X17755301Y-11782388D02*
X17745777Y-11801436D01*
X17745777Y-11801436D02*
X17736253Y-11810960D01*
X17736253Y-11810960D02*
X17717206Y-11820484D01*
X17717206Y-11820484D02*
X17688634Y-11820484D01*
X17869587Y-11820484D02*
X17850539Y-11810960D01*
X17850539Y-11810960D02*
X17841015Y-11791912D01*
X17841015Y-11791912D02*
X17841015Y-11620484D01*
X18021968Y-11810960D02*
X18002920Y-11820484D01*
X18002920Y-11820484D02*
X17964825Y-11820484D01*
X17964825Y-11820484D02*
X17945777Y-11810960D01*
X17945777Y-11810960D02*
X17936253Y-11791912D01*
X17936253Y-11791912D02*
X17936253Y-11715722D01*
X17936253Y-11715722D02*
X17945777Y-11696674D01*
X17945777Y-11696674D02*
X17964825Y-11687150D01*
X17964825Y-11687150D02*
X18002920Y-11687150D01*
X18002920Y-11687150D02*
X18021968Y-11696674D01*
X18021968Y-11696674D02*
X18031492Y-11715722D01*
X18031492Y-11715722D02*
X18031492Y-11734769D01*
X18031492Y-11734769D02*
X17936253Y-11753817D01*
X18107682Y-11810960D02*
X18126730Y-11820484D01*
X18126730Y-11820484D02*
X18164825Y-11820484D01*
X18164825Y-11820484D02*
X18183873Y-11810960D01*
X18183873Y-11810960D02*
X18193396Y-11791912D01*
X18193396Y-11791912D02*
X18193396Y-11782388D01*
X18193396Y-11782388D02*
X18183873Y-11763341D01*
X18183873Y-11763341D02*
X18164825Y-11753817D01*
X18164825Y-11753817D02*
X18136253Y-11753817D01*
X18136253Y-11753817D02*
X18117206Y-11744293D01*
X18117206Y-11744293D02*
X18107682Y-11725246D01*
X18107682Y-11725246D02*
X18107682Y-11715722D01*
X18107682Y-11715722D02*
X18117206Y-11696674D01*
X18117206Y-11696674D02*
X18136253Y-11687150D01*
X18136253Y-11687150D02*
X18164825Y-11687150D01*
X18164825Y-11687150D02*
X18183873Y-11696674D01*
X18260063Y-11896674D02*
X18269587Y-11887150D01*
X18269587Y-11887150D02*
X18288634Y-11858579D01*
X18288634Y-11858579D02*
X18298158Y-11839531D01*
X18298158Y-11839531D02*
X18307682Y-11810960D01*
X18307682Y-11810960D02*
X18317206Y-11763341D01*
X18317206Y-11763341D02*
X18317206Y-11725246D01*
X18317206Y-11725246D02*
X18307682Y-11677627D01*
X18307682Y-11677627D02*
X18298158Y-11649055D01*
X18298158Y-11649055D02*
X18288634Y-11630008D01*
X18288634Y-11630008D02*
X18269587Y-11601436D01*
X18269587Y-11601436D02*
X18260063Y-11591912D01*
M02*
