%TF.GenerationSoftware,KiCad,Pcbnew,7.0.7*%
%TF.CreationDate,2023-11-07T21:10:22-05:00*%
%TF.ProjectId,attachmentBoard,61747461-6368-46d6-956e-74426f617264,rev?*%
%TF.SameCoordinates,Original*%
%TF.FileFunction,Soldermask,Top*%
%TF.FilePolarity,Negative*%
%FSLAX46Y46*%
G04 Gerber Fmt 4.6, Leading zero omitted, Abs format (unit mm)*
G04 Created by KiCad (PCBNEW 7.0.7) date 2023-11-07 21:10:22*
%MOMM*%
%LPD*%
G01*
G04 APERTURE LIST*
G04 Aperture macros list*
%AMRoundRect*
0 Rectangle with rounded corners*
0 $1 Rounding radius*
0 $2 $3 $4 $5 $6 $7 $8 $9 X,Y pos of 4 corners*
0 Add a 4 corners polygon primitive as box body*
4,1,4,$2,$3,$4,$5,$6,$7,$8,$9,$2,$3,0*
0 Add four circle primitives for the rounded corners*
1,1,$1+$1,$2,$3*
1,1,$1+$1,$4,$5*
1,1,$1+$1,$6,$7*
1,1,$1+$1,$8,$9*
0 Add four rect primitives between the rounded corners*
20,1,$1+$1,$2,$3,$4,$5,0*
20,1,$1+$1,$4,$5,$6,$7,0*
20,1,$1+$1,$6,$7,$8,$9,0*
20,1,$1+$1,$8,$9,$2,$3,0*%
G04 Aperture macros list end*
%ADD10RoundRect,0.100000X0.100000X-0.637500X0.100000X0.637500X-0.100000X0.637500X-0.100000X-0.637500X0*%
%ADD11RoundRect,0.750000X-0.750000X-0.750000X0.750000X-0.750000X0.750000X0.750000X-0.750000X0.750000X0*%
%ADD12C,3.000000*%
%ADD13RoundRect,0.326336X0.528664X-0.528664X0.528664X0.528664X-0.528664X0.528664X-0.528664X-0.528664X0*%
%ADD14C,1.710000*%
%ADD15RoundRect,0.225000X0.250000X-0.225000X0.250000X0.225000X-0.250000X0.225000X-0.250000X-0.225000X0*%
%ADD16RoundRect,0.200000X-0.275000X0.200000X-0.275000X-0.200000X0.275000X-0.200000X0.275000X0.200000X0*%
%ADD17RoundRect,0.200000X0.200000X0.275000X-0.200000X0.275000X-0.200000X-0.275000X0.200000X-0.275000X0*%
%ADD18RoundRect,1.000000X1.000000X-1.000000X1.000000X1.000000X-1.000000X1.000000X-1.000000X-1.000000X0*%
%ADD19RoundRect,0.200000X0.275000X-0.200000X0.275000X0.200000X-0.275000X0.200000X-0.275000X-0.200000X0*%
%ADD20RoundRect,0.218750X-0.218750X-0.256250X0.218750X-0.256250X0.218750X0.256250X-0.218750X0.256250X0*%
%ADD21R,1.700000X1.700000*%
%ADD22O,1.700000X1.700000*%
%ADD23R,1.400000X1.400000*%
%ADD24C,1.400000*%
%ADD25C,4.300000*%
%ADD26R,1.650000X1.650000*%
%ADD27C,1.650000*%
G04 APERTURE END LIST*
D10*
%TO.C,U1*%
X136750000Y-55867500D03*
X137400000Y-55867500D03*
X138050000Y-55867500D03*
X138700000Y-55867500D03*
X139350000Y-55867500D03*
X140000000Y-55867500D03*
X140650000Y-55867500D03*
X141300000Y-55867500D03*
X141950000Y-55867500D03*
X142600000Y-55867500D03*
X143250000Y-55867500D03*
X143900000Y-55867500D03*
X144550000Y-55867500D03*
X145200000Y-55867500D03*
X145200000Y-50142500D03*
X144550000Y-50142500D03*
X143900000Y-50142500D03*
X143250000Y-50142500D03*
X142600000Y-50142500D03*
X141950000Y-50142500D03*
X141300000Y-50142500D03*
X140650000Y-50142500D03*
X140000000Y-50142500D03*
X139350000Y-50142500D03*
X138700000Y-50142500D03*
X138050000Y-50142500D03*
X137400000Y-50142500D03*
X136750000Y-50142500D03*
%TD*%
D11*
%TO.C,J10*%
X146590000Y-82660000D03*
X146590000Y-87280000D03*
%TD*%
D12*
%TO.C,*%
X149580000Y-55990000D03*
%TD*%
D13*
%TO.C,U2*%
X152910000Y-62850000D03*
D14*
X155450000Y-62850000D03*
X152910000Y-65390000D03*
X155450000Y-65390000D03*
X152910000Y-67930000D03*
X155450000Y-67930000D03*
X152910000Y-70470000D03*
X155450000Y-70470000D03*
X152910000Y-73010000D03*
X155450000Y-73010000D03*
X152910000Y-75550000D03*
X155450000Y-75550000D03*
X152910000Y-78090000D03*
X155450000Y-78090000D03*
X152910000Y-80630000D03*
X155450000Y-80630000D03*
X152910000Y-83170000D03*
X155450000Y-83170000D03*
X152910000Y-85710000D03*
X155450000Y-85710000D03*
X150270000Y-75550000D03*
X150270000Y-78090000D03*
X150270000Y-80630000D03*
X150270000Y-83170000D03*
X150270000Y-85710000D03*
%TD*%
D15*
%TO.C,C1*%
X136795000Y-48290000D03*
X136795000Y-46740000D03*
%TD*%
D12*
%TO.C,*%
X192160000Y-55971600D03*
%TD*%
D16*
%TO.C,R3*%
X139235000Y-58550000D03*
X139235000Y-60200000D03*
%TD*%
D17*
%TO.C,R7*%
X171430000Y-91165000D03*
X169780000Y-91165000D03*
%TD*%
D12*
%TO.C,*%
X192150000Y-92520000D03*
%TD*%
D16*
%TO.C,R2*%
X137645000Y-58550000D03*
X137645000Y-60200000D03*
%TD*%
D12*
%TO.C,*%
X149610000Y-92500000D03*
%TD*%
D18*
%TO.C,J9*%
X178060000Y-91140000D03*
X183680000Y-91140000D03*
%TD*%
D16*
%TO.C,R1*%
X135945000Y-58550000D03*
X135945000Y-60200000D03*
%TD*%
D18*
%TO.C,J8*%
X178360000Y-54710000D03*
X183980000Y-54710000D03*
%TD*%
D19*
%TO.C,R6*%
X139425000Y-48220000D03*
X139425000Y-46570000D03*
%TD*%
D20*
%TO.C,D1*%
X166557500Y-91165000D03*
X168132500Y-91165000D03*
%TD*%
D18*
%TO.C,J7*%
X178380000Y-59680000D03*
X184000000Y-59680000D03*
%TD*%
D21*
%TO.C,J13*%
X137625000Y-83945000D03*
D22*
X140165000Y-83945000D03*
X142705000Y-83945000D03*
%TD*%
D23*
%TO.C,J1*%
X151930000Y-39470000D03*
D24*
X154430000Y-39470000D03*
X156930000Y-39470000D03*
X159430000Y-39470000D03*
%TD*%
D21*
%TO.C,J17*%
X137625000Y-67745000D03*
D22*
X140165000Y-67745000D03*
X142705000Y-67745000D03*
%TD*%
D21*
%TO.C,J14*%
X137625000Y-79895000D03*
D22*
X140165000Y-79895000D03*
X142705000Y-79895000D03*
%TD*%
D25*
%TO.C,J5*%
X168490000Y-49080000D03*
X173490000Y-49080000D03*
%TD*%
D23*
%TO.C,J4*%
X181880000Y-48480000D03*
D24*
X184380000Y-48480000D03*
X186880000Y-48480000D03*
X189380000Y-48480000D03*
%TD*%
D21*
%TO.C,J16*%
X137625000Y-71795000D03*
D22*
X140165000Y-71795000D03*
X142705000Y-71795000D03*
%TD*%
D21*
%TO.C,J11*%
X137625000Y-92045000D03*
D22*
X140165000Y-92045000D03*
X142705000Y-92045000D03*
%TD*%
D21*
%TO.C,J15*%
X137625000Y-75845000D03*
D22*
X140165000Y-75845000D03*
X142705000Y-75845000D03*
%TD*%
D21*
%TO.C,J12*%
X137625000Y-87995000D03*
D22*
X140165000Y-87995000D03*
X142705000Y-87995000D03*
%TD*%
D23*
%TO.C,J3*%
X181930000Y-39470000D03*
D24*
X184430000Y-39470000D03*
X186930000Y-39470000D03*
X189430000Y-39470000D03*
%TD*%
D21*
%TO.C,J18*%
X137625000Y-63695000D03*
D22*
X140165000Y-63695000D03*
X142705000Y-63695000D03*
%TD*%
D26*
%TO.C,J6*%
X151115000Y-48480000D03*
D27*
X153615000Y-48480000D03*
X156115000Y-48480000D03*
X158615000Y-48480000D03*
X161115000Y-48480000D03*
%TD*%
D23*
%TO.C,J2*%
X166930000Y-39470000D03*
D24*
X169430000Y-39470000D03*
X171930000Y-39470000D03*
X174430000Y-39470000D03*
%TD*%
M02*
