%TF.GenerationSoftware,KiCad,Pcbnew,7.0.7*%
%TF.CreationDate,2023-11-07T21:10:22-05:00*%
%TF.ProjectId,attachmentBoard,61747461-6368-46d6-956e-74426f617264,rev?*%
%TF.SameCoordinates,Original*%
%TF.FileFunction,Soldermask,Bot*%
%TF.FilePolarity,Negative*%
%FSLAX46Y46*%
G04 Gerber Fmt 4.6, Leading zero omitted, Abs format (unit mm)*
G04 Created by KiCad (PCBNEW 7.0.7) date 2023-11-07 21:10:22*
%MOMM*%
%LPD*%
G01*
G04 APERTURE LIST*
G04 Aperture macros list*
%AMRoundRect*
0 Rectangle with rounded corners*
0 $1 Rounding radius*
0 $2 $3 $4 $5 $6 $7 $8 $9 X,Y pos of 4 corners*
0 Add a 4 corners polygon primitive as box body*
4,1,4,$2,$3,$4,$5,$6,$7,$8,$9,$2,$3,0*
0 Add four circle primitives for the rounded corners*
1,1,$1+$1,$2,$3*
1,1,$1+$1,$4,$5*
1,1,$1+$1,$6,$7*
1,1,$1+$1,$8,$9*
0 Add four rect primitives between the rounded corners*
20,1,$1+$1,$2,$3,$4,$5,0*
20,1,$1+$1,$4,$5,$6,$7,0*
20,1,$1+$1,$6,$7,$8,$9,0*
20,1,$1+$1,$8,$9,$2,$3,0*%
G04 Aperture macros list end*
%ADD10C,3.000000*%
%ADD11RoundRect,0.326336X0.528664X-0.528664X0.528664X0.528664X-0.528664X0.528664X-0.528664X-0.528664X0*%
%ADD12C,1.710000*%
%ADD13R,1.700000X1.700000*%
%ADD14O,1.700000X1.700000*%
%ADD15RoundRect,0.200000X0.275000X-0.200000X0.275000X0.200000X-0.275000X0.200000X-0.275000X-0.200000X0*%
%ADD16R,1.400000X1.400000*%
%ADD17C,1.400000*%
%ADD18C,4.300000*%
%ADD19R,1.600000X3.500000*%
%ADD20R,12.200000X9.750000*%
%ADD21RoundRect,0.225000X-0.225000X-0.250000X0.225000X-0.250000X0.225000X0.250000X-0.225000X0.250000X0*%
%ADD22R,0.558800X1.701800*%
%ADD23R,1.650000X1.650000*%
%ADD24C,1.650000*%
G04 APERTURE END LIST*
D10*
%TO.C,*%
X149580000Y-55990000D03*
%TD*%
D11*
%TO.C,U2*%
X152910000Y-62850000D03*
D12*
X155450000Y-62850000D03*
X152910000Y-65390000D03*
X155450000Y-65390000D03*
X152910000Y-67930000D03*
X155450000Y-67930000D03*
X152910000Y-70470000D03*
X155450000Y-70470000D03*
X152910000Y-73010000D03*
X155450000Y-73010000D03*
X152910000Y-75550000D03*
X155450000Y-75550000D03*
X152910000Y-78090000D03*
X155450000Y-78090000D03*
X152910000Y-80630000D03*
X155450000Y-80630000D03*
X152910000Y-83170000D03*
X155450000Y-83170000D03*
X152910000Y-85710000D03*
X155450000Y-85710000D03*
X150270000Y-75550000D03*
X150270000Y-78090000D03*
X150270000Y-80630000D03*
X150270000Y-83170000D03*
X150270000Y-85710000D03*
%TD*%
D10*
%TO.C,*%
X192160000Y-55971600D03*
%TD*%
%TO.C,*%
X192150000Y-92520000D03*
%TD*%
%TO.C,*%
X149610000Y-92500000D03*
%TD*%
D13*
%TO.C,J13*%
X137625000Y-83945000D03*
D14*
X140165000Y-83945000D03*
X142705000Y-83945000D03*
%TD*%
D15*
%TO.C,R5*%
X139825000Y-53330000D03*
X139825000Y-51680000D03*
%TD*%
D16*
%TO.C,J1*%
X151930000Y-39470000D03*
D17*
X154430000Y-39470000D03*
X156930000Y-39470000D03*
X159430000Y-39470000D03*
%TD*%
D13*
%TO.C,J17*%
X137625000Y-67745000D03*
D14*
X140165000Y-67745000D03*
X142705000Y-67745000D03*
%TD*%
D13*
%TO.C,J14*%
X137625000Y-79895000D03*
D14*
X140165000Y-79895000D03*
X142705000Y-79895000D03*
%TD*%
D18*
%TO.C,J5*%
X168490000Y-49080000D03*
X173490000Y-49080000D03*
%TD*%
D16*
%TO.C,J4*%
X181880000Y-48480000D03*
D17*
X184380000Y-48480000D03*
X186880000Y-48480000D03*
X189380000Y-48480000D03*
%TD*%
D19*
%TO.C,IC1*%
X163410000Y-69580000D03*
D20*
X165950000Y-79856000D03*
D19*
X168490000Y-69580000D03*
%TD*%
D13*
%TO.C,J16*%
X137625000Y-71795000D03*
D14*
X140165000Y-71795000D03*
X142705000Y-71795000D03*
%TD*%
D21*
%TO.C,C2*%
X163440000Y-64505000D03*
X164990000Y-64505000D03*
%TD*%
D15*
%TO.C,R4*%
X138235000Y-53330000D03*
X138235000Y-51680000D03*
%TD*%
D13*
%TO.C,J11*%
X137625000Y-92045000D03*
D14*
X140165000Y-92045000D03*
X142705000Y-92045000D03*
%TD*%
D13*
%TO.C,J15*%
X137625000Y-75845000D03*
D14*
X140165000Y-75845000D03*
X142705000Y-75845000D03*
%TD*%
D13*
%TO.C,J12*%
X137625000Y-87995000D03*
D14*
X140165000Y-87995000D03*
X142705000Y-87995000D03*
%TD*%
D22*
%TO.C,SW1*%
X137376100Y-39495100D03*
X138646100Y-39495100D03*
X139916100Y-39495100D03*
X141186100Y-39495100D03*
X142456100Y-39495100D03*
X143726100Y-39495100D03*
X144996100Y-39495100D03*
X146266100Y-39495100D03*
X146266100Y-44803700D03*
X144996100Y-44803700D03*
X143726100Y-44803700D03*
X142456100Y-44803700D03*
X141186100Y-44803700D03*
X139916100Y-44803700D03*
X138646100Y-44803700D03*
X137376100Y-44803700D03*
%TD*%
D16*
%TO.C,J3*%
X181930000Y-39470000D03*
D17*
X184430000Y-39470000D03*
X186930000Y-39470000D03*
X189430000Y-39470000D03*
%TD*%
D13*
%TO.C,J18*%
X137625000Y-63695000D03*
D14*
X140165000Y-63695000D03*
X142705000Y-63695000D03*
%TD*%
D23*
%TO.C,J6*%
X151115000Y-48480000D03*
D24*
X153615000Y-48480000D03*
X156115000Y-48480000D03*
X158615000Y-48480000D03*
X161115000Y-48480000D03*
%TD*%
D21*
%TO.C,C3*%
X168510000Y-64485000D03*
X170060000Y-64485000D03*
%TD*%
D16*
%TO.C,J2*%
X166930000Y-39470000D03*
D17*
X169430000Y-39470000D03*
X171930000Y-39470000D03*
X174430000Y-39470000D03*
%TD*%
M02*
