%TF.GenerationSoftware,KiCad,Pcbnew,7.0.7*%
%TF.CreationDate,2023-11-07T21:10:22-05:00*%
%TF.ProjectId,attachmentBoard,61747461-6368-46d6-956e-74426f617264,rev?*%
%TF.SameCoordinates,Original*%
%TF.FileFunction,Legend,Bot*%
%TF.FilePolarity,Positive*%
%FSLAX46Y46*%
G04 Gerber Fmt 4.6, Leading zero omitted, Abs format (unit mm)*
G04 Created by KiCad (PCBNEW 7.0.7) date 2023-11-07 21:10:22*
%MOMM*%
%LPD*%
G01*
G04 APERTURE LIST*
G04 Aperture macros list*
%AMRoundRect*
0 Rectangle with rounded corners*
0 $1 Rounding radius*
0 $2 $3 $4 $5 $6 $7 $8 $9 X,Y pos of 4 corners*
0 Add a 4 corners polygon primitive as box body*
4,1,4,$2,$3,$4,$5,$6,$7,$8,$9,$2,$3,0*
0 Add four circle primitives for the rounded corners*
1,1,$1+$1,$2,$3*
1,1,$1+$1,$4,$5*
1,1,$1+$1,$6,$7*
1,1,$1+$1,$8,$9*
0 Add four rect primitives between the rounded corners*
20,1,$1+$1,$2,$3,$4,$5,0*
20,1,$1+$1,$4,$5,$6,$7,0*
20,1,$1+$1,$6,$7,$8,$9,0*
20,1,$1+$1,$8,$9,$2,$3,0*%
G04 Aperture macros list end*
%ADD10C,0.100000*%
%ADD11C,0.150000*%
%ADD12C,0.254000*%
%ADD13C,0.120000*%
%ADD14C,0.200000*%
%ADD15C,0.152400*%
%ADD16C,3.000000*%
%ADD17RoundRect,0.326336X0.528664X-0.528664X0.528664X0.528664X-0.528664X0.528664X-0.528664X-0.528664X0*%
%ADD18C,1.710000*%
%ADD19R,1.700000X1.700000*%
%ADD20O,1.700000X1.700000*%
%ADD21RoundRect,0.200000X0.275000X-0.200000X0.275000X0.200000X-0.275000X0.200000X-0.275000X-0.200000X0*%
%ADD22R,1.400000X1.400000*%
%ADD23C,1.400000*%
%ADD24C,4.300000*%
%ADD25R,1.600000X3.500000*%
%ADD26R,12.200000X9.750000*%
%ADD27RoundRect,0.225000X-0.225000X-0.250000X0.225000X-0.250000X0.225000X0.250000X-0.225000X0.250000X0*%
%ADD28R,0.558800X1.701800*%
%ADD29R,1.650000X1.650000*%
%ADD30C,1.650000*%
G04 APERTURE END LIST*
D10*
X140027478Y-46264286D02*
X140027478Y-46621429D01*
X140241764Y-46192857D02*
X139491764Y-46442857D01*
X139491764Y-46442857D02*
X140241764Y-46692857D01*
X139563192Y-46907143D02*
X139527478Y-46942857D01*
X139527478Y-46942857D02*
X139491764Y-47014286D01*
X139491764Y-47014286D02*
X139491764Y-47192857D01*
X139491764Y-47192857D02*
X139527478Y-47264286D01*
X139527478Y-47264286D02*
X139563192Y-47300000D01*
X139563192Y-47300000D02*
X139634621Y-47335714D01*
X139634621Y-47335714D02*
X139706050Y-47335714D01*
X139706050Y-47335714D02*
X139813192Y-47300000D01*
X139813192Y-47300000D02*
X140241764Y-46871428D01*
X140241764Y-46871428D02*
X140241764Y-47335714D01*
X138627478Y-46264286D02*
X138627478Y-46621429D01*
X138841764Y-46192857D02*
X138091764Y-46442857D01*
X138091764Y-46442857D02*
X138841764Y-46692857D01*
X138841764Y-47335714D02*
X138841764Y-46907143D01*
X138841764Y-47121428D02*
X138091764Y-47121428D01*
X138091764Y-47121428D02*
X138198907Y-47050000D01*
X138198907Y-47050000D02*
X138270335Y-46978571D01*
X138270335Y-46978571D02*
X138306050Y-46907143D01*
X141227478Y-46264286D02*
X141227478Y-46621429D01*
X141441764Y-46192857D02*
X140691764Y-46442857D01*
X140691764Y-46442857D02*
X141441764Y-46692857D01*
X140691764Y-46871428D02*
X140691764Y-47335714D01*
X140691764Y-47335714D02*
X140977478Y-47085714D01*
X140977478Y-47085714D02*
X140977478Y-47192857D01*
X140977478Y-47192857D02*
X141013192Y-47264286D01*
X141013192Y-47264286D02*
X141048907Y-47300000D01*
X141048907Y-47300000D02*
X141120335Y-47335714D01*
X141120335Y-47335714D02*
X141298907Y-47335714D01*
X141298907Y-47335714D02*
X141370335Y-47300000D01*
X141370335Y-47300000D02*
X141406050Y-47264286D01*
X141406050Y-47264286D02*
X141441764Y-47192857D01*
X141441764Y-47192857D02*
X141441764Y-46978571D01*
X141441764Y-46978571D02*
X141406050Y-46907143D01*
X141406050Y-46907143D02*
X141370335Y-46871428D01*
X142524647Y-46264286D02*
X142524647Y-46621429D01*
X142738933Y-46192857D02*
X141988933Y-46442857D01*
X141988933Y-46442857D02*
X142738933Y-46692857D01*
X142238933Y-47264286D02*
X142738933Y-47264286D01*
X141953219Y-47085714D02*
X142488933Y-46907143D01*
X142488933Y-46907143D02*
X142488933Y-47371428D01*
X137527478Y-46264286D02*
X137527478Y-46621429D01*
X137741764Y-46192857D02*
X136991764Y-46442857D01*
X136991764Y-46442857D02*
X137741764Y-46692857D01*
X136991764Y-47085714D02*
X136991764Y-47157143D01*
X136991764Y-47157143D02*
X137027478Y-47228571D01*
X137027478Y-47228571D02*
X137063192Y-47264286D01*
X137063192Y-47264286D02*
X137134621Y-47300000D01*
X137134621Y-47300000D02*
X137277478Y-47335714D01*
X137277478Y-47335714D02*
X137456050Y-47335714D01*
X137456050Y-47335714D02*
X137598907Y-47300000D01*
X137598907Y-47300000D02*
X137670335Y-47264286D01*
X137670335Y-47264286D02*
X137706050Y-47228571D01*
X137706050Y-47228571D02*
X137741764Y-47157143D01*
X137741764Y-47157143D02*
X137741764Y-47085714D01*
X137741764Y-47085714D02*
X137706050Y-47014286D01*
X137706050Y-47014286D02*
X137670335Y-46978571D01*
X137670335Y-46978571D02*
X137598907Y-46942857D01*
X137598907Y-46942857D02*
X137456050Y-46907143D01*
X137456050Y-46907143D02*
X137277478Y-46907143D01*
X137277478Y-46907143D02*
X137134621Y-46942857D01*
X137134621Y-46942857D02*
X137063192Y-46978571D01*
X137063192Y-46978571D02*
X137027478Y-47014286D01*
X137027478Y-47014286D02*
X136991764Y-47085714D01*
X143727478Y-46264286D02*
X143727478Y-46621429D01*
X143941764Y-46192857D02*
X143191764Y-46442857D01*
X143191764Y-46442857D02*
X143941764Y-46692857D01*
X143191764Y-47300000D02*
X143191764Y-46942857D01*
X143191764Y-46942857D02*
X143548907Y-46907143D01*
X143548907Y-46907143D02*
X143513192Y-46942857D01*
X143513192Y-46942857D02*
X143477478Y-47014286D01*
X143477478Y-47014286D02*
X143477478Y-47192857D01*
X143477478Y-47192857D02*
X143513192Y-47264286D01*
X143513192Y-47264286D02*
X143548907Y-47300000D01*
X143548907Y-47300000D02*
X143620335Y-47335714D01*
X143620335Y-47335714D02*
X143798907Y-47335714D01*
X143798907Y-47335714D02*
X143870335Y-47300000D01*
X143870335Y-47300000D02*
X143906050Y-47264286D01*
X143906050Y-47264286D02*
X143941764Y-47192857D01*
X143941764Y-47192857D02*
X143941764Y-47014286D01*
X143941764Y-47014286D02*
X143906050Y-46942857D01*
X143906050Y-46942857D02*
X143870335Y-46907143D01*
D11*
X141709819Y-52938333D02*
X141233628Y-52605000D01*
X141709819Y-52366905D02*
X140709819Y-52366905D01*
X140709819Y-52366905D02*
X140709819Y-52747857D01*
X140709819Y-52747857D02*
X140757438Y-52843095D01*
X140757438Y-52843095D02*
X140805057Y-52890714D01*
X140805057Y-52890714D02*
X140900295Y-52938333D01*
X140900295Y-52938333D02*
X141043152Y-52938333D01*
X141043152Y-52938333D02*
X141138390Y-52890714D01*
X141138390Y-52890714D02*
X141186009Y-52843095D01*
X141186009Y-52843095D02*
X141233628Y-52747857D01*
X141233628Y-52747857D02*
X141233628Y-52366905D01*
X140709819Y-53843095D02*
X140709819Y-53366905D01*
X140709819Y-53366905D02*
X141186009Y-53319286D01*
X141186009Y-53319286D02*
X141138390Y-53366905D01*
X141138390Y-53366905D02*
X141090771Y-53462143D01*
X141090771Y-53462143D02*
X141090771Y-53700238D01*
X141090771Y-53700238D02*
X141138390Y-53795476D01*
X141138390Y-53795476D02*
X141186009Y-53843095D01*
X141186009Y-53843095D02*
X141281247Y-53890714D01*
X141281247Y-53890714D02*
X141519342Y-53890714D01*
X141519342Y-53890714D02*
X141614580Y-53843095D01*
X141614580Y-53843095D02*
X141662200Y-53795476D01*
X141662200Y-53795476D02*
X141709819Y-53700238D01*
X141709819Y-53700238D02*
X141709819Y-53462143D01*
X141709819Y-53462143D02*
X141662200Y-53366905D01*
X141662200Y-53366905D02*
X141614580Y-53319286D01*
D12*
X161378332Y-35499318D02*
X161378332Y-36406461D01*
X161378332Y-36406461D02*
X161438809Y-36587889D01*
X161438809Y-36587889D02*
X161559761Y-36708842D01*
X161559761Y-36708842D02*
X161741190Y-36769318D01*
X161741190Y-36769318D02*
X161862142Y-36769318D01*
X160108332Y-36769318D02*
X160834047Y-36769318D01*
X160471190Y-36769318D02*
X160471190Y-35499318D01*
X160471190Y-35499318D02*
X160592142Y-35680746D01*
X160592142Y-35680746D02*
X160713094Y-35801699D01*
X160713094Y-35801699D02*
X160834047Y-35862175D01*
X175603332Y-44914318D02*
X175603332Y-45821461D01*
X175603332Y-45821461D02*
X175663809Y-46002889D01*
X175663809Y-46002889D02*
X175784761Y-46123842D01*
X175784761Y-46123842D02*
X175966190Y-46184318D01*
X175966190Y-46184318D02*
X176087142Y-46184318D01*
X174393809Y-44914318D02*
X174998571Y-44914318D01*
X174998571Y-44914318D02*
X175059047Y-45519080D01*
X175059047Y-45519080D02*
X174998571Y-45458603D01*
X174998571Y-45458603D02*
X174877618Y-45398127D01*
X174877618Y-45398127D02*
X174575237Y-45398127D01*
X174575237Y-45398127D02*
X174454285Y-45458603D01*
X174454285Y-45458603D02*
X174393809Y-45519080D01*
X174393809Y-45519080D02*
X174333332Y-45640032D01*
X174333332Y-45640032D02*
X174333332Y-45942413D01*
X174333332Y-45942413D02*
X174393809Y-46063365D01*
X174393809Y-46063365D02*
X174454285Y-46123842D01*
X174454285Y-46123842D02*
X174575237Y-46184318D01*
X174575237Y-46184318D02*
X174877618Y-46184318D01*
X174877618Y-46184318D02*
X174998571Y-46123842D01*
X174998571Y-46123842D02*
X175059047Y-46063365D01*
X191328332Y-44509318D02*
X191328332Y-45416461D01*
X191328332Y-45416461D02*
X191388809Y-45597889D01*
X191388809Y-45597889D02*
X191509761Y-45718842D01*
X191509761Y-45718842D02*
X191691190Y-45779318D01*
X191691190Y-45779318D02*
X191812142Y-45779318D01*
X190179285Y-44932651D02*
X190179285Y-45779318D01*
X190481666Y-44448842D02*
X190784047Y-45355984D01*
X190784047Y-45355984D02*
X189997856Y-45355984D01*
X160700318Y-66010237D02*
X159430318Y-66010237D01*
X160579365Y-67340714D02*
X160639842Y-67280238D01*
X160639842Y-67280238D02*
X160700318Y-67098809D01*
X160700318Y-67098809D02*
X160700318Y-66977857D01*
X160700318Y-66977857D02*
X160639842Y-66796428D01*
X160639842Y-66796428D02*
X160518889Y-66675476D01*
X160518889Y-66675476D02*
X160397937Y-66614999D01*
X160397937Y-66614999D02*
X160156032Y-66554523D01*
X160156032Y-66554523D02*
X159974603Y-66554523D01*
X159974603Y-66554523D02*
X159732699Y-66614999D01*
X159732699Y-66614999D02*
X159611746Y-66675476D01*
X159611746Y-66675476D02*
X159490794Y-66796428D01*
X159490794Y-66796428D02*
X159430318Y-66977857D01*
X159430318Y-66977857D02*
X159430318Y-67098809D01*
X159430318Y-67098809D02*
X159490794Y-67280238D01*
X159490794Y-67280238D02*
X159551270Y-67340714D01*
X160700318Y-68550238D02*
X160700318Y-67824523D01*
X160700318Y-68187380D02*
X159430318Y-68187380D01*
X159430318Y-68187380D02*
X159611746Y-68066428D01*
X159611746Y-68066428D02*
X159732699Y-67945476D01*
X159732699Y-67945476D02*
X159793175Y-67824523D01*
D11*
X162464580Y-64328333D02*
X162512200Y-64280714D01*
X162512200Y-64280714D02*
X162559819Y-64137857D01*
X162559819Y-64137857D02*
X162559819Y-64042619D01*
X162559819Y-64042619D02*
X162512200Y-63899762D01*
X162512200Y-63899762D02*
X162416961Y-63804524D01*
X162416961Y-63804524D02*
X162321723Y-63756905D01*
X162321723Y-63756905D02*
X162131247Y-63709286D01*
X162131247Y-63709286D02*
X161988390Y-63709286D01*
X161988390Y-63709286D02*
X161797914Y-63756905D01*
X161797914Y-63756905D02*
X161702676Y-63804524D01*
X161702676Y-63804524D02*
X161607438Y-63899762D01*
X161607438Y-63899762D02*
X161559819Y-64042619D01*
X161559819Y-64042619D02*
X161559819Y-64137857D01*
X161559819Y-64137857D02*
X161607438Y-64280714D01*
X161607438Y-64280714D02*
X161655057Y-64328333D01*
X161655057Y-64709286D02*
X161607438Y-64756905D01*
X161607438Y-64756905D02*
X161559819Y-64852143D01*
X161559819Y-64852143D02*
X161559819Y-65090238D01*
X161559819Y-65090238D02*
X161607438Y-65185476D01*
X161607438Y-65185476D02*
X161655057Y-65233095D01*
X161655057Y-65233095D02*
X161750295Y-65280714D01*
X161750295Y-65280714D02*
X161845533Y-65280714D01*
X161845533Y-65280714D02*
X161988390Y-65233095D01*
X161988390Y-65233095D02*
X162559819Y-64661667D01*
X162559819Y-64661667D02*
X162559819Y-65280714D01*
X137319819Y-53038333D02*
X136843628Y-52705000D01*
X137319819Y-52466905D02*
X136319819Y-52466905D01*
X136319819Y-52466905D02*
X136319819Y-52847857D01*
X136319819Y-52847857D02*
X136367438Y-52943095D01*
X136367438Y-52943095D02*
X136415057Y-52990714D01*
X136415057Y-52990714D02*
X136510295Y-53038333D01*
X136510295Y-53038333D02*
X136653152Y-53038333D01*
X136653152Y-53038333D02*
X136748390Y-52990714D01*
X136748390Y-52990714D02*
X136796009Y-52943095D01*
X136796009Y-52943095D02*
X136843628Y-52847857D01*
X136843628Y-52847857D02*
X136843628Y-52466905D01*
X136653152Y-53895476D02*
X137319819Y-53895476D01*
X136272200Y-53657381D02*
X136986485Y-53419286D01*
X136986485Y-53419286D02*
X136986485Y-54038333D01*
X148156100Y-41683932D02*
X148108480Y-41541075D01*
X148108480Y-41541075D02*
X148108480Y-41302980D01*
X148108480Y-41302980D02*
X148156100Y-41207742D01*
X148156100Y-41207742D02*
X148203719Y-41160123D01*
X148203719Y-41160123D02*
X148298957Y-41112504D01*
X148298957Y-41112504D02*
X148394195Y-41112504D01*
X148394195Y-41112504D02*
X148489433Y-41160123D01*
X148489433Y-41160123D02*
X148537052Y-41207742D01*
X148537052Y-41207742D02*
X148584671Y-41302980D01*
X148584671Y-41302980D02*
X148632290Y-41493456D01*
X148632290Y-41493456D02*
X148679909Y-41588694D01*
X148679909Y-41588694D02*
X148727528Y-41636313D01*
X148727528Y-41636313D02*
X148822766Y-41683932D01*
X148822766Y-41683932D02*
X148918004Y-41683932D01*
X148918004Y-41683932D02*
X149013242Y-41636313D01*
X149013242Y-41636313D02*
X149060861Y-41588694D01*
X149060861Y-41588694D02*
X149108480Y-41493456D01*
X149108480Y-41493456D02*
X149108480Y-41255361D01*
X149108480Y-41255361D02*
X149060861Y-41112504D01*
X149108480Y-40779170D02*
X148108480Y-40541075D01*
X148108480Y-40541075D02*
X148822766Y-40350599D01*
X148822766Y-40350599D02*
X148108480Y-40160123D01*
X148108480Y-40160123D02*
X149108480Y-39922028D01*
X148108480Y-39017266D02*
X148108480Y-39588694D01*
X148108480Y-39302980D02*
X149108480Y-39302980D01*
X149108480Y-39302980D02*
X148965623Y-39398218D01*
X148965623Y-39398218D02*
X148870385Y-39493456D01*
X148870385Y-39493456D02*
X148822766Y-39588694D01*
D12*
X191378332Y-35499318D02*
X191378332Y-36406461D01*
X191378332Y-36406461D02*
X191438809Y-36587889D01*
X191438809Y-36587889D02*
X191559761Y-36708842D01*
X191559761Y-36708842D02*
X191741190Y-36769318D01*
X191741190Y-36769318D02*
X191862142Y-36769318D01*
X190894523Y-35499318D02*
X190108332Y-35499318D01*
X190108332Y-35499318D02*
X190531666Y-35983127D01*
X190531666Y-35983127D02*
X190350237Y-35983127D01*
X190350237Y-35983127D02*
X190229285Y-36043603D01*
X190229285Y-36043603D02*
X190168809Y-36104080D01*
X190168809Y-36104080D02*
X190108332Y-36225032D01*
X190108332Y-36225032D02*
X190108332Y-36527413D01*
X190108332Y-36527413D02*
X190168809Y-36648365D01*
X190168809Y-36648365D02*
X190229285Y-36708842D01*
X190229285Y-36708842D02*
X190350237Y-36769318D01*
X190350237Y-36769318D02*
X190713094Y-36769318D01*
X190713094Y-36769318D02*
X190834047Y-36708842D01*
X190834047Y-36708842D02*
X190894523Y-36648365D01*
X163038332Y-44484318D02*
X163038332Y-45391461D01*
X163038332Y-45391461D02*
X163098809Y-45572889D01*
X163098809Y-45572889D02*
X163219761Y-45693842D01*
X163219761Y-45693842D02*
X163401190Y-45754318D01*
X163401190Y-45754318D02*
X163522142Y-45754318D01*
X161889285Y-44484318D02*
X162131190Y-44484318D01*
X162131190Y-44484318D02*
X162252142Y-44544794D01*
X162252142Y-44544794D02*
X162312618Y-44605270D01*
X162312618Y-44605270D02*
X162433571Y-44786699D01*
X162433571Y-44786699D02*
X162494047Y-45028603D01*
X162494047Y-45028603D02*
X162494047Y-45512413D01*
X162494047Y-45512413D02*
X162433571Y-45633365D01*
X162433571Y-45633365D02*
X162373094Y-45693842D01*
X162373094Y-45693842D02*
X162252142Y-45754318D01*
X162252142Y-45754318D02*
X162010237Y-45754318D01*
X162010237Y-45754318D02*
X161889285Y-45693842D01*
X161889285Y-45693842D02*
X161828809Y-45633365D01*
X161828809Y-45633365D02*
X161768332Y-45512413D01*
X161768332Y-45512413D02*
X161768332Y-45210032D01*
X161768332Y-45210032D02*
X161828809Y-45089080D01*
X161828809Y-45089080D02*
X161889285Y-45028603D01*
X161889285Y-45028603D02*
X162010237Y-44968127D01*
X162010237Y-44968127D02*
X162252142Y-44968127D01*
X162252142Y-44968127D02*
X162373094Y-45028603D01*
X162373094Y-45028603D02*
X162433571Y-45089080D01*
X162433571Y-45089080D02*
X162494047Y-45210032D01*
D11*
X167574580Y-64348333D02*
X167622200Y-64300714D01*
X167622200Y-64300714D02*
X167669819Y-64157857D01*
X167669819Y-64157857D02*
X167669819Y-64062619D01*
X167669819Y-64062619D02*
X167622200Y-63919762D01*
X167622200Y-63919762D02*
X167526961Y-63824524D01*
X167526961Y-63824524D02*
X167431723Y-63776905D01*
X167431723Y-63776905D02*
X167241247Y-63729286D01*
X167241247Y-63729286D02*
X167098390Y-63729286D01*
X167098390Y-63729286D02*
X166907914Y-63776905D01*
X166907914Y-63776905D02*
X166812676Y-63824524D01*
X166812676Y-63824524D02*
X166717438Y-63919762D01*
X166717438Y-63919762D02*
X166669819Y-64062619D01*
X166669819Y-64062619D02*
X166669819Y-64157857D01*
X166669819Y-64157857D02*
X166717438Y-64300714D01*
X166717438Y-64300714D02*
X166765057Y-64348333D01*
X166669819Y-64681667D02*
X166669819Y-65300714D01*
X166669819Y-65300714D02*
X167050771Y-64967381D01*
X167050771Y-64967381D02*
X167050771Y-65110238D01*
X167050771Y-65110238D02*
X167098390Y-65205476D01*
X167098390Y-65205476D02*
X167146009Y-65253095D01*
X167146009Y-65253095D02*
X167241247Y-65300714D01*
X167241247Y-65300714D02*
X167479342Y-65300714D01*
X167479342Y-65300714D02*
X167574580Y-65253095D01*
X167574580Y-65253095D02*
X167622200Y-65205476D01*
X167622200Y-65205476D02*
X167669819Y-65110238D01*
X167669819Y-65110238D02*
X167669819Y-64824524D01*
X167669819Y-64824524D02*
X167622200Y-64729286D01*
X167622200Y-64729286D02*
X167574580Y-64681667D01*
D12*
X176378332Y-35499318D02*
X176378332Y-36406461D01*
X176378332Y-36406461D02*
X176438809Y-36587889D01*
X176438809Y-36587889D02*
X176559761Y-36708842D01*
X176559761Y-36708842D02*
X176741190Y-36769318D01*
X176741190Y-36769318D02*
X176862142Y-36769318D01*
X175834047Y-35620270D02*
X175773571Y-35559794D01*
X175773571Y-35559794D02*
X175652618Y-35499318D01*
X175652618Y-35499318D02*
X175350237Y-35499318D01*
X175350237Y-35499318D02*
X175229285Y-35559794D01*
X175229285Y-35559794D02*
X175168809Y-35620270D01*
X175168809Y-35620270D02*
X175108332Y-35741222D01*
X175108332Y-35741222D02*
X175108332Y-35862175D01*
X175108332Y-35862175D02*
X175168809Y-36043603D01*
X175168809Y-36043603D02*
X175894523Y-36769318D01*
X175894523Y-36769318D02*
X175108332Y-36769318D01*
D13*
%TO.C,J13*%
X144035000Y-82615000D02*
X144035000Y-85275000D01*
X138895000Y-82615000D02*
X144035000Y-82615000D01*
X138895000Y-82615000D02*
X138895000Y-85275000D01*
X137625000Y-82615000D02*
X136295000Y-82615000D01*
X136295000Y-82615000D02*
X136295000Y-83945000D01*
X138895000Y-85275000D02*
X144035000Y-85275000D01*
%TO.C,R5*%
X139302500Y-52742258D02*
X139302500Y-52267742D01*
X140347500Y-52742258D02*
X140347500Y-52267742D01*
D14*
%TO.C,J1*%
X149430000Y-37120000D02*
X149430000Y-42870000D01*
X149430000Y-42870000D02*
X161880000Y-42870000D01*
D10*
X151930000Y-36570000D02*
X151930000Y-36570000D01*
X151930000Y-36670000D02*
X151930000Y-36670000D01*
D14*
X161880000Y-37120000D02*
X149430000Y-37120000D01*
X161880000Y-42870000D02*
X161880000Y-37120000D01*
D10*
X151930000Y-36670000D02*
G75*
G03*
X151930000Y-36570000I0J50000D01*
G01*
X151930000Y-36570000D02*
G75*
G03*
X151930000Y-36670000I0J-50000D01*
G01*
D13*
%TO.C,J17*%
X144035000Y-66415000D02*
X144035000Y-69075000D01*
X138895000Y-66415000D02*
X144035000Y-66415000D01*
X138895000Y-66415000D02*
X138895000Y-69075000D01*
X137625000Y-66415000D02*
X136295000Y-66415000D01*
X136295000Y-66415000D02*
X136295000Y-67745000D01*
X138895000Y-69075000D02*
X144035000Y-69075000D01*
%TO.C,J14*%
X144035000Y-78565000D02*
X144035000Y-81225000D01*
X138895000Y-78565000D02*
X144035000Y-78565000D01*
X138895000Y-78565000D02*
X138895000Y-81225000D01*
X137625000Y-78565000D02*
X136295000Y-78565000D01*
X136295000Y-78565000D02*
X136295000Y-79895000D01*
X138895000Y-81225000D02*
X144035000Y-81225000D01*
D10*
%TO.C,J5*%
X176090000Y-46480000D02*
X165890000Y-46480000D01*
X165890000Y-46480000D02*
X165890000Y-51680000D01*
X176090000Y-51680000D02*
X176090000Y-46480000D01*
X165890000Y-51680000D02*
X176090000Y-51680000D01*
D14*
%TO.C,J4*%
X179380000Y-46130000D02*
X179380000Y-51880000D01*
X179380000Y-51880000D02*
X191830000Y-51880000D01*
D10*
X181880000Y-45580000D02*
X181880000Y-45580000D01*
X181880000Y-45680000D02*
X181880000Y-45680000D01*
D14*
X191830000Y-46130000D02*
X179380000Y-46130000D01*
X191830000Y-51880000D02*
X191830000Y-46130000D01*
D10*
X181880000Y-45680000D02*
G75*
G03*
X181880000Y-45580000I0J50000D01*
G01*
X181880000Y-45580000D02*
G75*
G03*
X181880000Y-45680000I0J-50000D01*
G01*
%TO.C,IC1*%
X160775000Y-73518000D02*
X171125000Y-73510000D01*
X160775000Y-74718000D02*
X160775000Y-73518000D01*
D14*
X162950000Y-66718000D02*
X162950000Y-66718000D01*
X163150000Y-66718000D02*
X163150000Y-66718000D01*
D10*
X171125000Y-73510000D02*
X171125000Y-74718000D01*
D14*
X163150000Y-66718000D02*
G75*
G03*
X162950000Y-66718000I-100000J0D01*
G01*
X162950000Y-66718000D02*
G75*
G03*
X163150000Y-66718000I100000J0D01*
G01*
D13*
%TO.C,J16*%
X144035000Y-70465000D02*
X144035000Y-73125000D01*
X138895000Y-70465000D02*
X144035000Y-70465000D01*
X138895000Y-70465000D02*
X138895000Y-73125000D01*
X137625000Y-70465000D02*
X136295000Y-70465000D01*
X136295000Y-70465000D02*
X136295000Y-71795000D01*
X138895000Y-73125000D02*
X144035000Y-73125000D01*
%TO.C,C2*%
X164074420Y-63995000D02*
X164355580Y-63995000D01*
X164074420Y-65015000D02*
X164355580Y-65015000D01*
%TO.C,R4*%
X137712500Y-52742258D02*
X137712500Y-52267742D01*
X138757500Y-52742258D02*
X138757500Y-52267742D01*
%TO.C,J11*%
X144035000Y-90715000D02*
X144035000Y-93375000D01*
X138895000Y-90715000D02*
X144035000Y-90715000D01*
X138895000Y-90715000D02*
X138895000Y-93375000D01*
X137625000Y-90715000D02*
X136295000Y-90715000D01*
X136295000Y-90715000D02*
X136295000Y-92045000D01*
X138895000Y-93375000D02*
X144035000Y-93375000D01*
%TO.C,J15*%
X144035000Y-74515000D02*
X144035000Y-77175000D01*
X138895000Y-74515000D02*
X144035000Y-74515000D01*
X138895000Y-74515000D02*
X138895000Y-77175000D01*
X137625000Y-74515000D02*
X136295000Y-74515000D01*
X136295000Y-74515000D02*
X136295000Y-75845000D01*
X138895000Y-77175000D02*
X144035000Y-77175000D01*
%TO.C,J12*%
X144035000Y-86665000D02*
X144035000Y-89325000D01*
X138895000Y-86665000D02*
X144035000Y-86665000D01*
X138895000Y-86665000D02*
X138895000Y-89325000D01*
X137625000Y-86665000D02*
X136295000Y-86665000D01*
X136295000Y-86665000D02*
X136295000Y-87995000D01*
X138895000Y-89325000D02*
X144035000Y-89325000D01*
D15*
%TO.C,SW1*%
X147802800Y-39317300D02*
X147802800Y-44981500D01*
X146878240Y-39317300D02*
X147802800Y-39317300D01*
X135839400Y-39317300D02*
X136763960Y-39317300D01*
X147802800Y-44981500D02*
X146878240Y-44981500D01*
X136763960Y-44981500D02*
X135839400Y-44981500D01*
X135839400Y-44981500D02*
X135839400Y-39317300D01*
G36*
X145186600Y-46162600D02*
G01*
X144805600Y-46162600D01*
X144805600Y-45908600D01*
X145186600Y-45908600D01*
X145186600Y-46162600D01*
G37*
D14*
%TO.C,J3*%
X179430000Y-37120000D02*
X179430000Y-42870000D01*
X179430000Y-42870000D02*
X191880000Y-42870000D01*
D10*
X181930000Y-36570000D02*
X181930000Y-36570000D01*
X181930000Y-36670000D02*
X181930000Y-36670000D01*
D14*
X191880000Y-37120000D02*
X179430000Y-37120000D01*
X191880000Y-42870000D02*
X191880000Y-37120000D01*
D10*
X181930000Y-36670000D02*
G75*
G03*
X181930000Y-36570000I0J50000D01*
G01*
X181930000Y-36570000D02*
G75*
G03*
X181930000Y-36670000I0J-50000D01*
G01*
D13*
%TO.C,J18*%
X144035000Y-62365000D02*
X144035000Y-65025000D01*
X138895000Y-62365000D02*
X144035000Y-62365000D01*
X138895000Y-62365000D02*
X138895000Y-65025000D01*
X137625000Y-62365000D02*
X136295000Y-62365000D01*
X136295000Y-62365000D02*
X136295000Y-63695000D01*
X138895000Y-65025000D02*
X144035000Y-65025000D01*
D14*
%TO.C,J6*%
X148665000Y-51880000D02*
X148665000Y-48480000D01*
X151115000Y-46130000D02*
X163565000Y-46130000D01*
X163565000Y-46130000D02*
X163565000Y-51880000D01*
X163565000Y-51880000D02*
X148665000Y-51880000D01*
D13*
%TO.C,C3*%
X169144420Y-63975000D02*
X169425580Y-63975000D01*
X169144420Y-64995000D02*
X169425580Y-64995000D01*
D14*
%TO.C,J2*%
X164430000Y-37120000D02*
X164430000Y-42870000D01*
X164430000Y-42870000D02*
X176880000Y-42870000D01*
D10*
X166930000Y-36570000D02*
X166930000Y-36570000D01*
X166930000Y-36670000D02*
X166930000Y-36670000D01*
D14*
X176880000Y-37120000D02*
X164430000Y-37120000D01*
X176880000Y-42870000D02*
X176880000Y-37120000D01*
D10*
X166930000Y-36670000D02*
G75*
G03*
X166930000Y-36570000I0J50000D01*
G01*
X166930000Y-36570000D02*
G75*
G03*
X166930000Y-36670000I0J-50000D01*
G01*
%TD*%
%LPC*%
D16*
%TO.C,*%
X149580000Y-55990000D03*
%TD*%
D17*
%TO.C,U2*%
X152910000Y-62850000D03*
D18*
X155450000Y-62850000D03*
X152910000Y-65390000D03*
X155450000Y-65390000D03*
X152910000Y-67930000D03*
X155450000Y-67930000D03*
X152910000Y-70470000D03*
X155450000Y-70470000D03*
X152910000Y-73010000D03*
X155450000Y-73010000D03*
X152910000Y-75550000D03*
X155450000Y-75550000D03*
X152910000Y-78090000D03*
X155450000Y-78090000D03*
X152910000Y-80630000D03*
X155450000Y-80630000D03*
X152910000Y-83170000D03*
X155450000Y-83170000D03*
X152910000Y-85710000D03*
X155450000Y-85710000D03*
X150270000Y-75550000D03*
X150270000Y-78090000D03*
X150270000Y-80630000D03*
X150270000Y-83170000D03*
X150270000Y-85710000D03*
%TD*%
D16*
%TO.C,*%
X192160000Y-55971600D03*
%TD*%
%TO.C,*%
X192150000Y-92520000D03*
%TD*%
%TO.C,*%
X149610000Y-92500000D03*
%TD*%
D19*
%TO.C,J13*%
X137625000Y-83945000D03*
D20*
X140165000Y-83945000D03*
X142705000Y-83945000D03*
%TD*%
D21*
%TO.C,R5*%
X139825000Y-53330000D03*
X139825000Y-51680000D03*
%TD*%
D22*
%TO.C,J1*%
X151930000Y-39470000D03*
D23*
X154430000Y-39470000D03*
X156930000Y-39470000D03*
X159430000Y-39470000D03*
%TD*%
D19*
%TO.C,J17*%
X137625000Y-67745000D03*
D20*
X140165000Y-67745000D03*
X142705000Y-67745000D03*
%TD*%
D19*
%TO.C,J14*%
X137625000Y-79895000D03*
D20*
X140165000Y-79895000D03*
X142705000Y-79895000D03*
%TD*%
D24*
%TO.C,J5*%
X168490000Y-49080000D03*
X173490000Y-49080000D03*
%TD*%
D22*
%TO.C,J4*%
X181880000Y-48480000D03*
D23*
X184380000Y-48480000D03*
X186880000Y-48480000D03*
X189380000Y-48480000D03*
%TD*%
D25*
%TO.C,IC1*%
X163410000Y-69580000D03*
D26*
X165950000Y-79856000D03*
D25*
X168490000Y-69580000D03*
%TD*%
D19*
%TO.C,J16*%
X137625000Y-71795000D03*
D20*
X140165000Y-71795000D03*
X142705000Y-71795000D03*
%TD*%
D27*
%TO.C,C2*%
X163440000Y-64505000D03*
X164990000Y-64505000D03*
%TD*%
D21*
%TO.C,R4*%
X138235000Y-53330000D03*
X138235000Y-51680000D03*
%TD*%
D19*
%TO.C,J11*%
X137625000Y-92045000D03*
D20*
X140165000Y-92045000D03*
X142705000Y-92045000D03*
%TD*%
D19*
%TO.C,J15*%
X137625000Y-75845000D03*
D20*
X140165000Y-75845000D03*
X142705000Y-75845000D03*
%TD*%
D19*
%TO.C,J12*%
X137625000Y-87995000D03*
D20*
X140165000Y-87995000D03*
X142705000Y-87995000D03*
%TD*%
D28*
%TO.C,SW1*%
X137376100Y-39495100D03*
X138646100Y-39495100D03*
X139916100Y-39495100D03*
X141186100Y-39495100D03*
X142456100Y-39495100D03*
X143726100Y-39495100D03*
X144996100Y-39495100D03*
X146266100Y-39495100D03*
X146266100Y-44803700D03*
X144996100Y-44803700D03*
X143726100Y-44803700D03*
X142456100Y-44803700D03*
X141186100Y-44803700D03*
X139916100Y-44803700D03*
X138646100Y-44803700D03*
X137376100Y-44803700D03*
%TD*%
D22*
%TO.C,J3*%
X181930000Y-39470000D03*
D23*
X184430000Y-39470000D03*
X186930000Y-39470000D03*
X189430000Y-39470000D03*
%TD*%
D19*
%TO.C,J18*%
X137625000Y-63695000D03*
D20*
X140165000Y-63695000D03*
X142705000Y-63695000D03*
%TD*%
D29*
%TO.C,J6*%
X151115000Y-48480000D03*
D30*
X153615000Y-48480000D03*
X156115000Y-48480000D03*
X158615000Y-48480000D03*
X161115000Y-48480000D03*
%TD*%
D27*
%TO.C,C3*%
X168510000Y-64485000D03*
X170060000Y-64485000D03*
%TD*%
D22*
%TO.C,J2*%
X166930000Y-39470000D03*
D23*
X169430000Y-39470000D03*
X171930000Y-39470000D03*
X174430000Y-39470000D03*
%TD*%
%LPD*%
M02*
