%TF.GenerationSoftware,KiCad,Pcbnew,7.0.7*%
%TF.CreationDate,2023-11-07T21:10:22-05:00*%
%TF.ProjectId,attachmentBoard,61747461-6368-46d6-956e-74426f617264,rev?*%
%TF.SameCoordinates,Original*%
%TF.FileFunction,Copper,L1,Top*%
%TF.FilePolarity,Positive*%
%FSLAX46Y46*%
G04 Gerber Fmt 4.6, Leading zero omitted, Abs format (unit mm)*
G04 Created by KiCad (PCBNEW 7.0.7) date 2023-11-07 21:10:22*
%MOMM*%
%LPD*%
G01*
G04 APERTURE LIST*
G04 Aperture macros list*
%AMRoundRect*
0 Rectangle with rounded corners*
0 $1 Rounding radius*
0 $2 $3 $4 $5 $6 $7 $8 $9 X,Y pos of 4 corners*
0 Add a 4 corners polygon primitive as box body*
4,1,4,$2,$3,$4,$5,$6,$7,$8,$9,$2,$3,0*
0 Add four circle primitives for the rounded corners*
1,1,$1+$1,$2,$3*
1,1,$1+$1,$4,$5*
1,1,$1+$1,$6,$7*
1,1,$1+$1,$8,$9*
0 Add four rect primitives between the rounded corners*
20,1,$1+$1,$2,$3,$4,$5,0*
20,1,$1+$1,$4,$5,$6,$7,0*
20,1,$1+$1,$6,$7,$8,$9,0*
20,1,$1+$1,$8,$9,$2,$3,0*%
G04 Aperture macros list end*
%TA.AperFunction,SMDPad,CuDef*%
%ADD10RoundRect,0.100000X0.100000X-0.637500X0.100000X0.637500X-0.100000X0.637500X-0.100000X-0.637500X0*%
%TD*%
%TA.AperFunction,SMDPad,CuDef*%
%ADD11RoundRect,0.750000X-0.750000X-0.750000X0.750000X-0.750000X0.750000X0.750000X-0.750000X0.750000X0*%
%TD*%
%TA.AperFunction,ComponentPad*%
%ADD12RoundRect,0.326336X0.528664X-0.528664X0.528664X0.528664X-0.528664X0.528664X-0.528664X-0.528664X0*%
%TD*%
%TA.AperFunction,ComponentPad*%
%ADD13C,1.710000*%
%TD*%
%TA.AperFunction,SMDPad,CuDef*%
%ADD14RoundRect,0.225000X0.250000X-0.225000X0.250000X0.225000X-0.250000X0.225000X-0.250000X-0.225000X0*%
%TD*%
%TA.AperFunction,SMDPad,CuDef*%
%ADD15RoundRect,0.200000X-0.275000X0.200000X-0.275000X-0.200000X0.275000X-0.200000X0.275000X0.200000X0*%
%TD*%
%TA.AperFunction,SMDPad,CuDef*%
%ADD16RoundRect,0.200000X0.200000X0.275000X-0.200000X0.275000X-0.200000X-0.275000X0.200000X-0.275000X0*%
%TD*%
%TA.AperFunction,SMDPad,CuDef*%
%ADD17RoundRect,1.000000X1.000000X-1.000000X1.000000X1.000000X-1.000000X1.000000X-1.000000X-1.000000X0*%
%TD*%
%TA.AperFunction,SMDPad,CuDef*%
%ADD18RoundRect,0.200000X0.275000X-0.200000X0.275000X0.200000X-0.275000X0.200000X-0.275000X-0.200000X0*%
%TD*%
%TA.AperFunction,SMDPad,CuDef*%
%ADD19RoundRect,0.218750X-0.218750X-0.256250X0.218750X-0.256250X0.218750X0.256250X-0.218750X0.256250X0*%
%TD*%
%TA.AperFunction,ComponentPad*%
%ADD20R,1.700000X1.700000*%
%TD*%
%TA.AperFunction,ComponentPad*%
%ADD21O,1.700000X1.700000*%
%TD*%
%TA.AperFunction,ComponentPad*%
%ADD22R,1.400000X1.400000*%
%TD*%
%TA.AperFunction,ComponentPad*%
%ADD23C,1.400000*%
%TD*%
%TA.AperFunction,ComponentPad*%
%ADD24C,4.300000*%
%TD*%
%TA.AperFunction,ComponentPad*%
%ADD25R,1.650000X1.650000*%
%TD*%
%TA.AperFunction,ComponentPad*%
%ADD26C,1.650000*%
%TD*%
%TA.AperFunction,ViaPad*%
%ADD27C,1.000000*%
%TD*%
%TA.AperFunction,ViaPad*%
%ADD28C,0.600000*%
%TD*%
%TA.AperFunction,ViaPad*%
%ADD29C,0.800000*%
%TD*%
%TA.AperFunction,Conductor*%
%ADD30C,0.800000*%
%TD*%
%TA.AperFunction,Conductor*%
%ADD31C,1.000000*%
%TD*%
%TA.AperFunction,Conductor*%
%ADD32C,0.300000*%
%TD*%
%TA.AperFunction,Conductor*%
%ADD33C,0.500000*%
%TD*%
%TA.AperFunction,Conductor*%
%ADD34C,0.200000*%
%TD*%
%TA.AperFunction,Conductor*%
%ADD35C,0.150000*%
%TD*%
G04 APERTURE END LIST*
D10*
%TO.P,U1,1,A0*%
%TO.N,/A0*%
X136750000Y-55867500D03*
%TO.P,U1,2,A1*%
%TO.N,/A1*%
X137400000Y-55867500D03*
%TO.P,U1,3,A2*%
%TO.N,/A2*%
X138050000Y-55867500D03*
%TO.P,U1,4,A3*%
%TO.N,/A3*%
X138700000Y-55867500D03*
%TO.P,U1,5,A4*%
%TO.N,/A4*%
X139350000Y-55867500D03*
%TO.P,U1,6,LED0*%
%TO.N,/SERVO0*%
X140000000Y-55867500D03*
%TO.P,U1,7,LED1*%
%TO.N,/SERVO1*%
X140650000Y-55867500D03*
%TO.P,U1,8,LED2*%
%TO.N,/SERVO2*%
X141300000Y-55867500D03*
%TO.P,U1,9,LED3*%
%TO.N,/SERVO3*%
X141950000Y-55867500D03*
%TO.P,U1,10,LED4*%
%TO.N,/SERVO4*%
X142600000Y-55867500D03*
%TO.P,U1,11,LED5*%
%TO.N,/SERVO5*%
X143250000Y-55867500D03*
%TO.P,U1,12,LED6*%
%TO.N,/SERVO6*%
X143900000Y-55867500D03*
%TO.P,U1,13,LED7*%
%TO.N,/SERVO7*%
X144550000Y-55867500D03*
%TO.P,U1,14,VSS*%
%TO.N,GND*%
X145200000Y-55867500D03*
%TO.P,U1,15,LED8*%
%TO.N,unconnected-(U1-LED8-Pad15)*%
X145200000Y-50142500D03*
%TO.P,U1,16,LED9*%
%TO.N,unconnected-(U1-LED9-Pad16)*%
X144550000Y-50142500D03*
%TO.P,U1,17,LED10*%
%TO.N,unconnected-(U1-LED10-Pad17)*%
X143900000Y-50142500D03*
%TO.P,U1,18,LED11*%
%TO.N,unconnected-(U1-LED11-Pad18)*%
X143250000Y-50142500D03*
%TO.P,U1,19,LED12*%
%TO.N,unconnected-(U1-LED12-Pad19)*%
X142600000Y-50142500D03*
%TO.P,U1,20,LED13*%
%TO.N,unconnected-(U1-LED13-Pad20)*%
X141950000Y-50142500D03*
%TO.P,U1,21,LED14*%
%TO.N,unconnected-(U1-LED14-Pad21)*%
X141300000Y-50142500D03*
%TO.P,U1,22,LED15*%
%TO.N,unconnected-(U1-LED15-Pad22)*%
X140650000Y-50142500D03*
%TO.P,U1,23,~{OE}*%
%TO.N,/E_STOP*%
X140000000Y-50142500D03*
%TO.P,U1,24,A5*%
%TO.N,/A5*%
X139350000Y-50142500D03*
%TO.P,U1,25,EXTCLK*%
%TO.N,unconnected-(U1-EXTCLK-Pad25)*%
X138700000Y-50142500D03*
%TO.P,U1,26,SCL*%
%TO.N,/SCL*%
X138050000Y-50142500D03*
%TO.P,U1,27,SDA*%
%TO.N,/SDA*%
X137400000Y-50142500D03*
%TO.P,U1,28,VDD*%
%TO.N,+5V*%
X136750000Y-50142500D03*
%TD*%
D11*
%TO.P,J10,1,1*%
%TO.N,/S4*%
X146590000Y-82660000D03*
%TO.P,J10,2,2*%
%TO.N,/S5*%
X146590000Y-87280000D03*
%TD*%
D12*
%TO.P,U2,1,LB+*%
%TO.N,unconnected-(U2-LB+-Pad1)*%
X152910000Y-62850000D03*
D13*
%TO.P,U2,2,LB-*%
%TO.N,unconnected-(U2-LB--Pad2)*%
X155450000Y-62850000D03*
%TO.P,U2,3,EN1+*%
%TO.N,/EN1+*%
X152910000Y-65390000D03*
%TO.P,U2,4,EN1-*%
%TO.N,/EN1-*%
X155450000Y-65390000D03*
%TO.P,U2,5,EN2+*%
%TO.N,/EN2+*%
X152910000Y-67930000D03*
%TO.P,U2,6,EN2-*%
%TO.N,/EN2-*%
X155450000Y-67930000D03*
%TO.P,U2,7,EN1A*%
%TO.N,/EN1A*%
X152910000Y-70470000D03*
%TO.P,U2,8,EN1B*%
%TO.N,/EN1B*%
X155450000Y-70470000D03*
%TO.P,U2,9,EN2A*%
%TO.N,/EN2A*%
X152910000Y-73010000D03*
%TO.P,U2,10,EN2B*%
%TO.N,/EN2B*%
X155450000Y-73010000D03*
%TO.P,U2,11,S1+*%
%TO.N,unconnected-(U2-S1+-Pad11)*%
X152910000Y-75550000D03*
%TO.P,U2,12,S1-*%
%TO.N,unconnected-(U2-S1--Pad12)*%
X155450000Y-75550000D03*
%TO.P,U2,13,S2+*%
%TO.N,unconnected-(U2-S2+-Pad13)*%
X152910000Y-78090000D03*
%TO.P,U2,14,S2-*%
%TO.N,unconnected-(U2-S2--Pad14)*%
X155450000Y-78090000D03*
%TO.P,U2,15,S3+*%
%TO.N,unconnected-(U2-S3+-Pad15)*%
X152910000Y-80630000D03*
%TO.P,U2,16,S3-*%
%TO.N,unconnected-(U2-S3--Pad16)*%
X155450000Y-80630000D03*
%TO.P,U2,17,S4+*%
%TO.N,unconnected-(U2-S4+-Pad17)*%
X152910000Y-83170000D03*
%TO.P,U2,18,S4-*%
%TO.N,unconnected-(U2-S4--Pad18)*%
X155450000Y-83170000D03*
%TO.P,U2,19,S5+*%
%TO.N,unconnected-(U2-S5+-Pad19)*%
X152910000Y-85710000D03*
%TO.P,U2,20,S5-*%
%TO.N,unconnected-(U2-S5--Pad20)*%
X155450000Y-85710000D03*
%TO.P,U2,21,S1_IO*%
%TO.N,/RxD*%
X150270000Y-75550000D03*
%TO.P,U2,22,S2_IO*%
%TO.N,/TxD*%
X150270000Y-78090000D03*
%TO.P,U2,23,S3_IO*%
%TO.N,/E_STOP*%
X150270000Y-80630000D03*
%TO.P,U2,24,S4_IO*%
%TO.N,/S4*%
X150270000Y-83170000D03*
%TO.P,U2,25,S5_IO*%
%TO.N,/S5*%
X150270000Y-85710000D03*
%TD*%
D14*
%TO.P,C1,1*%
%TO.N,+5V*%
X136795000Y-48290000D03*
%TO.P,C1,2*%
%TO.N,GND*%
X136795000Y-46740000D03*
%TD*%
D15*
%TO.P,R3,1*%
%TO.N,/A2*%
X139235000Y-58550000D03*
%TO.P,R3,2*%
%TO.N,GND*%
X139235000Y-60200000D03*
%TD*%
D16*
%TO.P,R7,1*%
%TO.N,+5V*%
X171430000Y-91165000D03*
%TO.P,R7,2*%
%TO.N,Net-(D1-A)*%
X169780000Y-91165000D03*
%TD*%
D15*
%TO.P,R2,1*%
%TO.N,/A1*%
X137645000Y-58550000D03*
%TO.P,R2,2*%
%TO.N,GND*%
X137645000Y-60200000D03*
%TD*%
D17*
%TO.P,J9,1,1*%
%TO.N,+5V*%
X178060000Y-91140000D03*
%TO.P,J9,2,2*%
%TO.N,GND*%
X183680000Y-91140000D03*
%TD*%
D15*
%TO.P,R1,1*%
%TO.N,/A0*%
X135945000Y-58550000D03*
%TO.P,R1,2*%
%TO.N,GND*%
X135945000Y-60200000D03*
%TD*%
D17*
%TO.P,J8,1,1*%
%TO.N,+5V*%
X178360000Y-54710000D03*
%TO.P,J8,2,2*%
%TO.N,GND*%
X183980000Y-54710000D03*
%TD*%
D18*
%TO.P,R6,1*%
%TO.N,/A5*%
X139425000Y-48220000D03*
%TO.P,R6,2*%
%TO.N,GND*%
X139425000Y-46570000D03*
%TD*%
D19*
%TO.P,D1,1,K*%
%TO.N,GND*%
X166557500Y-91165000D03*
%TO.P,D1,2,A*%
%TO.N,Net-(D1-A)*%
X168132500Y-91165000D03*
%TD*%
D17*
%TO.P,J7,1,1*%
%TO.N,+12V*%
X178380000Y-59680000D03*
%TO.P,J7,2,2*%
%TO.N,GND*%
X184000000Y-59680000D03*
%TD*%
D20*
%TO.P,J13,1,Pin_1*%
%TO.N,GND*%
X137625000Y-83945000D03*
D21*
%TO.P,J13,2,Pin_2*%
%TO.N,+5V*%
X140165000Y-83945000D03*
%TO.P,J13,3,Pin_3*%
%TO.N,/SERVO2*%
X142705000Y-83945000D03*
%TD*%
D22*
%TO.P,J1,1,1*%
%TO.N,+5V*%
X151930000Y-39470000D03*
D23*
%TO.P,J1,2,2*%
%TO.N,GND*%
X154430000Y-39470000D03*
%TO.P,J1,3,3*%
%TO.N,/SCL*%
X156930000Y-39470000D03*
%TO.P,J1,4,4*%
%TO.N,/SDA*%
X159430000Y-39470000D03*
%TD*%
D20*
%TO.P,J17,1,Pin_1*%
%TO.N,GND*%
X137625000Y-67745000D03*
D21*
%TO.P,J17,2,Pin_2*%
%TO.N,+5V*%
X140165000Y-67745000D03*
%TO.P,J17,3,Pin_3*%
%TO.N,/SERVO6*%
X142705000Y-67745000D03*
%TD*%
D20*
%TO.P,J14,1,Pin_1*%
%TO.N,GND*%
X137625000Y-79895000D03*
D21*
%TO.P,J14,2,Pin_2*%
%TO.N,+5V*%
X140165000Y-79895000D03*
%TO.P,J14,3,Pin_3*%
%TO.N,/SERVO3*%
X142705000Y-79895000D03*
%TD*%
D24*
%TO.P,J5,1,1*%
%TO.N,+12V*%
X168490000Y-49080000D03*
%TO.P,J5,2,2*%
%TO.N,GND*%
X173490000Y-49080000D03*
%TD*%
D22*
%TO.P,J4,1,1*%
%TO.N,/EN2+*%
X181880000Y-48480000D03*
D23*
%TO.P,J4,2,2*%
%TO.N,/EN2-*%
X184380000Y-48480000D03*
%TO.P,J4,3,3*%
%TO.N,/EN2A*%
X186880000Y-48480000D03*
%TO.P,J4,4,4*%
%TO.N,/EN2B*%
X189380000Y-48480000D03*
%TD*%
D20*
%TO.P,J16,1,Pin_1*%
%TO.N,GND*%
X137625000Y-71795000D03*
D21*
%TO.P,J16,2,Pin_2*%
%TO.N,+5V*%
X140165000Y-71795000D03*
%TO.P,J16,3,Pin_3*%
%TO.N,/SERVO5*%
X142705000Y-71795000D03*
%TD*%
D20*
%TO.P,J11,1,Pin_1*%
%TO.N,GND*%
X137625000Y-92045000D03*
D21*
%TO.P,J11,2,Pin_2*%
%TO.N,+5V*%
X140165000Y-92045000D03*
%TO.P,J11,3,Pin_3*%
%TO.N,/SERVO0*%
X142705000Y-92045000D03*
%TD*%
D20*
%TO.P,J15,1,Pin_1*%
%TO.N,GND*%
X137625000Y-75845000D03*
D21*
%TO.P,J15,2,Pin_2*%
%TO.N,+5V*%
X140165000Y-75845000D03*
%TO.P,J15,3,Pin_3*%
%TO.N,/SERVO4*%
X142705000Y-75845000D03*
%TD*%
D20*
%TO.P,J12,1,Pin_1*%
%TO.N,GND*%
X137625000Y-87995000D03*
D21*
%TO.P,J12,2,Pin_2*%
%TO.N,+5V*%
X140165000Y-87995000D03*
%TO.P,J12,3,Pin_3*%
%TO.N,/SERVO1*%
X142705000Y-87995000D03*
%TD*%
D22*
%TO.P,J3,1,1*%
%TO.N,/EN1+*%
X181930000Y-39470000D03*
D23*
%TO.P,J3,2,2*%
%TO.N,/EN1-*%
X184430000Y-39470000D03*
%TO.P,J3,3,3*%
%TO.N,/EN1A*%
X186930000Y-39470000D03*
%TO.P,J3,4,4*%
%TO.N,/EN1B*%
X189430000Y-39470000D03*
%TD*%
D20*
%TO.P,J18,1,Pin_1*%
%TO.N,GND*%
X137625000Y-63695000D03*
D21*
%TO.P,J18,2,Pin_2*%
%TO.N,+5V*%
X140165000Y-63695000D03*
%TO.P,J18,3,Pin_3*%
%TO.N,/SERVO7*%
X142705000Y-63695000D03*
%TD*%
D25*
%TO.P,J6,1,1*%
%TO.N,/E_STOP*%
X151115000Y-48480000D03*
D26*
%TO.P,J6,2,2*%
%TO.N,/RxD*%
X153615000Y-48480000D03*
%TO.P,J6,3,3*%
%TO.N,/TxD*%
X156115000Y-48480000D03*
%TO.P,J6,4,4*%
%TO.N,/SDA*%
X158615000Y-48480000D03*
%TO.P,J6,5,5*%
%TO.N,/SCL*%
X161115000Y-48480000D03*
%TD*%
D22*
%TO.P,J2,1,1*%
%TO.N,+5V*%
X166930000Y-39470000D03*
D23*
%TO.P,J2,2,2*%
%TO.N,GND*%
X169430000Y-39470000D03*
%TO.P,J2,3,3*%
%TO.N,/SCL*%
X171930000Y-39470000D03*
%TO.P,J2,4,4*%
%TO.N,/SDA*%
X174430000Y-39470000D03*
%TD*%
D27*
%TO.N,+5V*%
X146400000Y-54200000D03*
X178400000Y-49500000D03*
X174200000Y-69600000D03*
X168500000Y-62500000D03*
%TO.N,GND*%
X147000000Y-50000000D03*
D28*
X148100000Y-68700000D03*
D29*
X139700000Y-43300000D03*
D27*
X172500000Y-58250000D03*
D28*
X165500000Y-44300000D03*
D27*
X145750000Y-73250000D03*
D28*
X143250000Y-52500000D03*
D27*
X191750000Y-59000000D03*
X164750000Y-93750000D03*
X165200000Y-91200000D03*
X193250000Y-88500000D03*
X140700000Y-60200000D03*
X174000000Y-67250000D03*
X174500000Y-94000000D03*
X145500000Y-77500000D03*
X165000000Y-63200000D03*
X178750000Y-94250000D03*
X146750000Y-47500000D03*
X152000000Y-53750000D03*
X145750000Y-58500000D03*
X170100000Y-63100000D03*
X194000000Y-36250000D03*
X193750000Y-38250000D03*
X155143438Y-92535263D03*
X189500000Y-57000000D03*
D28*
X141750000Y-61250000D03*
D27*
X161500000Y-92000000D03*
X158706557Y-92277066D03*
X159500000Y-61500000D03*
D28*
X141325000Y-46575000D03*
D27*
X160250000Y-87000000D03*
X145750000Y-42250000D03*
X163250000Y-86750000D03*
D28*
X137675000Y-61275000D03*
D27*
X160500000Y-64500000D03*
D28*
X138250000Y-41500000D03*
D27*
X146250000Y-91750000D03*
X155500000Y-57500000D03*
X146000000Y-36500000D03*
D28*
X145200000Y-57300000D03*
D27*
X166000000Y-87000000D03*
X178000000Y-88000000D03*
X171750000Y-61500000D03*
X161000000Y-59750000D03*
D28*
X160250000Y-93750000D03*
D27*
X155750000Y-88500000D03*
X173250000Y-56000000D03*
X142500000Y-36500000D03*
X146250000Y-93750000D03*
X158389611Y-56091803D03*
X189750000Y-59250000D03*
X151750000Y-88250000D03*
X186900000Y-54800000D03*
X174250000Y-64500000D03*
D28*
X154750000Y-51250000D03*
X141100000Y-51700000D03*
D27*
X167000000Y-58000000D03*
X186900000Y-59700000D03*
X187100000Y-91100000D03*
X170250000Y-94250000D03*
X183500000Y-88000000D03*
X145000000Y-47500000D03*
X190000000Y-88250000D03*
X188500000Y-94000000D03*
X160250000Y-54500000D03*
X189750000Y-91250000D03*
X138750000Y-36250000D03*
X164800547Y-55908196D03*
X183750000Y-94250000D03*
X166250000Y-61750000D03*
X163250000Y-57750000D03*
%TO.N,+12V*%
X174900000Y-59700000D03*
D28*
%TO.N,/SCL*%
X156900000Y-45500000D03*
%TO.N,/EN1A*%
X168500000Y-45100000D03*
%TO.N,/EN1B*%
X174300000Y-61200000D03*
%TO.N,/EN2+*%
X166750000Y-52800000D03*
X176825000Y-51175000D03*
%TO.N,/EN2-*%
X170000000Y-53700000D03*
X177000000Y-48400000D03*
%TO.N,/EN2A*%
X163975000Y-50625000D03*
X157725000Y-50625000D03*
%TO.N,/EN2B*%
X159200000Y-65100000D03*
X169800000Y-54900000D03*
%TO.N,/SERVO0*%
X140000000Y-57400000D03*
%TO.N,/SERVO1*%
X140700000Y-58000000D03*
%TO.N,/SERVO2*%
X141314195Y-57488171D03*
%TO.N,/SERVO4*%
X144900000Y-75800000D03*
%TO.N,/SERVO5*%
X145599500Y-71800000D03*
%TO.N,/SERVO6*%
X146244500Y-67745000D03*
%TO.N,/SERVO7*%
X144500000Y-58000000D03*
X142700000Y-61400000D03*
%TO.N,/A0*%
X135400000Y-44600000D03*
%TO.N,/A1*%
X138650000Y-42450000D03*
%TO.N,/A2*%
X136500000Y-53100000D03*
%TO.N,/A3*%
X138650457Y-54580945D03*
%TO.N,/A4*%
X139800000Y-54400000D03*
%TO.N,/A5*%
X143700000Y-46700000D03*
%TO.N,/E_STOP*%
X142800000Y-53500000D03*
%TD*%
D30*
%TO.N,+5V*%
X173500000Y-88700000D02*
X173600000Y-88700000D01*
X173400000Y-88700000D02*
X173500000Y-88700000D01*
X140745000Y-89880000D02*
X140745000Y-89920000D01*
X174200000Y-91140000D02*
X174200000Y-90400000D01*
X178360000Y-49540000D02*
X178360000Y-54710000D01*
X174200000Y-88000000D02*
X174200000Y-69600000D01*
D31*
X140165000Y-89300000D02*
X140165000Y-89900000D01*
X140165000Y-67745000D02*
X140165000Y-71795000D01*
D30*
X174200000Y-89300000D02*
X174200000Y-88700000D01*
D31*
X140165000Y-87995000D02*
X140165000Y-89300000D01*
D30*
X170875000Y-55625000D02*
X171775000Y-54725000D01*
X174200000Y-90440000D02*
X173500000Y-91140000D01*
X173500000Y-91140000D02*
X171455000Y-91140000D01*
X140745000Y-89920000D02*
X140165000Y-90500000D01*
D32*
X138500000Y-53600000D02*
X140200000Y-53600000D01*
D30*
X174200000Y-88700000D02*
X174200000Y-88000000D01*
X178400000Y-49500000D02*
X178360000Y-49540000D01*
X173600000Y-88700000D02*
X174200000Y-89300000D01*
X159400000Y-88700000D02*
X158220000Y-89880000D01*
X172915000Y-54710000D02*
X178360000Y-54710000D01*
X174200000Y-90440000D02*
X174900000Y-91140000D01*
X168500000Y-59700000D02*
X170875000Y-57325000D01*
X168500000Y-62500000D02*
X168500000Y-59700000D01*
D31*
X140165000Y-75845000D02*
X140165000Y-79895000D01*
D30*
X173500000Y-88700000D02*
X174200000Y-88000000D01*
D32*
X140200000Y-53600000D02*
X140800000Y-54200000D01*
D31*
X140165000Y-63695000D02*
X140165000Y-67745000D01*
D30*
X140800000Y-89880000D02*
X140745000Y-89880000D01*
D32*
X136750000Y-51850000D02*
X138500000Y-53600000D01*
X136750000Y-48335000D02*
X136795000Y-48290000D01*
D30*
X171775000Y-54725000D02*
X172900000Y-54725000D01*
X174200000Y-90400000D02*
X174200000Y-89300000D01*
X174900000Y-91140000D02*
X174200000Y-91140000D01*
X173400000Y-88700000D02*
X159400000Y-88700000D01*
X174200000Y-90400000D02*
X174200000Y-90440000D01*
D32*
X136750000Y-50142500D02*
X136750000Y-51850000D01*
D30*
X170875000Y-57325000D02*
X170875000Y-55625000D01*
X140745000Y-89880000D02*
X140165000Y-89300000D01*
X171455000Y-91140000D02*
X171430000Y-91165000D01*
D31*
X140165000Y-79895000D02*
X140165000Y-83945000D01*
X140165000Y-89900000D02*
X140165000Y-90500000D01*
D30*
X158220000Y-89880000D02*
X140800000Y-89880000D01*
D32*
X140800000Y-54200000D02*
X146400000Y-54200000D01*
D30*
X178060000Y-91140000D02*
X174900000Y-91140000D01*
D32*
X136750000Y-50142500D02*
X136750000Y-48335000D01*
D30*
X174200000Y-88700000D02*
X173400000Y-88700000D01*
X172900000Y-54725000D02*
X172915000Y-54710000D01*
D31*
X140165000Y-90500000D02*
X140165000Y-92045000D01*
D30*
X140800000Y-89880000D02*
X140185000Y-89880000D01*
X174200000Y-91140000D02*
X173500000Y-91140000D01*
D31*
X140165000Y-87995000D02*
X140165000Y-83945000D01*
D30*
X140185000Y-89880000D02*
X140165000Y-89900000D01*
D31*
X140165000Y-71795000D02*
X140165000Y-75845000D01*
D32*
%TO.N,GND*%
X137645000Y-61245000D02*
X137675000Y-61275000D01*
D33*
X186880000Y-59680000D02*
X186900000Y-59700000D01*
D32*
X141320000Y-46570000D02*
X139425000Y-46570000D01*
D31*
X184000000Y-59680000D02*
X186880000Y-59680000D01*
D32*
X138950000Y-43300000D02*
X136795000Y-45455000D01*
D33*
X139235000Y-60200000D02*
X140700000Y-60200000D01*
X166522500Y-91200000D02*
X166557500Y-91165000D01*
D31*
X183980000Y-54710000D02*
X186810000Y-54710000D01*
D30*
X165200000Y-91200000D02*
X166522500Y-91200000D01*
D33*
X137645000Y-60200000D02*
X135945000Y-60200000D01*
D32*
X139700000Y-43300000D02*
X138950000Y-43300000D01*
X137645000Y-60200000D02*
X137645000Y-61245000D01*
X136795000Y-45455000D02*
X136795000Y-46740000D01*
D33*
X186810000Y-54710000D02*
X186900000Y-54800000D01*
D32*
X145200000Y-57300000D02*
X145200000Y-55867500D01*
X141325000Y-46575000D02*
X141320000Y-46570000D01*
D30*
X187060000Y-91140000D02*
X187100000Y-91100000D01*
D33*
X137645000Y-60200000D02*
X139235000Y-60200000D01*
D31*
X183680000Y-91140000D02*
X187060000Y-91140000D01*
D30*
%TO.N,+12V*%
X174920000Y-59680000D02*
X174900000Y-59700000D01*
X178380000Y-59680000D02*
X174920000Y-59680000D01*
%TO.N,Net-(D1-A)*%
X169780000Y-91165000D02*
X168132500Y-91165000D01*
D34*
%TO.N,/SCL*%
X171930000Y-39470000D02*
X171930000Y-40970000D01*
X138800000Y-45500000D02*
X138300000Y-46000000D01*
X156900000Y-45500000D02*
X138800000Y-45500000D01*
X138300000Y-48800000D02*
X138050000Y-49050000D01*
X138050000Y-49050000D02*
X138050000Y-50142500D01*
X166750000Y-41550000D02*
X161115000Y-47185000D01*
X171350000Y-41550000D02*
X166750000Y-41550000D01*
X161115000Y-47185000D02*
X161115000Y-48480000D01*
X138300000Y-46000000D02*
X138300000Y-48800000D01*
X171930000Y-40970000D02*
X171350000Y-41550000D01*
%TO.N,/SDA*%
X137400000Y-50142500D02*
X137400000Y-49062893D01*
X158400000Y-44700000D02*
X158615000Y-44700000D01*
X137800000Y-48662893D02*
X137800000Y-45600000D01*
X160000000Y-37700000D02*
X174000000Y-37700000D01*
X158615000Y-44700000D02*
X158615000Y-44500000D01*
X159430000Y-39470000D02*
X159430000Y-38270000D01*
X158400000Y-44700000D02*
X158415000Y-44700000D01*
X174430000Y-38130000D02*
X174430000Y-39470000D01*
X158415000Y-44700000D02*
X158615000Y-44500000D01*
X158615000Y-41785000D02*
X159430000Y-40970000D01*
X158615000Y-44500000D02*
X158615000Y-41785000D01*
X138700000Y-44700000D02*
X158400000Y-44700000D01*
X159430000Y-40970000D02*
X159430000Y-39470000D01*
X158415000Y-44700000D02*
X158615000Y-44900000D01*
X158615000Y-44900000D02*
X158615000Y-44700000D01*
X158615000Y-48480000D02*
X158615000Y-44900000D01*
X137400000Y-49062893D02*
X137800000Y-48662893D01*
X174000000Y-37700000D02*
X174430000Y-38130000D01*
X159430000Y-38270000D02*
X160000000Y-37700000D01*
X137800000Y-45600000D02*
X138700000Y-44700000D01*
%TO.N,/EN1+*%
X169450000Y-42250000D02*
X174050000Y-42250000D01*
X151140000Y-65190000D02*
X150625000Y-64675000D01*
X174050000Y-42250000D02*
X176830000Y-39470000D01*
X161400000Y-50300000D02*
X169450000Y-42250000D01*
X159900000Y-50300000D02*
X161400000Y-50300000D01*
X176830000Y-39470000D02*
X181930000Y-39470000D01*
X152810000Y-65190000D02*
X151140000Y-65190000D01*
X150625000Y-64675000D02*
X150625000Y-59575000D01*
X150625000Y-59575000D02*
X159900000Y-50300000D01*
%TO.N,/EN1-*%
X157125000Y-55375000D02*
X169675000Y-42825000D01*
X157125000Y-64625000D02*
X157125000Y-55375000D01*
X156560000Y-65190000D02*
X157125000Y-64625000D01*
X174550000Y-42825000D02*
X175875000Y-41500000D01*
X175875000Y-41500000D02*
X183750000Y-41500000D01*
X184430000Y-40820000D02*
X184430000Y-39470000D01*
X183750000Y-41500000D02*
X184430000Y-40820000D01*
X155350000Y-65190000D02*
X156560000Y-65190000D01*
X169675000Y-42825000D02*
X174550000Y-42825000D01*
%TO.N,/EN1A*%
X171475000Y-43775000D02*
X183950000Y-43775000D01*
X170150000Y-45100000D02*
X171475000Y-43775000D01*
X168500000Y-45100000D02*
X170150000Y-45100000D01*
X183950000Y-43775000D02*
X186930000Y-40795000D01*
X186930000Y-40795000D02*
X186930000Y-39470000D01*
%TO.N,/EN1B*%
X170000000Y-66300000D02*
X172900000Y-63400000D01*
X155350000Y-70270000D02*
X157730000Y-70270000D01*
X174300000Y-62000000D02*
X174300000Y-61200000D01*
X172900000Y-63400000D02*
X174300000Y-62000000D01*
X161700000Y-66300000D02*
X170000000Y-66300000D01*
X157730000Y-70270000D02*
X161700000Y-66300000D01*
%TO.N,/EN2+*%
X174300000Y-52800000D02*
X175925000Y-51175000D01*
X175925000Y-51175000D02*
X176825000Y-51175000D01*
X166750000Y-52800000D02*
X174300000Y-52800000D01*
%TO.N,/EN2-*%
X162800000Y-53700000D02*
X158400000Y-58100000D01*
X184380000Y-47280000D02*
X184380000Y-48480000D01*
X158400000Y-66100000D02*
X156770000Y-67730000D01*
X177000000Y-48400000D02*
X177900000Y-48400000D01*
X156770000Y-67730000D02*
X155350000Y-67730000D01*
X170000000Y-53700000D02*
X162800000Y-53700000D01*
X183800000Y-46700000D02*
X184380000Y-47280000D01*
X179600000Y-46700000D02*
X183800000Y-46700000D01*
X158400000Y-58100000D02*
X158400000Y-66100000D01*
X177900000Y-48400000D02*
X179600000Y-46700000D01*
%TO.N,/EN2A*%
X186880000Y-47080000D02*
X186880000Y-48480000D01*
X163975000Y-50625000D02*
X163975000Y-49325000D01*
X167200000Y-46100000D02*
X185900000Y-46100000D01*
X155700000Y-53200000D02*
X155700000Y-51900000D01*
X155700000Y-51900000D02*
X156975000Y-50625000D01*
X185900000Y-46100000D02*
X186880000Y-47080000D01*
X149575000Y-59325000D02*
X155700000Y-53200000D01*
X156975000Y-50625000D02*
X157725000Y-50625000D01*
X150810000Y-72810000D02*
X149575000Y-71575000D01*
X163975000Y-49325000D02*
X167200000Y-46100000D01*
X149575000Y-71575000D02*
X149575000Y-59325000D01*
X152810000Y-72810000D02*
X150810000Y-72810000D01*
%TO.N,/EN2B*%
X159200000Y-63800000D02*
X159200000Y-65100000D01*
X169800000Y-54900000D02*
X168100000Y-54900000D01*
X168100000Y-54900000D02*
X159200000Y-63800000D01*
%TO.N,/RxD*%
X153615000Y-49785000D02*
X152900000Y-50500000D01*
X153615000Y-48480000D02*
X153615000Y-49785000D01*
X147950000Y-75350000D02*
X150270000Y-75350000D01*
X152900000Y-50500000D02*
X149200000Y-50500000D01*
X149200000Y-50500000D02*
X147400000Y-52300000D01*
X147400000Y-52300000D02*
X147400000Y-74800000D01*
X147400000Y-74800000D02*
X147950000Y-75350000D01*
%TO.N,/S4*%
X146780000Y-82970000D02*
X150270000Y-82970000D01*
X146590000Y-83160000D02*
X146780000Y-82970000D01*
%TO.N,/S5*%
X149220000Y-87780000D02*
X146590000Y-87780000D01*
X150270000Y-86730000D02*
X149220000Y-87780000D01*
X150270000Y-85510000D02*
X150270000Y-86730000D01*
D35*
%TO.N,/SERVO0*%
X140000000Y-57400000D02*
X140000000Y-55867500D01*
D34*
%TO.N,/SERVO1*%
X140700000Y-55917500D02*
X140650000Y-55867500D01*
X140700000Y-58000000D02*
X140700000Y-55917500D01*
%TO.N,/SERVO2*%
X141314195Y-55881695D02*
X141300000Y-55867500D01*
X141314195Y-57488171D02*
X141314195Y-55881695D01*
%TO.N,/SERVO3*%
X142705000Y-79895000D02*
X143905000Y-79895000D01*
X144200000Y-79600000D02*
X144200000Y-61300000D01*
X141950000Y-59050000D02*
X141950000Y-55867500D01*
X144200000Y-61300000D02*
X141950000Y-59050000D01*
X143905000Y-79895000D02*
X144200000Y-79600000D01*
%TO.N,/SERVO4*%
X144900000Y-61100000D02*
X142600000Y-58800000D01*
X142600000Y-58800000D02*
X142600000Y-55867500D01*
X144900000Y-75800000D02*
X144900000Y-61100000D01*
%TO.N,/SERVO5*%
X145599500Y-71800000D02*
X145600000Y-71799500D01*
X145600000Y-61000000D02*
X143250000Y-58650000D01*
X143250000Y-58650000D02*
X143250000Y-55867500D01*
X145600000Y-71799500D02*
X145600000Y-61000000D01*
%TO.N,/SERVO6*%
X146244500Y-67745000D02*
X146244500Y-60744500D01*
X146244500Y-60744500D02*
X143900000Y-58400000D01*
X143900000Y-58400000D02*
X143900000Y-55867500D01*
%TO.N,/SERVO7*%
X142705000Y-61405000D02*
X142700000Y-61400000D01*
X144500000Y-58000000D02*
X144550000Y-57950000D01*
X144550000Y-57950000D02*
X144550000Y-55867500D01*
X142705000Y-63695000D02*
X142705000Y-61405000D01*
%TO.N,/A0*%
X135900000Y-57800000D02*
X135900000Y-58505000D01*
X135900000Y-58505000D02*
X135945000Y-58550000D01*
X135400000Y-53500000D02*
X136750000Y-54850000D01*
X136750000Y-55867500D02*
X136750000Y-56950000D01*
X135400000Y-44600000D02*
X135400000Y-53500000D01*
X136750000Y-56950000D02*
X135900000Y-57800000D01*
X136750000Y-54850000D02*
X136750000Y-55867500D01*
%TO.N,/A1*%
X135800000Y-53300000D02*
X137400000Y-54900000D01*
X137600000Y-42900000D02*
X137600000Y-43700000D01*
X137400000Y-58285000D02*
X137645000Y-58530000D01*
X135800000Y-45500000D02*
X135800000Y-53300000D01*
X138050000Y-42450000D02*
X137600000Y-42900000D01*
X137600000Y-43700000D02*
X135800000Y-45500000D01*
X137400000Y-54900000D02*
X137400000Y-55867500D01*
X138650000Y-42450000D02*
X138050000Y-42450000D01*
X137400000Y-55867500D02*
X137400000Y-58285000D01*
%TO.N,/A2*%
X138050000Y-54850000D02*
X136500000Y-53300000D01*
X139235000Y-57735000D02*
X139235000Y-58550000D01*
X138400000Y-57500000D02*
X139000000Y-57500000D01*
X136500000Y-53300000D02*
X136500000Y-53100000D01*
X138050000Y-55867500D02*
X138050000Y-57150000D01*
X138050000Y-57150000D02*
X138400000Y-57500000D01*
X139000000Y-57500000D02*
X139235000Y-57735000D01*
X138050000Y-55867500D02*
X138050000Y-54850000D01*
D32*
%TO.N,/A3*%
X138700000Y-54630488D02*
X138700000Y-55867500D01*
X138650457Y-54580945D02*
X138700000Y-54630488D01*
%TO.N,/A4*%
X139800000Y-54400000D02*
X139350000Y-54850000D01*
X139350000Y-54850000D02*
X139350000Y-55867500D01*
%TO.N,/A5*%
X140980000Y-48220000D02*
X139425000Y-48220000D01*
X139350000Y-50142500D02*
X139350000Y-48295000D01*
X143700000Y-46700000D02*
X142500000Y-46700000D01*
X139350000Y-48295000D02*
X139425000Y-48220000D01*
X142500000Y-46700000D02*
X140980000Y-48220000D01*
D34*
%TO.N,/E_STOP*%
X140400000Y-48800000D02*
X141200000Y-48800000D01*
X140000000Y-50142500D02*
X140000000Y-49200000D01*
X140000000Y-49200000D02*
X140400000Y-48800000D01*
X141050000Y-53500000D02*
X140000000Y-52450000D01*
X141520000Y-48480000D02*
X151115000Y-48480000D01*
X140000000Y-52450000D02*
X140000000Y-50142500D01*
X141200000Y-48800000D02*
X141520000Y-48480000D01*
X142800000Y-53500000D02*
X141050000Y-53500000D01*
%TD*%
M02*
