%TF.GenerationSoftware,KiCad,Pcbnew,7.0.7*%
%TF.CreationDate,2023-11-07T21:10:22-05:00*%
%TF.ProjectId,attachmentBoard,61747461-6368-46d6-956e-74426f617264,rev?*%
%TF.SameCoordinates,Original*%
%TF.FileFunction,Paste,Top*%
%TF.FilePolarity,Positive*%
%FSLAX46Y46*%
G04 Gerber Fmt 4.6, Leading zero omitted, Abs format (unit mm)*
G04 Created by KiCad (PCBNEW 7.0.7) date 2023-11-07 21:10:22*
%MOMM*%
%LPD*%
G01*
G04 APERTURE LIST*
G04 Aperture macros list*
%AMRoundRect*
0 Rectangle with rounded corners*
0 $1 Rounding radius*
0 $2 $3 $4 $5 $6 $7 $8 $9 X,Y pos of 4 corners*
0 Add a 4 corners polygon primitive as box body*
4,1,4,$2,$3,$4,$5,$6,$7,$8,$9,$2,$3,0*
0 Add four circle primitives for the rounded corners*
1,1,$1+$1,$2,$3*
1,1,$1+$1,$4,$5*
1,1,$1+$1,$6,$7*
1,1,$1+$1,$8,$9*
0 Add four rect primitives between the rounded corners*
20,1,$1+$1,$2,$3,$4,$5,0*
20,1,$1+$1,$4,$5,$6,$7,0*
20,1,$1+$1,$6,$7,$8,$9,0*
20,1,$1+$1,$8,$9,$2,$3,0*%
G04 Aperture macros list end*
%ADD10RoundRect,0.100000X0.100000X-0.637500X0.100000X0.637500X-0.100000X0.637500X-0.100000X-0.637500X0*%
%ADD11RoundRect,0.750000X-0.750000X-0.750000X0.750000X-0.750000X0.750000X0.750000X-0.750000X0.750000X0*%
%ADD12RoundRect,0.225000X0.250000X-0.225000X0.250000X0.225000X-0.250000X0.225000X-0.250000X-0.225000X0*%
%ADD13RoundRect,0.200000X-0.275000X0.200000X-0.275000X-0.200000X0.275000X-0.200000X0.275000X0.200000X0*%
%ADD14RoundRect,0.200000X0.200000X0.275000X-0.200000X0.275000X-0.200000X-0.275000X0.200000X-0.275000X0*%
%ADD15RoundRect,1.000000X1.000000X-1.000000X1.000000X1.000000X-1.000000X1.000000X-1.000000X-1.000000X0*%
%ADD16RoundRect,0.200000X0.275000X-0.200000X0.275000X0.200000X-0.275000X0.200000X-0.275000X-0.200000X0*%
%ADD17RoundRect,0.218750X-0.218750X-0.256250X0.218750X-0.256250X0.218750X0.256250X-0.218750X0.256250X0*%
G04 APERTURE END LIST*
D10*
%TO.C,U1*%
X136750000Y-55867500D03*
X137400000Y-55867500D03*
X138050000Y-55867500D03*
X138700000Y-55867500D03*
X139350000Y-55867500D03*
X140000000Y-55867500D03*
X140650000Y-55867500D03*
X141300000Y-55867500D03*
X141950000Y-55867500D03*
X142600000Y-55867500D03*
X143250000Y-55867500D03*
X143900000Y-55867500D03*
X144550000Y-55867500D03*
X145200000Y-55867500D03*
X145200000Y-50142500D03*
X144550000Y-50142500D03*
X143900000Y-50142500D03*
X143250000Y-50142500D03*
X142600000Y-50142500D03*
X141950000Y-50142500D03*
X141300000Y-50142500D03*
X140650000Y-50142500D03*
X140000000Y-50142500D03*
X139350000Y-50142500D03*
X138700000Y-50142500D03*
X138050000Y-50142500D03*
X137400000Y-50142500D03*
X136750000Y-50142500D03*
%TD*%
D11*
%TO.C,J10*%
X146590000Y-82660000D03*
X146590000Y-87280000D03*
%TD*%
D12*
%TO.C,C1*%
X136795000Y-48290000D03*
X136795000Y-46740000D03*
%TD*%
D13*
%TO.C,R3*%
X139235000Y-58550000D03*
X139235000Y-60200000D03*
%TD*%
D14*
%TO.C,R7*%
X171430000Y-91165000D03*
X169780000Y-91165000D03*
%TD*%
D13*
%TO.C,R2*%
X137645000Y-58550000D03*
X137645000Y-60200000D03*
%TD*%
D15*
%TO.C,J9*%
X178060000Y-91140000D03*
X183680000Y-91140000D03*
%TD*%
D13*
%TO.C,R1*%
X135945000Y-58550000D03*
X135945000Y-60200000D03*
%TD*%
D15*
%TO.C,J8*%
X178360000Y-54710000D03*
X183980000Y-54710000D03*
%TD*%
D16*
%TO.C,R6*%
X139425000Y-48220000D03*
X139425000Y-46570000D03*
%TD*%
D17*
%TO.C,D1*%
X166557500Y-91165000D03*
X168132500Y-91165000D03*
%TD*%
D15*
%TO.C,J7*%
X178380000Y-59680000D03*
X184000000Y-59680000D03*
%TD*%
M02*
