%TF.GenerationSoftware,KiCad,Pcbnew,7.0.7*%
%TF.CreationDate,2023-11-07T21:15:59-05:00*%
%TF.ProjectId,DriveTrain,44726976-6554-4726-9169-6e2e6b696361,rev?*%
%TF.SameCoordinates,Original*%
%TF.FileFunction,Drillmap*%
%TF.FilePolarity,Positive*%
%FSLAX45Y45*%
G04 Gerber Fmt 4.5, Leading zero omitted, Abs format (unit mm)*
G04 Created by KiCad (PCBNEW 7.0.7) date 2023-11-07 21:15:59*
%MOMM*%
%LPD*%
G01*
G04 APERTURE LIST*
%ADD10C,0.150000*%
%ADD11C,0.200000*%
%ADD12C,0.030000*%
%ADD13C,0.040000*%
%ADD14C,0.050000*%
%ADD15C,0.090000*%
%ADD16C,0.100000*%
%ADD17C,0.110000*%
%ADD18C,0.124460*%
%ADD19C,0.270000*%
G04 APERTURE END LIST*
D10*
X12277900Y-3316200D02*
X12277900Y-6200000D01*
X20778700Y-3316200D02*
X20778700Y-6200000D01*
X12277900Y-6200000D02*
X20778700Y-6200000D01*
X12277900Y-3316200D02*
X20778700Y-3316200D01*
D11*
D12*
X12535000Y-4195000D02*
X12565000Y-4225000D01*
X12565000Y-4195000D02*
X12535000Y-4225000D01*
X12715000Y-4045000D02*
X12745000Y-4075000D01*
X12745000Y-4045000D02*
X12715000Y-4075000D01*
X12825000Y-4265000D02*
X12855000Y-4295000D01*
X12855000Y-4265000D02*
X12825000Y-4295000D01*
X12825000Y-4425000D02*
X12855000Y-4455000D01*
X12855000Y-4425000D02*
X12825000Y-4455000D01*
X12965000Y-3535000D02*
X12995000Y-3565000D01*
X12995000Y-3535000D02*
X12965000Y-3565000D01*
X12965000Y-3815000D02*
X12995000Y-3845000D01*
X12995000Y-3815000D02*
X12965000Y-3845000D01*
X12965000Y-4185000D02*
X12995000Y-4215000D01*
X12995000Y-4185000D02*
X12965000Y-4215000D01*
X12981512Y-5134928D02*
X13011512Y-5164928D01*
X13011512Y-5134928D02*
X12981512Y-5164928D01*
X13155000Y-4415000D02*
X13185000Y-4445000D01*
X13185000Y-4415000D02*
X13155000Y-4445000D01*
X13195000Y-5175000D02*
X13225000Y-5205000D01*
X13225000Y-5175000D02*
X13195000Y-5205000D01*
X13405000Y-5135000D02*
X13435000Y-5165000D01*
X13435000Y-5135000D02*
X13405000Y-5165000D01*
X13715000Y-5755000D02*
X13745000Y-5785000D01*
X13745000Y-5755000D02*
X13715000Y-5785000D01*
X14382584Y-3407366D02*
X14412584Y-3437366D01*
X14412584Y-3407366D02*
X14382584Y-3437366D01*
X14445000Y-3475000D02*
X14475000Y-3505000D01*
X14475000Y-3475000D02*
X14445000Y-3505000D01*
X14485000Y-5195000D02*
X14515000Y-5225000D01*
X14515000Y-5195000D02*
X14485000Y-5225000D01*
X14505000Y-5735000D02*
X14535000Y-5765000D01*
X14535000Y-5735000D02*
X14505000Y-5765000D01*
X14575000Y-3635000D02*
X14605000Y-3665000D01*
X14605000Y-3635000D02*
X14575000Y-3665000D01*
X14585000Y-3405000D02*
X14615000Y-3435000D01*
X14615000Y-3405000D02*
X14585000Y-3435000D01*
X14585000Y-3725000D02*
X14615000Y-3755000D01*
X14615000Y-3725000D02*
X14585000Y-3755000D01*
X14685000Y-3475000D02*
X14715000Y-3505000D01*
X14715000Y-3475000D02*
X14685000Y-3505000D01*
X14775000Y-3545000D02*
X14805000Y-3575000D01*
X14805000Y-3545000D02*
X14775000Y-3575000D01*
X14795000Y-3635000D02*
X14825000Y-3665000D01*
X14825000Y-3635000D02*
X14795000Y-3665000D01*
X14795000Y-4355000D02*
X14825000Y-4385000D01*
X14825000Y-4355000D02*
X14795000Y-4385000D01*
X14865000Y-3735000D02*
X14895000Y-3765000D01*
X14895000Y-3735000D02*
X14865000Y-3765000D01*
X14885000Y-3385000D02*
X14915000Y-3415000D01*
X14915000Y-3385000D02*
X14885000Y-3415000D01*
X14935000Y-4665000D02*
X14965000Y-4695000D01*
X14965000Y-4665000D02*
X14935000Y-4695000D01*
X15015000Y-5705000D02*
X15045000Y-5735000D01*
X15045000Y-5705000D02*
X15015000Y-5735000D01*
X15075000Y-3545000D02*
X15105000Y-3575000D01*
X15105000Y-3545000D02*
X15075000Y-3575000D01*
X15095000Y-6075000D02*
X15125000Y-6105000D01*
X15125000Y-6075000D02*
X15095000Y-6105000D01*
X15325000Y-4355000D02*
X15355000Y-4385000D01*
X15355000Y-4355000D02*
X15325000Y-4385000D01*
X15425000Y-3475000D02*
X15455000Y-3505000D01*
X15455000Y-3475000D02*
X15425000Y-3505000D01*
X15465000Y-3375000D02*
X15495000Y-3405000D01*
X15495000Y-3375000D02*
X15465000Y-3405000D01*
X15615000Y-3635000D02*
X15645000Y-3665000D01*
X15645000Y-3635000D02*
X15615000Y-3665000D01*
X15775000Y-4095000D02*
X15805000Y-4125000D01*
X15805000Y-4095000D02*
X15775000Y-4125000D01*
X16076399Y-4244903D02*
X16106399Y-4274903D01*
X16106399Y-4244903D02*
X16076399Y-4274903D01*
X16495000Y-3845000D02*
X16525000Y-3875000D01*
X16525000Y-3845000D02*
X16495000Y-3875000D01*
X16505000Y-3405000D02*
X16535000Y-3435000D01*
X16535000Y-3405000D02*
X16505000Y-3435000D01*
X16645000Y-5295000D02*
X16675000Y-5325000D01*
X16675000Y-5295000D02*
X16645000Y-5325000D01*
X16725000Y-4445000D02*
X16755000Y-4475000D01*
X16755000Y-4445000D02*
X16725000Y-4475000D01*
X16985000Y-4445000D02*
X17015000Y-4475000D01*
X17015000Y-4445000D02*
X16985000Y-4475000D01*
X17025000Y-4235000D02*
X17055000Y-4265000D01*
X17055000Y-4235000D02*
X17025000Y-4265000D01*
X17025000Y-5305000D02*
X17055000Y-5335000D01*
X17055000Y-5305000D02*
X17025000Y-5335000D01*
X17095000Y-4114950D02*
X17125000Y-4144950D01*
X17125000Y-4114950D02*
X17095000Y-4144950D01*
X17132391Y-4022391D02*
X17162391Y-4052391D01*
X17162391Y-4022391D02*
X17132391Y-4052391D01*
X17185000Y-3355000D02*
X17215000Y-3385000D01*
X17215000Y-3355000D02*
X17185000Y-3385000D01*
X17205000Y-4345000D02*
X17235000Y-4375000D01*
X17235000Y-4345000D02*
X17205000Y-4375000D01*
X17285000Y-4015000D02*
X17315000Y-4045000D01*
X17315000Y-4015000D02*
X17285000Y-4045000D01*
X17415000Y-5305000D02*
X17445000Y-5335000D01*
X17445000Y-5305000D02*
X17415000Y-5335000D01*
X17805000Y-4365000D02*
X17835000Y-4395000D01*
X17835000Y-4365000D02*
X17805000Y-4395000D01*
X17915000Y-4565000D02*
X17945000Y-4595000D01*
X17945000Y-4565000D02*
X17915000Y-4595000D01*
X17935000Y-4365000D02*
X17965000Y-4395000D01*
X17965000Y-4365000D02*
X17935000Y-4395000D01*
X18325000Y-4365000D02*
X18355000Y-4395000D01*
X18355000Y-4365000D02*
X18325000Y-4395000D01*
X18665000Y-4365000D02*
X18695000Y-4395000D01*
X18695000Y-4365000D02*
X18665000Y-4395000D01*
X19145000Y-3455000D02*
X19175000Y-3485000D01*
X19175000Y-3455000D02*
X19145000Y-3485000D01*
X19195000Y-5105000D02*
X19225000Y-5135000D01*
X19225000Y-5105000D02*
X19195000Y-5135000D01*
X19245000Y-4455050D02*
X19275000Y-4485050D01*
X19275000Y-4455050D02*
X19245000Y-4485050D01*
X19305000Y-5465000D02*
X19335000Y-5495000D01*
X19335000Y-5465000D02*
X19305000Y-5495000D01*
X19375000Y-3415000D02*
X19405000Y-3445000D01*
X19405000Y-3415000D02*
X19375000Y-3445000D01*
X19455000Y-4975000D02*
X19485000Y-5005000D01*
X19485000Y-4975000D02*
X19455000Y-5005000D01*
X19465000Y-4454950D02*
X19495000Y-4484950D01*
X19495000Y-4454950D02*
X19465000Y-4484950D01*
X19515000Y-5295000D02*
X19545000Y-5325000D01*
X19545000Y-5295000D02*
X19515000Y-5325000D01*
X19535000Y-5105000D02*
X19565000Y-5135000D01*
X19565000Y-5105000D02*
X19535000Y-5135000D01*
X19545000Y-4805000D02*
X19575000Y-4835000D01*
X19575000Y-4805000D02*
X19545000Y-4835000D01*
X19695000Y-5315000D02*
X19725000Y-5345000D01*
X19725000Y-5315000D02*
X19695000Y-5345000D01*
X19925000Y-4935000D02*
X19955000Y-4965000D01*
X19955000Y-4935000D02*
X19925000Y-4965000D01*
X19965000Y-4655000D02*
X19995000Y-4685000D01*
X19995000Y-4655000D02*
X19965000Y-4685000D01*
X20095000Y-3785000D02*
X20125000Y-3815000D01*
X20125000Y-3785000D02*
X20095000Y-3815000D01*
X20305000Y-5355000D02*
X20335000Y-5385000D01*
X20335000Y-5355000D02*
X20305000Y-5385000D01*
X20705000Y-5355000D02*
X20735000Y-5385000D01*
X20735000Y-5355000D02*
X20705000Y-5385000D01*
D13*
X14630000Y-4620000D02*
G75*
G03*
X14630000Y-4620000I-20000J0D01*
G01*
X15460000Y-4578500D02*
G75*
G03*
X15460000Y-4578500I-20000J0D01*
G01*
X16110000Y-4460000D02*
G75*
G03*
X16110000Y-4460000I-20000J0D01*
G01*
X16350000Y-4360000D02*
G75*
G03*
X16350000Y-4360000I-20000J0D01*
G01*
X16820000Y-5920000D02*
G75*
G03*
X16820000Y-5920000I-20000J0D01*
G01*
X17601668Y-5903475D02*
G75*
G03*
X17601668Y-5903475I-20000J0D01*
G01*
X19310000Y-4840000D02*
G75*
G03*
X19310000Y-4840000I-20000J0D01*
G01*
X19320000Y-5760000D02*
G75*
G03*
X19320000Y-5760000I-20000J0D01*
G01*
X19720000Y-5200000D02*
G75*
G03*
X19720000Y-5200000I-20000J0D01*
G01*
X19950000Y-4570000D02*
G75*
G03*
X19950000Y-4570000I-20000J0D01*
G01*
X20000000Y-5310000D02*
G75*
G03*
X20000000Y-5310000I-20000J0D01*
G01*
D14*
X12400000Y-4005000D02*
X12400000Y-4055000D01*
X12375000Y-4030000D02*
X12425000Y-4030000D01*
X12640000Y-6035000D02*
X12640000Y-6085000D01*
X12615000Y-6060000D02*
X12665000Y-6060000D01*
X13140000Y-6025000D02*
X13140000Y-6075000D01*
X13115000Y-6050000D02*
X13165000Y-6050000D01*
X13540000Y-6035000D02*
X13540000Y-6085000D01*
X13515000Y-6060000D02*
X13565000Y-6060000D01*
X14110000Y-6035000D02*
X14110000Y-6085000D01*
X14085000Y-6060000D02*
X14135000Y-6060000D01*
X14698873Y-6061153D02*
X14698873Y-6111153D01*
X14673873Y-6086153D02*
X14723873Y-6086153D01*
X15040000Y-5545000D02*
X15040000Y-5595000D01*
X15015000Y-5570000D02*
X15065000Y-5570000D01*
X15180000Y-5895000D02*
X15180000Y-5945000D01*
X15155000Y-5920000D02*
X15205000Y-5920000D01*
X15190000Y-5275000D02*
X15190000Y-5325000D01*
X15165000Y-5300000D02*
X15215000Y-5300000D01*
X15780125Y-3384123D02*
X15780125Y-3434123D01*
X15755125Y-3409123D02*
X15805125Y-3409123D01*
X18400000Y-4655000D02*
X18400000Y-4705000D01*
X18375000Y-4680000D02*
X18425000Y-4680000D01*
X18590000Y-4645000D02*
X18590000Y-4695000D01*
X18565000Y-4670000D02*
X18615000Y-4670000D01*
X19170000Y-5885000D02*
X19170000Y-5935000D01*
X19145000Y-5910000D02*
X19195000Y-5910000D01*
X19176940Y-6073587D02*
X19176940Y-6123587D01*
X19151940Y-6098587D02*
X19201940Y-6098587D01*
X19800000Y-3405000D02*
X19800000Y-3455000D01*
X19775000Y-3430000D02*
X19825000Y-3430000D01*
X20140000Y-3435000D02*
X20140000Y-3485000D01*
X20115000Y-3460000D02*
X20165000Y-3460000D01*
X20170000Y-6065000D02*
X20170000Y-6115000D01*
X20145000Y-6090000D02*
X20195000Y-6090000D01*
X20510000Y-6045000D02*
X20510000Y-6095000D01*
X20485000Y-6070000D02*
X20535000Y-6070000D01*
D15*
X19676820Y-5866820D02*
X19676820Y-5803180D01*
X19613180Y-5803180D01*
X19613180Y-5866820D01*
X19676820Y-5866820D01*
X19926820Y-5866820D02*
X19926820Y-5803180D01*
X19863180Y-5803180D01*
X19863180Y-5866820D01*
X19926820Y-5866820D01*
X20176820Y-5866820D02*
X20176820Y-5803180D01*
X20113180Y-5803180D01*
X20113180Y-5866820D01*
X20176820Y-5866820D01*
X20426820Y-5866820D02*
X20426820Y-5803180D01*
X20363180Y-5803180D01*
X20363180Y-5866820D01*
X20426820Y-5866820D01*
D16*
X13211500Y-3714300D02*
X13261500Y-3664300D01*
X13211500Y-3614300D01*
X13161500Y-3664300D01*
X13211500Y-3714300D01*
X13211500Y-3978300D02*
X13261500Y-3928300D01*
X13211500Y-3878300D01*
X13161500Y-3928300D01*
X13211500Y-3978300D01*
X13211500Y-4232300D02*
X13261500Y-4182300D01*
X13211500Y-4132300D01*
X13161500Y-4182300D01*
X13211500Y-4232300D01*
X13465500Y-3714300D02*
X13515500Y-3664300D01*
X13465500Y-3614300D01*
X13415500Y-3664300D01*
X13465500Y-3714300D01*
X13465500Y-3978300D02*
X13515500Y-3928300D01*
X13465500Y-3878300D01*
X13415500Y-3928300D01*
X13465500Y-3978300D01*
X13465500Y-4232300D02*
X13515500Y-4182300D01*
X13465500Y-4132300D01*
X13415500Y-4182300D01*
X13465500Y-4232300D01*
X13719500Y-3714300D02*
X13769500Y-3664300D01*
X13719500Y-3614300D01*
X13669500Y-3664300D01*
X13719500Y-3714300D01*
X13719500Y-3978300D02*
X13769500Y-3928300D01*
X13719500Y-3878300D01*
X13669500Y-3928300D01*
X13719500Y-3978300D01*
X13719500Y-4232300D02*
X13769500Y-4182300D01*
X13719500Y-4132300D01*
X13669500Y-4182300D01*
X13719500Y-4232300D01*
X13973500Y-3714300D02*
X14023500Y-3664300D01*
X13973500Y-3614300D01*
X13923500Y-3664300D01*
X13973500Y-3714300D01*
X13973500Y-3978300D02*
X14023500Y-3928300D01*
X13973500Y-3878300D01*
X13923500Y-3928300D01*
X13973500Y-3978300D01*
X13973500Y-4232300D02*
X14023500Y-4182300D01*
X13973500Y-4132300D01*
X13923500Y-4182300D01*
X13973500Y-4232300D01*
X14227500Y-3714300D02*
X14277500Y-3664300D01*
X14227500Y-3614300D01*
X14177500Y-3664300D01*
X14227500Y-3714300D01*
X14227500Y-3978300D02*
X14277500Y-3928300D01*
X14227500Y-3878300D01*
X14177500Y-3928300D01*
X14227500Y-3978300D01*
X14227500Y-4232300D02*
X14277500Y-4182300D01*
X14227500Y-4132300D01*
X14177500Y-4182300D01*
X14227500Y-4232300D01*
X14481500Y-3978300D02*
X14531500Y-3928300D01*
X14481500Y-3878300D01*
X14431500Y-3928300D01*
X14481500Y-3978300D01*
X14481500Y-4232300D02*
X14531500Y-4182300D01*
X14481500Y-4132300D01*
X14431500Y-4182300D01*
X14481500Y-4232300D01*
X14735500Y-3978300D02*
X14785500Y-3928300D01*
X14735500Y-3878300D01*
X14685500Y-3928300D01*
X14735500Y-3978300D01*
X14735500Y-4232300D02*
X14785500Y-4182300D01*
X14735500Y-4132300D01*
X14685500Y-4182300D01*
X14735500Y-4232300D01*
X14989500Y-3978300D02*
X15039500Y-3928300D01*
X14989500Y-3878300D01*
X14939500Y-3928300D01*
X14989500Y-3978300D01*
X14989500Y-4232300D02*
X15039500Y-4182300D01*
X14989500Y-4132300D01*
X14939500Y-4182300D01*
X14989500Y-4232300D01*
X15243500Y-3978300D02*
X15293500Y-3928300D01*
X15243500Y-3878300D01*
X15193500Y-3928300D01*
X15243500Y-3978300D01*
X15243500Y-4232300D02*
X15293500Y-4182300D01*
X15243500Y-4132300D01*
X15193500Y-4182300D01*
X15243500Y-4232300D01*
X15497500Y-3978300D02*
X15547500Y-3928300D01*
X15497500Y-3878300D01*
X15447500Y-3928300D01*
X15497500Y-3978300D01*
X15497500Y-4232300D02*
X15547500Y-4182300D01*
X15497500Y-4132300D01*
X15447500Y-4182300D01*
X15497500Y-4232300D01*
X17567000Y-3716300D02*
X17617000Y-3666300D01*
X17567000Y-3616300D01*
X17517000Y-3666300D01*
X17567000Y-3716300D01*
X17567000Y-3980300D02*
X17617000Y-3930300D01*
X17567000Y-3880300D01*
X17517000Y-3930300D01*
X17567000Y-3980300D01*
X17567000Y-4234300D02*
X17617000Y-4184300D01*
X17567000Y-4134300D01*
X17517000Y-4184300D01*
X17567000Y-4234300D01*
X17821000Y-3716300D02*
X17871000Y-3666300D01*
X17821000Y-3616300D01*
X17771000Y-3666300D01*
X17821000Y-3716300D01*
X17821000Y-3980300D02*
X17871000Y-3930300D01*
X17821000Y-3880300D01*
X17771000Y-3930300D01*
X17821000Y-3980300D01*
X17821000Y-4234300D02*
X17871000Y-4184300D01*
X17821000Y-4134300D01*
X17771000Y-4184300D01*
X17821000Y-4234300D01*
X18075000Y-3716300D02*
X18125000Y-3666300D01*
X18075000Y-3616300D01*
X18025000Y-3666300D01*
X18075000Y-3716300D01*
X18075000Y-3980300D02*
X18125000Y-3930300D01*
X18075000Y-3880300D01*
X18025000Y-3930300D01*
X18075000Y-3980300D01*
X18075000Y-4234300D02*
X18125000Y-4184300D01*
X18075000Y-4134300D01*
X18025000Y-4184300D01*
X18075000Y-4234300D01*
X18329000Y-3716300D02*
X18379000Y-3666300D01*
X18329000Y-3616300D01*
X18279000Y-3666300D01*
X18329000Y-3716300D01*
X18329000Y-3980300D02*
X18379000Y-3930300D01*
X18329000Y-3880300D01*
X18279000Y-3930300D01*
X18329000Y-3980300D01*
X18329000Y-4234300D02*
X18379000Y-4184300D01*
X18329000Y-4134300D01*
X18279000Y-4184300D01*
X18329000Y-4234300D01*
X18583000Y-3716300D02*
X18633000Y-3666300D01*
X18583000Y-3616300D01*
X18533000Y-3666300D01*
X18583000Y-3716300D01*
X18583000Y-3980300D02*
X18633000Y-3930300D01*
X18583000Y-3880300D01*
X18533000Y-3930300D01*
X18583000Y-3980300D01*
X18583000Y-4234300D02*
X18633000Y-4184300D01*
X18583000Y-4134300D01*
X18533000Y-4184300D01*
X18583000Y-4234300D01*
X18837000Y-3980300D02*
X18887000Y-3930300D01*
X18837000Y-3880300D01*
X18787000Y-3930300D01*
X18837000Y-3980300D01*
X18837000Y-4234300D02*
X18887000Y-4184300D01*
X18837000Y-4134300D01*
X18787000Y-4184300D01*
X18837000Y-4234300D01*
X19091000Y-3980300D02*
X19141000Y-3930300D01*
X19091000Y-3880300D01*
X19041000Y-3930300D01*
X19091000Y-3980300D01*
X19091000Y-4234300D02*
X19141000Y-4184300D01*
X19091000Y-4134300D01*
X19041000Y-4184300D01*
X19091000Y-4234300D01*
X19345000Y-3980300D02*
X19395000Y-3930300D01*
X19345000Y-3880300D01*
X19295000Y-3930300D01*
X19345000Y-3980300D01*
X19345000Y-4234300D02*
X19395000Y-4184300D01*
X19345000Y-4134300D01*
X19295000Y-4184300D01*
X19345000Y-4234300D01*
X19599000Y-3980300D02*
X19649000Y-3930300D01*
X19599000Y-3880300D01*
X19549000Y-3930300D01*
X19599000Y-3980300D01*
X19599000Y-4234300D02*
X19649000Y-4184300D01*
X19599000Y-4134300D01*
X19549000Y-4184300D01*
X19599000Y-4234300D01*
X19853000Y-3980300D02*
X19903000Y-3930300D01*
X19853000Y-3880300D01*
X19803000Y-3930300D01*
X19853000Y-3980300D01*
X19853000Y-4234300D02*
X19903000Y-4184300D01*
X19853000Y-4134300D01*
X19803000Y-4184300D01*
X19853000Y-4234300D01*
D17*
X16584976Y-5485000D02*
X16694976Y-5595000D01*
X16694976Y-5485000D02*
X16584976Y-5595000D01*
X16694976Y-5540000D02*
G75*
G03*
X16694976Y-5540000I-55000J0D01*
G01*
X16834976Y-5485000D02*
X16944976Y-5595000D01*
X16944976Y-5485000D02*
X16834976Y-5595000D01*
X16944976Y-5540000D02*
G75*
G03*
X16944976Y-5540000I-55000J0D01*
G01*
X17084976Y-5485000D02*
X17194976Y-5595000D01*
X17194976Y-5485000D02*
X17084976Y-5595000D01*
X17194976Y-5540000D02*
G75*
G03*
X17194976Y-5540000I-55000J0D01*
G01*
X17334976Y-5485000D02*
X17444976Y-5595000D01*
X17444976Y-5485000D02*
X17334976Y-5595000D01*
X17444976Y-5540000D02*
G75*
G03*
X17444976Y-5540000I-55000J0D01*
G01*
X17584976Y-5485000D02*
X17694976Y-5595000D01*
X17694976Y-5485000D02*
X17584976Y-5595000D01*
X17694976Y-5540000D02*
G75*
G03*
X17694976Y-5540000I-55000J0D01*
G01*
D18*
X12529430Y-4644790D02*
X12653890Y-4769250D01*
X12653890Y-4644790D02*
X12529430Y-4769250D01*
X12591660Y-4644790D02*
X12591660Y-4769250D01*
X12529430Y-4707020D02*
X12653890Y-4707020D01*
X12529430Y-5477770D02*
X12653890Y-5602230D01*
X12653890Y-5477770D02*
X12529430Y-5602230D01*
X12591660Y-5477770D02*
X12591660Y-5602230D01*
X12529430Y-5540000D02*
X12653890Y-5540000D01*
X12779430Y-4644790D02*
X12903890Y-4769250D01*
X12903890Y-4644790D02*
X12779430Y-4769250D01*
X12841660Y-4644790D02*
X12841660Y-4769250D01*
X12779430Y-4707020D02*
X12903890Y-4707020D01*
X12779430Y-5477770D02*
X12903890Y-5602230D01*
X12903890Y-5477770D02*
X12779430Y-5602230D01*
X12841660Y-5477770D02*
X12841660Y-5602230D01*
X12779430Y-5540000D02*
X12903890Y-5540000D01*
X13029430Y-4644790D02*
X13153890Y-4769250D01*
X13153890Y-4644790D02*
X13029430Y-4769250D01*
X13091660Y-4644790D02*
X13091660Y-4769250D01*
X13029430Y-4707020D02*
X13153890Y-4707020D01*
X13029430Y-5477770D02*
X13153890Y-5602230D01*
X13153890Y-5477770D02*
X13029430Y-5602230D01*
X13091660Y-5477770D02*
X13091660Y-5602230D01*
X13029430Y-5540000D02*
X13153890Y-5540000D01*
X13279430Y-4644790D02*
X13403890Y-4769250D01*
X13403890Y-4644790D02*
X13279430Y-4769250D01*
X13341660Y-4644790D02*
X13341660Y-4769250D01*
X13279430Y-4707020D02*
X13403890Y-4707020D01*
X13279430Y-5477770D02*
X13403890Y-5602230D01*
X13403890Y-5477770D02*
X13279430Y-5602230D01*
X13341660Y-5477770D02*
X13341660Y-5602230D01*
X13279430Y-5540000D02*
X13403890Y-5540000D01*
X13987770Y-4776110D02*
X14112230Y-4900570D01*
X14112230Y-4776110D02*
X13987770Y-4900570D01*
X14050000Y-4776110D02*
X14050000Y-4900570D01*
X13987770Y-4838340D02*
X14112230Y-4838340D01*
X13987770Y-5026110D02*
X14112230Y-5150570D01*
X14112230Y-5026110D02*
X13987770Y-5150570D01*
X14050000Y-5026110D02*
X14050000Y-5150570D01*
X13987770Y-5088340D02*
X14112230Y-5088340D01*
X13987770Y-5276110D02*
X14112230Y-5400570D01*
X14112230Y-5276110D02*
X13987770Y-5400570D01*
X14050000Y-5276110D02*
X14050000Y-5400570D01*
X13987770Y-5338340D02*
X14112230Y-5338340D01*
X13987770Y-5526110D02*
X14112230Y-5650570D01*
X14112230Y-5526110D02*
X13987770Y-5650570D01*
X14050000Y-5526110D02*
X14050000Y-5650570D01*
X13987770Y-5588340D02*
X14112230Y-5588340D01*
X20274790Y-4206110D02*
X20399250Y-4330570D01*
X20399250Y-4206110D02*
X20274790Y-4330570D01*
X20337020Y-4206110D02*
X20337020Y-4330570D01*
X20274790Y-4268340D02*
X20399250Y-4268340D01*
X20274790Y-4456110D02*
X20399250Y-4580570D01*
X20399250Y-4456110D02*
X20274790Y-4580570D01*
X20337020Y-4456110D02*
X20337020Y-4580570D01*
X20274790Y-4518340D02*
X20399250Y-4518340D01*
X20274790Y-4706110D02*
X20399250Y-4830570D01*
X20399250Y-4706110D02*
X20274790Y-4830570D01*
X20337020Y-4706110D02*
X20337020Y-4830570D01*
X20274790Y-4768340D02*
X20399250Y-4768340D01*
X20274790Y-4956110D02*
X20399250Y-5080570D01*
X20399250Y-4956110D02*
X20274790Y-5080570D01*
X20337020Y-4956110D02*
X20337020Y-5080570D01*
X20274790Y-5018340D02*
X20399250Y-5018340D01*
D19*
X16770000Y-4640000D02*
X17040000Y-4910000D01*
X17040000Y-4640000D02*
X16770000Y-4910000D01*
X17000460Y-4870460D02*
X17000460Y-4679540D01*
X16809540Y-4679540D01*
X16809540Y-4870460D01*
X17000460Y-4870460D01*
X17270000Y-4640000D02*
X17540000Y-4910000D01*
X17540000Y-4640000D02*
X17270000Y-4910000D01*
X17500460Y-4870460D02*
X17500460Y-4679540D01*
X17309540Y-4679540D01*
X17309540Y-4870460D01*
X17500460Y-4870460D01*
D11*
X12531177Y-6518984D02*
X12531177Y-6318984D01*
X12531177Y-6318984D02*
X12578796Y-6318984D01*
X12578796Y-6318984D02*
X12607367Y-6328508D01*
X12607367Y-6328508D02*
X12626415Y-6347555D01*
X12626415Y-6347555D02*
X12635939Y-6366603D01*
X12635939Y-6366603D02*
X12645462Y-6404698D01*
X12645462Y-6404698D02*
X12645462Y-6433269D01*
X12645462Y-6433269D02*
X12635939Y-6471365D01*
X12635939Y-6471365D02*
X12626415Y-6490412D01*
X12626415Y-6490412D02*
X12607367Y-6509460D01*
X12607367Y-6509460D02*
X12578796Y-6518984D01*
X12578796Y-6518984D02*
X12531177Y-6518984D01*
X12731177Y-6518984D02*
X12731177Y-6385650D01*
X12731177Y-6423746D02*
X12740701Y-6404698D01*
X12740701Y-6404698D02*
X12750224Y-6395174D01*
X12750224Y-6395174D02*
X12769272Y-6385650D01*
X12769272Y-6385650D02*
X12788320Y-6385650D01*
X12854986Y-6518984D02*
X12854986Y-6385650D01*
X12854986Y-6318984D02*
X12845462Y-6328508D01*
X12845462Y-6328508D02*
X12854986Y-6338031D01*
X12854986Y-6338031D02*
X12864510Y-6328508D01*
X12864510Y-6328508D02*
X12854986Y-6318984D01*
X12854986Y-6318984D02*
X12854986Y-6338031D01*
X12978796Y-6518984D02*
X12959748Y-6509460D01*
X12959748Y-6509460D02*
X12950224Y-6490412D01*
X12950224Y-6490412D02*
X12950224Y-6318984D01*
X13083558Y-6518984D02*
X13064510Y-6509460D01*
X13064510Y-6509460D02*
X13054986Y-6490412D01*
X13054986Y-6490412D02*
X13054986Y-6318984D01*
X13312129Y-6518984D02*
X13312129Y-6318984D01*
X13312129Y-6318984D02*
X13378796Y-6461841D01*
X13378796Y-6461841D02*
X13445462Y-6318984D01*
X13445462Y-6318984D02*
X13445462Y-6518984D01*
X13626415Y-6518984D02*
X13626415Y-6414222D01*
X13626415Y-6414222D02*
X13616891Y-6395174D01*
X13616891Y-6395174D02*
X13597843Y-6385650D01*
X13597843Y-6385650D02*
X13559748Y-6385650D01*
X13559748Y-6385650D02*
X13540701Y-6395174D01*
X13626415Y-6509460D02*
X13607367Y-6518984D01*
X13607367Y-6518984D02*
X13559748Y-6518984D01*
X13559748Y-6518984D02*
X13540701Y-6509460D01*
X13540701Y-6509460D02*
X13531177Y-6490412D01*
X13531177Y-6490412D02*
X13531177Y-6471365D01*
X13531177Y-6471365D02*
X13540701Y-6452317D01*
X13540701Y-6452317D02*
X13559748Y-6442793D01*
X13559748Y-6442793D02*
X13607367Y-6442793D01*
X13607367Y-6442793D02*
X13626415Y-6433269D01*
X13721653Y-6385650D02*
X13721653Y-6585650D01*
X13721653Y-6395174D02*
X13740701Y-6385650D01*
X13740701Y-6385650D02*
X13778796Y-6385650D01*
X13778796Y-6385650D02*
X13797843Y-6395174D01*
X13797843Y-6395174D02*
X13807367Y-6404698D01*
X13807367Y-6404698D02*
X13816891Y-6423746D01*
X13816891Y-6423746D02*
X13816891Y-6480888D01*
X13816891Y-6480888D02*
X13807367Y-6499936D01*
X13807367Y-6499936D02*
X13797843Y-6509460D01*
X13797843Y-6509460D02*
X13778796Y-6518984D01*
X13778796Y-6518984D02*
X13740701Y-6518984D01*
X13740701Y-6518984D02*
X13721653Y-6509460D01*
X13902605Y-6499936D02*
X13912129Y-6509460D01*
X13912129Y-6509460D02*
X13902605Y-6518984D01*
X13902605Y-6518984D02*
X13893082Y-6509460D01*
X13893082Y-6509460D02*
X13902605Y-6499936D01*
X13902605Y-6499936D02*
X13902605Y-6518984D01*
X13902605Y-6395174D02*
X13912129Y-6404698D01*
X13912129Y-6404698D02*
X13902605Y-6414222D01*
X13902605Y-6414222D02*
X13893082Y-6404698D01*
X13893082Y-6404698D02*
X13902605Y-6395174D01*
X13902605Y-6395174D02*
X13902605Y-6414222D01*
D12*
X12240400Y-6832500D02*
X12270400Y-6862500D01*
X12270400Y-6832500D02*
X12240400Y-6862500D01*
D11*
X12569272Y-6738984D02*
X12588320Y-6738984D01*
X12588320Y-6738984D02*
X12607367Y-6748508D01*
X12607367Y-6748508D02*
X12616891Y-6758031D01*
X12616891Y-6758031D02*
X12626415Y-6777079D01*
X12626415Y-6777079D02*
X12635939Y-6815174D01*
X12635939Y-6815174D02*
X12635939Y-6862793D01*
X12635939Y-6862793D02*
X12626415Y-6900888D01*
X12626415Y-6900888D02*
X12616891Y-6919936D01*
X12616891Y-6919936D02*
X12607367Y-6929460D01*
X12607367Y-6929460D02*
X12588320Y-6938984D01*
X12588320Y-6938984D02*
X12569272Y-6938984D01*
X12569272Y-6938984D02*
X12550224Y-6929460D01*
X12550224Y-6929460D02*
X12540701Y-6919936D01*
X12540701Y-6919936D02*
X12531177Y-6900888D01*
X12531177Y-6900888D02*
X12521653Y-6862793D01*
X12521653Y-6862793D02*
X12521653Y-6815174D01*
X12521653Y-6815174D02*
X12531177Y-6777079D01*
X12531177Y-6777079D02*
X12540701Y-6758031D01*
X12540701Y-6758031D02*
X12550224Y-6748508D01*
X12550224Y-6748508D02*
X12569272Y-6738984D01*
X12721653Y-6919936D02*
X12731177Y-6929460D01*
X12731177Y-6929460D02*
X12721653Y-6938984D01*
X12721653Y-6938984D02*
X12712129Y-6929460D01*
X12712129Y-6929460D02*
X12721653Y-6919936D01*
X12721653Y-6919936D02*
X12721653Y-6938984D01*
X12797843Y-6738984D02*
X12921653Y-6738984D01*
X12921653Y-6738984D02*
X12854986Y-6815174D01*
X12854986Y-6815174D02*
X12883558Y-6815174D01*
X12883558Y-6815174D02*
X12902605Y-6824698D01*
X12902605Y-6824698D02*
X12912129Y-6834222D01*
X12912129Y-6834222D02*
X12921653Y-6853269D01*
X12921653Y-6853269D02*
X12921653Y-6900888D01*
X12921653Y-6900888D02*
X12912129Y-6919936D01*
X12912129Y-6919936D02*
X12902605Y-6929460D01*
X12902605Y-6929460D02*
X12883558Y-6938984D01*
X12883558Y-6938984D02*
X12826415Y-6938984D01*
X12826415Y-6938984D02*
X12807367Y-6929460D01*
X12807367Y-6929460D02*
X12797843Y-6919936D01*
X13045462Y-6738984D02*
X13064510Y-6738984D01*
X13064510Y-6738984D02*
X13083558Y-6748508D01*
X13083558Y-6748508D02*
X13093082Y-6758031D01*
X13093082Y-6758031D02*
X13102605Y-6777079D01*
X13102605Y-6777079D02*
X13112129Y-6815174D01*
X13112129Y-6815174D02*
X13112129Y-6862793D01*
X13112129Y-6862793D02*
X13102605Y-6900888D01*
X13102605Y-6900888D02*
X13093082Y-6919936D01*
X13093082Y-6919936D02*
X13083558Y-6929460D01*
X13083558Y-6929460D02*
X13064510Y-6938984D01*
X13064510Y-6938984D02*
X13045462Y-6938984D01*
X13045462Y-6938984D02*
X13026415Y-6929460D01*
X13026415Y-6929460D02*
X13016891Y-6919936D01*
X13016891Y-6919936D02*
X13007367Y-6900888D01*
X13007367Y-6900888D02*
X12997843Y-6862793D01*
X12997843Y-6862793D02*
X12997843Y-6815174D01*
X12997843Y-6815174D02*
X13007367Y-6777079D01*
X13007367Y-6777079D02*
X13016891Y-6758031D01*
X13016891Y-6758031D02*
X13026415Y-6748508D01*
X13026415Y-6748508D02*
X13045462Y-6738984D01*
X13235939Y-6738984D02*
X13254986Y-6738984D01*
X13254986Y-6738984D02*
X13274034Y-6748508D01*
X13274034Y-6748508D02*
X13283558Y-6758031D01*
X13283558Y-6758031D02*
X13293082Y-6777079D01*
X13293082Y-6777079D02*
X13302605Y-6815174D01*
X13302605Y-6815174D02*
X13302605Y-6862793D01*
X13302605Y-6862793D02*
X13293082Y-6900888D01*
X13293082Y-6900888D02*
X13283558Y-6919936D01*
X13283558Y-6919936D02*
X13274034Y-6929460D01*
X13274034Y-6929460D02*
X13254986Y-6938984D01*
X13254986Y-6938984D02*
X13235939Y-6938984D01*
X13235939Y-6938984D02*
X13216891Y-6929460D01*
X13216891Y-6929460D02*
X13207367Y-6919936D01*
X13207367Y-6919936D02*
X13197843Y-6900888D01*
X13197843Y-6900888D02*
X13188320Y-6862793D01*
X13188320Y-6862793D02*
X13188320Y-6815174D01*
X13188320Y-6815174D02*
X13197843Y-6777079D01*
X13197843Y-6777079D02*
X13207367Y-6758031D01*
X13207367Y-6758031D02*
X13216891Y-6748508D01*
X13216891Y-6748508D02*
X13235939Y-6738984D01*
X13388320Y-6938984D02*
X13388320Y-6805650D01*
X13388320Y-6824698D02*
X13397843Y-6815174D01*
X13397843Y-6815174D02*
X13416891Y-6805650D01*
X13416891Y-6805650D02*
X13445463Y-6805650D01*
X13445463Y-6805650D02*
X13464510Y-6815174D01*
X13464510Y-6815174D02*
X13474034Y-6834222D01*
X13474034Y-6834222D02*
X13474034Y-6938984D01*
X13474034Y-6834222D02*
X13483558Y-6815174D01*
X13483558Y-6815174D02*
X13502605Y-6805650D01*
X13502605Y-6805650D02*
X13531177Y-6805650D01*
X13531177Y-6805650D02*
X13550224Y-6815174D01*
X13550224Y-6815174D02*
X13559748Y-6834222D01*
X13559748Y-6834222D02*
X13559748Y-6938984D01*
X13654986Y-6938984D02*
X13654986Y-6805650D01*
X13654986Y-6824698D02*
X13664510Y-6815174D01*
X13664510Y-6815174D02*
X13683558Y-6805650D01*
X13683558Y-6805650D02*
X13712129Y-6805650D01*
X13712129Y-6805650D02*
X13731177Y-6815174D01*
X13731177Y-6815174D02*
X13740701Y-6834222D01*
X13740701Y-6834222D02*
X13740701Y-6938984D01*
X13740701Y-6834222D02*
X13750224Y-6815174D01*
X13750224Y-6815174D02*
X13769272Y-6805650D01*
X13769272Y-6805650D02*
X13797843Y-6805650D01*
X13797843Y-6805650D02*
X13816891Y-6815174D01*
X13816891Y-6815174D02*
X13826415Y-6834222D01*
X13826415Y-6834222D02*
X13826415Y-6938984D01*
X14216891Y-6729460D02*
X14045463Y-6986603D01*
X14474034Y-6738984D02*
X14493082Y-6738984D01*
X14493082Y-6738984D02*
X14512129Y-6748508D01*
X14512129Y-6748508D02*
X14521653Y-6758031D01*
X14521653Y-6758031D02*
X14531177Y-6777079D01*
X14531177Y-6777079D02*
X14540701Y-6815174D01*
X14540701Y-6815174D02*
X14540701Y-6862793D01*
X14540701Y-6862793D02*
X14531177Y-6900888D01*
X14531177Y-6900888D02*
X14521653Y-6919936D01*
X14521653Y-6919936D02*
X14512129Y-6929460D01*
X14512129Y-6929460D02*
X14493082Y-6938984D01*
X14493082Y-6938984D02*
X14474034Y-6938984D01*
X14474034Y-6938984D02*
X14454986Y-6929460D01*
X14454986Y-6929460D02*
X14445463Y-6919936D01*
X14445463Y-6919936D02*
X14435939Y-6900888D01*
X14435939Y-6900888D02*
X14426415Y-6862793D01*
X14426415Y-6862793D02*
X14426415Y-6815174D01*
X14426415Y-6815174D02*
X14435939Y-6777079D01*
X14435939Y-6777079D02*
X14445463Y-6758031D01*
X14445463Y-6758031D02*
X14454986Y-6748508D01*
X14454986Y-6748508D02*
X14474034Y-6738984D01*
X14626415Y-6919936D02*
X14635939Y-6929460D01*
X14635939Y-6929460D02*
X14626415Y-6938984D01*
X14626415Y-6938984D02*
X14616891Y-6929460D01*
X14616891Y-6929460D02*
X14626415Y-6919936D01*
X14626415Y-6919936D02*
X14626415Y-6938984D01*
X14759748Y-6738984D02*
X14778796Y-6738984D01*
X14778796Y-6738984D02*
X14797844Y-6748508D01*
X14797844Y-6748508D02*
X14807367Y-6758031D01*
X14807367Y-6758031D02*
X14816891Y-6777079D01*
X14816891Y-6777079D02*
X14826415Y-6815174D01*
X14826415Y-6815174D02*
X14826415Y-6862793D01*
X14826415Y-6862793D02*
X14816891Y-6900888D01*
X14816891Y-6900888D02*
X14807367Y-6919936D01*
X14807367Y-6919936D02*
X14797844Y-6929460D01*
X14797844Y-6929460D02*
X14778796Y-6938984D01*
X14778796Y-6938984D02*
X14759748Y-6938984D01*
X14759748Y-6938984D02*
X14740701Y-6929460D01*
X14740701Y-6929460D02*
X14731177Y-6919936D01*
X14731177Y-6919936D02*
X14721653Y-6900888D01*
X14721653Y-6900888D02*
X14712129Y-6862793D01*
X14712129Y-6862793D02*
X14712129Y-6815174D01*
X14712129Y-6815174D02*
X14721653Y-6777079D01*
X14721653Y-6777079D02*
X14731177Y-6758031D01*
X14731177Y-6758031D02*
X14740701Y-6748508D01*
X14740701Y-6748508D02*
X14759748Y-6738984D01*
X15016891Y-6938984D02*
X14902606Y-6938984D01*
X14959748Y-6938984D02*
X14959748Y-6738984D01*
X14959748Y-6738984D02*
X14940701Y-6767555D01*
X14940701Y-6767555D02*
X14921653Y-6786603D01*
X14921653Y-6786603D02*
X14902606Y-6796127D01*
X15207367Y-6938984D02*
X15093082Y-6938984D01*
X15150225Y-6938984D02*
X15150225Y-6738984D01*
X15150225Y-6738984D02*
X15131177Y-6767555D01*
X15131177Y-6767555D02*
X15112129Y-6786603D01*
X15112129Y-6786603D02*
X15093082Y-6796127D01*
X15321653Y-6824698D02*
X15302606Y-6815174D01*
X15302606Y-6815174D02*
X15293082Y-6805650D01*
X15293082Y-6805650D02*
X15283558Y-6786603D01*
X15283558Y-6786603D02*
X15283558Y-6777079D01*
X15283558Y-6777079D02*
X15293082Y-6758031D01*
X15293082Y-6758031D02*
X15302606Y-6748508D01*
X15302606Y-6748508D02*
X15321653Y-6738984D01*
X15321653Y-6738984D02*
X15359748Y-6738984D01*
X15359748Y-6738984D02*
X15378796Y-6748508D01*
X15378796Y-6748508D02*
X15388320Y-6758031D01*
X15388320Y-6758031D02*
X15397844Y-6777079D01*
X15397844Y-6777079D02*
X15397844Y-6786603D01*
X15397844Y-6786603D02*
X15388320Y-6805650D01*
X15388320Y-6805650D02*
X15378796Y-6815174D01*
X15378796Y-6815174D02*
X15359748Y-6824698D01*
X15359748Y-6824698D02*
X15321653Y-6824698D01*
X15321653Y-6824698D02*
X15302606Y-6834222D01*
X15302606Y-6834222D02*
X15293082Y-6843746D01*
X15293082Y-6843746D02*
X15283558Y-6862793D01*
X15283558Y-6862793D02*
X15283558Y-6900888D01*
X15283558Y-6900888D02*
X15293082Y-6919936D01*
X15293082Y-6919936D02*
X15302606Y-6929460D01*
X15302606Y-6929460D02*
X15321653Y-6938984D01*
X15321653Y-6938984D02*
X15359748Y-6938984D01*
X15359748Y-6938984D02*
X15378796Y-6929460D01*
X15378796Y-6929460D02*
X15388320Y-6919936D01*
X15388320Y-6919936D02*
X15397844Y-6900888D01*
X15397844Y-6900888D02*
X15397844Y-6862793D01*
X15397844Y-6862793D02*
X15388320Y-6843746D01*
X15388320Y-6843746D02*
X15378796Y-6834222D01*
X15378796Y-6834222D02*
X15359748Y-6824698D01*
X15474034Y-6738984D02*
X15474034Y-6777079D01*
X15550225Y-6738984D02*
X15550225Y-6777079D01*
X15845463Y-7015174D02*
X15835939Y-7005650D01*
X15835939Y-7005650D02*
X15816891Y-6977079D01*
X15816891Y-6977079D02*
X15807368Y-6958031D01*
X15807368Y-6958031D02*
X15797844Y-6929460D01*
X15797844Y-6929460D02*
X15788320Y-6881841D01*
X15788320Y-6881841D02*
X15788320Y-6843746D01*
X15788320Y-6843746D02*
X15797844Y-6796127D01*
X15797844Y-6796127D02*
X15807368Y-6767555D01*
X15807368Y-6767555D02*
X15816891Y-6748508D01*
X15816891Y-6748508D02*
X15835939Y-6719936D01*
X15835939Y-6719936D02*
X15845463Y-6710412D01*
X16007368Y-6738984D02*
X15969272Y-6738984D01*
X15969272Y-6738984D02*
X15950225Y-6748508D01*
X15950225Y-6748508D02*
X15940701Y-6758031D01*
X15940701Y-6758031D02*
X15921653Y-6786603D01*
X15921653Y-6786603D02*
X15912129Y-6824698D01*
X15912129Y-6824698D02*
X15912129Y-6900888D01*
X15912129Y-6900888D02*
X15921653Y-6919936D01*
X15921653Y-6919936D02*
X15931177Y-6929460D01*
X15931177Y-6929460D02*
X15950225Y-6938984D01*
X15950225Y-6938984D02*
X15988320Y-6938984D01*
X15988320Y-6938984D02*
X16007368Y-6929460D01*
X16007368Y-6929460D02*
X16016891Y-6919936D01*
X16016891Y-6919936D02*
X16026415Y-6900888D01*
X16026415Y-6900888D02*
X16026415Y-6853269D01*
X16026415Y-6853269D02*
X16016891Y-6834222D01*
X16016891Y-6834222D02*
X16007368Y-6824698D01*
X16007368Y-6824698D02*
X15988320Y-6815174D01*
X15988320Y-6815174D02*
X15950225Y-6815174D01*
X15950225Y-6815174D02*
X15931177Y-6824698D01*
X15931177Y-6824698D02*
X15921653Y-6834222D01*
X15921653Y-6834222D02*
X15912129Y-6853269D01*
X16121653Y-6938984D02*
X16159748Y-6938984D01*
X16159748Y-6938984D02*
X16178796Y-6929460D01*
X16178796Y-6929460D02*
X16188320Y-6919936D01*
X16188320Y-6919936D02*
X16207368Y-6891365D01*
X16207368Y-6891365D02*
X16216891Y-6853269D01*
X16216891Y-6853269D02*
X16216891Y-6777079D01*
X16216891Y-6777079D02*
X16207368Y-6758031D01*
X16207368Y-6758031D02*
X16197844Y-6748508D01*
X16197844Y-6748508D02*
X16178796Y-6738984D01*
X16178796Y-6738984D02*
X16140701Y-6738984D01*
X16140701Y-6738984D02*
X16121653Y-6748508D01*
X16121653Y-6748508D02*
X16112129Y-6758031D01*
X16112129Y-6758031D02*
X16102606Y-6777079D01*
X16102606Y-6777079D02*
X16102606Y-6824698D01*
X16102606Y-6824698D02*
X16112129Y-6843746D01*
X16112129Y-6843746D02*
X16121653Y-6853269D01*
X16121653Y-6853269D02*
X16140701Y-6862793D01*
X16140701Y-6862793D02*
X16178796Y-6862793D01*
X16178796Y-6862793D02*
X16197844Y-6853269D01*
X16197844Y-6853269D02*
X16207368Y-6843746D01*
X16207368Y-6843746D02*
X16216891Y-6824698D01*
X16454987Y-6938984D02*
X16454987Y-6738984D01*
X16540701Y-6938984D02*
X16540701Y-6834222D01*
X16540701Y-6834222D02*
X16531177Y-6815174D01*
X16531177Y-6815174D02*
X16512130Y-6805650D01*
X16512130Y-6805650D02*
X16483558Y-6805650D01*
X16483558Y-6805650D02*
X16464510Y-6815174D01*
X16464510Y-6815174D02*
X16454987Y-6824698D01*
X16664510Y-6938984D02*
X16645463Y-6929460D01*
X16645463Y-6929460D02*
X16635939Y-6919936D01*
X16635939Y-6919936D02*
X16626415Y-6900888D01*
X16626415Y-6900888D02*
X16626415Y-6843746D01*
X16626415Y-6843746D02*
X16635939Y-6824698D01*
X16635939Y-6824698D02*
X16645463Y-6815174D01*
X16645463Y-6815174D02*
X16664510Y-6805650D01*
X16664510Y-6805650D02*
X16693082Y-6805650D01*
X16693082Y-6805650D02*
X16712130Y-6815174D01*
X16712130Y-6815174D02*
X16721653Y-6824698D01*
X16721653Y-6824698D02*
X16731177Y-6843746D01*
X16731177Y-6843746D02*
X16731177Y-6900888D01*
X16731177Y-6900888D02*
X16721653Y-6919936D01*
X16721653Y-6919936D02*
X16712130Y-6929460D01*
X16712130Y-6929460D02*
X16693082Y-6938984D01*
X16693082Y-6938984D02*
X16664510Y-6938984D01*
X16845463Y-6938984D02*
X16826415Y-6929460D01*
X16826415Y-6929460D02*
X16816892Y-6910412D01*
X16816892Y-6910412D02*
X16816892Y-6738984D01*
X16997844Y-6929460D02*
X16978796Y-6938984D01*
X16978796Y-6938984D02*
X16940701Y-6938984D01*
X16940701Y-6938984D02*
X16921653Y-6929460D01*
X16921653Y-6929460D02*
X16912130Y-6910412D01*
X16912130Y-6910412D02*
X16912130Y-6834222D01*
X16912130Y-6834222D02*
X16921653Y-6815174D01*
X16921653Y-6815174D02*
X16940701Y-6805650D01*
X16940701Y-6805650D02*
X16978796Y-6805650D01*
X16978796Y-6805650D02*
X16997844Y-6815174D01*
X16997844Y-6815174D02*
X17007368Y-6834222D01*
X17007368Y-6834222D02*
X17007368Y-6853269D01*
X17007368Y-6853269D02*
X16912130Y-6872317D01*
X17083558Y-6929460D02*
X17102606Y-6938984D01*
X17102606Y-6938984D02*
X17140701Y-6938984D01*
X17140701Y-6938984D02*
X17159749Y-6929460D01*
X17159749Y-6929460D02*
X17169273Y-6910412D01*
X17169273Y-6910412D02*
X17169273Y-6900888D01*
X17169273Y-6900888D02*
X17159749Y-6881841D01*
X17159749Y-6881841D02*
X17140701Y-6872317D01*
X17140701Y-6872317D02*
X17112130Y-6872317D01*
X17112130Y-6872317D02*
X17093082Y-6862793D01*
X17093082Y-6862793D02*
X17083558Y-6843746D01*
X17083558Y-6843746D02*
X17083558Y-6834222D01*
X17083558Y-6834222D02*
X17093082Y-6815174D01*
X17093082Y-6815174D02*
X17112130Y-6805650D01*
X17112130Y-6805650D02*
X17140701Y-6805650D01*
X17140701Y-6805650D02*
X17159749Y-6815174D01*
X17235939Y-7015174D02*
X17245463Y-7005650D01*
X17245463Y-7005650D02*
X17264511Y-6977079D01*
X17264511Y-6977079D02*
X17274034Y-6958031D01*
X17274034Y-6958031D02*
X17283558Y-6929460D01*
X17283558Y-6929460D02*
X17293082Y-6881841D01*
X17293082Y-6881841D02*
X17293082Y-6843746D01*
X17293082Y-6843746D02*
X17283558Y-6796127D01*
X17283558Y-6796127D02*
X17274034Y-6767555D01*
X17274034Y-6767555D02*
X17264511Y-6748508D01*
X17264511Y-6748508D02*
X17245463Y-6719936D01*
X17245463Y-6719936D02*
X17235939Y-6710412D01*
D13*
X12270400Y-7111500D02*
G75*
G03*
X12270400Y-7111500I-20000J0D01*
G01*
D11*
X12569272Y-7002984D02*
X12588320Y-7002984D01*
X12588320Y-7002984D02*
X12607367Y-7012508D01*
X12607367Y-7012508D02*
X12616891Y-7022031D01*
X12616891Y-7022031D02*
X12626415Y-7041079D01*
X12626415Y-7041079D02*
X12635939Y-7079174D01*
X12635939Y-7079174D02*
X12635939Y-7126793D01*
X12635939Y-7126793D02*
X12626415Y-7164888D01*
X12626415Y-7164888D02*
X12616891Y-7183936D01*
X12616891Y-7183936D02*
X12607367Y-7193460D01*
X12607367Y-7193460D02*
X12588320Y-7202984D01*
X12588320Y-7202984D02*
X12569272Y-7202984D01*
X12569272Y-7202984D02*
X12550224Y-7193460D01*
X12550224Y-7193460D02*
X12540701Y-7183936D01*
X12540701Y-7183936D02*
X12531177Y-7164888D01*
X12531177Y-7164888D02*
X12521653Y-7126793D01*
X12521653Y-7126793D02*
X12521653Y-7079174D01*
X12521653Y-7079174D02*
X12531177Y-7041079D01*
X12531177Y-7041079D02*
X12540701Y-7022031D01*
X12540701Y-7022031D02*
X12550224Y-7012508D01*
X12550224Y-7012508D02*
X12569272Y-7002984D01*
X12721653Y-7183936D02*
X12731177Y-7193460D01*
X12731177Y-7193460D02*
X12721653Y-7202984D01*
X12721653Y-7202984D02*
X12712129Y-7193460D01*
X12712129Y-7193460D02*
X12721653Y-7183936D01*
X12721653Y-7183936D02*
X12721653Y-7202984D01*
X12902605Y-7069650D02*
X12902605Y-7202984D01*
X12854986Y-6993460D02*
X12807367Y-7136317D01*
X12807367Y-7136317D02*
X12931177Y-7136317D01*
X13045462Y-7002984D02*
X13064510Y-7002984D01*
X13064510Y-7002984D02*
X13083558Y-7012508D01*
X13083558Y-7012508D02*
X13093082Y-7022031D01*
X13093082Y-7022031D02*
X13102605Y-7041079D01*
X13102605Y-7041079D02*
X13112129Y-7079174D01*
X13112129Y-7079174D02*
X13112129Y-7126793D01*
X13112129Y-7126793D02*
X13102605Y-7164888D01*
X13102605Y-7164888D02*
X13093082Y-7183936D01*
X13093082Y-7183936D02*
X13083558Y-7193460D01*
X13083558Y-7193460D02*
X13064510Y-7202984D01*
X13064510Y-7202984D02*
X13045462Y-7202984D01*
X13045462Y-7202984D02*
X13026415Y-7193460D01*
X13026415Y-7193460D02*
X13016891Y-7183936D01*
X13016891Y-7183936D02*
X13007367Y-7164888D01*
X13007367Y-7164888D02*
X12997843Y-7126793D01*
X12997843Y-7126793D02*
X12997843Y-7079174D01*
X12997843Y-7079174D02*
X13007367Y-7041079D01*
X13007367Y-7041079D02*
X13016891Y-7022031D01*
X13016891Y-7022031D02*
X13026415Y-7012508D01*
X13026415Y-7012508D02*
X13045462Y-7002984D01*
X13235939Y-7002984D02*
X13254986Y-7002984D01*
X13254986Y-7002984D02*
X13274034Y-7012508D01*
X13274034Y-7012508D02*
X13283558Y-7022031D01*
X13283558Y-7022031D02*
X13293082Y-7041079D01*
X13293082Y-7041079D02*
X13302605Y-7079174D01*
X13302605Y-7079174D02*
X13302605Y-7126793D01*
X13302605Y-7126793D02*
X13293082Y-7164888D01*
X13293082Y-7164888D02*
X13283558Y-7183936D01*
X13283558Y-7183936D02*
X13274034Y-7193460D01*
X13274034Y-7193460D02*
X13254986Y-7202984D01*
X13254986Y-7202984D02*
X13235939Y-7202984D01*
X13235939Y-7202984D02*
X13216891Y-7193460D01*
X13216891Y-7193460D02*
X13207367Y-7183936D01*
X13207367Y-7183936D02*
X13197843Y-7164888D01*
X13197843Y-7164888D02*
X13188320Y-7126793D01*
X13188320Y-7126793D02*
X13188320Y-7079174D01*
X13188320Y-7079174D02*
X13197843Y-7041079D01*
X13197843Y-7041079D02*
X13207367Y-7022031D01*
X13207367Y-7022031D02*
X13216891Y-7012508D01*
X13216891Y-7012508D02*
X13235939Y-7002984D01*
X13388320Y-7202984D02*
X13388320Y-7069650D01*
X13388320Y-7088698D02*
X13397843Y-7079174D01*
X13397843Y-7079174D02*
X13416891Y-7069650D01*
X13416891Y-7069650D02*
X13445463Y-7069650D01*
X13445463Y-7069650D02*
X13464510Y-7079174D01*
X13464510Y-7079174D02*
X13474034Y-7098222D01*
X13474034Y-7098222D02*
X13474034Y-7202984D01*
X13474034Y-7098222D02*
X13483558Y-7079174D01*
X13483558Y-7079174D02*
X13502605Y-7069650D01*
X13502605Y-7069650D02*
X13531177Y-7069650D01*
X13531177Y-7069650D02*
X13550224Y-7079174D01*
X13550224Y-7079174D02*
X13559748Y-7098222D01*
X13559748Y-7098222D02*
X13559748Y-7202984D01*
X13654986Y-7202984D02*
X13654986Y-7069650D01*
X13654986Y-7088698D02*
X13664510Y-7079174D01*
X13664510Y-7079174D02*
X13683558Y-7069650D01*
X13683558Y-7069650D02*
X13712129Y-7069650D01*
X13712129Y-7069650D02*
X13731177Y-7079174D01*
X13731177Y-7079174D02*
X13740701Y-7098222D01*
X13740701Y-7098222D02*
X13740701Y-7202984D01*
X13740701Y-7098222D02*
X13750224Y-7079174D01*
X13750224Y-7079174D02*
X13769272Y-7069650D01*
X13769272Y-7069650D02*
X13797843Y-7069650D01*
X13797843Y-7069650D02*
X13816891Y-7079174D01*
X13816891Y-7079174D02*
X13826415Y-7098222D01*
X13826415Y-7098222D02*
X13826415Y-7202984D01*
X14216891Y-6993460D02*
X14045463Y-7250603D01*
X14474034Y-7002984D02*
X14493082Y-7002984D01*
X14493082Y-7002984D02*
X14512129Y-7012508D01*
X14512129Y-7012508D02*
X14521653Y-7022031D01*
X14521653Y-7022031D02*
X14531177Y-7041079D01*
X14531177Y-7041079D02*
X14540701Y-7079174D01*
X14540701Y-7079174D02*
X14540701Y-7126793D01*
X14540701Y-7126793D02*
X14531177Y-7164888D01*
X14531177Y-7164888D02*
X14521653Y-7183936D01*
X14521653Y-7183936D02*
X14512129Y-7193460D01*
X14512129Y-7193460D02*
X14493082Y-7202984D01*
X14493082Y-7202984D02*
X14474034Y-7202984D01*
X14474034Y-7202984D02*
X14454986Y-7193460D01*
X14454986Y-7193460D02*
X14445463Y-7183936D01*
X14445463Y-7183936D02*
X14435939Y-7164888D01*
X14435939Y-7164888D02*
X14426415Y-7126793D01*
X14426415Y-7126793D02*
X14426415Y-7079174D01*
X14426415Y-7079174D02*
X14435939Y-7041079D01*
X14435939Y-7041079D02*
X14445463Y-7022031D01*
X14445463Y-7022031D02*
X14454986Y-7012508D01*
X14454986Y-7012508D02*
X14474034Y-7002984D01*
X14626415Y-7183936D02*
X14635939Y-7193460D01*
X14635939Y-7193460D02*
X14626415Y-7202984D01*
X14626415Y-7202984D02*
X14616891Y-7193460D01*
X14616891Y-7193460D02*
X14626415Y-7183936D01*
X14626415Y-7183936D02*
X14626415Y-7202984D01*
X14759748Y-7002984D02*
X14778796Y-7002984D01*
X14778796Y-7002984D02*
X14797844Y-7012508D01*
X14797844Y-7012508D02*
X14807367Y-7022031D01*
X14807367Y-7022031D02*
X14816891Y-7041079D01*
X14816891Y-7041079D02*
X14826415Y-7079174D01*
X14826415Y-7079174D02*
X14826415Y-7126793D01*
X14826415Y-7126793D02*
X14816891Y-7164888D01*
X14816891Y-7164888D02*
X14807367Y-7183936D01*
X14807367Y-7183936D02*
X14797844Y-7193460D01*
X14797844Y-7193460D02*
X14778796Y-7202984D01*
X14778796Y-7202984D02*
X14759748Y-7202984D01*
X14759748Y-7202984D02*
X14740701Y-7193460D01*
X14740701Y-7193460D02*
X14731177Y-7183936D01*
X14731177Y-7183936D02*
X14721653Y-7164888D01*
X14721653Y-7164888D02*
X14712129Y-7126793D01*
X14712129Y-7126793D02*
X14712129Y-7079174D01*
X14712129Y-7079174D02*
X14721653Y-7041079D01*
X14721653Y-7041079D02*
X14731177Y-7022031D01*
X14731177Y-7022031D02*
X14740701Y-7012508D01*
X14740701Y-7012508D02*
X14759748Y-7002984D01*
X15016891Y-7202984D02*
X14902606Y-7202984D01*
X14959748Y-7202984D02*
X14959748Y-7002984D01*
X14959748Y-7002984D02*
X14940701Y-7031555D01*
X14940701Y-7031555D02*
X14921653Y-7050603D01*
X14921653Y-7050603D02*
X14902606Y-7060127D01*
X15197844Y-7002984D02*
X15102606Y-7002984D01*
X15102606Y-7002984D02*
X15093082Y-7098222D01*
X15093082Y-7098222D02*
X15102606Y-7088698D01*
X15102606Y-7088698D02*
X15121653Y-7079174D01*
X15121653Y-7079174D02*
X15169272Y-7079174D01*
X15169272Y-7079174D02*
X15188320Y-7088698D01*
X15188320Y-7088698D02*
X15197844Y-7098222D01*
X15197844Y-7098222D02*
X15207367Y-7117269D01*
X15207367Y-7117269D02*
X15207367Y-7164888D01*
X15207367Y-7164888D02*
X15197844Y-7183936D01*
X15197844Y-7183936D02*
X15188320Y-7193460D01*
X15188320Y-7193460D02*
X15169272Y-7202984D01*
X15169272Y-7202984D02*
X15121653Y-7202984D01*
X15121653Y-7202984D02*
X15102606Y-7193460D01*
X15102606Y-7193460D02*
X15093082Y-7183936D01*
X15274034Y-7002984D02*
X15407367Y-7002984D01*
X15407367Y-7002984D02*
X15321653Y-7202984D01*
X15474034Y-7002984D02*
X15474034Y-7041079D01*
X15550225Y-7002984D02*
X15550225Y-7041079D01*
X15845463Y-7279174D02*
X15835939Y-7269650D01*
X15835939Y-7269650D02*
X15816891Y-7241079D01*
X15816891Y-7241079D02*
X15807368Y-7222031D01*
X15807368Y-7222031D02*
X15797844Y-7193460D01*
X15797844Y-7193460D02*
X15788320Y-7145841D01*
X15788320Y-7145841D02*
X15788320Y-7107746D01*
X15788320Y-7107746D02*
X15797844Y-7060127D01*
X15797844Y-7060127D02*
X15807368Y-7031555D01*
X15807368Y-7031555D02*
X15816891Y-7012508D01*
X15816891Y-7012508D02*
X15835939Y-6983936D01*
X15835939Y-6983936D02*
X15845463Y-6974412D01*
X16026415Y-7202984D02*
X15912129Y-7202984D01*
X15969272Y-7202984D02*
X15969272Y-7002984D01*
X15969272Y-7002984D02*
X15950225Y-7031555D01*
X15950225Y-7031555D02*
X15931177Y-7050603D01*
X15931177Y-7050603D02*
X15912129Y-7060127D01*
X16216891Y-7202984D02*
X16102606Y-7202984D01*
X16159748Y-7202984D02*
X16159748Y-7002984D01*
X16159748Y-7002984D02*
X16140701Y-7031555D01*
X16140701Y-7031555D02*
X16121653Y-7050603D01*
X16121653Y-7050603D02*
X16102606Y-7060127D01*
X16454987Y-7202984D02*
X16454987Y-7002984D01*
X16540701Y-7202984D02*
X16540701Y-7098222D01*
X16540701Y-7098222D02*
X16531177Y-7079174D01*
X16531177Y-7079174D02*
X16512130Y-7069650D01*
X16512130Y-7069650D02*
X16483558Y-7069650D01*
X16483558Y-7069650D02*
X16464510Y-7079174D01*
X16464510Y-7079174D02*
X16454987Y-7088698D01*
X16664510Y-7202984D02*
X16645463Y-7193460D01*
X16645463Y-7193460D02*
X16635939Y-7183936D01*
X16635939Y-7183936D02*
X16626415Y-7164888D01*
X16626415Y-7164888D02*
X16626415Y-7107746D01*
X16626415Y-7107746D02*
X16635939Y-7088698D01*
X16635939Y-7088698D02*
X16645463Y-7079174D01*
X16645463Y-7079174D02*
X16664510Y-7069650D01*
X16664510Y-7069650D02*
X16693082Y-7069650D01*
X16693082Y-7069650D02*
X16712130Y-7079174D01*
X16712130Y-7079174D02*
X16721653Y-7088698D01*
X16721653Y-7088698D02*
X16731177Y-7107746D01*
X16731177Y-7107746D02*
X16731177Y-7164888D01*
X16731177Y-7164888D02*
X16721653Y-7183936D01*
X16721653Y-7183936D02*
X16712130Y-7193460D01*
X16712130Y-7193460D02*
X16693082Y-7202984D01*
X16693082Y-7202984D02*
X16664510Y-7202984D01*
X16845463Y-7202984D02*
X16826415Y-7193460D01*
X16826415Y-7193460D02*
X16816892Y-7174412D01*
X16816892Y-7174412D02*
X16816892Y-7002984D01*
X16997844Y-7193460D02*
X16978796Y-7202984D01*
X16978796Y-7202984D02*
X16940701Y-7202984D01*
X16940701Y-7202984D02*
X16921653Y-7193460D01*
X16921653Y-7193460D02*
X16912130Y-7174412D01*
X16912130Y-7174412D02*
X16912130Y-7098222D01*
X16912130Y-7098222D02*
X16921653Y-7079174D01*
X16921653Y-7079174D02*
X16940701Y-7069650D01*
X16940701Y-7069650D02*
X16978796Y-7069650D01*
X16978796Y-7069650D02*
X16997844Y-7079174D01*
X16997844Y-7079174D02*
X17007368Y-7098222D01*
X17007368Y-7098222D02*
X17007368Y-7117269D01*
X17007368Y-7117269D02*
X16912130Y-7136317D01*
X17083558Y-7193460D02*
X17102606Y-7202984D01*
X17102606Y-7202984D02*
X17140701Y-7202984D01*
X17140701Y-7202984D02*
X17159749Y-7193460D01*
X17159749Y-7193460D02*
X17169273Y-7174412D01*
X17169273Y-7174412D02*
X17169273Y-7164888D01*
X17169273Y-7164888D02*
X17159749Y-7145841D01*
X17159749Y-7145841D02*
X17140701Y-7136317D01*
X17140701Y-7136317D02*
X17112130Y-7136317D01*
X17112130Y-7136317D02*
X17093082Y-7126793D01*
X17093082Y-7126793D02*
X17083558Y-7107746D01*
X17083558Y-7107746D02*
X17083558Y-7098222D01*
X17083558Y-7098222D02*
X17093082Y-7079174D01*
X17093082Y-7079174D02*
X17112130Y-7069650D01*
X17112130Y-7069650D02*
X17140701Y-7069650D01*
X17140701Y-7069650D02*
X17159749Y-7079174D01*
X17235939Y-7279174D02*
X17245463Y-7269650D01*
X17245463Y-7269650D02*
X17264511Y-7241079D01*
X17264511Y-7241079D02*
X17274034Y-7222031D01*
X17274034Y-7222031D02*
X17283558Y-7193460D01*
X17283558Y-7193460D02*
X17293082Y-7145841D01*
X17293082Y-7145841D02*
X17293082Y-7107746D01*
X17293082Y-7107746D02*
X17283558Y-7060127D01*
X17283558Y-7060127D02*
X17274034Y-7031555D01*
X17274034Y-7031555D02*
X17264511Y-7012508D01*
X17264511Y-7012508D02*
X17245463Y-6983936D01*
X17245463Y-6983936D02*
X17235939Y-6974412D01*
D14*
X12245400Y-7350500D02*
X12245400Y-7400500D01*
X12220400Y-7375500D02*
X12270400Y-7375500D01*
D11*
X12569272Y-7266984D02*
X12588320Y-7266984D01*
X12588320Y-7266984D02*
X12607367Y-7276508D01*
X12607367Y-7276508D02*
X12616891Y-7286031D01*
X12616891Y-7286031D02*
X12626415Y-7305079D01*
X12626415Y-7305079D02*
X12635939Y-7343174D01*
X12635939Y-7343174D02*
X12635939Y-7390793D01*
X12635939Y-7390793D02*
X12626415Y-7428888D01*
X12626415Y-7428888D02*
X12616891Y-7447936D01*
X12616891Y-7447936D02*
X12607367Y-7457460D01*
X12607367Y-7457460D02*
X12588320Y-7466984D01*
X12588320Y-7466984D02*
X12569272Y-7466984D01*
X12569272Y-7466984D02*
X12550224Y-7457460D01*
X12550224Y-7457460D02*
X12540701Y-7447936D01*
X12540701Y-7447936D02*
X12531177Y-7428888D01*
X12531177Y-7428888D02*
X12521653Y-7390793D01*
X12521653Y-7390793D02*
X12521653Y-7343174D01*
X12521653Y-7343174D02*
X12531177Y-7305079D01*
X12531177Y-7305079D02*
X12540701Y-7286031D01*
X12540701Y-7286031D02*
X12550224Y-7276508D01*
X12550224Y-7276508D02*
X12569272Y-7266984D01*
X12721653Y-7447936D02*
X12731177Y-7457460D01*
X12731177Y-7457460D02*
X12721653Y-7466984D01*
X12721653Y-7466984D02*
X12712129Y-7457460D01*
X12712129Y-7457460D02*
X12721653Y-7447936D01*
X12721653Y-7447936D02*
X12721653Y-7466984D01*
X12912129Y-7266984D02*
X12816891Y-7266984D01*
X12816891Y-7266984D02*
X12807367Y-7362222D01*
X12807367Y-7362222D02*
X12816891Y-7352698D01*
X12816891Y-7352698D02*
X12835939Y-7343174D01*
X12835939Y-7343174D02*
X12883558Y-7343174D01*
X12883558Y-7343174D02*
X12902605Y-7352698D01*
X12902605Y-7352698D02*
X12912129Y-7362222D01*
X12912129Y-7362222D02*
X12921653Y-7381269D01*
X12921653Y-7381269D02*
X12921653Y-7428888D01*
X12921653Y-7428888D02*
X12912129Y-7447936D01*
X12912129Y-7447936D02*
X12902605Y-7457460D01*
X12902605Y-7457460D02*
X12883558Y-7466984D01*
X12883558Y-7466984D02*
X12835939Y-7466984D01*
X12835939Y-7466984D02*
X12816891Y-7457460D01*
X12816891Y-7457460D02*
X12807367Y-7447936D01*
X13045462Y-7266984D02*
X13064510Y-7266984D01*
X13064510Y-7266984D02*
X13083558Y-7276508D01*
X13083558Y-7276508D02*
X13093082Y-7286031D01*
X13093082Y-7286031D02*
X13102605Y-7305079D01*
X13102605Y-7305079D02*
X13112129Y-7343174D01*
X13112129Y-7343174D02*
X13112129Y-7390793D01*
X13112129Y-7390793D02*
X13102605Y-7428888D01*
X13102605Y-7428888D02*
X13093082Y-7447936D01*
X13093082Y-7447936D02*
X13083558Y-7457460D01*
X13083558Y-7457460D02*
X13064510Y-7466984D01*
X13064510Y-7466984D02*
X13045462Y-7466984D01*
X13045462Y-7466984D02*
X13026415Y-7457460D01*
X13026415Y-7457460D02*
X13016891Y-7447936D01*
X13016891Y-7447936D02*
X13007367Y-7428888D01*
X13007367Y-7428888D02*
X12997843Y-7390793D01*
X12997843Y-7390793D02*
X12997843Y-7343174D01*
X12997843Y-7343174D02*
X13007367Y-7305079D01*
X13007367Y-7305079D02*
X13016891Y-7286031D01*
X13016891Y-7286031D02*
X13026415Y-7276508D01*
X13026415Y-7276508D02*
X13045462Y-7266984D01*
X13235939Y-7266984D02*
X13254986Y-7266984D01*
X13254986Y-7266984D02*
X13274034Y-7276508D01*
X13274034Y-7276508D02*
X13283558Y-7286031D01*
X13283558Y-7286031D02*
X13293082Y-7305079D01*
X13293082Y-7305079D02*
X13302605Y-7343174D01*
X13302605Y-7343174D02*
X13302605Y-7390793D01*
X13302605Y-7390793D02*
X13293082Y-7428888D01*
X13293082Y-7428888D02*
X13283558Y-7447936D01*
X13283558Y-7447936D02*
X13274034Y-7457460D01*
X13274034Y-7457460D02*
X13254986Y-7466984D01*
X13254986Y-7466984D02*
X13235939Y-7466984D01*
X13235939Y-7466984D02*
X13216891Y-7457460D01*
X13216891Y-7457460D02*
X13207367Y-7447936D01*
X13207367Y-7447936D02*
X13197843Y-7428888D01*
X13197843Y-7428888D02*
X13188320Y-7390793D01*
X13188320Y-7390793D02*
X13188320Y-7343174D01*
X13188320Y-7343174D02*
X13197843Y-7305079D01*
X13197843Y-7305079D02*
X13207367Y-7286031D01*
X13207367Y-7286031D02*
X13216891Y-7276508D01*
X13216891Y-7276508D02*
X13235939Y-7266984D01*
X13388320Y-7466984D02*
X13388320Y-7333650D01*
X13388320Y-7352698D02*
X13397843Y-7343174D01*
X13397843Y-7343174D02*
X13416891Y-7333650D01*
X13416891Y-7333650D02*
X13445463Y-7333650D01*
X13445463Y-7333650D02*
X13464510Y-7343174D01*
X13464510Y-7343174D02*
X13474034Y-7362222D01*
X13474034Y-7362222D02*
X13474034Y-7466984D01*
X13474034Y-7362222D02*
X13483558Y-7343174D01*
X13483558Y-7343174D02*
X13502605Y-7333650D01*
X13502605Y-7333650D02*
X13531177Y-7333650D01*
X13531177Y-7333650D02*
X13550224Y-7343174D01*
X13550224Y-7343174D02*
X13559748Y-7362222D01*
X13559748Y-7362222D02*
X13559748Y-7466984D01*
X13654986Y-7466984D02*
X13654986Y-7333650D01*
X13654986Y-7352698D02*
X13664510Y-7343174D01*
X13664510Y-7343174D02*
X13683558Y-7333650D01*
X13683558Y-7333650D02*
X13712129Y-7333650D01*
X13712129Y-7333650D02*
X13731177Y-7343174D01*
X13731177Y-7343174D02*
X13740701Y-7362222D01*
X13740701Y-7362222D02*
X13740701Y-7466984D01*
X13740701Y-7362222D02*
X13750224Y-7343174D01*
X13750224Y-7343174D02*
X13769272Y-7333650D01*
X13769272Y-7333650D02*
X13797843Y-7333650D01*
X13797843Y-7333650D02*
X13816891Y-7343174D01*
X13816891Y-7343174D02*
X13826415Y-7362222D01*
X13826415Y-7362222D02*
X13826415Y-7466984D01*
X14216891Y-7257460D02*
X14045463Y-7514603D01*
X14474034Y-7266984D02*
X14493082Y-7266984D01*
X14493082Y-7266984D02*
X14512129Y-7276508D01*
X14512129Y-7276508D02*
X14521653Y-7286031D01*
X14521653Y-7286031D02*
X14531177Y-7305079D01*
X14531177Y-7305079D02*
X14540701Y-7343174D01*
X14540701Y-7343174D02*
X14540701Y-7390793D01*
X14540701Y-7390793D02*
X14531177Y-7428888D01*
X14531177Y-7428888D02*
X14521653Y-7447936D01*
X14521653Y-7447936D02*
X14512129Y-7457460D01*
X14512129Y-7457460D02*
X14493082Y-7466984D01*
X14493082Y-7466984D02*
X14474034Y-7466984D01*
X14474034Y-7466984D02*
X14454986Y-7457460D01*
X14454986Y-7457460D02*
X14445463Y-7447936D01*
X14445463Y-7447936D02*
X14435939Y-7428888D01*
X14435939Y-7428888D02*
X14426415Y-7390793D01*
X14426415Y-7390793D02*
X14426415Y-7343174D01*
X14426415Y-7343174D02*
X14435939Y-7305079D01*
X14435939Y-7305079D02*
X14445463Y-7286031D01*
X14445463Y-7286031D02*
X14454986Y-7276508D01*
X14454986Y-7276508D02*
X14474034Y-7266984D01*
X14626415Y-7447936D02*
X14635939Y-7457460D01*
X14635939Y-7457460D02*
X14626415Y-7466984D01*
X14626415Y-7466984D02*
X14616891Y-7457460D01*
X14616891Y-7457460D02*
X14626415Y-7447936D01*
X14626415Y-7447936D02*
X14626415Y-7466984D01*
X14759748Y-7266984D02*
X14778796Y-7266984D01*
X14778796Y-7266984D02*
X14797844Y-7276508D01*
X14797844Y-7276508D02*
X14807367Y-7286031D01*
X14807367Y-7286031D02*
X14816891Y-7305079D01*
X14816891Y-7305079D02*
X14826415Y-7343174D01*
X14826415Y-7343174D02*
X14826415Y-7390793D01*
X14826415Y-7390793D02*
X14816891Y-7428888D01*
X14816891Y-7428888D02*
X14807367Y-7447936D01*
X14807367Y-7447936D02*
X14797844Y-7457460D01*
X14797844Y-7457460D02*
X14778796Y-7466984D01*
X14778796Y-7466984D02*
X14759748Y-7466984D01*
X14759748Y-7466984D02*
X14740701Y-7457460D01*
X14740701Y-7457460D02*
X14731177Y-7447936D01*
X14731177Y-7447936D02*
X14721653Y-7428888D01*
X14721653Y-7428888D02*
X14712129Y-7390793D01*
X14712129Y-7390793D02*
X14712129Y-7343174D01*
X14712129Y-7343174D02*
X14721653Y-7305079D01*
X14721653Y-7305079D02*
X14731177Y-7286031D01*
X14731177Y-7286031D02*
X14740701Y-7276508D01*
X14740701Y-7276508D02*
X14759748Y-7266984D01*
X15016891Y-7466984D02*
X14902606Y-7466984D01*
X14959748Y-7466984D02*
X14959748Y-7266984D01*
X14959748Y-7266984D02*
X14940701Y-7295555D01*
X14940701Y-7295555D02*
X14921653Y-7314603D01*
X14921653Y-7314603D02*
X14902606Y-7324127D01*
X15112129Y-7466984D02*
X15150225Y-7466984D01*
X15150225Y-7466984D02*
X15169272Y-7457460D01*
X15169272Y-7457460D02*
X15178796Y-7447936D01*
X15178796Y-7447936D02*
X15197844Y-7419365D01*
X15197844Y-7419365D02*
X15207367Y-7381269D01*
X15207367Y-7381269D02*
X15207367Y-7305079D01*
X15207367Y-7305079D02*
X15197844Y-7286031D01*
X15197844Y-7286031D02*
X15188320Y-7276508D01*
X15188320Y-7276508D02*
X15169272Y-7266984D01*
X15169272Y-7266984D02*
X15131177Y-7266984D01*
X15131177Y-7266984D02*
X15112129Y-7276508D01*
X15112129Y-7276508D02*
X15102606Y-7286031D01*
X15102606Y-7286031D02*
X15093082Y-7305079D01*
X15093082Y-7305079D02*
X15093082Y-7352698D01*
X15093082Y-7352698D02*
X15102606Y-7371746D01*
X15102606Y-7371746D02*
X15112129Y-7381269D01*
X15112129Y-7381269D02*
X15131177Y-7390793D01*
X15131177Y-7390793D02*
X15169272Y-7390793D01*
X15169272Y-7390793D02*
X15188320Y-7381269D01*
X15188320Y-7381269D02*
X15197844Y-7371746D01*
X15197844Y-7371746D02*
X15207367Y-7352698D01*
X15274034Y-7266984D02*
X15407367Y-7266984D01*
X15407367Y-7266984D02*
X15321653Y-7466984D01*
X15474034Y-7266984D02*
X15474034Y-7305079D01*
X15550225Y-7266984D02*
X15550225Y-7305079D01*
X15845463Y-7543174D02*
X15835939Y-7533650D01*
X15835939Y-7533650D02*
X15816891Y-7505079D01*
X15816891Y-7505079D02*
X15807368Y-7486031D01*
X15807368Y-7486031D02*
X15797844Y-7457460D01*
X15797844Y-7457460D02*
X15788320Y-7409841D01*
X15788320Y-7409841D02*
X15788320Y-7371746D01*
X15788320Y-7371746D02*
X15797844Y-7324127D01*
X15797844Y-7324127D02*
X15807368Y-7295555D01*
X15807368Y-7295555D02*
X15816891Y-7276508D01*
X15816891Y-7276508D02*
X15835939Y-7247936D01*
X15835939Y-7247936D02*
X15845463Y-7238412D01*
X16026415Y-7466984D02*
X15912129Y-7466984D01*
X15969272Y-7466984D02*
X15969272Y-7266984D01*
X15969272Y-7266984D02*
X15950225Y-7295555D01*
X15950225Y-7295555D02*
X15931177Y-7314603D01*
X15931177Y-7314603D02*
X15912129Y-7324127D01*
X16140701Y-7352698D02*
X16121653Y-7343174D01*
X16121653Y-7343174D02*
X16112129Y-7333650D01*
X16112129Y-7333650D02*
X16102606Y-7314603D01*
X16102606Y-7314603D02*
X16102606Y-7305079D01*
X16102606Y-7305079D02*
X16112129Y-7286031D01*
X16112129Y-7286031D02*
X16121653Y-7276508D01*
X16121653Y-7276508D02*
X16140701Y-7266984D01*
X16140701Y-7266984D02*
X16178796Y-7266984D01*
X16178796Y-7266984D02*
X16197844Y-7276508D01*
X16197844Y-7276508D02*
X16207368Y-7286031D01*
X16207368Y-7286031D02*
X16216891Y-7305079D01*
X16216891Y-7305079D02*
X16216891Y-7314603D01*
X16216891Y-7314603D02*
X16207368Y-7333650D01*
X16207368Y-7333650D02*
X16197844Y-7343174D01*
X16197844Y-7343174D02*
X16178796Y-7352698D01*
X16178796Y-7352698D02*
X16140701Y-7352698D01*
X16140701Y-7352698D02*
X16121653Y-7362222D01*
X16121653Y-7362222D02*
X16112129Y-7371746D01*
X16112129Y-7371746D02*
X16102606Y-7390793D01*
X16102606Y-7390793D02*
X16102606Y-7428888D01*
X16102606Y-7428888D02*
X16112129Y-7447936D01*
X16112129Y-7447936D02*
X16121653Y-7457460D01*
X16121653Y-7457460D02*
X16140701Y-7466984D01*
X16140701Y-7466984D02*
X16178796Y-7466984D01*
X16178796Y-7466984D02*
X16197844Y-7457460D01*
X16197844Y-7457460D02*
X16207368Y-7447936D01*
X16207368Y-7447936D02*
X16216891Y-7428888D01*
X16216891Y-7428888D02*
X16216891Y-7390793D01*
X16216891Y-7390793D02*
X16207368Y-7371746D01*
X16207368Y-7371746D02*
X16197844Y-7362222D01*
X16197844Y-7362222D02*
X16178796Y-7352698D01*
X16454987Y-7466984D02*
X16454987Y-7266984D01*
X16540701Y-7466984D02*
X16540701Y-7362222D01*
X16540701Y-7362222D02*
X16531177Y-7343174D01*
X16531177Y-7343174D02*
X16512130Y-7333650D01*
X16512130Y-7333650D02*
X16483558Y-7333650D01*
X16483558Y-7333650D02*
X16464510Y-7343174D01*
X16464510Y-7343174D02*
X16454987Y-7352698D01*
X16664510Y-7466984D02*
X16645463Y-7457460D01*
X16645463Y-7457460D02*
X16635939Y-7447936D01*
X16635939Y-7447936D02*
X16626415Y-7428888D01*
X16626415Y-7428888D02*
X16626415Y-7371746D01*
X16626415Y-7371746D02*
X16635939Y-7352698D01*
X16635939Y-7352698D02*
X16645463Y-7343174D01*
X16645463Y-7343174D02*
X16664510Y-7333650D01*
X16664510Y-7333650D02*
X16693082Y-7333650D01*
X16693082Y-7333650D02*
X16712130Y-7343174D01*
X16712130Y-7343174D02*
X16721653Y-7352698D01*
X16721653Y-7352698D02*
X16731177Y-7371746D01*
X16731177Y-7371746D02*
X16731177Y-7428888D01*
X16731177Y-7428888D02*
X16721653Y-7447936D01*
X16721653Y-7447936D02*
X16712130Y-7457460D01*
X16712130Y-7457460D02*
X16693082Y-7466984D01*
X16693082Y-7466984D02*
X16664510Y-7466984D01*
X16845463Y-7466984D02*
X16826415Y-7457460D01*
X16826415Y-7457460D02*
X16816892Y-7438412D01*
X16816892Y-7438412D02*
X16816892Y-7266984D01*
X16997844Y-7457460D02*
X16978796Y-7466984D01*
X16978796Y-7466984D02*
X16940701Y-7466984D01*
X16940701Y-7466984D02*
X16921653Y-7457460D01*
X16921653Y-7457460D02*
X16912130Y-7438412D01*
X16912130Y-7438412D02*
X16912130Y-7362222D01*
X16912130Y-7362222D02*
X16921653Y-7343174D01*
X16921653Y-7343174D02*
X16940701Y-7333650D01*
X16940701Y-7333650D02*
X16978796Y-7333650D01*
X16978796Y-7333650D02*
X16997844Y-7343174D01*
X16997844Y-7343174D02*
X17007368Y-7362222D01*
X17007368Y-7362222D02*
X17007368Y-7381269D01*
X17007368Y-7381269D02*
X16912130Y-7400317D01*
X17083558Y-7457460D02*
X17102606Y-7466984D01*
X17102606Y-7466984D02*
X17140701Y-7466984D01*
X17140701Y-7466984D02*
X17159749Y-7457460D01*
X17159749Y-7457460D02*
X17169273Y-7438412D01*
X17169273Y-7438412D02*
X17169273Y-7428888D01*
X17169273Y-7428888D02*
X17159749Y-7409841D01*
X17159749Y-7409841D02*
X17140701Y-7400317D01*
X17140701Y-7400317D02*
X17112130Y-7400317D01*
X17112130Y-7400317D02*
X17093082Y-7390793D01*
X17093082Y-7390793D02*
X17083558Y-7371746D01*
X17083558Y-7371746D02*
X17083558Y-7362222D01*
X17083558Y-7362222D02*
X17093082Y-7343174D01*
X17093082Y-7343174D02*
X17112130Y-7333650D01*
X17112130Y-7333650D02*
X17140701Y-7333650D01*
X17140701Y-7333650D02*
X17159749Y-7343174D01*
X17235939Y-7543174D02*
X17245463Y-7533650D01*
X17245463Y-7533650D02*
X17264511Y-7505079D01*
X17264511Y-7505079D02*
X17274034Y-7486031D01*
X17274034Y-7486031D02*
X17283558Y-7457460D01*
X17283558Y-7457460D02*
X17293082Y-7409841D01*
X17293082Y-7409841D02*
X17293082Y-7371746D01*
X17293082Y-7371746D02*
X17283558Y-7324127D01*
X17283558Y-7324127D02*
X17274034Y-7295555D01*
X17274034Y-7295555D02*
X17264511Y-7276508D01*
X17264511Y-7276508D02*
X17245463Y-7247936D01*
X17245463Y-7247936D02*
X17235939Y-7238412D01*
D15*
X12257220Y-7671320D02*
X12257220Y-7607680D01*
X12193580Y-7607680D01*
X12193580Y-7671320D01*
X12257220Y-7671320D01*
D11*
X12569272Y-7530984D02*
X12588320Y-7530984D01*
X12588320Y-7530984D02*
X12607367Y-7540508D01*
X12607367Y-7540508D02*
X12616891Y-7550031D01*
X12616891Y-7550031D02*
X12626415Y-7569079D01*
X12626415Y-7569079D02*
X12635939Y-7607174D01*
X12635939Y-7607174D02*
X12635939Y-7654793D01*
X12635939Y-7654793D02*
X12626415Y-7692888D01*
X12626415Y-7692888D02*
X12616891Y-7711936D01*
X12616891Y-7711936D02*
X12607367Y-7721460D01*
X12607367Y-7721460D02*
X12588320Y-7730984D01*
X12588320Y-7730984D02*
X12569272Y-7730984D01*
X12569272Y-7730984D02*
X12550224Y-7721460D01*
X12550224Y-7721460D02*
X12540701Y-7711936D01*
X12540701Y-7711936D02*
X12531177Y-7692888D01*
X12531177Y-7692888D02*
X12521653Y-7654793D01*
X12521653Y-7654793D02*
X12521653Y-7607174D01*
X12521653Y-7607174D02*
X12531177Y-7569079D01*
X12531177Y-7569079D02*
X12540701Y-7550031D01*
X12540701Y-7550031D02*
X12550224Y-7540508D01*
X12550224Y-7540508D02*
X12569272Y-7530984D01*
X12721653Y-7711936D02*
X12731177Y-7721460D01*
X12731177Y-7721460D02*
X12721653Y-7730984D01*
X12721653Y-7730984D02*
X12712129Y-7721460D01*
X12712129Y-7721460D02*
X12721653Y-7711936D01*
X12721653Y-7711936D02*
X12721653Y-7730984D01*
X12826415Y-7730984D02*
X12864510Y-7730984D01*
X12864510Y-7730984D02*
X12883558Y-7721460D01*
X12883558Y-7721460D02*
X12893082Y-7711936D01*
X12893082Y-7711936D02*
X12912129Y-7683365D01*
X12912129Y-7683365D02*
X12921653Y-7645269D01*
X12921653Y-7645269D02*
X12921653Y-7569079D01*
X12921653Y-7569079D02*
X12912129Y-7550031D01*
X12912129Y-7550031D02*
X12902605Y-7540508D01*
X12902605Y-7540508D02*
X12883558Y-7530984D01*
X12883558Y-7530984D02*
X12845462Y-7530984D01*
X12845462Y-7530984D02*
X12826415Y-7540508D01*
X12826415Y-7540508D02*
X12816891Y-7550031D01*
X12816891Y-7550031D02*
X12807367Y-7569079D01*
X12807367Y-7569079D02*
X12807367Y-7616698D01*
X12807367Y-7616698D02*
X12816891Y-7635746D01*
X12816891Y-7635746D02*
X12826415Y-7645269D01*
X12826415Y-7645269D02*
X12845462Y-7654793D01*
X12845462Y-7654793D02*
X12883558Y-7654793D01*
X12883558Y-7654793D02*
X12902605Y-7645269D01*
X12902605Y-7645269D02*
X12912129Y-7635746D01*
X12912129Y-7635746D02*
X12921653Y-7616698D01*
X13045462Y-7530984D02*
X13064510Y-7530984D01*
X13064510Y-7530984D02*
X13083558Y-7540508D01*
X13083558Y-7540508D02*
X13093082Y-7550031D01*
X13093082Y-7550031D02*
X13102605Y-7569079D01*
X13102605Y-7569079D02*
X13112129Y-7607174D01*
X13112129Y-7607174D02*
X13112129Y-7654793D01*
X13112129Y-7654793D02*
X13102605Y-7692888D01*
X13102605Y-7692888D02*
X13093082Y-7711936D01*
X13093082Y-7711936D02*
X13083558Y-7721460D01*
X13083558Y-7721460D02*
X13064510Y-7730984D01*
X13064510Y-7730984D02*
X13045462Y-7730984D01*
X13045462Y-7730984D02*
X13026415Y-7721460D01*
X13026415Y-7721460D02*
X13016891Y-7711936D01*
X13016891Y-7711936D02*
X13007367Y-7692888D01*
X13007367Y-7692888D02*
X12997843Y-7654793D01*
X12997843Y-7654793D02*
X12997843Y-7607174D01*
X12997843Y-7607174D02*
X13007367Y-7569079D01*
X13007367Y-7569079D02*
X13016891Y-7550031D01*
X13016891Y-7550031D02*
X13026415Y-7540508D01*
X13026415Y-7540508D02*
X13045462Y-7530984D01*
X13235939Y-7530984D02*
X13254986Y-7530984D01*
X13254986Y-7530984D02*
X13274034Y-7540508D01*
X13274034Y-7540508D02*
X13283558Y-7550031D01*
X13283558Y-7550031D02*
X13293082Y-7569079D01*
X13293082Y-7569079D02*
X13302605Y-7607174D01*
X13302605Y-7607174D02*
X13302605Y-7654793D01*
X13302605Y-7654793D02*
X13293082Y-7692888D01*
X13293082Y-7692888D02*
X13283558Y-7711936D01*
X13283558Y-7711936D02*
X13274034Y-7721460D01*
X13274034Y-7721460D02*
X13254986Y-7730984D01*
X13254986Y-7730984D02*
X13235939Y-7730984D01*
X13235939Y-7730984D02*
X13216891Y-7721460D01*
X13216891Y-7721460D02*
X13207367Y-7711936D01*
X13207367Y-7711936D02*
X13197843Y-7692888D01*
X13197843Y-7692888D02*
X13188320Y-7654793D01*
X13188320Y-7654793D02*
X13188320Y-7607174D01*
X13188320Y-7607174D02*
X13197843Y-7569079D01*
X13197843Y-7569079D02*
X13207367Y-7550031D01*
X13207367Y-7550031D02*
X13216891Y-7540508D01*
X13216891Y-7540508D02*
X13235939Y-7530984D01*
X13388320Y-7730984D02*
X13388320Y-7597650D01*
X13388320Y-7616698D02*
X13397843Y-7607174D01*
X13397843Y-7607174D02*
X13416891Y-7597650D01*
X13416891Y-7597650D02*
X13445463Y-7597650D01*
X13445463Y-7597650D02*
X13464510Y-7607174D01*
X13464510Y-7607174D02*
X13474034Y-7626222D01*
X13474034Y-7626222D02*
X13474034Y-7730984D01*
X13474034Y-7626222D02*
X13483558Y-7607174D01*
X13483558Y-7607174D02*
X13502605Y-7597650D01*
X13502605Y-7597650D02*
X13531177Y-7597650D01*
X13531177Y-7597650D02*
X13550224Y-7607174D01*
X13550224Y-7607174D02*
X13559748Y-7626222D01*
X13559748Y-7626222D02*
X13559748Y-7730984D01*
X13654986Y-7730984D02*
X13654986Y-7597650D01*
X13654986Y-7616698D02*
X13664510Y-7607174D01*
X13664510Y-7607174D02*
X13683558Y-7597650D01*
X13683558Y-7597650D02*
X13712129Y-7597650D01*
X13712129Y-7597650D02*
X13731177Y-7607174D01*
X13731177Y-7607174D02*
X13740701Y-7626222D01*
X13740701Y-7626222D02*
X13740701Y-7730984D01*
X13740701Y-7626222D02*
X13750224Y-7607174D01*
X13750224Y-7607174D02*
X13769272Y-7597650D01*
X13769272Y-7597650D02*
X13797843Y-7597650D01*
X13797843Y-7597650D02*
X13816891Y-7607174D01*
X13816891Y-7607174D02*
X13826415Y-7626222D01*
X13826415Y-7626222D02*
X13826415Y-7730984D01*
X14216891Y-7521460D02*
X14045463Y-7778603D01*
X14474034Y-7530984D02*
X14493082Y-7530984D01*
X14493082Y-7530984D02*
X14512129Y-7540508D01*
X14512129Y-7540508D02*
X14521653Y-7550031D01*
X14521653Y-7550031D02*
X14531177Y-7569079D01*
X14531177Y-7569079D02*
X14540701Y-7607174D01*
X14540701Y-7607174D02*
X14540701Y-7654793D01*
X14540701Y-7654793D02*
X14531177Y-7692888D01*
X14531177Y-7692888D02*
X14521653Y-7711936D01*
X14521653Y-7711936D02*
X14512129Y-7721460D01*
X14512129Y-7721460D02*
X14493082Y-7730984D01*
X14493082Y-7730984D02*
X14474034Y-7730984D01*
X14474034Y-7730984D02*
X14454986Y-7721460D01*
X14454986Y-7721460D02*
X14445463Y-7711936D01*
X14445463Y-7711936D02*
X14435939Y-7692888D01*
X14435939Y-7692888D02*
X14426415Y-7654793D01*
X14426415Y-7654793D02*
X14426415Y-7607174D01*
X14426415Y-7607174D02*
X14435939Y-7569079D01*
X14435939Y-7569079D02*
X14445463Y-7550031D01*
X14445463Y-7550031D02*
X14454986Y-7540508D01*
X14454986Y-7540508D02*
X14474034Y-7530984D01*
X14626415Y-7711936D02*
X14635939Y-7721460D01*
X14635939Y-7721460D02*
X14626415Y-7730984D01*
X14626415Y-7730984D02*
X14616891Y-7721460D01*
X14616891Y-7721460D02*
X14626415Y-7711936D01*
X14626415Y-7711936D02*
X14626415Y-7730984D01*
X14759748Y-7530984D02*
X14778796Y-7530984D01*
X14778796Y-7530984D02*
X14797844Y-7540508D01*
X14797844Y-7540508D02*
X14807367Y-7550031D01*
X14807367Y-7550031D02*
X14816891Y-7569079D01*
X14816891Y-7569079D02*
X14826415Y-7607174D01*
X14826415Y-7607174D02*
X14826415Y-7654793D01*
X14826415Y-7654793D02*
X14816891Y-7692888D01*
X14816891Y-7692888D02*
X14807367Y-7711936D01*
X14807367Y-7711936D02*
X14797844Y-7721460D01*
X14797844Y-7721460D02*
X14778796Y-7730984D01*
X14778796Y-7730984D02*
X14759748Y-7730984D01*
X14759748Y-7730984D02*
X14740701Y-7721460D01*
X14740701Y-7721460D02*
X14731177Y-7711936D01*
X14731177Y-7711936D02*
X14721653Y-7692888D01*
X14721653Y-7692888D02*
X14712129Y-7654793D01*
X14712129Y-7654793D02*
X14712129Y-7607174D01*
X14712129Y-7607174D02*
X14721653Y-7569079D01*
X14721653Y-7569079D02*
X14731177Y-7550031D01*
X14731177Y-7550031D02*
X14740701Y-7540508D01*
X14740701Y-7540508D02*
X14759748Y-7530984D01*
X14893082Y-7530984D02*
X15016891Y-7530984D01*
X15016891Y-7530984D02*
X14950225Y-7607174D01*
X14950225Y-7607174D02*
X14978796Y-7607174D01*
X14978796Y-7607174D02*
X14997844Y-7616698D01*
X14997844Y-7616698D02*
X15007367Y-7626222D01*
X15007367Y-7626222D02*
X15016891Y-7645269D01*
X15016891Y-7645269D02*
X15016891Y-7692888D01*
X15016891Y-7692888D02*
X15007367Y-7711936D01*
X15007367Y-7711936D02*
X14997844Y-7721460D01*
X14997844Y-7721460D02*
X14978796Y-7730984D01*
X14978796Y-7730984D02*
X14921653Y-7730984D01*
X14921653Y-7730984D02*
X14902606Y-7721460D01*
X14902606Y-7721460D02*
X14893082Y-7711936D01*
X15197844Y-7530984D02*
X15102606Y-7530984D01*
X15102606Y-7530984D02*
X15093082Y-7626222D01*
X15093082Y-7626222D02*
X15102606Y-7616698D01*
X15102606Y-7616698D02*
X15121653Y-7607174D01*
X15121653Y-7607174D02*
X15169272Y-7607174D01*
X15169272Y-7607174D02*
X15188320Y-7616698D01*
X15188320Y-7616698D02*
X15197844Y-7626222D01*
X15197844Y-7626222D02*
X15207367Y-7645269D01*
X15207367Y-7645269D02*
X15207367Y-7692888D01*
X15207367Y-7692888D02*
X15197844Y-7711936D01*
X15197844Y-7711936D02*
X15188320Y-7721460D01*
X15188320Y-7721460D02*
X15169272Y-7730984D01*
X15169272Y-7730984D02*
X15121653Y-7730984D01*
X15121653Y-7730984D02*
X15102606Y-7721460D01*
X15102606Y-7721460D02*
X15093082Y-7711936D01*
X15378796Y-7597650D02*
X15378796Y-7730984D01*
X15331177Y-7521460D02*
X15283558Y-7664317D01*
X15283558Y-7664317D02*
X15407367Y-7664317D01*
X15474034Y-7530984D02*
X15474034Y-7569079D01*
X15550225Y-7530984D02*
X15550225Y-7569079D01*
X15845463Y-7807174D02*
X15835939Y-7797650D01*
X15835939Y-7797650D02*
X15816891Y-7769079D01*
X15816891Y-7769079D02*
X15807368Y-7750031D01*
X15807368Y-7750031D02*
X15797844Y-7721460D01*
X15797844Y-7721460D02*
X15788320Y-7673841D01*
X15788320Y-7673841D02*
X15788320Y-7635746D01*
X15788320Y-7635746D02*
X15797844Y-7588127D01*
X15797844Y-7588127D02*
X15807368Y-7559555D01*
X15807368Y-7559555D02*
X15816891Y-7540508D01*
X15816891Y-7540508D02*
X15835939Y-7511936D01*
X15835939Y-7511936D02*
X15845463Y-7502412D01*
X16007368Y-7597650D02*
X16007368Y-7730984D01*
X15959748Y-7521460D02*
X15912129Y-7664317D01*
X15912129Y-7664317D02*
X16035939Y-7664317D01*
X16264510Y-7730984D02*
X16264510Y-7530984D01*
X16350225Y-7730984D02*
X16350225Y-7626222D01*
X16350225Y-7626222D02*
X16340701Y-7607174D01*
X16340701Y-7607174D02*
X16321653Y-7597650D01*
X16321653Y-7597650D02*
X16293082Y-7597650D01*
X16293082Y-7597650D02*
X16274034Y-7607174D01*
X16274034Y-7607174D02*
X16264510Y-7616698D01*
X16474034Y-7730984D02*
X16454987Y-7721460D01*
X16454987Y-7721460D02*
X16445463Y-7711936D01*
X16445463Y-7711936D02*
X16435939Y-7692888D01*
X16435939Y-7692888D02*
X16435939Y-7635746D01*
X16435939Y-7635746D02*
X16445463Y-7616698D01*
X16445463Y-7616698D02*
X16454987Y-7607174D01*
X16454987Y-7607174D02*
X16474034Y-7597650D01*
X16474034Y-7597650D02*
X16502606Y-7597650D01*
X16502606Y-7597650D02*
X16521653Y-7607174D01*
X16521653Y-7607174D02*
X16531177Y-7616698D01*
X16531177Y-7616698D02*
X16540701Y-7635746D01*
X16540701Y-7635746D02*
X16540701Y-7692888D01*
X16540701Y-7692888D02*
X16531177Y-7711936D01*
X16531177Y-7711936D02*
X16521653Y-7721460D01*
X16521653Y-7721460D02*
X16502606Y-7730984D01*
X16502606Y-7730984D02*
X16474034Y-7730984D01*
X16654987Y-7730984D02*
X16635939Y-7721460D01*
X16635939Y-7721460D02*
X16626415Y-7702412D01*
X16626415Y-7702412D02*
X16626415Y-7530984D01*
X16807368Y-7721460D02*
X16788320Y-7730984D01*
X16788320Y-7730984D02*
X16750225Y-7730984D01*
X16750225Y-7730984D02*
X16731177Y-7721460D01*
X16731177Y-7721460D02*
X16721653Y-7702412D01*
X16721653Y-7702412D02*
X16721653Y-7626222D01*
X16721653Y-7626222D02*
X16731177Y-7607174D01*
X16731177Y-7607174D02*
X16750225Y-7597650D01*
X16750225Y-7597650D02*
X16788320Y-7597650D01*
X16788320Y-7597650D02*
X16807368Y-7607174D01*
X16807368Y-7607174D02*
X16816892Y-7626222D01*
X16816892Y-7626222D02*
X16816892Y-7645269D01*
X16816892Y-7645269D02*
X16721653Y-7664317D01*
X16893082Y-7721460D02*
X16912130Y-7730984D01*
X16912130Y-7730984D02*
X16950225Y-7730984D01*
X16950225Y-7730984D02*
X16969273Y-7721460D01*
X16969273Y-7721460D02*
X16978796Y-7702412D01*
X16978796Y-7702412D02*
X16978796Y-7692888D01*
X16978796Y-7692888D02*
X16969273Y-7673841D01*
X16969273Y-7673841D02*
X16950225Y-7664317D01*
X16950225Y-7664317D02*
X16921653Y-7664317D01*
X16921653Y-7664317D02*
X16902606Y-7654793D01*
X16902606Y-7654793D02*
X16893082Y-7635746D01*
X16893082Y-7635746D02*
X16893082Y-7626222D01*
X16893082Y-7626222D02*
X16902606Y-7607174D01*
X16902606Y-7607174D02*
X16921653Y-7597650D01*
X16921653Y-7597650D02*
X16950225Y-7597650D01*
X16950225Y-7597650D02*
X16969273Y-7607174D01*
X17045463Y-7807174D02*
X17054987Y-7797650D01*
X17054987Y-7797650D02*
X17074034Y-7769079D01*
X17074034Y-7769079D02*
X17083558Y-7750031D01*
X17083558Y-7750031D02*
X17093082Y-7721460D01*
X17093082Y-7721460D02*
X17102606Y-7673841D01*
X17102606Y-7673841D02*
X17102606Y-7635746D01*
X17102606Y-7635746D02*
X17093082Y-7588127D01*
X17093082Y-7588127D02*
X17083558Y-7559555D01*
X17083558Y-7559555D02*
X17074034Y-7540508D01*
X17074034Y-7540508D02*
X17054987Y-7511936D01*
X17054987Y-7511936D02*
X17045463Y-7502412D01*
D16*
X12220400Y-7953500D02*
X12270400Y-7903500D01*
X12220400Y-7853500D01*
X12170400Y-7903500D01*
X12220400Y-7953500D01*
D11*
X12635939Y-7994984D02*
X12521653Y-7994984D01*
X12578796Y-7994984D02*
X12578796Y-7794984D01*
X12578796Y-7794984D02*
X12559748Y-7823555D01*
X12559748Y-7823555D02*
X12540701Y-7842603D01*
X12540701Y-7842603D02*
X12521653Y-7852127D01*
X12721653Y-7975936D02*
X12731177Y-7985460D01*
X12731177Y-7985460D02*
X12721653Y-7994984D01*
X12721653Y-7994984D02*
X12712129Y-7985460D01*
X12712129Y-7985460D02*
X12721653Y-7975936D01*
X12721653Y-7975936D02*
X12721653Y-7994984D01*
X12854986Y-7794984D02*
X12874034Y-7794984D01*
X12874034Y-7794984D02*
X12893082Y-7804508D01*
X12893082Y-7804508D02*
X12902605Y-7814031D01*
X12902605Y-7814031D02*
X12912129Y-7833079D01*
X12912129Y-7833079D02*
X12921653Y-7871174D01*
X12921653Y-7871174D02*
X12921653Y-7918793D01*
X12921653Y-7918793D02*
X12912129Y-7956888D01*
X12912129Y-7956888D02*
X12902605Y-7975936D01*
X12902605Y-7975936D02*
X12893082Y-7985460D01*
X12893082Y-7985460D02*
X12874034Y-7994984D01*
X12874034Y-7994984D02*
X12854986Y-7994984D01*
X12854986Y-7994984D02*
X12835939Y-7985460D01*
X12835939Y-7985460D02*
X12826415Y-7975936D01*
X12826415Y-7975936D02*
X12816891Y-7956888D01*
X12816891Y-7956888D02*
X12807367Y-7918793D01*
X12807367Y-7918793D02*
X12807367Y-7871174D01*
X12807367Y-7871174D02*
X12816891Y-7833079D01*
X12816891Y-7833079D02*
X12826415Y-7814031D01*
X12826415Y-7814031D02*
X12835939Y-7804508D01*
X12835939Y-7804508D02*
X12854986Y-7794984D01*
X13045462Y-7794984D02*
X13064510Y-7794984D01*
X13064510Y-7794984D02*
X13083558Y-7804508D01*
X13083558Y-7804508D02*
X13093082Y-7814031D01*
X13093082Y-7814031D02*
X13102605Y-7833079D01*
X13102605Y-7833079D02*
X13112129Y-7871174D01*
X13112129Y-7871174D02*
X13112129Y-7918793D01*
X13112129Y-7918793D02*
X13102605Y-7956888D01*
X13102605Y-7956888D02*
X13093082Y-7975936D01*
X13093082Y-7975936D02*
X13083558Y-7985460D01*
X13083558Y-7985460D02*
X13064510Y-7994984D01*
X13064510Y-7994984D02*
X13045462Y-7994984D01*
X13045462Y-7994984D02*
X13026415Y-7985460D01*
X13026415Y-7985460D02*
X13016891Y-7975936D01*
X13016891Y-7975936D02*
X13007367Y-7956888D01*
X13007367Y-7956888D02*
X12997843Y-7918793D01*
X12997843Y-7918793D02*
X12997843Y-7871174D01*
X12997843Y-7871174D02*
X13007367Y-7833079D01*
X13007367Y-7833079D02*
X13016891Y-7814031D01*
X13016891Y-7814031D02*
X13026415Y-7804508D01*
X13026415Y-7804508D02*
X13045462Y-7794984D01*
X13235939Y-7794984D02*
X13254986Y-7794984D01*
X13254986Y-7794984D02*
X13274034Y-7804508D01*
X13274034Y-7804508D02*
X13283558Y-7814031D01*
X13283558Y-7814031D02*
X13293082Y-7833079D01*
X13293082Y-7833079D02*
X13302605Y-7871174D01*
X13302605Y-7871174D02*
X13302605Y-7918793D01*
X13302605Y-7918793D02*
X13293082Y-7956888D01*
X13293082Y-7956888D02*
X13283558Y-7975936D01*
X13283558Y-7975936D02*
X13274034Y-7985460D01*
X13274034Y-7985460D02*
X13254986Y-7994984D01*
X13254986Y-7994984D02*
X13235939Y-7994984D01*
X13235939Y-7994984D02*
X13216891Y-7985460D01*
X13216891Y-7985460D02*
X13207367Y-7975936D01*
X13207367Y-7975936D02*
X13197843Y-7956888D01*
X13197843Y-7956888D02*
X13188320Y-7918793D01*
X13188320Y-7918793D02*
X13188320Y-7871174D01*
X13188320Y-7871174D02*
X13197843Y-7833079D01*
X13197843Y-7833079D02*
X13207367Y-7814031D01*
X13207367Y-7814031D02*
X13216891Y-7804508D01*
X13216891Y-7804508D02*
X13235939Y-7794984D01*
X13388320Y-7994984D02*
X13388320Y-7861650D01*
X13388320Y-7880698D02*
X13397843Y-7871174D01*
X13397843Y-7871174D02*
X13416891Y-7861650D01*
X13416891Y-7861650D02*
X13445463Y-7861650D01*
X13445463Y-7861650D02*
X13464510Y-7871174D01*
X13464510Y-7871174D02*
X13474034Y-7890222D01*
X13474034Y-7890222D02*
X13474034Y-7994984D01*
X13474034Y-7890222D02*
X13483558Y-7871174D01*
X13483558Y-7871174D02*
X13502605Y-7861650D01*
X13502605Y-7861650D02*
X13531177Y-7861650D01*
X13531177Y-7861650D02*
X13550224Y-7871174D01*
X13550224Y-7871174D02*
X13559748Y-7890222D01*
X13559748Y-7890222D02*
X13559748Y-7994984D01*
X13654986Y-7994984D02*
X13654986Y-7861650D01*
X13654986Y-7880698D02*
X13664510Y-7871174D01*
X13664510Y-7871174D02*
X13683558Y-7861650D01*
X13683558Y-7861650D02*
X13712129Y-7861650D01*
X13712129Y-7861650D02*
X13731177Y-7871174D01*
X13731177Y-7871174D02*
X13740701Y-7890222D01*
X13740701Y-7890222D02*
X13740701Y-7994984D01*
X13740701Y-7890222D02*
X13750224Y-7871174D01*
X13750224Y-7871174D02*
X13769272Y-7861650D01*
X13769272Y-7861650D02*
X13797843Y-7861650D01*
X13797843Y-7861650D02*
X13816891Y-7871174D01*
X13816891Y-7871174D02*
X13826415Y-7890222D01*
X13826415Y-7890222D02*
X13826415Y-7994984D01*
X14216891Y-7785460D02*
X14045463Y-8042603D01*
X14474034Y-7794984D02*
X14493082Y-7794984D01*
X14493082Y-7794984D02*
X14512129Y-7804508D01*
X14512129Y-7804508D02*
X14521653Y-7814031D01*
X14521653Y-7814031D02*
X14531177Y-7833079D01*
X14531177Y-7833079D02*
X14540701Y-7871174D01*
X14540701Y-7871174D02*
X14540701Y-7918793D01*
X14540701Y-7918793D02*
X14531177Y-7956888D01*
X14531177Y-7956888D02*
X14521653Y-7975936D01*
X14521653Y-7975936D02*
X14512129Y-7985460D01*
X14512129Y-7985460D02*
X14493082Y-7994984D01*
X14493082Y-7994984D02*
X14474034Y-7994984D01*
X14474034Y-7994984D02*
X14454986Y-7985460D01*
X14454986Y-7985460D02*
X14445463Y-7975936D01*
X14445463Y-7975936D02*
X14435939Y-7956888D01*
X14435939Y-7956888D02*
X14426415Y-7918793D01*
X14426415Y-7918793D02*
X14426415Y-7871174D01*
X14426415Y-7871174D02*
X14435939Y-7833079D01*
X14435939Y-7833079D02*
X14445463Y-7814031D01*
X14445463Y-7814031D02*
X14454986Y-7804508D01*
X14454986Y-7804508D02*
X14474034Y-7794984D01*
X14626415Y-7975936D02*
X14635939Y-7985460D01*
X14635939Y-7985460D02*
X14626415Y-7994984D01*
X14626415Y-7994984D02*
X14616891Y-7985460D01*
X14616891Y-7985460D02*
X14626415Y-7975936D01*
X14626415Y-7975936D02*
X14626415Y-7994984D01*
X14759748Y-7794984D02*
X14778796Y-7794984D01*
X14778796Y-7794984D02*
X14797844Y-7804508D01*
X14797844Y-7804508D02*
X14807367Y-7814031D01*
X14807367Y-7814031D02*
X14816891Y-7833079D01*
X14816891Y-7833079D02*
X14826415Y-7871174D01*
X14826415Y-7871174D02*
X14826415Y-7918793D01*
X14826415Y-7918793D02*
X14816891Y-7956888D01*
X14816891Y-7956888D02*
X14807367Y-7975936D01*
X14807367Y-7975936D02*
X14797844Y-7985460D01*
X14797844Y-7985460D02*
X14778796Y-7994984D01*
X14778796Y-7994984D02*
X14759748Y-7994984D01*
X14759748Y-7994984D02*
X14740701Y-7985460D01*
X14740701Y-7985460D02*
X14731177Y-7975936D01*
X14731177Y-7975936D02*
X14721653Y-7956888D01*
X14721653Y-7956888D02*
X14712129Y-7918793D01*
X14712129Y-7918793D02*
X14712129Y-7871174D01*
X14712129Y-7871174D02*
X14721653Y-7833079D01*
X14721653Y-7833079D02*
X14731177Y-7814031D01*
X14731177Y-7814031D02*
X14740701Y-7804508D01*
X14740701Y-7804508D02*
X14759748Y-7794984D01*
X14893082Y-7794984D02*
X15016891Y-7794984D01*
X15016891Y-7794984D02*
X14950225Y-7871174D01*
X14950225Y-7871174D02*
X14978796Y-7871174D01*
X14978796Y-7871174D02*
X14997844Y-7880698D01*
X14997844Y-7880698D02*
X15007367Y-7890222D01*
X15007367Y-7890222D02*
X15016891Y-7909269D01*
X15016891Y-7909269D02*
X15016891Y-7956888D01*
X15016891Y-7956888D02*
X15007367Y-7975936D01*
X15007367Y-7975936D02*
X14997844Y-7985460D01*
X14997844Y-7985460D02*
X14978796Y-7994984D01*
X14978796Y-7994984D02*
X14921653Y-7994984D01*
X14921653Y-7994984D02*
X14902606Y-7985460D01*
X14902606Y-7985460D02*
X14893082Y-7975936D01*
X15112129Y-7994984D02*
X15150225Y-7994984D01*
X15150225Y-7994984D02*
X15169272Y-7985460D01*
X15169272Y-7985460D02*
X15178796Y-7975936D01*
X15178796Y-7975936D02*
X15197844Y-7947365D01*
X15197844Y-7947365D02*
X15207367Y-7909269D01*
X15207367Y-7909269D02*
X15207367Y-7833079D01*
X15207367Y-7833079D02*
X15197844Y-7814031D01*
X15197844Y-7814031D02*
X15188320Y-7804508D01*
X15188320Y-7804508D02*
X15169272Y-7794984D01*
X15169272Y-7794984D02*
X15131177Y-7794984D01*
X15131177Y-7794984D02*
X15112129Y-7804508D01*
X15112129Y-7804508D02*
X15102606Y-7814031D01*
X15102606Y-7814031D02*
X15093082Y-7833079D01*
X15093082Y-7833079D02*
X15093082Y-7880698D01*
X15093082Y-7880698D02*
X15102606Y-7899746D01*
X15102606Y-7899746D02*
X15112129Y-7909269D01*
X15112129Y-7909269D02*
X15131177Y-7918793D01*
X15131177Y-7918793D02*
X15169272Y-7918793D01*
X15169272Y-7918793D02*
X15188320Y-7909269D01*
X15188320Y-7909269D02*
X15197844Y-7899746D01*
X15197844Y-7899746D02*
X15207367Y-7880698D01*
X15378796Y-7861650D02*
X15378796Y-7994984D01*
X15331177Y-7785460D02*
X15283558Y-7928317D01*
X15283558Y-7928317D02*
X15407367Y-7928317D01*
X15474034Y-7794984D02*
X15474034Y-7833079D01*
X15550225Y-7794984D02*
X15550225Y-7833079D01*
X15845463Y-8071174D02*
X15835939Y-8061650D01*
X15835939Y-8061650D02*
X15816891Y-8033079D01*
X15816891Y-8033079D02*
X15807368Y-8014031D01*
X15807368Y-8014031D02*
X15797844Y-7985460D01*
X15797844Y-7985460D02*
X15788320Y-7937841D01*
X15788320Y-7937841D02*
X15788320Y-7899746D01*
X15788320Y-7899746D02*
X15797844Y-7852127D01*
X15797844Y-7852127D02*
X15807368Y-7823555D01*
X15807368Y-7823555D02*
X15816891Y-7804508D01*
X15816891Y-7804508D02*
X15835939Y-7775936D01*
X15835939Y-7775936D02*
X15845463Y-7766412D01*
X16016891Y-7794984D02*
X15921653Y-7794984D01*
X15921653Y-7794984D02*
X15912129Y-7890222D01*
X15912129Y-7890222D02*
X15921653Y-7880698D01*
X15921653Y-7880698D02*
X15940701Y-7871174D01*
X15940701Y-7871174D02*
X15988320Y-7871174D01*
X15988320Y-7871174D02*
X16007368Y-7880698D01*
X16007368Y-7880698D02*
X16016891Y-7890222D01*
X16016891Y-7890222D02*
X16026415Y-7909269D01*
X16026415Y-7909269D02*
X16026415Y-7956888D01*
X16026415Y-7956888D02*
X16016891Y-7975936D01*
X16016891Y-7975936D02*
X16007368Y-7985460D01*
X16007368Y-7985460D02*
X15988320Y-7994984D01*
X15988320Y-7994984D02*
X15940701Y-7994984D01*
X15940701Y-7994984D02*
X15921653Y-7985460D01*
X15921653Y-7985460D02*
X15912129Y-7975936D01*
X16150225Y-7794984D02*
X16169272Y-7794984D01*
X16169272Y-7794984D02*
X16188320Y-7804508D01*
X16188320Y-7804508D02*
X16197844Y-7814031D01*
X16197844Y-7814031D02*
X16207368Y-7833079D01*
X16207368Y-7833079D02*
X16216891Y-7871174D01*
X16216891Y-7871174D02*
X16216891Y-7918793D01*
X16216891Y-7918793D02*
X16207368Y-7956888D01*
X16207368Y-7956888D02*
X16197844Y-7975936D01*
X16197844Y-7975936D02*
X16188320Y-7985460D01*
X16188320Y-7985460D02*
X16169272Y-7994984D01*
X16169272Y-7994984D02*
X16150225Y-7994984D01*
X16150225Y-7994984D02*
X16131177Y-7985460D01*
X16131177Y-7985460D02*
X16121653Y-7975936D01*
X16121653Y-7975936D02*
X16112129Y-7956888D01*
X16112129Y-7956888D02*
X16102606Y-7918793D01*
X16102606Y-7918793D02*
X16102606Y-7871174D01*
X16102606Y-7871174D02*
X16112129Y-7833079D01*
X16112129Y-7833079D02*
X16121653Y-7814031D01*
X16121653Y-7814031D02*
X16131177Y-7804508D01*
X16131177Y-7804508D02*
X16150225Y-7794984D01*
X16454987Y-7994984D02*
X16454987Y-7794984D01*
X16540701Y-7994984D02*
X16540701Y-7890222D01*
X16540701Y-7890222D02*
X16531177Y-7871174D01*
X16531177Y-7871174D02*
X16512130Y-7861650D01*
X16512130Y-7861650D02*
X16483558Y-7861650D01*
X16483558Y-7861650D02*
X16464510Y-7871174D01*
X16464510Y-7871174D02*
X16454987Y-7880698D01*
X16664510Y-7994984D02*
X16645463Y-7985460D01*
X16645463Y-7985460D02*
X16635939Y-7975936D01*
X16635939Y-7975936D02*
X16626415Y-7956888D01*
X16626415Y-7956888D02*
X16626415Y-7899746D01*
X16626415Y-7899746D02*
X16635939Y-7880698D01*
X16635939Y-7880698D02*
X16645463Y-7871174D01*
X16645463Y-7871174D02*
X16664510Y-7861650D01*
X16664510Y-7861650D02*
X16693082Y-7861650D01*
X16693082Y-7861650D02*
X16712130Y-7871174D01*
X16712130Y-7871174D02*
X16721653Y-7880698D01*
X16721653Y-7880698D02*
X16731177Y-7899746D01*
X16731177Y-7899746D02*
X16731177Y-7956888D01*
X16731177Y-7956888D02*
X16721653Y-7975936D01*
X16721653Y-7975936D02*
X16712130Y-7985460D01*
X16712130Y-7985460D02*
X16693082Y-7994984D01*
X16693082Y-7994984D02*
X16664510Y-7994984D01*
X16845463Y-7994984D02*
X16826415Y-7985460D01*
X16826415Y-7985460D02*
X16816892Y-7966412D01*
X16816892Y-7966412D02*
X16816892Y-7794984D01*
X16997844Y-7985460D02*
X16978796Y-7994984D01*
X16978796Y-7994984D02*
X16940701Y-7994984D01*
X16940701Y-7994984D02*
X16921653Y-7985460D01*
X16921653Y-7985460D02*
X16912130Y-7966412D01*
X16912130Y-7966412D02*
X16912130Y-7890222D01*
X16912130Y-7890222D02*
X16921653Y-7871174D01*
X16921653Y-7871174D02*
X16940701Y-7861650D01*
X16940701Y-7861650D02*
X16978796Y-7861650D01*
X16978796Y-7861650D02*
X16997844Y-7871174D01*
X16997844Y-7871174D02*
X17007368Y-7890222D01*
X17007368Y-7890222D02*
X17007368Y-7909269D01*
X17007368Y-7909269D02*
X16912130Y-7928317D01*
X17083558Y-7985460D02*
X17102606Y-7994984D01*
X17102606Y-7994984D02*
X17140701Y-7994984D01*
X17140701Y-7994984D02*
X17159749Y-7985460D01*
X17159749Y-7985460D02*
X17169273Y-7966412D01*
X17169273Y-7966412D02*
X17169273Y-7956888D01*
X17169273Y-7956888D02*
X17159749Y-7937841D01*
X17159749Y-7937841D02*
X17140701Y-7928317D01*
X17140701Y-7928317D02*
X17112130Y-7928317D01*
X17112130Y-7928317D02*
X17093082Y-7918793D01*
X17093082Y-7918793D02*
X17083558Y-7899746D01*
X17083558Y-7899746D02*
X17083558Y-7890222D01*
X17083558Y-7890222D02*
X17093082Y-7871174D01*
X17093082Y-7871174D02*
X17112130Y-7861650D01*
X17112130Y-7861650D02*
X17140701Y-7861650D01*
X17140701Y-7861650D02*
X17159749Y-7871174D01*
X17235939Y-8071174D02*
X17245463Y-8061650D01*
X17245463Y-8061650D02*
X17264511Y-8033079D01*
X17264511Y-8033079D02*
X17274034Y-8014031D01*
X17274034Y-8014031D02*
X17283558Y-7985460D01*
X17283558Y-7985460D02*
X17293082Y-7937841D01*
X17293082Y-7937841D02*
X17293082Y-7899746D01*
X17293082Y-7899746D02*
X17283558Y-7852127D01*
X17283558Y-7852127D02*
X17274034Y-7823555D01*
X17274034Y-7823555D02*
X17264511Y-7804508D01*
X17264511Y-7804508D02*
X17245463Y-7775936D01*
X17245463Y-7775936D02*
X17235939Y-7766412D01*
D17*
X12160400Y-8112500D02*
X12270400Y-8222500D01*
X12270400Y-8112500D02*
X12160400Y-8222500D01*
X12270400Y-8167500D02*
G75*
G03*
X12270400Y-8167500I-55000J0D01*
G01*
D11*
X12635939Y-8258984D02*
X12521653Y-8258984D01*
X12578796Y-8258984D02*
X12578796Y-8058984D01*
X12578796Y-8058984D02*
X12559748Y-8087555D01*
X12559748Y-8087555D02*
X12540701Y-8106603D01*
X12540701Y-8106603D02*
X12521653Y-8116127D01*
X12721653Y-8239936D02*
X12731177Y-8249460D01*
X12731177Y-8249460D02*
X12721653Y-8258984D01*
X12721653Y-8258984D02*
X12712129Y-8249460D01*
X12712129Y-8249460D02*
X12721653Y-8239936D01*
X12721653Y-8239936D02*
X12721653Y-8258984D01*
X12921653Y-8258984D02*
X12807367Y-8258984D01*
X12864510Y-8258984D02*
X12864510Y-8058984D01*
X12864510Y-8058984D02*
X12845462Y-8087555D01*
X12845462Y-8087555D02*
X12826415Y-8106603D01*
X12826415Y-8106603D02*
X12807367Y-8116127D01*
X13045462Y-8058984D02*
X13064510Y-8058984D01*
X13064510Y-8058984D02*
X13083558Y-8068508D01*
X13083558Y-8068508D02*
X13093082Y-8078031D01*
X13093082Y-8078031D02*
X13102605Y-8097079D01*
X13102605Y-8097079D02*
X13112129Y-8135174D01*
X13112129Y-8135174D02*
X13112129Y-8182793D01*
X13112129Y-8182793D02*
X13102605Y-8220888D01*
X13102605Y-8220888D02*
X13093082Y-8239936D01*
X13093082Y-8239936D02*
X13083558Y-8249460D01*
X13083558Y-8249460D02*
X13064510Y-8258984D01*
X13064510Y-8258984D02*
X13045462Y-8258984D01*
X13045462Y-8258984D02*
X13026415Y-8249460D01*
X13026415Y-8249460D02*
X13016891Y-8239936D01*
X13016891Y-8239936D02*
X13007367Y-8220888D01*
X13007367Y-8220888D02*
X12997843Y-8182793D01*
X12997843Y-8182793D02*
X12997843Y-8135174D01*
X12997843Y-8135174D02*
X13007367Y-8097079D01*
X13007367Y-8097079D02*
X13016891Y-8078031D01*
X13016891Y-8078031D02*
X13026415Y-8068508D01*
X13026415Y-8068508D02*
X13045462Y-8058984D01*
X13235939Y-8058984D02*
X13254986Y-8058984D01*
X13254986Y-8058984D02*
X13274034Y-8068508D01*
X13274034Y-8068508D02*
X13283558Y-8078031D01*
X13283558Y-8078031D02*
X13293082Y-8097079D01*
X13293082Y-8097079D02*
X13302605Y-8135174D01*
X13302605Y-8135174D02*
X13302605Y-8182793D01*
X13302605Y-8182793D02*
X13293082Y-8220888D01*
X13293082Y-8220888D02*
X13283558Y-8239936D01*
X13283558Y-8239936D02*
X13274034Y-8249460D01*
X13274034Y-8249460D02*
X13254986Y-8258984D01*
X13254986Y-8258984D02*
X13235939Y-8258984D01*
X13235939Y-8258984D02*
X13216891Y-8249460D01*
X13216891Y-8249460D02*
X13207367Y-8239936D01*
X13207367Y-8239936D02*
X13197843Y-8220888D01*
X13197843Y-8220888D02*
X13188320Y-8182793D01*
X13188320Y-8182793D02*
X13188320Y-8135174D01*
X13188320Y-8135174D02*
X13197843Y-8097079D01*
X13197843Y-8097079D02*
X13207367Y-8078031D01*
X13207367Y-8078031D02*
X13216891Y-8068508D01*
X13216891Y-8068508D02*
X13235939Y-8058984D01*
X13388320Y-8258984D02*
X13388320Y-8125650D01*
X13388320Y-8144698D02*
X13397843Y-8135174D01*
X13397843Y-8135174D02*
X13416891Y-8125650D01*
X13416891Y-8125650D02*
X13445463Y-8125650D01*
X13445463Y-8125650D02*
X13464510Y-8135174D01*
X13464510Y-8135174D02*
X13474034Y-8154222D01*
X13474034Y-8154222D02*
X13474034Y-8258984D01*
X13474034Y-8154222D02*
X13483558Y-8135174D01*
X13483558Y-8135174D02*
X13502605Y-8125650D01*
X13502605Y-8125650D02*
X13531177Y-8125650D01*
X13531177Y-8125650D02*
X13550224Y-8135174D01*
X13550224Y-8135174D02*
X13559748Y-8154222D01*
X13559748Y-8154222D02*
X13559748Y-8258984D01*
X13654986Y-8258984D02*
X13654986Y-8125650D01*
X13654986Y-8144698D02*
X13664510Y-8135174D01*
X13664510Y-8135174D02*
X13683558Y-8125650D01*
X13683558Y-8125650D02*
X13712129Y-8125650D01*
X13712129Y-8125650D02*
X13731177Y-8135174D01*
X13731177Y-8135174D02*
X13740701Y-8154222D01*
X13740701Y-8154222D02*
X13740701Y-8258984D01*
X13740701Y-8154222D02*
X13750224Y-8135174D01*
X13750224Y-8135174D02*
X13769272Y-8125650D01*
X13769272Y-8125650D02*
X13797843Y-8125650D01*
X13797843Y-8125650D02*
X13816891Y-8135174D01*
X13816891Y-8135174D02*
X13826415Y-8154222D01*
X13826415Y-8154222D02*
X13826415Y-8258984D01*
X14216891Y-8049460D02*
X14045463Y-8306603D01*
X14474034Y-8058984D02*
X14493082Y-8058984D01*
X14493082Y-8058984D02*
X14512129Y-8068508D01*
X14512129Y-8068508D02*
X14521653Y-8078031D01*
X14521653Y-8078031D02*
X14531177Y-8097079D01*
X14531177Y-8097079D02*
X14540701Y-8135174D01*
X14540701Y-8135174D02*
X14540701Y-8182793D01*
X14540701Y-8182793D02*
X14531177Y-8220888D01*
X14531177Y-8220888D02*
X14521653Y-8239936D01*
X14521653Y-8239936D02*
X14512129Y-8249460D01*
X14512129Y-8249460D02*
X14493082Y-8258984D01*
X14493082Y-8258984D02*
X14474034Y-8258984D01*
X14474034Y-8258984D02*
X14454986Y-8249460D01*
X14454986Y-8249460D02*
X14445463Y-8239936D01*
X14445463Y-8239936D02*
X14435939Y-8220888D01*
X14435939Y-8220888D02*
X14426415Y-8182793D01*
X14426415Y-8182793D02*
X14426415Y-8135174D01*
X14426415Y-8135174D02*
X14435939Y-8097079D01*
X14435939Y-8097079D02*
X14445463Y-8078031D01*
X14445463Y-8078031D02*
X14454986Y-8068508D01*
X14454986Y-8068508D02*
X14474034Y-8058984D01*
X14626415Y-8239936D02*
X14635939Y-8249460D01*
X14635939Y-8249460D02*
X14626415Y-8258984D01*
X14626415Y-8258984D02*
X14616891Y-8249460D01*
X14616891Y-8249460D02*
X14626415Y-8239936D01*
X14626415Y-8239936D02*
X14626415Y-8258984D01*
X14759748Y-8058984D02*
X14778796Y-8058984D01*
X14778796Y-8058984D02*
X14797844Y-8068508D01*
X14797844Y-8068508D02*
X14807367Y-8078031D01*
X14807367Y-8078031D02*
X14816891Y-8097079D01*
X14816891Y-8097079D02*
X14826415Y-8135174D01*
X14826415Y-8135174D02*
X14826415Y-8182793D01*
X14826415Y-8182793D02*
X14816891Y-8220888D01*
X14816891Y-8220888D02*
X14807367Y-8239936D01*
X14807367Y-8239936D02*
X14797844Y-8249460D01*
X14797844Y-8249460D02*
X14778796Y-8258984D01*
X14778796Y-8258984D02*
X14759748Y-8258984D01*
X14759748Y-8258984D02*
X14740701Y-8249460D01*
X14740701Y-8249460D02*
X14731177Y-8239936D01*
X14731177Y-8239936D02*
X14721653Y-8220888D01*
X14721653Y-8220888D02*
X14712129Y-8182793D01*
X14712129Y-8182793D02*
X14712129Y-8135174D01*
X14712129Y-8135174D02*
X14721653Y-8097079D01*
X14721653Y-8097079D02*
X14731177Y-8078031D01*
X14731177Y-8078031D02*
X14740701Y-8068508D01*
X14740701Y-8068508D02*
X14759748Y-8058984D01*
X14997844Y-8125650D02*
X14997844Y-8258984D01*
X14950225Y-8049460D02*
X14902606Y-8192317D01*
X14902606Y-8192317D02*
X15026415Y-8192317D01*
X15083558Y-8058984D02*
X15207367Y-8058984D01*
X15207367Y-8058984D02*
X15140701Y-8135174D01*
X15140701Y-8135174D02*
X15169272Y-8135174D01*
X15169272Y-8135174D02*
X15188320Y-8144698D01*
X15188320Y-8144698D02*
X15197844Y-8154222D01*
X15197844Y-8154222D02*
X15207367Y-8173269D01*
X15207367Y-8173269D02*
X15207367Y-8220888D01*
X15207367Y-8220888D02*
X15197844Y-8239936D01*
X15197844Y-8239936D02*
X15188320Y-8249460D01*
X15188320Y-8249460D02*
X15169272Y-8258984D01*
X15169272Y-8258984D02*
X15112129Y-8258984D01*
X15112129Y-8258984D02*
X15093082Y-8249460D01*
X15093082Y-8249460D02*
X15083558Y-8239936D01*
X15274034Y-8058984D02*
X15397844Y-8058984D01*
X15397844Y-8058984D02*
X15331177Y-8135174D01*
X15331177Y-8135174D02*
X15359748Y-8135174D01*
X15359748Y-8135174D02*
X15378796Y-8144698D01*
X15378796Y-8144698D02*
X15388320Y-8154222D01*
X15388320Y-8154222D02*
X15397844Y-8173269D01*
X15397844Y-8173269D02*
X15397844Y-8220888D01*
X15397844Y-8220888D02*
X15388320Y-8239936D01*
X15388320Y-8239936D02*
X15378796Y-8249460D01*
X15378796Y-8249460D02*
X15359748Y-8258984D01*
X15359748Y-8258984D02*
X15302606Y-8258984D01*
X15302606Y-8258984D02*
X15283558Y-8249460D01*
X15283558Y-8249460D02*
X15274034Y-8239936D01*
X15474034Y-8058984D02*
X15474034Y-8097079D01*
X15550225Y-8058984D02*
X15550225Y-8097079D01*
X15845463Y-8335174D02*
X15835939Y-8325650D01*
X15835939Y-8325650D02*
X15816891Y-8297079D01*
X15816891Y-8297079D02*
X15807368Y-8278031D01*
X15807368Y-8278031D02*
X15797844Y-8249460D01*
X15797844Y-8249460D02*
X15788320Y-8201841D01*
X15788320Y-8201841D02*
X15788320Y-8163746D01*
X15788320Y-8163746D02*
X15797844Y-8116127D01*
X15797844Y-8116127D02*
X15807368Y-8087555D01*
X15807368Y-8087555D02*
X15816891Y-8068508D01*
X15816891Y-8068508D02*
X15835939Y-8039936D01*
X15835939Y-8039936D02*
X15845463Y-8030412D01*
X16016891Y-8058984D02*
X15921653Y-8058984D01*
X15921653Y-8058984D02*
X15912129Y-8154222D01*
X15912129Y-8154222D02*
X15921653Y-8144698D01*
X15921653Y-8144698D02*
X15940701Y-8135174D01*
X15940701Y-8135174D02*
X15988320Y-8135174D01*
X15988320Y-8135174D02*
X16007368Y-8144698D01*
X16007368Y-8144698D02*
X16016891Y-8154222D01*
X16016891Y-8154222D02*
X16026415Y-8173269D01*
X16026415Y-8173269D02*
X16026415Y-8220888D01*
X16026415Y-8220888D02*
X16016891Y-8239936D01*
X16016891Y-8239936D02*
X16007368Y-8249460D01*
X16007368Y-8249460D02*
X15988320Y-8258984D01*
X15988320Y-8258984D02*
X15940701Y-8258984D01*
X15940701Y-8258984D02*
X15921653Y-8249460D01*
X15921653Y-8249460D02*
X15912129Y-8239936D01*
X16264510Y-8258984D02*
X16264510Y-8058984D01*
X16350225Y-8258984D02*
X16350225Y-8154222D01*
X16350225Y-8154222D02*
X16340701Y-8135174D01*
X16340701Y-8135174D02*
X16321653Y-8125650D01*
X16321653Y-8125650D02*
X16293082Y-8125650D01*
X16293082Y-8125650D02*
X16274034Y-8135174D01*
X16274034Y-8135174D02*
X16264510Y-8144698D01*
X16474034Y-8258984D02*
X16454987Y-8249460D01*
X16454987Y-8249460D02*
X16445463Y-8239936D01*
X16445463Y-8239936D02*
X16435939Y-8220888D01*
X16435939Y-8220888D02*
X16435939Y-8163746D01*
X16435939Y-8163746D02*
X16445463Y-8144698D01*
X16445463Y-8144698D02*
X16454987Y-8135174D01*
X16454987Y-8135174D02*
X16474034Y-8125650D01*
X16474034Y-8125650D02*
X16502606Y-8125650D01*
X16502606Y-8125650D02*
X16521653Y-8135174D01*
X16521653Y-8135174D02*
X16531177Y-8144698D01*
X16531177Y-8144698D02*
X16540701Y-8163746D01*
X16540701Y-8163746D02*
X16540701Y-8220888D01*
X16540701Y-8220888D02*
X16531177Y-8239936D01*
X16531177Y-8239936D02*
X16521653Y-8249460D01*
X16521653Y-8249460D02*
X16502606Y-8258984D01*
X16502606Y-8258984D02*
X16474034Y-8258984D01*
X16654987Y-8258984D02*
X16635939Y-8249460D01*
X16635939Y-8249460D02*
X16626415Y-8230412D01*
X16626415Y-8230412D02*
X16626415Y-8058984D01*
X16807368Y-8249460D02*
X16788320Y-8258984D01*
X16788320Y-8258984D02*
X16750225Y-8258984D01*
X16750225Y-8258984D02*
X16731177Y-8249460D01*
X16731177Y-8249460D02*
X16721653Y-8230412D01*
X16721653Y-8230412D02*
X16721653Y-8154222D01*
X16721653Y-8154222D02*
X16731177Y-8135174D01*
X16731177Y-8135174D02*
X16750225Y-8125650D01*
X16750225Y-8125650D02*
X16788320Y-8125650D01*
X16788320Y-8125650D02*
X16807368Y-8135174D01*
X16807368Y-8135174D02*
X16816892Y-8154222D01*
X16816892Y-8154222D02*
X16816892Y-8173269D01*
X16816892Y-8173269D02*
X16721653Y-8192317D01*
X16893082Y-8249460D02*
X16912130Y-8258984D01*
X16912130Y-8258984D02*
X16950225Y-8258984D01*
X16950225Y-8258984D02*
X16969273Y-8249460D01*
X16969273Y-8249460D02*
X16978796Y-8230412D01*
X16978796Y-8230412D02*
X16978796Y-8220888D01*
X16978796Y-8220888D02*
X16969273Y-8201841D01*
X16969273Y-8201841D02*
X16950225Y-8192317D01*
X16950225Y-8192317D02*
X16921653Y-8192317D01*
X16921653Y-8192317D02*
X16902606Y-8182793D01*
X16902606Y-8182793D02*
X16893082Y-8163746D01*
X16893082Y-8163746D02*
X16893082Y-8154222D01*
X16893082Y-8154222D02*
X16902606Y-8135174D01*
X16902606Y-8135174D02*
X16921653Y-8125650D01*
X16921653Y-8125650D02*
X16950225Y-8125650D01*
X16950225Y-8125650D02*
X16969273Y-8135174D01*
X17045463Y-8335174D02*
X17054987Y-8325650D01*
X17054987Y-8325650D02*
X17074034Y-8297079D01*
X17074034Y-8297079D02*
X17083558Y-8278031D01*
X17083558Y-8278031D02*
X17093082Y-8249460D01*
X17093082Y-8249460D02*
X17102606Y-8201841D01*
X17102606Y-8201841D02*
X17102606Y-8163746D01*
X17102606Y-8163746D02*
X17093082Y-8116127D01*
X17093082Y-8116127D02*
X17083558Y-8087555D01*
X17083558Y-8087555D02*
X17074034Y-8068508D01*
X17074034Y-8068508D02*
X17054987Y-8039936D01*
X17054987Y-8039936D02*
X17045463Y-8030412D01*
D18*
X12145940Y-8369270D02*
X12270400Y-8493730D01*
X12270400Y-8369270D02*
X12145940Y-8493730D01*
X12208170Y-8369270D02*
X12208170Y-8493730D01*
X12145940Y-8431500D02*
X12270400Y-8431500D01*
D11*
X12635939Y-8522984D02*
X12521653Y-8522984D01*
X12578796Y-8522984D02*
X12578796Y-8322984D01*
X12578796Y-8322984D02*
X12559748Y-8351555D01*
X12559748Y-8351555D02*
X12540701Y-8370603D01*
X12540701Y-8370603D02*
X12521653Y-8380127D01*
X12721653Y-8503936D02*
X12731177Y-8513460D01*
X12731177Y-8513460D02*
X12721653Y-8522984D01*
X12721653Y-8522984D02*
X12712129Y-8513460D01*
X12712129Y-8513460D02*
X12721653Y-8503936D01*
X12721653Y-8503936D02*
X12721653Y-8522984D01*
X12807367Y-8342031D02*
X12816891Y-8332508D01*
X12816891Y-8332508D02*
X12835939Y-8322984D01*
X12835939Y-8322984D02*
X12883558Y-8322984D01*
X12883558Y-8322984D02*
X12902605Y-8332508D01*
X12902605Y-8332508D02*
X12912129Y-8342031D01*
X12912129Y-8342031D02*
X12921653Y-8361079D01*
X12921653Y-8361079D02*
X12921653Y-8380127D01*
X12921653Y-8380127D02*
X12912129Y-8408698D01*
X12912129Y-8408698D02*
X12797843Y-8522984D01*
X12797843Y-8522984D02*
X12921653Y-8522984D01*
X13093082Y-8389650D02*
X13093082Y-8522984D01*
X13045462Y-8313460D02*
X12997843Y-8456317D01*
X12997843Y-8456317D02*
X13121653Y-8456317D01*
X13293082Y-8322984D02*
X13197843Y-8322984D01*
X13197843Y-8322984D02*
X13188320Y-8418222D01*
X13188320Y-8418222D02*
X13197843Y-8408698D01*
X13197843Y-8408698D02*
X13216891Y-8399174D01*
X13216891Y-8399174D02*
X13264510Y-8399174D01*
X13264510Y-8399174D02*
X13283558Y-8408698D01*
X13283558Y-8408698D02*
X13293082Y-8418222D01*
X13293082Y-8418222D02*
X13302605Y-8437270D01*
X13302605Y-8437270D02*
X13302605Y-8484889D01*
X13302605Y-8484889D02*
X13293082Y-8503936D01*
X13293082Y-8503936D02*
X13283558Y-8513460D01*
X13283558Y-8513460D02*
X13264510Y-8522984D01*
X13264510Y-8522984D02*
X13216891Y-8522984D01*
X13216891Y-8522984D02*
X13197843Y-8513460D01*
X13197843Y-8513460D02*
X13188320Y-8503936D01*
X13388320Y-8522984D02*
X13388320Y-8389650D01*
X13388320Y-8408698D02*
X13397843Y-8399174D01*
X13397843Y-8399174D02*
X13416891Y-8389650D01*
X13416891Y-8389650D02*
X13445463Y-8389650D01*
X13445463Y-8389650D02*
X13464510Y-8399174D01*
X13464510Y-8399174D02*
X13474034Y-8418222D01*
X13474034Y-8418222D02*
X13474034Y-8522984D01*
X13474034Y-8418222D02*
X13483558Y-8399174D01*
X13483558Y-8399174D02*
X13502605Y-8389650D01*
X13502605Y-8389650D02*
X13531177Y-8389650D01*
X13531177Y-8389650D02*
X13550224Y-8399174D01*
X13550224Y-8399174D02*
X13559748Y-8418222D01*
X13559748Y-8418222D02*
X13559748Y-8522984D01*
X13654986Y-8522984D02*
X13654986Y-8389650D01*
X13654986Y-8408698D02*
X13664510Y-8399174D01*
X13664510Y-8399174D02*
X13683558Y-8389650D01*
X13683558Y-8389650D02*
X13712129Y-8389650D01*
X13712129Y-8389650D02*
X13731177Y-8399174D01*
X13731177Y-8399174D02*
X13740701Y-8418222D01*
X13740701Y-8418222D02*
X13740701Y-8522984D01*
X13740701Y-8418222D02*
X13750224Y-8399174D01*
X13750224Y-8399174D02*
X13769272Y-8389650D01*
X13769272Y-8389650D02*
X13797843Y-8389650D01*
X13797843Y-8389650D02*
X13816891Y-8399174D01*
X13816891Y-8399174D02*
X13826415Y-8418222D01*
X13826415Y-8418222D02*
X13826415Y-8522984D01*
X14216891Y-8313460D02*
X14045463Y-8570603D01*
X14474034Y-8322984D02*
X14493082Y-8322984D01*
X14493082Y-8322984D02*
X14512129Y-8332508D01*
X14512129Y-8332508D02*
X14521653Y-8342031D01*
X14521653Y-8342031D02*
X14531177Y-8361079D01*
X14531177Y-8361079D02*
X14540701Y-8399174D01*
X14540701Y-8399174D02*
X14540701Y-8446793D01*
X14540701Y-8446793D02*
X14531177Y-8484889D01*
X14531177Y-8484889D02*
X14521653Y-8503936D01*
X14521653Y-8503936D02*
X14512129Y-8513460D01*
X14512129Y-8513460D02*
X14493082Y-8522984D01*
X14493082Y-8522984D02*
X14474034Y-8522984D01*
X14474034Y-8522984D02*
X14454986Y-8513460D01*
X14454986Y-8513460D02*
X14445463Y-8503936D01*
X14445463Y-8503936D02*
X14435939Y-8484889D01*
X14435939Y-8484889D02*
X14426415Y-8446793D01*
X14426415Y-8446793D02*
X14426415Y-8399174D01*
X14426415Y-8399174D02*
X14435939Y-8361079D01*
X14435939Y-8361079D02*
X14445463Y-8342031D01*
X14445463Y-8342031D02*
X14454986Y-8332508D01*
X14454986Y-8332508D02*
X14474034Y-8322984D01*
X14626415Y-8503936D02*
X14635939Y-8513460D01*
X14635939Y-8513460D02*
X14626415Y-8522984D01*
X14626415Y-8522984D02*
X14616891Y-8513460D01*
X14616891Y-8513460D02*
X14626415Y-8503936D01*
X14626415Y-8503936D02*
X14626415Y-8522984D01*
X14759748Y-8322984D02*
X14778796Y-8322984D01*
X14778796Y-8322984D02*
X14797844Y-8332508D01*
X14797844Y-8332508D02*
X14807367Y-8342031D01*
X14807367Y-8342031D02*
X14816891Y-8361079D01*
X14816891Y-8361079D02*
X14826415Y-8399174D01*
X14826415Y-8399174D02*
X14826415Y-8446793D01*
X14826415Y-8446793D02*
X14816891Y-8484889D01*
X14816891Y-8484889D02*
X14807367Y-8503936D01*
X14807367Y-8503936D02*
X14797844Y-8513460D01*
X14797844Y-8513460D02*
X14778796Y-8522984D01*
X14778796Y-8522984D02*
X14759748Y-8522984D01*
X14759748Y-8522984D02*
X14740701Y-8513460D01*
X14740701Y-8513460D02*
X14731177Y-8503936D01*
X14731177Y-8503936D02*
X14721653Y-8484889D01*
X14721653Y-8484889D02*
X14712129Y-8446793D01*
X14712129Y-8446793D02*
X14712129Y-8399174D01*
X14712129Y-8399174D02*
X14721653Y-8361079D01*
X14721653Y-8361079D02*
X14731177Y-8342031D01*
X14731177Y-8342031D02*
X14740701Y-8332508D01*
X14740701Y-8332508D02*
X14759748Y-8322984D01*
X14997844Y-8389650D02*
X14997844Y-8522984D01*
X14950225Y-8313460D02*
X14902606Y-8456317D01*
X14902606Y-8456317D02*
X15026415Y-8456317D01*
X15112129Y-8522984D02*
X15150225Y-8522984D01*
X15150225Y-8522984D02*
X15169272Y-8513460D01*
X15169272Y-8513460D02*
X15178796Y-8503936D01*
X15178796Y-8503936D02*
X15197844Y-8475365D01*
X15197844Y-8475365D02*
X15207367Y-8437270D01*
X15207367Y-8437270D02*
X15207367Y-8361079D01*
X15207367Y-8361079D02*
X15197844Y-8342031D01*
X15197844Y-8342031D02*
X15188320Y-8332508D01*
X15188320Y-8332508D02*
X15169272Y-8322984D01*
X15169272Y-8322984D02*
X15131177Y-8322984D01*
X15131177Y-8322984D02*
X15112129Y-8332508D01*
X15112129Y-8332508D02*
X15102606Y-8342031D01*
X15102606Y-8342031D02*
X15093082Y-8361079D01*
X15093082Y-8361079D02*
X15093082Y-8408698D01*
X15093082Y-8408698D02*
X15102606Y-8427746D01*
X15102606Y-8427746D02*
X15112129Y-8437270D01*
X15112129Y-8437270D02*
X15131177Y-8446793D01*
X15131177Y-8446793D02*
X15169272Y-8446793D01*
X15169272Y-8446793D02*
X15188320Y-8437270D01*
X15188320Y-8437270D02*
X15197844Y-8427746D01*
X15197844Y-8427746D02*
X15207367Y-8408698D01*
X15331177Y-8322984D02*
X15350225Y-8322984D01*
X15350225Y-8322984D02*
X15369272Y-8332508D01*
X15369272Y-8332508D02*
X15378796Y-8342031D01*
X15378796Y-8342031D02*
X15388320Y-8361079D01*
X15388320Y-8361079D02*
X15397844Y-8399174D01*
X15397844Y-8399174D02*
X15397844Y-8446793D01*
X15397844Y-8446793D02*
X15388320Y-8484889D01*
X15388320Y-8484889D02*
X15378796Y-8503936D01*
X15378796Y-8503936D02*
X15369272Y-8513460D01*
X15369272Y-8513460D02*
X15350225Y-8522984D01*
X15350225Y-8522984D02*
X15331177Y-8522984D01*
X15331177Y-8522984D02*
X15312129Y-8513460D01*
X15312129Y-8513460D02*
X15302606Y-8503936D01*
X15302606Y-8503936D02*
X15293082Y-8484889D01*
X15293082Y-8484889D02*
X15283558Y-8446793D01*
X15283558Y-8446793D02*
X15283558Y-8399174D01*
X15283558Y-8399174D02*
X15293082Y-8361079D01*
X15293082Y-8361079D02*
X15302606Y-8342031D01*
X15302606Y-8342031D02*
X15312129Y-8332508D01*
X15312129Y-8332508D02*
X15331177Y-8322984D01*
X15474034Y-8322984D02*
X15474034Y-8361079D01*
X15550225Y-8322984D02*
X15550225Y-8361079D01*
X15845463Y-8599174D02*
X15835939Y-8589650D01*
X15835939Y-8589650D02*
X15816891Y-8561079D01*
X15816891Y-8561079D02*
X15807368Y-8542031D01*
X15807368Y-8542031D02*
X15797844Y-8513460D01*
X15797844Y-8513460D02*
X15788320Y-8465841D01*
X15788320Y-8465841D02*
X15788320Y-8427746D01*
X15788320Y-8427746D02*
X15797844Y-8380127D01*
X15797844Y-8380127D02*
X15807368Y-8351555D01*
X15807368Y-8351555D02*
X15816891Y-8332508D01*
X15816891Y-8332508D02*
X15835939Y-8303936D01*
X15835939Y-8303936D02*
X15845463Y-8294412D01*
X16026415Y-8522984D02*
X15912129Y-8522984D01*
X15969272Y-8522984D02*
X15969272Y-8322984D01*
X15969272Y-8322984D02*
X15950225Y-8351555D01*
X15950225Y-8351555D02*
X15931177Y-8370603D01*
X15931177Y-8370603D02*
X15912129Y-8380127D01*
X16197844Y-8322984D02*
X16159748Y-8322984D01*
X16159748Y-8322984D02*
X16140701Y-8332508D01*
X16140701Y-8332508D02*
X16131177Y-8342031D01*
X16131177Y-8342031D02*
X16112129Y-8370603D01*
X16112129Y-8370603D02*
X16102606Y-8408698D01*
X16102606Y-8408698D02*
X16102606Y-8484889D01*
X16102606Y-8484889D02*
X16112129Y-8503936D01*
X16112129Y-8503936D02*
X16121653Y-8513460D01*
X16121653Y-8513460D02*
X16140701Y-8522984D01*
X16140701Y-8522984D02*
X16178796Y-8522984D01*
X16178796Y-8522984D02*
X16197844Y-8513460D01*
X16197844Y-8513460D02*
X16207368Y-8503936D01*
X16207368Y-8503936D02*
X16216891Y-8484889D01*
X16216891Y-8484889D02*
X16216891Y-8437270D01*
X16216891Y-8437270D02*
X16207368Y-8418222D01*
X16207368Y-8418222D02*
X16197844Y-8408698D01*
X16197844Y-8408698D02*
X16178796Y-8399174D01*
X16178796Y-8399174D02*
X16140701Y-8399174D01*
X16140701Y-8399174D02*
X16121653Y-8408698D01*
X16121653Y-8408698D02*
X16112129Y-8418222D01*
X16112129Y-8418222D02*
X16102606Y-8437270D01*
X16454987Y-8522984D02*
X16454987Y-8322984D01*
X16540701Y-8522984D02*
X16540701Y-8418222D01*
X16540701Y-8418222D02*
X16531177Y-8399174D01*
X16531177Y-8399174D02*
X16512130Y-8389650D01*
X16512130Y-8389650D02*
X16483558Y-8389650D01*
X16483558Y-8389650D02*
X16464510Y-8399174D01*
X16464510Y-8399174D02*
X16454987Y-8408698D01*
X16664510Y-8522984D02*
X16645463Y-8513460D01*
X16645463Y-8513460D02*
X16635939Y-8503936D01*
X16635939Y-8503936D02*
X16626415Y-8484889D01*
X16626415Y-8484889D02*
X16626415Y-8427746D01*
X16626415Y-8427746D02*
X16635939Y-8408698D01*
X16635939Y-8408698D02*
X16645463Y-8399174D01*
X16645463Y-8399174D02*
X16664510Y-8389650D01*
X16664510Y-8389650D02*
X16693082Y-8389650D01*
X16693082Y-8389650D02*
X16712130Y-8399174D01*
X16712130Y-8399174D02*
X16721653Y-8408698D01*
X16721653Y-8408698D02*
X16731177Y-8427746D01*
X16731177Y-8427746D02*
X16731177Y-8484889D01*
X16731177Y-8484889D02*
X16721653Y-8503936D01*
X16721653Y-8503936D02*
X16712130Y-8513460D01*
X16712130Y-8513460D02*
X16693082Y-8522984D01*
X16693082Y-8522984D02*
X16664510Y-8522984D01*
X16845463Y-8522984D02*
X16826415Y-8513460D01*
X16826415Y-8513460D02*
X16816892Y-8494412D01*
X16816892Y-8494412D02*
X16816892Y-8322984D01*
X16997844Y-8513460D02*
X16978796Y-8522984D01*
X16978796Y-8522984D02*
X16940701Y-8522984D01*
X16940701Y-8522984D02*
X16921653Y-8513460D01*
X16921653Y-8513460D02*
X16912130Y-8494412D01*
X16912130Y-8494412D02*
X16912130Y-8418222D01*
X16912130Y-8418222D02*
X16921653Y-8399174D01*
X16921653Y-8399174D02*
X16940701Y-8389650D01*
X16940701Y-8389650D02*
X16978796Y-8389650D01*
X16978796Y-8389650D02*
X16997844Y-8399174D01*
X16997844Y-8399174D02*
X17007368Y-8418222D01*
X17007368Y-8418222D02*
X17007368Y-8437270D01*
X17007368Y-8437270D02*
X16912130Y-8456317D01*
X17083558Y-8513460D02*
X17102606Y-8522984D01*
X17102606Y-8522984D02*
X17140701Y-8522984D01*
X17140701Y-8522984D02*
X17159749Y-8513460D01*
X17159749Y-8513460D02*
X17169273Y-8494412D01*
X17169273Y-8494412D02*
X17169273Y-8484889D01*
X17169273Y-8484889D02*
X17159749Y-8465841D01*
X17159749Y-8465841D02*
X17140701Y-8456317D01*
X17140701Y-8456317D02*
X17112130Y-8456317D01*
X17112130Y-8456317D02*
X17093082Y-8446793D01*
X17093082Y-8446793D02*
X17083558Y-8427746D01*
X17083558Y-8427746D02*
X17083558Y-8418222D01*
X17083558Y-8418222D02*
X17093082Y-8399174D01*
X17093082Y-8399174D02*
X17112130Y-8389650D01*
X17112130Y-8389650D02*
X17140701Y-8389650D01*
X17140701Y-8389650D02*
X17159749Y-8399174D01*
X17235939Y-8599174D02*
X17245463Y-8589650D01*
X17245463Y-8589650D02*
X17264511Y-8561079D01*
X17264511Y-8561079D02*
X17274034Y-8542031D01*
X17274034Y-8542031D02*
X17283558Y-8513460D01*
X17283558Y-8513460D02*
X17293082Y-8465841D01*
X17293082Y-8465841D02*
X17293082Y-8427746D01*
X17293082Y-8427746D02*
X17283558Y-8380127D01*
X17283558Y-8380127D02*
X17274034Y-8351555D01*
X17274034Y-8351555D02*
X17264511Y-8332508D01*
X17264511Y-8332508D02*
X17245463Y-8303936D01*
X17245463Y-8303936D02*
X17235939Y-8294412D01*
X12070400Y-8595500D02*
X12270400Y-8795500D01*
X12270400Y-8595500D02*
X12070400Y-8795500D01*
X12241111Y-8766211D02*
X12241111Y-8624789D01*
X12099689Y-8624789D01*
X12099689Y-8766211D01*
X12241111Y-8766211D01*
X12521653Y-8606031D02*
X12531177Y-8596508D01*
X12531177Y-8596508D02*
X12550224Y-8586984D01*
X12550224Y-8586984D02*
X12597843Y-8586984D01*
X12597843Y-8586984D02*
X12616891Y-8596508D01*
X12616891Y-8596508D02*
X12626415Y-8606031D01*
X12626415Y-8606031D02*
X12635939Y-8625079D01*
X12635939Y-8625079D02*
X12635939Y-8644127D01*
X12635939Y-8644127D02*
X12626415Y-8672698D01*
X12626415Y-8672698D02*
X12512129Y-8786984D01*
X12512129Y-8786984D02*
X12635939Y-8786984D01*
X12721653Y-8767936D02*
X12731177Y-8777460D01*
X12731177Y-8777460D02*
X12721653Y-8786984D01*
X12721653Y-8786984D02*
X12712129Y-8777460D01*
X12712129Y-8777460D02*
X12721653Y-8767936D01*
X12721653Y-8767936D02*
X12721653Y-8786984D01*
X12797843Y-8586984D02*
X12931177Y-8586984D01*
X12931177Y-8586984D02*
X12845462Y-8786984D01*
X13045462Y-8586984D02*
X13064510Y-8586984D01*
X13064510Y-8586984D02*
X13083558Y-8596508D01*
X13083558Y-8596508D02*
X13093082Y-8606031D01*
X13093082Y-8606031D02*
X13102605Y-8625079D01*
X13102605Y-8625079D02*
X13112129Y-8663174D01*
X13112129Y-8663174D02*
X13112129Y-8710793D01*
X13112129Y-8710793D02*
X13102605Y-8748889D01*
X13102605Y-8748889D02*
X13093082Y-8767936D01*
X13093082Y-8767936D02*
X13083558Y-8777460D01*
X13083558Y-8777460D02*
X13064510Y-8786984D01*
X13064510Y-8786984D02*
X13045462Y-8786984D01*
X13045462Y-8786984D02*
X13026415Y-8777460D01*
X13026415Y-8777460D02*
X13016891Y-8767936D01*
X13016891Y-8767936D02*
X13007367Y-8748889D01*
X13007367Y-8748889D02*
X12997843Y-8710793D01*
X12997843Y-8710793D02*
X12997843Y-8663174D01*
X12997843Y-8663174D02*
X13007367Y-8625079D01*
X13007367Y-8625079D02*
X13016891Y-8606031D01*
X13016891Y-8606031D02*
X13026415Y-8596508D01*
X13026415Y-8596508D02*
X13045462Y-8586984D01*
X13235939Y-8586984D02*
X13254986Y-8586984D01*
X13254986Y-8586984D02*
X13274034Y-8596508D01*
X13274034Y-8596508D02*
X13283558Y-8606031D01*
X13283558Y-8606031D02*
X13293082Y-8625079D01*
X13293082Y-8625079D02*
X13302605Y-8663174D01*
X13302605Y-8663174D02*
X13302605Y-8710793D01*
X13302605Y-8710793D02*
X13293082Y-8748889D01*
X13293082Y-8748889D02*
X13283558Y-8767936D01*
X13283558Y-8767936D02*
X13274034Y-8777460D01*
X13274034Y-8777460D02*
X13254986Y-8786984D01*
X13254986Y-8786984D02*
X13235939Y-8786984D01*
X13235939Y-8786984D02*
X13216891Y-8777460D01*
X13216891Y-8777460D02*
X13207367Y-8767936D01*
X13207367Y-8767936D02*
X13197843Y-8748889D01*
X13197843Y-8748889D02*
X13188320Y-8710793D01*
X13188320Y-8710793D02*
X13188320Y-8663174D01*
X13188320Y-8663174D02*
X13197843Y-8625079D01*
X13197843Y-8625079D02*
X13207367Y-8606031D01*
X13207367Y-8606031D02*
X13216891Y-8596508D01*
X13216891Y-8596508D02*
X13235939Y-8586984D01*
X13388320Y-8786984D02*
X13388320Y-8653650D01*
X13388320Y-8672698D02*
X13397843Y-8663174D01*
X13397843Y-8663174D02*
X13416891Y-8653650D01*
X13416891Y-8653650D02*
X13445463Y-8653650D01*
X13445463Y-8653650D02*
X13464510Y-8663174D01*
X13464510Y-8663174D02*
X13474034Y-8682222D01*
X13474034Y-8682222D02*
X13474034Y-8786984D01*
X13474034Y-8682222D02*
X13483558Y-8663174D01*
X13483558Y-8663174D02*
X13502605Y-8653650D01*
X13502605Y-8653650D02*
X13531177Y-8653650D01*
X13531177Y-8653650D02*
X13550224Y-8663174D01*
X13550224Y-8663174D02*
X13559748Y-8682222D01*
X13559748Y-8682222D02*
X13559748Y-8786984D01*
X13654986Y-8786984D02*
X13654986Y-8653650D01*
X13654986Y-8672698D02*
X13664510Y-8663174D01*
X13664510Y-8663174D02*
X13683558Y-8653650D01*
X13683558Y-8653650D02*
X13712129Y-8653650D01*
X13712129Y-8653650D02*
X13731177Y-8663174D01*
X13731177Y-8663174D02*
X13740701Y-8682222D01*
X13740701Y-8682222D02*
X13740701Y-8786984D01*
X13740701Y-8682222D02*
X13750224Y-8663174D01*
X13750224Y-8663174D02*
X13769272Y-8653650D01*
X13769272Y-8653650D02*
X13797843Y-8653650D01*
X13797843Y-8653650D02*
X13816891Y-8663174D01*
X13816891Y-8663174D02*
X13826415Y-8682222D01*
X13826415Y-8682222D02*
X13826415Y-8786984D01*
X14216891Y-8577460D02*
X14045463Y-8834603D01*
X14474034Y-8586984D02*
X14493082Y-8586984D01*
X14493082Y-8586984D02*
X14512129Y-8596508D01*
X14512129Y-8596508D02*
X14521653Y-8606031D01*
X14521653Y-8606031D02*
X14531177Y-8625079D01*
X14531177Y-8625079D02*
X14540701Y-8663174D01*
X14540701Y-8663174D02*
X14540701Y-8710793D01*
X14540701Y-8710793D02*
X14531177Y-8748889D01*
X14531177Y-8748889D02*
X14521653Y-8767936D01*
X14521653Y-8767936D02*
X14512129Y-8777460D01*
X14512129Y-8777460D02*
X14493082Y-8786984D01*
X14493082Y-8786984D02*
X14474034Y-8786984D01*
X14474034Y-8786984D02*
X14454986Y-8777460D01*
X14454986Y-8777460D02*
X14445463Y-8767936D01*
X14445463Y-8767936D02*
X14435939Y-8748889D01*
X14435939Y-8748889D02*
X14426415Y-8710793D01*
X14426415Y-8710793D02*
X14426415Y-8663174D01*
X14426415Y-8663174D02*
X14435939Y-8625079D01*
X14435939Y-8625079D02*
X14445463Y-8606031D01*
X14445463Y-8606031D02*
X14454986Y-8596508D01*
X14454986Y-8596508D02*
X14474034Y-8586984D01*
X14626415Y-8767936D02*
X14635939Y-8777460D01*
X14635939Y-8777460D02*
X14626415Y-8786984D01*
X14626415Y-8786984D02*
X14616891Y-8777460D01*
X14616891Y-8777460D02*
X14626415Y-8767936D01*
X14626415Y-8767936D02*
X14626415Y-8786984D01*
X14826415Y-8786984D02*
X14712129Y-8786984D01*
X14769272Y-8786984D02*
X14769272Y-8586984D01*
X14769272Y-8586984D02*
X14750225Y-8615555D01*
X14750225Y-8615555D02*
X14731177Y-8634603D01*
X14731177Y-8634603D02*
X14712129Y-8644127D01*
X14950225Y-8586984D02*
X14969272Y-8586984D01*
X14969272Y-8586984D02*
X14988320Y-8596508D01*
X14988320Y-8596508D02*
X14997844Y-8606031D01*
X14997844Y-8606031D02*
X15007367Y-8625079D01*
X15007367Y-8625079D02*
X15016891Y-8663174D01*
X15016891Y-8663174D02*
X15016891Y-8710793D01*
X15016891Y-8710793D02*
X15007367Y-8748889D01*
X15007367Y-8748889D02*
X14997844Y-8767936D01*
X14997844Y-8767936D02*
X14988320Y-8777460D01*
X14988320Y-8777460D02*
X14969272Y-8786984D01*
X14969272Y-8786984D02*
X14950225Y-8786984D01*
X14950225Y-8786984D02*
X14931177Y-8777460D01*
X14931177Y-8777460D02*
X14921653Y-8767936D01*
X14921653Y-8767936D02*
X14912129Y-8748889D01*
X14912129Y-8748889D02*
X14902606Y-8710793D01*
X14902606Y-8710793D02*
X14902606Y-8663174D01*
X14902606Y-8663174D02*
X14912129Y-8625079D01*
X14912129Y-8625079D02*
X14921653Y-8606031D01*
X14921653Y-8606031D02*
X14931177Y-8596508D01*
X14931177Y-8596508D02*
X14950225Y-8586984D01*
X15188320Y-8586984D02*
X15150225Y-8586984D01*
X15150225Y-8586984D02*
X15131177Y-8596508D01*
X15131177Y-8596508D02*
X15121653Y-8606031D01*
X15121653Y-8606031D02*
X15102606Y-8634603D01*
X15102606Y-8634603D02*
X15093082Y-8672698D01*
X15093082Y-8672698D02*
X15093082Y-8748889D01*
X15093082Y-8748889D02*
X15102606Y-8767936D01*
X15102606Y-8767936D02*
X15112129Y-8777460D01*
X15112129Y-8777460D02*
X15131177Y-8786984D01*
X15131177Y-8786984D02*
X15169272Y-8786984D01*
X15169272Y-8786984D02*
X15188320Y-8777460D01*
X15188320Y-8777460D02*
X15197844Y-8767936D01*
X15197844Y-8767936D02*
X15207367Y-8748889D01*
X15207367Y-8748889D02*
X15207367Y-8701270D01*
X15207367Y-8701270D02*
X15197844Y-8682222D01*
X15197844Y-8682222D02*
X15188320Y-8672698D01*
X15188320Y-8672698D02*
X15169272Y-8663174D01*
X15169272Y-8663174D02*
X15131177Y-8663174D01*
X15131177Y-8663174D02*
X15112129Y-8672698D01*
X15112129Y-8672698D02*
X15102606Y-8682222D01*
X15102606Y-8682222D02*
X15093082Y-8701270D01*
X15274034Y-8586984D02*
X15397844Y-8586984D01*
X15397844Y-8586984D02*
X15331177Y-8663174D01*
X15331177Y-8663174D02*
X15359748Y-8663174D01*
X15359748Y-8663174D02*
X15378796Y-8672698D01*
X15378796Y-8672698D02*
X15388320Y-8682222D01*
X15388320Y-8682222D02*
X15397844Y-8701270D01*
X15397844Y-8701270D02*
X15397844Y-8748889D01*
X15397844Y-8748889D02*
X15388320Y-8767936D01*
X15388320Y-8767936D02*
X15378796Y-8777460D01*
X15378796Y-8777460D02*
X15359748Y-8786984D01*
X15359748Y-8786984D02*
X15302606Y-8786984D01*
X15302606Y-8786984D02*
X15283558Y-8777460D01*
X15283558Y-8777460D02*
X15274034Y-8767936D01*
X15474034Y-8586984D02*
X15474034Y-8625079D01*
X15550225Y-8586984D02*
X15550225Y-8625079D01*
X15845463Y-8863174D02*
X15835939Y-8853650D01*
X15835939Y-8853650D02*
X15816891Y-8825079D01*
X15816891Y-8825079D02*
X15807368Y-8806031D01*
X15807368Y-8806031D02*
X15797844Y-8777460D01*
X15797844Y-8777460D02*
X15788320Y-8729841D01*
X15788320Y-8729841D02*
X15788320Y-8691746D01*
X15788320Y-8691746D02*
X15797844Y-8644127D01*
X15797844Y-8644127D02*
X15807368Y-8615555D01*
X15807368Y-8615555D02*
X15816891Y-8596508D01*
X15816891Y-8596508D02*
X15835939Y-8567936D01*
X15835939Y-8567936D02*
X15845463Y-8558412D01*
X15912129Y-8606031D02*
X15921653Y-8596508D01*
X15921653Y-8596508D02*
X15940701Y-8586984D01*
X15940701Y-8586984D02*
X15988320Y-8586984D01*
X15988320Y-8586984D02*
X16007368Y-8596508D01*
X16007368Y-8596508D02*
X16016891Y-8606031D01*
X16016891Y-8606031D02*
X16026415Y-8625079D01*
X16026415Y-8625079D02*
X16026415Y-8644127D01*
X16026415Y-8644127D02*
X16016891Y-8672698D01*
X16016891Y-8672698D02*
X15902606Y-8786984D01*
X15902606Y-8786984D02*
X16026415Y-8786984D01*
X16264510Y-8786984D02*
X16264510Y-8586984D01*
X16350225Y-8786984D02*
X16350225Y-8682222D01*
X16350225Y-8682222D02*
X16340701Y-8663174D01*
X16340701Y-8663174D02*
X16321653Y-8653650D01*
X16321653Y-8653650D02*
X16293082Y-8653650D01*
X16293082Y-8653650D02*
X16274034Y-8663174D01*
X16274034Y-8663174D02*
X16264510Y-8672698D01*
X16474034Y-8786984D02*
X16454987Y-8777460D01*
X16454987Y-8777460D02*
X16445463Y-8767936D01*
X16445463Y-8767936D02*
X16435939Y-8748889D01*
X16435939Y-8748889D02*
X16435939Y-8691746D01*
X16435939Y-8691746D02*
X16445463Y-8672698D01*
X16445463Y-8672698D02*
X16454987Y-8663174D01*
X16454987Y-8663174D02*
X16474034Y-8653650D01*
X16474034Y-8653650D02*
X16502606Y-8653650D01*
X16502606Y-8653650D02*
X16521653Y-8663174D01*
X16521653Y-8663174D02*
X16531177Y-8672698D01*
X16531177Y-8672698D02*
X16540701Y-8691746D01*
X16540701Y-8691746D02*
X16540701Y-8748889D01*
X16540701Y-8748889D02*
X16531177Y-8767936D01*
X16531177Y-8767936D02*
X16521653Y-8777460D01*
X16521653Y-8777460D02*
X16502606Y-8786984D01*
X16502606Y-8786984D02*
X16474034Y-8786984D01*
X16654987Y-8786984D02*
X16635939Y-8777460D01*
X16635939Y-8777460D02*
X16626415Y-8758412D01*
X16626415Y-8758412D02*
X16626415Y-8586984D01*
X16807368Y-8777460D02*
X16788320Y-8786984D01*
X16788320Y-8786984D02*
X16750225Y-8786984D01*
X16750225Y-8786984D02*
X16731177Y-8777460D01*
X16731177Y-8777460D02*
X16721653Y-8758412D01*
X16721653Y-8758412D02*
X16721653Y-8682222D01*
X16721653Y-8682222D02*
X16731177Y-8663174D01*
X16731177Y-8663174D02*
X16750225Y-8653650D01*
X16750225Y-8653650D02*
X16788320Y-8653650D01*
X16788320Y-8653650D02*
X16807368Y-8663174D01*
X16807368Y-8663174D02*
X16816892Y-8682222D01*
X16816892Y-8682222D02*
X16816892Y-8701270D01*
X16816892Y-8701270D02*
X16721653Y-8720317D01*
X16893082Y-8777460D02*
X16912130Y-8786984D01*
X16912130Y-8786984D02*
X16950225Y-8786984D01*
X16950225Y-8786984D02*
X16969273Y-8777460D01*
X16969273Y-8777460D02*
X16978796Y-8758412D01*
X16978796Y-8758412D02*
X16978796Y-8748889D01*
X16978796Y-8748889D02*
X16969273Y-8729841D01*
X16969273Y-8729841D02*
X16950225Y-8720317D01*
X16950225Y-8720317D02*
X16921653Y-8720317D01*
X16921653Y-8720317D02*
X16902606Y-8710793D01*
X16902606Y-8710793D02*
X16893082Y-8691746D01*
X16893082Y-8691746D02*
X16893082Y-8682222D01*
X16893082Y-8682222D02*
X16902606Y-8663174D01*
X16902606Y-8663174D02*
X16921653Y-8653650D01*
X16921653Y-8653650D02*
X16950225Y-8653650D01*
X16950225Y-8653650D02*
X16969273Y-8663174D01*
X17045463Y-8863174D02*
X17054987Y-8853650D01*
X17054987Y-8853650D02*
X17074034Y-8825079D01*
X17074034Y-8825079D02*
X17083558Y-8806031D01*
X17083558Y-8806031D02*
X17093082Y-8777460D01*
X17093082Y-8777460D02*
X17102606Y-8729841D01*
X17102606Y-8729841D02*
X17102606Y-8691746D01*
X17102606Y-8691746D02*
X17093082Y-8644127D01*
X17093082Y-8644127D02*
X17083558Y-8615555D01*
X17083558Y-8615555D02*
X17074034Y-8596508D01*
X17074034Y-8596508D02*
X17054987Y-8567936D01*
X17054987Y-8567936D02*
X17045463Y-8558412D01*
M02*
