%TF.GenerationSoftware,KiCad,Pcbnew,7.0.7*%
%TF.CreationDate,2023-11-07T21:15:51-05:00*%
%TF.ProjectId,DriveTrain,44726976-6554-4726-9169-6e2e6b696361,rev?*%
%TF.SameCoordinates,Original*%
%TF.FileFunction,Copper,L4,Bot*%
%TF.FilePolarity,Positive*%
%FSLAX46Y46*%
G04 Gerber Fmt 4.6, Leading zero omitted, Abs format (unit mm)*
G04 Created by KiCad (PCBNEW 7.0.7) date 2023-11-07 21:15:51*
%MOMM*%
%LPD*%
G01*
G04 APERTURE LIST*
G04 Aperture macros list*
%AMRoundRect*
0 Rectangle with rounded corners*
0 $1 Rounding radius*
0 $2 $3 $4 $5 $6 $7 $8 $9 X,Y pos of 4 corners*
0 Add a 4 corners polygon primitive as box body*
4,1,4,$2,$3,$4,$5,$6,$7,$8,$9,$2,$3,0*
0 Add four circle primitives for the rounded corners*
1,1,$1+$1,$2,$3*
1,1,$1+$1,$4,$5*
1,1,$1+$1,$6,$7*
1,1,$1+$1,$8,$9*
0 Add four rect primitives between the rounded corners*
20,1,$1+$1,$2,$3,$4,$5,0*
20,1,$1+$1,$4,$5,$6,$7,0*
20,1,$1+$1,$6,$7,$8,$9,0*
20,1,$1+$1,$8,$9,$2,$3,0*%
G04 Aperture macros list end*
%TA.AperFunction,ComponentPad*%
%ADD10R,1.400000X1.400000*%
%TD*%
%TA.AperFunction,ComponentPad*%
%ADD11C,1.400000*%
%TD*%
%TA.AperFunction,ComponentPad*%
%ADD12RoundRect,0.326336X-0.528664X-0.528664X0.528664X-0.528664X0.528664X0.528664X-0.528664X0.528664X0*%
%TD*%
%TA.AperFunction,ComponentPad*%
%ADD13C,1.710000*%
%TD*%
%TA.AperFunction,ComponentPad*%
%ADD14C,1.752600*%
%TD*%
%TA.AperFunction,ComponentPad*%
%ADD15R,1.650000X1.650000*%
%TD*%
%TA.AperFunction,ComponentPad*%
%ADD16C,1.650000*%
%TD*%
%TA.AperFunction,ComponentPad*%
%ADD17C,4.300000*%
%TD*%
%TA.AperFunction,SMDPad,CuDef*%
%ADD18RoundRect,0.225000X0.250000X-0.225000X0.250000X0.225000X-0.250000X0.225000X-0.250000X-0.225000X0*%
%TD*%
%TA.AperFunction,SMDPad,CuDef*%
%ADD19RoundRect,0.225000X-0.225000X-0.250000X0.225000X-0.250000X0.225000X0.250000X-0.225000X0.250000X0*%
%TD*%
%TA.AperFunction,SMDPad,CuDef*%
%ADD20RoundRect,0.250000X-0.300000X2.050000X-0.300000X-2.050000X0.300000X-2.050000X0.300000X2.050000X0*%
%TD*%
%TA.AperFunction,SMDPad,CuDef*%
%ADD21RoundRect,0.250002X-5.149998X4.449998X-5.149998X-4.449998X5.149998X-4.449998X5.149998X4.449998X0*%
%TD*%
%TA.AperFunction,SMDPad,CuDef*%
%ADD22R,3.500000X1.600000*%
%TD*%
%TA.AperFunction,SMDPad,CuDef*%
%ADD23R,9.750000X12.200000*%
%TD*%
%TA.AperFunction,ViaPad*%
%ADD24C,1.000000*%
%TD*%
%TA.AperFunction,ViaPad*%
%ADD25C,0.600000*%
%TD*%
%TA.AperFunction,ViaPad*%
%ADD26C,0.800000*%
%TD*%
%TA.AperFunction,Conductor*%
%ADD27C,0.500000*%
%TD*%
%TA.AperFunction,Conductor*%
%ADD28C,1.000000*%
%TD*%
%TA.AperFunction,Conductor*%
%ADD29C,0.800000*%
%TD*%
%TA.AperFunction,Conductor*%
%ADD30C,0.200000*%
%TD*%
G04 APERTURE END LIST*
D10*
%TO.P,J8,1,1*%
%TO.N,/SCL3.3*%
X196450000Y-58350000D03*
D11*
%TO.P,J8,2,2*%
%TO.N,/SDA3.3*%
X198950000Y-58350000D03*
%TO.P,J8,3,3*%
%TO.N,+3V3*%
X201450000Y-58350000D03*
%TO.P,J8,4,4*%
%TO.N,GND*%
X203950000Y-58350000D03*
%TD*%
D12*
%TO.P,U2,1,LB+*%
%TO.N,unconnected-(U2-LB+-Pad1)*%
X198530000Y-39303000D03*
D13*
%TO.P,U2,2,LB-*%
%TO.N,unconnected-(U2-LB--Pad2)*%
X198530000Y-41843000D03*
%TO.P,U2,3,EN1+*%
%TO.N,/EN1+2*%
X195990000Y-39303000D03*
%TO.P,U2,4,EN1-*%
%TO.N,/EN2+2*%
X195990000Y-41843000D03*
%TO.P,U2,5,EN2+*%
%TO.N,/EN1-2*%
X193450000Y-39303000D03*
%TO.P,U2,6,EN2-*%
%TO.N,/EN2-2*%
X193450000Y-41843000D03*
%TO.P,U2,7,EN1A*%
%TO.N,/EN1A2*%
X190910000Y-39303000D03*
%TO.P,U2,8,EN1B*%
%TO.N,/EN1B2*%
X190910000Y-41843000D03*
%TO.P,U2,9,EN2A*%
%TO.N,/EN2A2*%
X188370000Y-39303000D03*
%TO.P,U2,10,EN2B*%
%TO.N,/EN2B2*%
X188370000Y-41843000D03*
%TO.P,U2,11,S1+*%
%TO.N,unconnected-(U2-S1+-Pad11)*%
X185830000Y-39303000D03*
%TO.P,U2,12,S1-*%
%TO.N,unconnected-(U2-S1--Pad12)*%
X185830000Y-41843000D03*
%TO.P,U2,13,S2+*%
%TO.N,unconnected-(U2-S2+-Pad13)*%
X183290000Y-39303000D03*
%TO.P,U2,14,S2-*%
%TO.N,unconnected-(U2-S2--Pad14)*%
X183290000Y-41843000D03*
%TO.P,U2,15,S3+*%
%TO.N,unconnected-(U2-S3+-Pad15)*%
X180750000Y-39303000D03*
%TO.P,U2,16,S3-*%
%TO.N,unconnected-(U2-S3--Pad16)*%
X180750000Y-41843000D03*
%TO.P,U2,17,S4+*%
%TO.N,unconnected-(U2-S4+-Pad17)*%
X178210000Y-39303000D03*
%TO.P,U2,18,S4-*%
%TO.N,unconnected-(U2-S4--Pad18)*%
X178210000Y-41843000D03*
%TO.P,U2,19,S5+*%
%TO.N,unconnected-(U2-S5+-Pad19)*%
X175670000Y-39303000D03*
%TO.P,U2,20,S5-*%
%TO.N,unconnected-(U2-S5--Pad20)*%
X175670000Y-41843000D03*
%TO.P,U2,21,S1_IO*%
%TO.N,/Rx*%
X185830000Y-36663000D03*
%TO.P,U2,22,S2_IO*%
%TO.N,/Tx*%
X183290000Y-36663000D03*
%TO.P,U2,23,S3_IO*%
%TO.N,/EStop*%
X180750000Y-36663000D03*
%TO.P,U2,24,S4_IO*%
%TO.N,unconnected-(U2-S4_IO-Pad24)*%
X178210000Y-36663000D03*
%TO.P,U2,25,S5_IO*%
%TO.N,unconnected-(U2-S5_IO-Pad25)*%
X175670000Y-36663000D03*
%TD*%
D14*
%TO.P,J7,1,1*%
%TO.N,/EN2+*%
X133416600Y-55400000D03*
%TO.P,J7,2,2*%
%TO.N,/EN2-*%
X130916600Y-55400000D03*
%TO.P,J7,3,3*%
%TO.N,/EN2A*%
X128416600Y-55400000D03*
%TO.P,J7,4,4*%
%TO.N,/EN2B*%
X125916600Y-55400000D03*
%TD*%
D15*
%TO.P,J2,1,1*%
%TO.N,/EStop*%
X166399756Y-55400000D03*
D16*
%TO.P,J2,2,2*%
%TO.N,/Rx*%
X168899756Y-55400000D03*
%TO.P,J2,3,3*%
%TO.N,/Tx*%
X171399756Y-55400000D03*
%TO.P,J2,4,4*%
%TO.N,/SDA*%
X173899756Y-55400000D03*
%TO.P,J2,5,5*%
%TO.N,/SCL*%
X176399756Y-55400000D03*
%TD*%
D12*
%TO.P,U3,1,LB+*%
%TO.N,unconnected-(U3-LB+-Pad1)*%
X154975000Y-39283000D03*
D13*
%TO.P,U3,2,LB-*%
%TO.N,unconnected-(U3-LB--Pad2)*%
X154975000Y-41823000D03*
%TO.P,U3,3,EN1+*%
%TO.N,/EN1+*%
X152435000Y-39283000D03*
%TO.P,U3,4,EN1-*%
%TO.N,/EN2+*%
X152435000Y-41823000D03*
%TO.P,U3,5,EN2+*%
%TO.N,/EN1-*%
X149895000Y-39283000D03*
%TO.P,U3,6,EN2-*%
%TO.N,/EN2-*%
X149895000Y-41823000D03*
%TO.P,U3,7,EN1A*%
%TO.N,/EN1A*%
X147355000Y-39283000D03*
%TO.P,U3,8,EN1B*%
%TO.N,/EN1B*%
X147355000Y-41823000D03*
%TO.P,U3,9,EN2A*%
%TO.N,/EN2A*%
X144815000Y-39283000D03*
%TO.P,U3,10,EN2B*%
%TO.N,/EN2B*%
X144815000Y-41823000D03*
%TO.P,U3,11,S1+*%
%TO.N,unconnected-(U3-S1+-Pad11)*%
X142275000Y-39283000D03*
%TO.P,U3,12,S1-*%
%TO.N,unconnected-(U3-S1--Pad12)*%
X142275000Y-41823000D03*
%TO.P,U3,13,S2+*%
%TO.N,unconnected-(U3-S2+-Pad13)*%
X139735000Y-39283000D03*
%TO.P,U3,14,S2-*%
%TO.N,unconnected-(U3-S2--Pad14)*%
X139735000Y-41823000D03*
%TO.P,U3,15,S3+*%
%TO.N,unconnected-(U3-S3+-Pad15)*%
X137195000Y-39283000D03*
%TO.P,U3,16,S3-*%
%TO.N,unconnected-(U3-S3--Pad16)*%
X137195000Y-41823000D03*
%TO.P,U3,17,S4+*%
%TO.N,unconnected-(U3-S4+-Pad17)*%
X134655000Y-39283000D03*
%TO.P,U3,18,S4-*%
%TO.N,unconnected-(U3-S4--Pad18)*%
X134655000Y-41823000D03*
%TO.P,U3,19,S5+*%
%TO.N,unconnected-(U3-S5+-Pad19)*%
X132115000Y-39283000D03*
%TO.P,U3,20,S5-*%
%TO.N,unconnected-(U3-S5--Pad20)*%
X132115000Y-41823000D03*
%TO.P,U3,21,S1_IO*%
%TO.N,/Rx*%
X142275000Y-36643000D03*
%TO.P,U3,22,S2_IO*%
%TO.N,/Tx*%
X139735000Y-36643000D03*
%TO.P,U3,23,S3_IO*%
%TO.N,/EStop*%
X137195000Y-36643000D03*
%TO.P,U3,24,S4_IO*%
%TO.N,unconnected-(U3-S4_IO-Pad24)*%
X134655000Y-36643000D03*
%TO.P,U3,25,S5_IO*%
%TO.N,unconnected-(U3-S5_IO-Pad25)*%
X132115000Y-36643000D03*
%TD*%
D14*
%TO.P,J6,1,1*%
%TO.N,/EN1+*%
X133416600Y-47070199D03*
%TO.P,J6,2,2*%
%TO.N,/EN1-*%
X130916600Y-47070199D03*
%TO.P,J6,3,3*%
%TO.N,/EN1A*%
X128416600Y-47070199D03*
%TO.P,J6,4,4*%
%TO.N,/EN1B*%
X125916600Y-47070199D03*
%TD*%
D17*
%TO.P,J10,1,1*%
%TO.N,+12V*%
X169050000Y-47750000D03*
%TO.P,J10,2,2*%
%TO.N,GND*%
X174050000Y-47750000D03*
%TD*%
D14*
%TO.P,J4,1,1*%
%TO.N,/EN1+2*%
X140500000Y-48383400D03*
%TO.P,J4,2,2*%
%TO.N,/EN1-2*%
X140500000Y-50883400D03*
%TO.P,J4,3,3*%
%TO.N,/EN1A2*%
X140500000Y-53383400D03*
%TO.P,J4,4,4*%
%TO.N,/EN1B2*%
X140500000Y-55883400D03*
%TD*%
%TO.P,J5,1,1*%
%TO.N,/EN2+2*%
X203370199Y-42683400D03*
%TO.P,J5,2,2*%
%TO.N,/EN2-2*%
X203370199Y-45183400D03*
%TO.P,J5,3,3*%
%TO.N,/EN2A2*%
X203370199Y-47683400D03*
%TO.P,J5,4,4*%
%TO.N,/EN2B2*%
X203370199Y-50183400D03*
%TD*%
D18*
%TO.P,C1,1*%
%TO.N,GND*%
X191745000Y-48370000D03*
%TO.P,C1,2*%
%TO.N,+12V*%
X191745000Y-46820000D03*
%TD*%
D19*
%TO.P,C4,1*%
%TO.N,GND*%
X146080000Y-45035000D03*
%TO.P,C4,2*%
%TO.N,+5V*%
X147630000Y-45035000D03*
%TD*%
D18*
%TO.P,C2,1*%
%TO.N,GND*%
X191785000Y-57530000D03*
%TO.P,C2,2*%
%TO.N,+3V3*%
X191785000Y-55980000D03*
%TD*%
D19*
%TO.P,C3,1*%
%TO.N,GND*%
X141170000Y-59375000D03*
%TO.P,C3,2*%
%TO.N,+12V*%
X142720000Y-59375000D03*
%TD*%
D20*
%TO.P,IC1,1,ADJ/GND*%
%TO.N,GND*%
X182675000Y-46795000D03*
D21*
%TO.P,IC1,2,OUT*%
%TO.N,+3V3*%
X185215000Y-55945000D03*
D20*
%TO.P,IC1,3,IN*%
%TO.N,+12V*%
X187755000Y-46795000D03*
%TD*%
D22*
%TO.P,IC2,1,INPUT*%
%TO.N,+12V*%
X147674000Y-55540000D03*
D23*
%TO.P,IC2,2,GND*%
%TO.N,GND*%
X157950000Y-53000000D03*
D22*
%TO.P,IC2,3,OUTPUT*%
%TO.N,+5V*%
X147674000Y-50460000D03*
%TD*%
D24*
%TO.N,GND*%
X201700000Y-60900000D03*
D25*
X129965118Y-51499283D03*
X193900000Y-34300000D03*
D26*
X193000000Y-57600000D03*
X163300000Y-43600000D03*
X168000000Y-59200000D03*
X192900000Y-48400000D03*
D25*
X191600000Y-34700000D03*
X146000000Y-37400000D03*
X183400000Y-43800000D03*
X199800000Y-46700000D03*
X179500000Y-43800000D03*
D24*
X157801254Y-34091234D03*
D25*
X165200000Y-34200000D03*
X203200000Y-53700000D03*
D24*
X191769404Y-60985866D03*
D25*
X129800000Y-42000000D03*
X150900000Y-35600000D03*
X170400000Y-53200000D03*
X195500000Y-51200000D03*
X148800000Y-37500000D03*
D24*
X141100000Y-60600000D03*
D25*
X132100000Y-51900000D03*
X193200000Y-54800000D03*
X179300000Y-45800000D03*
X207200000Y-53700000D03*
X150300000Y-57200000D03*
D24*
X131400000Y-60500000D03*
D25*
X147900000Y-35600000D03*
X160913993Y-42599026D03*
X192100000Y-51200000D03*
X154800000Y-33900000D03*
D24*
X191700000Y-59100000D03*
D25*
X149500000Y-46800000D03*
D24*
X184000000Y-46800000D03*
X201400000Y-34600000D03*
D25*
X192600000Y-44700500D03*
X145000000Y-52100000D03*
X195600000Y-48200000D03*
X131700000Y-44300000D03*
D24*
X135400000Y-60600000D03*
D26*
X199300000Y-45700000D03*
D25*
X174300000Y-53200000D03*
D24*
X126400000Y-60600000D03*
X151800000Y-59200000D03*
D25*
X151100000Y-60900000D03*
X137300000Y-57700000D03*
D24*
X198000000Y-34300000D03*
D25*
X186800000Y-43800000D03*
X197100000Y-53300000D03*
D26*
X199800000Y-53100000D03*
D25*
X134200000Y-51500000D03*
X157900000Y-41100000D03*
D24*
X124000000Y-40300000D03*
D25*
X195300000Y-53100000D03*
D24*
X205100000Y-60700000D03*
D25*
X127300000Y-40600000D03*
D26*
X160900000Y-44600000D03*
D25*
X166600000Y-53100000D03*
X172000000Y-33700000D03*
X165100000Y-38600000D03*
X125500000Y-42100000D03*
X199400000Y-49500000D03*
X194700000Y-49900000D03*
X170400000Y-42500000D03*
D26*
X146100000Y-46200000D03*
D24*
X151900000Y-53000000D03*
D25*
X145200000Y-57500000D03*
X201100000Y-38000000D03*
D24*
X146988726Y-60861535D03*
%TO.N,+12V*%
X185900000Y-46700000D03*
X150400000Y-55700000D03*
D26*
%TO.N,+3V3*%
X175816679Y-59034755D03*
X197000000Y-52000000D03*
D25*
%TO.N,+5V*%
X194800000Y-44699500D03*
D26*
X154400000Y-45785000D03*
D25*
%TO.N,/EStop*%
X146000000Y-34200000D03*
X143975839Y-34223661D03*
X149000000Y-34000000D03*
%TO.N,/Rx*%
X145900000Y-36500000D03*
X171100000Y-41299500D03*
X172200000Y-43600000D03*
X156300000Y-36500000D03*
X148100000Y-36500000D03*
%TO.N,/Tx*%
X178200000Y-43800000D03*
X173000000Y-40300000D03*
X144600000Y-34900000D03*
X171473911Y-40373911D03*
X147000000Y-34900000D03*
X154400000Y-34900000D03*
%TO.N,/EN1+*%
X153400000Y-43700000D03*
X148100000Y-43700000D03*
%TO.N,/EN1-*%
X129800000Y-35500000D03*
X129800000Y-38300000D03*
%TO.N,/EN1A*%
X128400000Y-44400000D03*
X128400000Y-42800000D03*
%TO.N,/EN1B2*%
X170000000Y-44600000D03*
X167400000Y-44600000D03*
%TD*%
D27*
%TO.N,GND*%
X146080000Y-45035000D02*
X146080000Y-46180000D01*
X141100000Y-60600000D02*
X141100000Y-59445000D01*
D28*
X182675000Y-46795000D02*
X183995000Y-46795000D01*
D27*
X191745000Y-48370000D02*
X192870000Y-48370000D01*
X192870000Y-48370000D02*
X192900000Y-48400000D01*
X192930000Y-57530000D02*
X193000000Y-57600000D01*
D28*
X183995000Y-46795000D02*
X184000000Y-46800000D01*
D27*
X191785000Y-57530000D02*
X192930000Y-57530000D01*
X141100000Y-59445000D02*
X141170000Y-59375000D01*
X146080000Y-46180000D02*
X146100000Y-46200000D01*
D28*
X157950000Y-53000000D02*
X151900000Y-53000000D01*
%TO.N,+12V*%
X187660000Y-46700000D02*
X187755000Y-46795000D01*
D29*
X187700000Y-46740000D02*
X187755000Y-46795000D01*
D28*
X185900000Y-46700000D02*
X187660000Y-46700000D01*
D29*
X187755000Y-46795000D02*
X191720000Y-46795000D01*
D28*
X147834000Y-55700000D02*
X147674000Y-55540000D01*
D27*
X147674000Y-58326000D02*
X146625000Y-59375000D01*
D28*
X150400000Y-55700000D02*
X147834000Y-55700000D01*
D29*
X191720000Y-46795000D02*
X191745000Y-46820000D01*
D27*
X147674000Y-55540000D02*
X147674000Y-58326000D01*
X146625000Y-59375000D02*
X142720000Y-59375000D01*
%TO.N,+3V3*%
X197000000Y-52000000D02*
X194100000Y-52000000D01*
X191650000Y-55945000D02*
X191785000Y-56080000D01*
X175816679Y-59034755D02*
X175881924Y-59100000D01*
X194100000Y-52000000D02*
X191785000Y-54315000D01*
X175881924Y-59100000D02*
X182060000Y-59100000D01*
X182060000Y-59100000D02*
X185215000Y-55945000D01*
X185215000Y-55945000D02*
X191650000Y-55945000D01*
X191785000Y-54315000D02*
X191785000Y-55980000D01*
D30*
%TO.N,+5V*%
X163900000Y-55700000D02*
X165700000Y-57500000D01*
X178600000Y-56700000D02*
X178600000Y-50900000D01*
D27*
X153000000Y-45800000D02*
X152200000Y-45000000D01*
D30*
X162000000Y-43700000D02*
X163900000Y-45600000D01*
X154700000Y-44700000D02*
X159200000Y-44700000D01*
X165700000Y-57500000D02*
X177800000Y-57500000D01*
X178600000Y-50900000D02*
X179600000Y-49900000D01*
X194800000Y-48700000D02*
X194800000Y-44699500D01*
X163900000Y-45600000D02*
X163900000Y-55700000D01*
X154400000Y-45785000D02*
X154400000Y-45000000D01*
D27*
X147630000Y-45035000D02*
X147674000Y-45079000D01*
X154400000Y-45785000D02*
X154385000Y-45800000D01*
D30*
X177800000Y-57500000D02*
X178600000Y-56700000D01*
D27*
X152200000Y-45000000D02*
X147665000Y-45000000D01*
X154385000Y-45800000D02*
X153000000Y-45800000D01*
D30*
X159200000Y-44700000D02*
X160200000Y-43700000D01*
D27*
X147674000Y-45079000D02*
X147674000Y-50660000D01*
D30*
X179600000Y-49900000D02*
X193600000Y-49900000D01*
D27*
X147665000Y-45000000D02*
X147630000Y-45035000D01*
D30*
X154400000Y-45000000D02*
X154700000Y-44700000D01*
X160200000Y-43700000D02*
X162000000Y-43700000D01*
X193600000Y-49900000D02*
X194800000Y-48700000D01*
%TO.N,/EStop*%
X143999500Y-34200000D02*
X146000000Y-34200000D01*
X167500000Y-43600000D02*
X167300000Y-43800000D01*
X164600000Y-46400000D02*
X167200000Y-43800000D01*
X174400000Y-35100000D02*
X180375000Y-35100000D01*
X143975839Y-34223661D02*
X143999500Y-34200000D01*
X170900000Y-43800000D02*
X173700000Y-41000000D01*
X167700000Y-43800000D02*
X170900000Y-43800000D01*
X173700000Y-35800000D02*
X174400000Y-35100000D01*
X180750000Y-35475000D02*
X180750000Y-36663000D01*
X166800000Y-41200000D02*
X167500000Y-41900000D01*
X159600000Y-41200000D02*
X166800000Y-41200000D01*
X152400000Y-34000000D02*
X159600000Y-41200000D01*
X173700000Y-41000000D02*
X173700000Y-35800000D01*
X167500000Y-43600000D02*
X167500000Y-43800000D01*
X167500000Y-41900000D02*
X167500000Y-43600000D01*
X165200000Y-55400000D02*
X164600000Y-54800000D01*
X167500000Y-43800000D02*
X167700000Y-43800000D01*
X167500000Y-43600000D02*
X167700000Y-43800000D01*
X166399756Y-55400000D02*
X165200000Y-55400000D01*
X180375000Y-35100000D02*
X180750000Y-35475000D01*
X167300000Y-43800000D02*
X167500000Y-43800000D01*
X167200000Y-43800000D02*
X167300000Y-43800000D01*
X164600000Y-54800000D02*
X164600000Y-46400000D01*
X149000000Y-34000000D02*
X152400000Y-34000000D01*
%TO.N,/Rx*%
X170299500Y-41299500D02*
X169600000Y-40600000D01*
X177300000Y-49000000D02*
X175600000Y-50700000D01*
X172200000Y-43600000D02*
X174400000Y-43600000D01*
X172100000Y-40800000D02*
X172100000Y-34700000D01*
X168899756Y-52100244D02*
X168899756Y-55400000D01*
X148100000Y-36500000D02*
X145900000Y-36500000D01*
X172100000Y-34700000D02*
X173200000Y-33600000D01*
X170300000Y-50700000D02*
X168899756Y-52100244D01*
X175600000Y-50700000D02*
X170300000Y-50700000D01*
X185200000Y-33600000D02*
X185830000Y-34230000D01*
X171100000Y-41299500D02*
X171600500Y-41299500D01*
X185830000Y-34230000D02*
X185830000Y-36663000D01*
X173200000Y-33600000D02*
X185200000Y-33600000D01*
X171100000Y-41299500D02*
X170299500Y-41299500D01*
X157000000Y-36500000D02*
X156300000Y-36500000D01*
X171600500Y-41299500D02*
X172100000Y-40800000D01*
X177300000Y-46500000D02*
X177300000Y-49000000D01*
X169600000Y-40600000D02*
X161100000Y-40600000D01*
X174400000Y-43600000D02*
X177300000Y-46500000D01*
X161100000Y-40600000D02*
X157000000Y-36500000D01*
%TO.N,/Tx*%
X173000000Y-35400000D02*
X173900000Y-34500000D01*
X171473911Y-40373911D02*
X170773911Y-40373911D01*
X183290000Y-34590000D02*
X183290000Y-36663000D01*
X170200000Y-39800000D02*
X161600000Y-39800000D01*
X176200000Y-51800000D02*
X172400000Y-51800000D01*
X156700000Y-34900000D02*
X154400000Y-34900000D01*
X183200000Y-34500000D02*
X183290000Y-34590000D01*
X178200000Y-43800000D02*
X178200000Y-49800000D01*
X147000000Y-34900000D02*
X144600000Y-34900000D01*
X161600000Y-39800000D02*
X156700000Y-34900000D01*
X170773911Y-40373911D02*
X170200000Y-39800000D01*
X178200000Y-49800000D02*
X176200000Y-51800000D01*
X173000000Y-40300000D02*
X173000000Y-35400000D01*
X171399756Y-52800244D02*
X171399756Y-55400000D01*
X172400000Y-51800000D02*
X171399756Y-52800244D01*
X173900000Y-34500000D02*
X183200000Y-34500000D01*
%TO.N,/EN1+*%
X153400000Y-43700000D02*
X148100000Y-43700000D01*
%TO.N,/EN1-*%
X129800000Y-39700000D02*
X129800000Y-38300000D01*
X149895000Y-36395000D02*
X149895000Y-39283000D01*
X125400000Y-49300000D02*
X124300000Y-48200000D01*
X129800000Y-34800000D02*
X131000000Y-33600000D01*
X147100000Y-33600000D02*
X149895000Y-36395000D01*
X130916600Y-48683400D02*
X130300000Y-49300000D01*
X130300000Y-49300000D02*
X125400000Y-49300000D01*
X129800000Y-35500000D02*
X129800000Y-34800000D01*
X124300000Y-45200000D02*
X129800000Y-39700000D01*
X131000000Y-33600000D02*
X147100000Y-33600000D01*
X124300000Y-48200000D02*
X124300000Y-45200000D01*
X130916600Y-47070199D02*
X130916600Y-48683400D01*
%TO.N,/EN1A*%
X128400000Y-44400000D02*
X128400000Y-42800000D01*
%TO.N,/EN1B*%
X126200000Y-45100000D02*
X125916600Y-45383400D01*
X144797538Y-45100000D02*
X126200000Y-45100000D01*
X125916600Y-45383400D02*
X125916600Y-47070199D01*
X146340000Y-44260000D02*
X145637538Y-44260000D01*
X147355000Y-43245000D02*
X146340000Y-44260000D01*
X147355000Y-41823000D02*
X147355000Y-43245000D01*
X145637538Y-44260000D02*
X144797538Y-45100000D01*
%TO.N,/EN2A*%
X144815000Y-39283000D02*
X144815000Y-36315000D01*
X142900000Y-34400000D02*
X131900000Y-34400000D01*
X131900000Y-34400000D02*
X123600000Y-42700000D01*
X128416600Y-53516600D02*
X128416600Y-55400000D01*
X144815000Y-36315000D02*
X142900000Y-34400000D01*
X123600000Y-48700000D02*
X128416600Y-53516600D01*
X123600000Y-42700000D02*
X123600000Y-48700000D01*
%TO.N,/EN2A2*%
X203370199Y-47683400D02*
X204516600Y-47683400D01*
X189300000Y-36800000D02*
X188370000Y-37730000D01*
X205000000Y-47200000D02*
X205000000Y-40700000D01*
X188370000Y-37730000D02*
X188370000Y-39303000D01*
X204516600Y-47683400D02*
X205000000Y-47200000D01*
X201100000Y-36800000D02*
X189300000Y-36800000D01*
X205000000Y-40700000D02*
X201100000Y-36800000D01*
%TO.N,/EN1B2*%
X167400000Y-44600000D02*
X170000000Y-44600000D01*
%TO.N,/EN2B2*%
X201583400Y-50183400D02*
X195500000Y-44100000D01*
X195500000Y-44100000D02*
X189300000Y-44100000D01*
X189300000Y-44100000D02*
X188370000Y-43170000D01*
X203370199Y-50183400D02*
X201583400Y-50183400D01*
X188370000Y-43170000D02*
X188370000Y-41843000D01*
%TO.N,/EN2+2*%
X196200000Y-43300000D02*
X195990000Y-43090000D01*
X201600000Y-42600000D02*
X200900000Y-43300000D01*
X203370199Y-42683400D02*
X203286799Y-42600000D01*
X200900000Y-43300000D02*
X196200000Y-43300000D01*
X195990000Y-43090000D02*
X195990000Y-41843000D01*
X203286799Y-42600000D02*
X201600000Y-42600000D01*
%TO.N,/EN2-2*%
X193900000Y-43700000D02*
X193450000Y-43250000D01*
X193450000Y-43250000D02*
X193450000Y-41843000D01*
X201783400Y-45183400D02*
X200300000Y-43700000D01*
X200300000Y-43700000D02*
X193900000Y-43700000D01*
X203370199Y-45183400D02*
X201783400Y-45183400D01*
%TD*%
M02*
