M48
; DRILL file {KiCad 7.0.7} date Tue Nov  7 21:15:58 2023
; FORMAT={-:-/ absolute / metric / decimal}
; #@! TF.CreationDate,2023-11-07T21:15:58-05:00
; #@! TF.GenerationSoftware,Kicad,Pcbnew,7.0.7
; #@! TF.FileFunction,Plated,1,4,PTH
FMAT,2
METRIC
; #@! TA.AperFunction,Plated,PTH,ViaDrill
T1C0.300
; #@! TA.AperFunction,Plated,PTH,ViaDrill
T2C0.400
; #@! TA.AperFunction,Plated,PTH,ViaDrill
T3C0.500
; #@! TA.AperFunction,Plated,PTH,ComponentDrill
T4C0.900
; #@! TA.AperFunction,Plated,PTH,ComponentDrill
T5C1.000
; #@! TA.AperFunction,Plated,PTH,ComponentDrill
T6C1.100
; #@! TA.AperFunction,Plated,PTH,ComponentDrill
T7C1.245
; #@! TA.AperFunction,Plated,PTH,ComponentDrill
T8C2.700
%
G90
G05
T1
X125.5Y-42.1
X127.3Y-40.6
X128.4Y-42.8
X128.4Y-44.4
X129.8Y-35.5
X129.8Y-38.3
X129.8Y-42.0
X129.965Y-51.499
X131.7Y-44.3
X132.1Y-51.9
X134.2Y-51.5
X137.3Y-57.7
X143.976Y-34.224
X144.6Y-34.9
X145.0Y-52.1
X145.2Y-57.5
X145.9Y-36.5
X146.0Y-34.2
X146.0Y-37.4
X147.0Y-34.9
X147.9Y-35.6
X148.1Y-36.5
X148.1Y-43.7
X148.8Y-37.5
X149.0Y-34.0
X149.5Y-46.8
X150.3Y-57.2
X150.9Y-35.6
X151.1Y-60.9
X153.4Y-43.7
X154.4Y-34.9
X154.8Y-33.9
X156.3Y-36.5
X157.9Y-41.1
X160.914Y-42.599
X165.1Y-38.6
X165.2Y-34.2
X166.6Y-53.1
X167.4Y-44.6
X170.0Y-44.6
X170.4Y-42.5
X170.4Y-53.2
X171.1Y-41.299
X171.474Y-40.374
X172.0Y-33.7
X172.2Y-43.6
X173.0Y-40.3
X174.3Y-53.2
X178.2Y-43.8
X179.3Y-45.8
X179.5Y-43.8
X183.4Y-43.8
X186.8Y-43.8
X191.6Y-34.7
X192.1Y-51.2
X192.6Y-44.7
X193.2Y-54.8
X193.9Y-34.3
X194.7Y-49.9
X194.8Y-44.7
X195.3Y-53.1
X195.5Y-51.2
X195.6Y-48.2
X197.1Y-53.3
X199.4Y-49.5
X199.8Y-46.7
X201.1Y-38.0
X203.2Y-53.7
X207.2Y-53.7
T2
X146.1Y-46.2
X154.4Y-45.785
X160.9Y-44.6
X163.3Y-43.6
X168.0Y-59.2
X175.817Y-59.035
X192.9Y-48.4
X193.0Y-57.6
X197.0Y-52.0
X199.3Y-45.7
X199.8Y-53.1
T3
X124.0Y-40.3
X126.4Y-60.6
X131.4Y-60.5
X135.4Y-60.6
X141.1Y-60.6
X146.989Y-60.862
X150.4Y-55.7
X151.8Y-59.2
X151.9Y-53.0
X157.801Y-34.091
X184.0Y-46.8
X185.9Y-46.7
X191.7Y-59.1
X191.769Y-60.986
X198.0Y-34.3
X201.4Y-34.6
X201.7Y-60.9
X205.1Y-60.7
T4
X196.45Y-58.35
X198.95Y-58.35
X201.45Y-58.35
X203.95Y-58.35
T5
X132.115Y-36.643
X132.115Y-39.283
X132.115Y-41.823
X134.655Y-36.643
X134.655Y-39.283
X134.655Y-41.823
X137.195Y-36.643
X137.195Y-39.283
X137.195Y-41.823
X139.735Y-36.643
X139.735Y-39.283
X139.735Y-41.823
X142.275Y-36.643
X142.275Y-39.283
X142.275Y-41.823
X144.815Y-39.283
X144.815Y-41.823
X147.355Y-39.283
X147.355Y-41.823
X149.895Y-39.283
X149.895Y-41.823
X152.435Y-39.283
X152.435Y-41.823
X154.975Y-39.283
X154.975Y-41.823
X175.67Y-36.663
X175.67Y-39.303
X175.67Y-41.843
X178.21Y-36.663
X178.21Y-39.303
X178.21Y-41.843
X180.75Y-36.663
X180.75Y-39.303
X180.75Y-41.843
X183.29Y-36.663
X183.29Y-39.303
X183.29Y-41.843
X185.83Y-36.663
X185.83Y-39.303
X185.83Y-41.843
X188.37Y-39.303
X188.37Y-41.843
X190.91Y-39.303
X190.91Y-41.843
X193.45Y-39.303
X193.45Y-41.843
X195.99Y-39.303
X195.99Y-41.843
X198.53Y-39.303
X198.53Y-41.843
T6
X166.4Y-55.4
X168.9Y-55.4
X171.4Y-55.4
X173.9Y-55.4
X176.4Y-55.4
T7
X125.917Y-47.07
X125.917Y-55.4
X128.417Y-47.07
X128.417Y-55.4
X130.917Y-47.07
X130.917Y-55.4
X133.417Y-47.07
X133.417Y-55.4
X140.5Y-48.383
X140.5Y-50.883
X140.5Y-53.383
X140.5Y-55.883
X203.37Y-42.683
X203.37Y-45.183
X203.37Y-47.683
X203.37Y-50.183
T8
X169.05Y-47.75
X174.05Y-47.75
T0
M30
