%TF.GenerationSoftware,KiCad,Pcbnew,7.0.7*%
%TF.CreationDate,2023-11-07T21:15:51-05:00*%
%TF.ProjectId,DriveTrain,44726976-6554-4726-9169-6e2e6b696361,rev?*%
%TF.SameCoordinates,Original*%
%TF.FileFunction,Copper,L1,Top*%
%TF.FilePolarity,Positive*%
%FSLAX46Y46*%
G04 Gerber Fmt 4.6, Leading zero omitted, Abs format (unit mm)*
G04 Created by KiCad (PCBNEW 7.0.7) date 2023-11-07 21:15:51*
%MOMM*%
%LPD*%
G01*
G04 APERTURE LIST*
G04 Aperture macros list*
%AMRoundRect*
0 Rectangle with rounded corners*
0 $1 Rounding radius*
0 $2 $3 $4 $5 $6 $7 $8 $9 X,Y pos of 4 corners*
0 Add a 4 corners polygon primitive as box body*
4,1,4,$2,$3,$4,$5,$6,$7,$8,$9,$2,$3,0*
0 Add four circle primitives for the rounded corners*
1,1,$1+$1,$2,$3*
1,1,$1+$1,$4,$5*
1,1,$1+$1,$6,$7*
1,1,$1+$1,$8,$9*
0 Add four rect primitives between the rounded corners*
20,1,$1+$1,$2,$3,$4,$5,0*
20,1,$1+$1,$4,$5,$6,$7,0*
20,1,$1+$1,$6,$7,$8,$9,0*
20,1,$1+$1,$8,$9,$2,$3,0*%
G04 Aperture macros list end*
%TA.AperFunction,ComponentPad*%
%ADD10R,1.400000X1.400000*%
%TD*%
%TA.AperFunction,ComponentPad*%
%ADD11C,1.400000*%
%TD*%
%TA.AperFunction,ComponentPad*%
%ADD12RoundRect,0.326336X-0.528664X-0.528664X0.528664X-0.528664X0.528664X0.528664X-0.528664X0.528664X0*%
%TD*%
%TA.AperFunction,ComponentPad*%
%ADD13C,1.710000*%
%TD*%
%TA.AperFunction,ComponentPad*%
%ADD14C,1.752600*%
%TD*%
%TA.AperFunction,SMDPad,CuDef*%
%ADD15RoundRect,0.200000X0.200000X0.275000X-0.200000X0.275000X-0.200000X-0.275000X0.200000X-0.275000X0*%
%TD*%
%TA.AperFunction,SMDPad,CuDef*%
%ADD16RoundRect,0.200000X-0.200000X-0.275000X0.200000X-0.275000X0.200000X0.275000X-0.200000X0.275000X0*%
%TD*%
%TA.AperFunction,SMDPad,CuDef*%
%ADD17RoundRect,0.225000X-0.225000X-0.250000X0.225000X-0.250000X0.225000X0.250000X-0.225000X0.250000X0*%
%TD*%
%TA.AperFunction,ComponentPad*%
%ADD18R,1.650000X1.650000*%
%TD*%
%TA.AperFunction,ComponentPad*%
%ADD19C,1.650000*%
%TD*%
%TA.AperFunction,SMDPad,CuDef*%
%ADD20RoundRect,0.218750X0.218750X0.256250X-0.218750X0.256250X-0.218750X-0.256250X0.218750X-0.256250X0*%
%TD*%
%TA.AperFunction,SMDPad,CuDef*%
%ADD21RoundRect,1.000000X-1.000000X1.000000X-1.000000X-1.000000X1.000000X-1.000000X1.000000X1.000000X0*%
%TD*%
%TA.AperFunction,ComponentPad*%
%ADD22C,4.300000*%
%TD*%
%TA.AperFunction,SMDPad,CuDef*%
%ADD23RoundRect,0.218750X-0.218750X-0.256250X0.218750X-0.256250X0.218750X0.256250X-0.218750X0.256250X0*%
%TD*%
%TA.AperFunction,SMDPad,CuDef*%
%ADD24RoundRect,0.225000X0.225000X0.250000X-0.225000X0.250000X-0.225000X-0.250000X0.225000X-0.250000X0*%
%TD*%
%TA.AperFunction,SMDPad,CuDef*%
%ADD25RoundRect,1.000000X1.000000X-1.000000X1.000000X1.000000X-1.000000X1.000000X-1.000000X-1.000000X0*%
%TD*%
%TA.AperFunction,SMDPad,CuDef*%
%ADD26R,0.300000X0.850000*%
%TD*%
%TA.AperFunction,ViaPad*%
%ADD27C,1.000000*%
%TD*%
%TA.AperFunction,ViaPad*%
%ADD28C,0.600000*%
%TD*%
%TA.AperFunction,ViaPad*%
%ADD29C,0.800000*%
%TD*%
%TA.AperFunction,Conductor*%
%ADD30C,0.500000*%
%TD*%
%TA.AperFunction,Conductor*%
%ADD31C,0.200000*%
%TD*%
%TA.AperFunction,Conductor*%
%ADD32C,1.000000*%
%TD*%
%TA.AperFunction,Conductor*%
%ADD33C,0.800000*%
%TD*%
G04 APERTURE END LIST*
D10*
%TO.P,J8,1,1*%
%TO.N,/SCL3.3*%
X196450000Y-58350000D03*
D11*
%TO.P,J8,2,2*%
%TO.N,/SDA3.3*%
X198950000Y-58350000D03*
%TO.P,J8,3,3*%
%TO.N,+3V3*%
X201450000Y-58350000D03*
%TO.P,J8,4,4*%
%TO.N,GND*%
X203950000Y-58350000D03*
%TD*%
D12*
%TO.P,U2,1,LB+*%
%TO.N,unconnected-(U2-LB+-Pad1)*%
X198530000Y-39303000D03*
D13*
%TO.P,U2,2,LB-*%
%TO.N,unconnected-(U2-LB--Pad2)*%
X198530000Y-41843000D03*
%TO.P,U2,3,EN1+*%
%TO.N,/EN1+2*%
X195990000Y-39303000D03*
%TO.P,U2,4,EN1-*%
%TO.N,/EN2+2*%
X195990000Y-41843000D03*
%TO.P,U2,5,EN2+*%
%TO.N,/EN1-2*%
X193450000Y-39303000D03*
%TO.P,U2,6,EN2-*%
%TO.N,/EN2-2*%
X193450000Y-41843000D03*
%TO.P,U2,7,EN1A*%
%TO.N,/EN1A2*%
X190910000Y-39303000D03*
%TO.P,U2,8,EN1B*%
%TO.N,/EN1B2*%
X190910000Y-41843000D03*
%TO.P,U2,9,EN2A*%
%TO.N,/EN2A2*%
X188370000Y-39303000D03*
%TO.P,U2,10,EN2B*%
%TO.N,/EN2B2*%
X188370000Y-41843000D03*
%TO.P,U2,11,S1+*%
%TO.N,unconnected-(U2-S1+-Pad11)*%
X185830000Y-39303000D03*
%TO.P,U2,12,S1-*%
%TO.N,unconnected-(U2-S1--Pad12)*%
X185830000Y-41843000D03*
%TO.P,U2,13,S2+*%
%TO.N,unconnected-(U2-S2+-Pad13)*%
X183290000Y-39303000D03*
%TO.P,U2,14,S2-*%
%TO.N,unconnected-(U2-S2--Pad14)*%
X183290000Y-41843000D03*
%TO.P,U2,15,S3+*%
%TO.N,unconnected-(U2-S3+-Pad15)*%
X180750000Y-39303000D03*
%TO.P,U2,16,S3-*%
%TO.N,unconnected-(U2-S3--Pad16)*%
X180750000Y-41843000D03*
%TO.P,U2,17,S4+*%
%TO.N,unconnected-(U2-S4+-Pad17)*%
X178210000Y-39303000D03*
%TO.P,U2,18,S4-*%
%TO.N,unconnected-(U2-S4--Pad18)*%
X178210000Y-41843000D03*
%TO.P,U2,19,S5+*%
%TO.N,unconnected-(U2-S5+-Pad19)*%
X175670000Y-39303000D03*
%TO.P,U2,20,S5-*%
%TO.N,unconnected-(U2-S5--Pad20)*%
X175670000Y-41843000D03*
%TO.P,U2,21,S1_IO*%
%TO.N,/Rx*%
X185830000Y-36663000D03*
%TO.P,U2,22,S2_IO*%
%TO.N,/Tx*%
X183290000Y-36663000D03*
%TO.P,U2,23,S3_IO*%
%TO.N,/EStop*%
X180750000Y-36663000D03*
%TO.P,U2,24,S4_IO*%
%TO.N,unconnected-(U2-S4_IO-Pad24)*%
X178210000Y-36663000D03*
%TO.P,U2,25,S5_IO*%
%TO.N,unconnected-(U2-S5_IO-Pad25)*%
X175670000Y-36663000D03*
%TD*%
D14*
%TO.P,J7,1,1*%
%TO.N,/EN2+*%
X133416600Y-55400000D03*
%TO.P,J7,2,2*%
%TO.N,/EN2-*%
X130916600Y-55400000D03*
%TO.P,J7,3,3*%
%TO.N,/EN2A*%
X128416600Y-55400000D03*
%TO.P,J7,4,4*%
%TO.N,/EN2B*%
X125916600Y-55400000D03*
%TD*%
D15*
%TO.P,R2,1*%
%TO.N,+12V*%
X168980000Y-42525000D03*
%TO.P,R2,2*%
%TO.N,Net-(D2-A)*%
X167330000Y-42525000D03*
%TD*%
D16*
%TO.P,R3,1*%
%TO.N,+5V*%
X155520000Y-45785000D03*
%TO.P,R3,2*%
%TO.N,Net-(D3-A)*%
X157170000Y-45785000D03*
%TD*%
D17*
%TO.P,C5,1*%
%TO.N,+5V*%
X197730000Y-44525000D03*
%TO.P,C5,2*%
%TO.N,GND*%
X199280000Y-44525000D03*
%TD*%
D18*
%TO.P,J2,1,1*%
%TO.N,/EStop*%
X166399756Y-55400000D03*
D19*
%TO.P,J2,2,2*%
%TO.N,/Rx*%
X168899756Y-55400000D03*
%TO.P,J2,3,3*%
%TO.N,/Tx*%
X171399756Y-55400000D03*
%TO.P,J2,4,4*%
%TO.N,/SDA*%
X173899756Y-55400000D03*
%TO.P,J2,5,5*%
%TO.N,/SCL*%
X176399756Y-55400000D03*
%TD*%
D20*
%TO.P,D3,1,K*%
%TO.N,GND*%
X160902500Y-45815000D03*
%TO.P,D3,2,A*%
%TO.N,Net-(D3-A)*%
X159327500Y-45815000D03*
%TD*%
D21*
%TO.P,J3,1,Pin_1*%
%TO.N,+12V*%
X161200000Y-59200000D03*
%TO.P,J3,2,Pin_2*%
%TO.N,GND*%
X155580000Y-59200000D03*
%TD*%
D12*
%TO.P,U3,1,LB+*%
%TO.N,unconnected-(U3-LB+-Pad1)*%
X154975000Y-39283000D03*
D13*
%TO.P,U3,2,LB-*%
%TO.N,unconnected-(U3-LB--Pad2)*%
X154975000Y-41823000D03*
%TO.P,U3,3,EN1+*%
%TO.N,/EN1+*%
X152435000Y-39283000D03*
%TO.P,U3,4,EN1-*%
%TO.N,/EN2+*%
X152435000Y-41823000D03*
%TO.P,U3,5,EN2+*%
%TO.N,/EN1-*%
X149895000Y-39283000D03*
%TO.P,U3,6,EN2-*%
%TO.N,/EN2-*%
X149895000Y-41823000D03*
%TO.P,U3,7,EN1A*%
%TO.N,/EN1A*%
X147355000Y-39283000D03*
%TO.P,U3,8,EN1B*%
%TO.N,/EN1B*%
X147355000Y-41823000D03*
%TO.P,U3,9,EN2A*%
%TO.N,/EN2A*%
X144815000Y-39283000D03*
%TO.P,U3,10,EN2B*%
%TO.N,/EN2B*%
X144815000Y-41823000D03*
%TO.P,U3,11,S1+*%
%TO.N,unconnected-(U3-S1+-Pad11)*%
X142275000Y-39283000D03*
%TO.P,U3,12,S1-*%
%TO.N,unconnected-(U3-S1--Pad12)*%
X142275000Y-41823000D03*
%TO.P,U3,13,S2+*%
%TO.N,unconnected-(U3-S2+-Pad13)*%
X139735000Y-39283000D03*
%TO.P,U3,14,S2-*%
%TO.N,unconnected-(U3-S2--Pad14)*%
X139735000Y-41823000D03*
%TO.P,U3,15,S3+*%
%TO.N,unconnected-(U3-S3+-Pad15)*%
X137195000Y-39283000D03*
%TO.P,U3,16,S3-*%
%TO.N,unconnected-(U3-S3--Pad16)*%
X137195000Y-41823000D03*
%TO.P,U3,17,S4+*%
%TO.N,unconnected-(U3-S4+-Pad17)*%
X134655000Y-39283000D03*
%TO.P,U3,18,S4-*%
%TO.N,unconnected-(U3-S4--Pad18)*%
X134655000Y-41823000D03*
%TO.P,U3,19,S5+*%
%TO.N,unconnected-(U3-S5+-Pad19)*%
X132115000Y-39283000D03*
%TO.P,U3,20,S5-*%
%TO.N,unconnected-(U3-S5--Pad20)*%
X132115000Y-41823000D03*
%TO.P,U3,21,S1_IO*%
%TO.N,/Rx*%
X142275000Y-36643000D03*
%TO.P,U3,22,S2_IO*%
%TO.N,/Tx*%
X139735000Y-36643000D03*
%TO.P,U3,23,S3_IO*%
%TO.N,/EStop*%
X137195000Y-36643000D03*
%TO.P,U3,24,S4_IO*%
%TO.N,unconnected-(U3-S4_IO-Pad24)*%
X134655000Y-36643000D03*
%TO.P,U3,25,S5_IO*%
%TO.N,unconnected-(U3-S5_IO-Pad25)*%
X132115000Y-36643000D03*
%TD*%
D14*
%TO.P,J6,1,1*%
%TO.N,/EN1+*%
X133416600Y-47070199D03*
%TO.P,J6,2,2*%
%TO.N,/EN1-*%
X130916600Y-47070199D03*
%TO.P,J6,3,3*%
%TO.N,/EN1A*%
X128416600Y-47070199D03*
%TO.P,J6,4,4*%
%TO.N,/EN1B*%
X125916600Y-47070199D03*
%TD*%
D22*
%TO.P,J10,1,1*%
%TO.N,+12V*%
X169050000Y-47750000D03*
%TO.P,J10,2,2*%
%TO.N,GND*%
X174050000Y-47750000D03*
%TD*%
D23*
%TO.P,D2,1,K*%
%TO.N,GND*%
X163397500Y-42495000D03*
%TO.P,D2,2,A*%
%TO.N,Net-(D2-A)*%
X164972500Y-42495000D03*
%TD*%
D24*
%TO.P,C6,1*%
%TO.N,GND*%
X199770000Y-51965000D03*
%TO.P,C6,2*%
%TO.N,+3V3*%
X198220000Y-51965000D03*
%TD*%
D14*
%TO.P,J4,1,1*%
%TO.N,/EN1+2*%
X140500000Y-48383400D03*
%TO.P,J4,2,2*%
%TO.N,/EN1-2*%
X140500000Y-50883400D03*
%TO.P,J4,3,3*%
%TO.N,/EN1A2*%
X140500000Y-53383400D03*
%TO.P,J4,4,4*%
%TO.N,/EN1B2*%
X140500000Y-55883400D03*
%TD*%
D15*
%TO.P,R1,1*%
%TO.N,+3V3*%
X174380000Y-59135000D03*
%TO.P,R1,2*%
%TO.N,Net-(D1-A)*%
X172730000Y-59135000D03*
%TD*%
D23*
%TO.P,D1,1,K*%
%TO.N,GND*%
X169397500Y-59205000D03*
%TO.P,D1,2,A*%
%TO.N,Net-(D1-A)*%
X170972500Y-59205000D03*
%TD*%
D25*
%TO.P,J9,1,Pin_1*%
%TO.N,+12V*%
X181800000Y-59050000D03*
%TO.P,J9,2,Pin_2*%
%TO.N,GND*%
X187420000Y-59050000D03*
%TD*%
D26*
%TO.P,U1,1,GND*%
%TO.N,GND*%
X198200000Y-46750000D03*
%TO.P,U1,2,VREF1*%
%TO.N,+5V*%
X197700000Y-46750000D03*
%TO.P,U1,3,SCL1*%
%TO.N,/SCL*%
X197200000Y-46750000D03*
%TO.P,U1,4,SDA1*%
%TO.N,/SDA*%
X196700000Y-46750000D03*
%TO.P,U1,5,SDA2*%
%TO.N,/SDA3.3*%
X196700000Y-49900000D03*
%TO.P,U1,6,SCL2*%
%TO.N,/SCL3.3*%
X197200000Y-49900000D03*
%TO.P,U1,7,VREF2*%
%TO.N,+3V3*%
X197700000Y-49900000D03*
%TO.P,U1,8,EN*%
X198200000Y-49900000D03*
%TD*%
D14*
%TO.P,J5,1,1*%
%TO.N,/EN2+2*%
X203370199Y-42683400D03*
%TO.P,J5,2,2*%
%TO.N,/EN2-2*%
X203370199Y-45183400D03*
%TO.P,J5,3,3*%
%TO.N,/EN2A2*%
X203370199Y-47683400D03*
%TO.P,J5,4,4*%
%TO.N,/EN2B2*%
X203370199Y-50183400D03*
%TD*%
D27*
%TO.N,GND*%
X201700000Y-60900000D03*
D28*
X129965118Y-51499283D03*
X193900000Y-34300000D03*
D29*
X193000000Y-57600000D03*
X163300000Y-43600000D03*
X168000000Y-59200000D03*
X192900000Y-48400000D03*
D28*
X191600000Y-34700000D03*
X146000000Y-37400000D03*
X183400000Y-43800000D03*
X199800000Y-46700000D03*
X179500000Y-43800000D03*
D27*
X157801254Y-34091234D03*
D28*
X165200000Y-34200000D03*
X203200000Y-53700000D03*
D27*
X191769404Y-60985866D03*
D28*
X129800000Y-42000000D03*
X150900000Y-35600000D03*
X170400000Y-53200000D03*
X195500000Y-51200000D03*
X148800000Y-37500000D03*
D27*
X141100000Y-60600000D03*
D28*
X132100000Y-51900000D03*
X193200000Y-54800000D03*
X179300000Y-45800000D03*
X207200000Y-53700000D03*
X150300000Y-57200000D03*
D27*
X131400000Y-60500000D03*
D28*
X147900000Y-35600000D03*
X160913993Y-42599026D03*
X192100000Y-51200000D03*
X154800000Y-33900000D03*
D27*
X191700000Y-59100000D03*
D28*
X149500000Y-46800000D03*
D27*
X184000000Y-46800000D03*
X201400000Y-34600000D03*
D28*
X192600000Y-44700500D03*
X145000000Y-52100000D03*
X195600000Y-48200000D03*
X131700000Y-44300000D03*
D27*
X135400000Y-60600000D03*
D29*
X199300000Y-45700000D03*
D28*
X174300000Y-53200000D03*
D27*
X126400000Y-60600000D03*
X151800000Y-59200000D03*
D28*
X151100000Y-60900000D03*
X137300000Y-57700000D03*
D27*
X198000000Y-34300000D03*
D28*
X186800000Y-43800000D03*
X197100000Y-53300000D03*
D29*
X199800000Y-53100000D03*
D28*
X134200000Y-51500000D03*
X157900000Y-41100000D03*
D27*
X124000000Y-40300000D03*
D28*
X195300000Y-53100000D03*
D27*
X205100000Y-60700000D03*
D28*
X127300000Y-40600000D03*
D29*
X160900000Y-44600000D03*
D28*
X166600000Y-53100000D03*
X172000000Y-33700000D03*
X165100000Y-38600000D03*
X125500000Y-42100000D03*
X199400000Y-49500000D03*
X194700000Y-49900000D03*
X170400000Y-42500000D03*
D29*
X146100000Y-46200000D03*
D27*
X151900000Y-53000000D03*
D28*
X145200000Y-57500000D03*
X201100000Y-38000000D03*
D27*
X146988726Y-60861535D03*
%TO.N,+12V*%
X185900000Y-46700000D03*
X150400000Y-55700000D03*
D29*
%TO.N,+3V3*%
X175816679Y-59034755D03*
X197000000Y-52000000D03*
D28*
%TO.N,+5V*%
X194800000Y-44699500D03*
D29*
X154400000Y-45785000D03*
D28*
%TO.N,/EStop*%
X146000000Y-34200000D03*
X143975839Y-34223661D03*
X149000000Y-34000000D03*
%TO.N,/Rx*%
X145900000Y-36500000D03*
X171100000Y-41299500D03*
X172200000Y-43600000D03*
X156300000Y-36500000D03*
X148100000Y-36500000D03*
%TO.N,/Tx*%
X178200000Y-43800000D03*
X173000000Y-40300000D03*
X144600000Y-34900000D03*
X171473911Y-40373911D03*
X147000000Y-34900000D03*
X154400000Y-34900000D03*
%TO.N,/EN1+*%
X153400000Y-43700000D03*
X148100000Y-43700000D03*
%TO.N,/EN1-*%
X129800000Y-35500000D03*
X129800000Y-38300000D03*
%TO.N,/EN1A*%
X128400000Y-44400000D03*
X128400000Y-42800000D03*
%TO.N,/EN1B2*%
X170000000Y-44600000D03*
X167400000Y-44600000D03*
%TD*%
D30*
%TO.N,GND*%
X199770000Y-53070000D02*
X199800000Y-53100000D01*
X168005000Y-59205000D02*
X168000000Y-59200000D01*
D31*
X198200000Y-46750000D02*
X199750000Y-46750000D01*
D32*
X155580000Y-59200000D02*
X151800000Y-59200000D01*
D30*
X160902500Y-44602500D02*
X160900000Y-44600000D01*
X199770000Y-51965000D02*
X199770000Y-53070000D01*
D32*
X187420000Y-59050000D02*
X191650000Y-59050000D01*
X191650000Y-59050000D02*
X191700000Y-59100000D01*
D30*
X199280000Y-45680000D02*
X199300000Y-45700000D01*
D31*
X199750000Y-46750000D02*
X199800000Y-46700000D01*
D30*
X163397500Y-43502500D02*
X163300000Y-43600000D01*
X169397500Y-59205000D02*
X168005000Y-59205000D01*
X163397500Y-42495000D02*
X163397500Y-43502500D01*
X199280000Y-44525000D02*
X199280000Y-45680000D01*
X160902500Y-45815000D02*
X160902500Y-44602500D01*
D32*
%TO.N,+12V*%
X185900000Y-46700000D02*
X185900000Y-51600000D01*
D33*
X169050000Y-47750000D02*
X169050000Y-42595000D01*
D32*
X185900000Y-51600000D02*
X181800000Y-55700000D01*
X166500000Y-60900000D02*
X164700000Y-59100000D01*
X177700000Y-60100000D02*
X176900000Y-60900000D01*
X161200000Y-56600000D02*
X161200000Y-55700000D01*
X161200000Y-52900000D02*
X166350000Y-47750000D01*
X160300000Y-55700000D02*
X161200000Y-56600000D01*
X161300000Y-59100000D02*
X161200000Y-59200000D01*
X164700000Y-59100000D02*
X161300000Y-59100000D01*
X181800000Y-59050000D02*
X180750000Y-60100000D01*
X181800000Y-55700000D02*
X181800000Y-59050000D01*
X166350000Y-47750000D02*
X169050000Y-47750000D01*
X180750000Y-60100000D02*
X177700000Y-60100000D01*
X160300000Y-55700000D02*
X161200000Y-54800000D01*
X161200000Y-55700000D02*
X160300000Y-55700000D01*
X161200000Y-54800000D02*
X161200000Y-52900000D01*
D33*
X169050000Y-42595000D02*
X168980000Y-42525000D01*
D32*
X160300000Y-55700000D02*
X150400000Y-55700000D01*
X161200000Y-59200000D02*
X161200000Y-56600000D01*
X176900000Y-60900000D02*
X166500000Y-60900000D01*
X161200000Y-55700000D02*
X161200000Y-54800000D01*
D30*
%TO.N,+3V3*%
X174480245Y-59034755D02*
X174380000Y-59135000D01*
X198220000Y-51965000D02*
X198220000Y-53520000D01*
D31*
X198200000Y-49900000D02*
X197700000Y-49900000D01*
D30*
X175816679Y-59034755D02*
X174480245Y-59034755D01*
X198220000Y-53520000D02*
X201450000Y-56750000D01*
X201450000Y-56750000D02*
X201450000Y-58350000D01*
X197000000Y-52000000D02*
X198185000Y-52000000D01*
D31*
X198200000Y-51945000D02*
X198200000Y-49900000D01*
%TO.N,+5V*%
X194800000Y-44699500D02*
X194899500Y-44600000D01*
D30*
X155520000Y-45785000D02*
X154400000Y-45785000D01*
D31*
X197700000Y-44555000D02*
X197700000Y-46750000D01*
X194899500Y-44600000D02*
X197655000Y-44600000D01*
X197655000Y-44600000D02*
X197730000Y-44525000D01*
X197730000Y-44525000D02*
X197700000Y-44555000D01*
D30*
%TO.N,Net-(D1-A)*%
X171042500Y-59135000D02*
X170972500Y-59205000D01*
X172730000Y-59135000D02*
X171042500Y-59135000D01*
%TO.N,Net-(D2-A)*%
X165002500Y-42525000D02*
X164972500Y-42495000D01*
X167330000Y-42525000D02*
X165002500Y-42525000D01*
%TO.N,Net-(D3-A)*%
X159297500Y-45785000D02*
X159327500Y-45815000D01*
X157170000Y-45785000D02*
X159297500Y-45785000D01*
D31*
%TO.N,/EStop*%
X146100000Y-34100000D02*
X146000000Y-34200000D01*
X149000000Y-34000000D02*
X148900000Y-34100000D01*
X137195000Y-35105000D02*
X137195000Y-36643000D01*
X143899500Y-34300000D02*
X138000000Y-34300000D01*
X148900000Y-34100000D02*
X146100000Y-34100000D01*
X143975839Y-34223661D02*
X143899500Y-34300000D01*
X138000000Y-34300000D02*
X137195000Y-35105000D01*
%TO.N,/Rx*%
X142418000Y-36500000D02*
X142275000Y-36643000D01*
X172200000Y-43100000D02*
X172200000Y-43600000D01*
X171100000Y-42000000D02*
X172200000Y-43100000D01*
X156300000Y-36500000D02*
X148100000Y-36500000D01*
X145900000Y-36500000D02*
X142418000Y-36500000D01*
X171100000Y-41299500D02*
X171100000Y-42000000D01*
%TO.N,/Tx*%
X144600000Y-34900000D02*
X140100000Y-34900000D01*
X154400000Y-34900000D02*
X147000000Y-34900000D01*
X140100000Y-34900000D02*
X139735000Y-35265000D01*
X178100000Y-43900000D02*
X178200000Y-43800000D01*
X173000000Y-43300000D02*
X173600000Y-43900000D01*
X173000000Y-40300000D02*
X171400000Y-40300000D01*
X173000000Y-40300000D02*
X173000000Y-43300000D01*
X173600000Y-43900000D02*
X178100000Y-43900000D01*
X139735000Y-35265000D02*
X139735000Y-36643000D01*
X171400000Y-40300000D02*
X171473911Y-40373911D01*
%TO.N,/SDA*%
X174700000Y-57600000D02*
X173899756Y-56799756D01*
X173899756Y-56799756D02*
X173899756Y-55400000D01*
X196700000Y-46000000D02*
X196500000Y-45800000D01*
X196500000Y-45800000D02*
X181900000Y-45800000D01*
X177100000Y-57600000D02*
X174700000Y-57600000D01*
X196700000Y-46750000D02*
X196700000Y-46000000D01*
X181900000Y-45800000D02*
X178000000Y-49700000D01*
X178000000Y-49700000D02*
X178000000Y-56700000D01*
X178000000Y-56700000D02*
X177100000Y-57600000D01*
%TO.N,/SCL*%
X197200000Y-46750000D02*
X197200000Y-45700000D01*
X181300000Y-45300000D02*
X176399756Y-50200244D01*
X196800000Y-45300000D02*
X181300000Y-45300000D01*
X176399756Y-50200244D02*
X176399756Y-55400000D01*
X197200000Y-45700000D02*
X196800000Y-45300000D01*
%TO.N,/SCL3.3*%
X196100000Y-58000000D02*
X196450000Y-58350000D01*
X197200000Y-50600000D02*
X196100000Y-51700000D01*
X197200000Y-49900000D02*
X197200000Y-50600000D01*
X196100000Y-51700000D02*
X196100000Y-58000000D01*
%TO.N,/SDA3.3*%
X195900000Y-49900000D02*
X194500000Y-51300000D01*
X196700000Y-49900000D02*
X195900000Y-49900000D01*
X194500000Y-59800000D02*
X195400000Y-60700000D01*
X194500000Y-51300000D02*
X194500000Y-59800000D01*
X198950000Y-60050000D02*
X198950000Y-58350000D01*
X198300000Y-60700000D02*
X198950000Y-60050000D01*
X195400000Y-60700000D02*
X198300000Y-60700000D01*
%TO.N,/EN1+*%
X145600000Y-43700000D02*
X145200000Y-44100000D01*
X133416600Y-45383400D02*
X133416600Y-47070199D01*
X134700000Y-44100000D02*
X133416600Y-45383400D01*
X153400000Y-43700000D02*
X156400000Y-43700000D01*
X148100000Y-43700000D02*
X145600000Y-43700000D01*
X157100000Y-38300000D02*
X155800000Y-37000000D01*
X157100000Y-43000000D02*
X157100000Y-38300000D01*
X152435000Y-37565000D02*
X152435000Y-39283000D01*
X153000000Y-37000000D02*
X152435000Y-37565000D01*
X156400000Y-43700000D02*
X157100000Y-43000000D01*
X155800000Y-37000000D02*
X153000000Y-37000000D01*
X145200000Y-44100000D02*
X134700000Y-44100000D01*
%TO.N,/EN1-*%
X129800000Y-35500000D02*
X129800000Y-38300000D01*
%TO.N,/EN1A*%
X147355000Y-36755000D02*
X147355000Y-39283000D01*
X144200000Y-33600000D02*
X147355000Y-36755000D01*
X128416600Y-47070199D02*
X128416600Y-44416600D01*
X128416600Y-44416600D02*
X128400000Y-44400000D01*
X128400000Y-42800000D02*
X128400000Y-35600000D01*
X130400000Y-33600000D02*
X144200000Y-33600000D01*
X128400000Y-35600000D02*
X130400000Y-33600000D01*
%TO.N,/EN2+*%
X151600000Y-45400000D02*
X138400000Y-45400000D01*
X138400000Y-45400000D02*
X137400000Y-46400000D01*
X137400000Y-53600000D02*
X135600000Y-55400000D01*
X135600000Y-55400000D02*
X133416600Y-55400000D01*
X137400000Y-46400000D02*
X137400000Y-53600000D01*
X152435000Y-41823000D02*
X152435000Y-44565000D01*
X152435000Y-44565000D02*
X151600000Y-45400000D01*
%TO.N,/EN2-*%
X131600000Y-52800000D02*
X136200000Y-52800000D01*
X149895000Y-43505000D02*
X149895000Y-41823000D01*
X130916600Y-55400000D02*
X130916600Y-53483400D01*
X138200000Y-44600000D02*
X148800000Y-44600000D01*
X136600000Y-46200000D02*
X138200000Y-44600000D01*
X148800000Y-44600000D02*
X149895000Y-43505000D01*
X130916600Y-53483400D02*
X131600000Y-52800000D01*
X136600000Y-52400000D02*
X136600000Y-46200000D01*
X136200000Y-52800000D02*
X136600000Y-52400000D01*
%TO.N,/EN2B*%
X124400000Y-55400000D02*
X125916600Y-55400000D01*
X144815000Y-43085000D02*
X144400000Y-43500000D01*
X144400000Y-43500000D02*
X124900000Y-43500000D01*
X123700000Y-54700000D02*
X124400000Y-55400000D01*
X144815000Y-41823000D02*
X144815000Y-43085000D01*
X124900000Y-43500000D02*
X123700000Y-44700000D01*
X123700000Y-44700000D02*
X123700000Y-54700000D01*
%TO.N,/EN1+2*%
X169700000Y-39500000D02*
X172100000Y-37100000D01*
X149616600Y-48383400D02*
X153800000Y-44200000D01*
X172100000Y-37100000D02*
X172100000Y-34700000D01*
X156465686Y-44200000D02*
X161165686Y-39500000D01*
X153800000Y-44200000D02*
X156465686Y-44200000D01*
X161165686Y-39500000D02*
X169700000Y-39500000D01*
X195990000Y-34790000D02*
X195990000Y-39303000D01*
X173300000Y-33500000D02*
X194700000Y-33500000D01*
X194700000Y-33500000D02*
X195990000Y-34790000D01*
X140500000Y-48383400D02*
X149616600Y-48383400D01*
X172100000Y-34700000D02*
X173300000Y-33500000D01*
%TO.N,/EN1A2*%
X140500000Y-53383400D02*
X146816600Y-53383400D01*
X170300000Y-40700000D02*
X173500000Y-37500000D01*
X163300000Y-40700000D02*
X170300000Y-40700000D01*
X162200000Y-46300000D02*
X162200000Y-41800000D01*
X173500000Y-37500000D02*
X173500000Y-35600000D01*
X173500000Y-35600000D02*
X174500000Y-34600000D01*
X153300000Y-46900000D02*
X161600000Y-46900000D01*
X162200000Y-41800000D02*
X163300000Y-40700000D01*
X190000000Y-34600000D02*
X190910000Y-35510000D01*
X146816600Y-53383400D02*
X153300000Y-46900000D01*
X174500000Y-34600000D02*
X190000000Y-34600000D01*
X161600000Y-46900000D02*
X162200000Y-46300000D01*
X190910000Y-35510000D02*
X190910000Y-39303000D01*
%TO.N,/EN1B2*%
X161600000Y-47600000D02*
X153700000Y-47600000D01*
X142383400Y-54000000D02*
X140500000Y-55883400D01*
X164600000Y-44600000D02*
X161600000Y-47600000D01*
X189700000Y-44600000D02*
X170000000Y-44600000D01*
X190910000Y-41843000D02*
X190910000Y-43390000D01*
X190910000Y-43390000D02*
X189700000Y-44600000D01*
X167400000Y-44600000D02*
X164600000Y-44600000D01*
X147300000Y-54000000D02*
X142383400Y-54000000D01*
X153700000Y-47600000D02*
X147300000Y-54000000D01*
%TO.N,/EN1-2*%
X162000000Y-40200000D02*
X169900000Y-40200000D01*
X142416600Y-50883400D02*
X144200000Y-49100000D01*
X154300000Y-44800000D02*
X157400000Y-44800000D01*
X157400000Y-44800000D02*
X162000000Y-40200000D01*
X172800000Y-35000000D02*
X173800000Y-34000000D01*
X150000000Y-49100000D02*
X154300000Y-44800000D01*
X169900000Y-40200000D02*
X172800000Y-37300000D01*
X193450000Y-35350000D02*
X193450000Y-39303000D01*
X144200000Y-49100000D02*
X150000000Y-49100000D01*
X192100000Y-34000000D02*
X193450000Y-35350000D01*
X173800000Y-34000000D02*
X192100000Y-34000000D01*
X140500000Y-50883400D02*
X142416600Y-50883400D01*
X172800000Y-37300000D02*
X172800000Y-35000000D01*
%TD*%
M02*
