%TF.GenerationSoftware,KiCad,Pcbnew,7.0.7*%
%TF.CreationDate,2023-11-07T21:15:51-05:00*%
%TF.ProjectId,DriveTrain,44726976-6554-4726-9169-6e2e6b696361,rev?*%
%TF.SameCoordinates,Original*%
%TF.FileFunction,Soldermask,Bot*%
%TF.FilePolarity,Negative*%
%FSLAX46Y46*%
G04 Gerber Fmt 4.6, Leading zero omitted, Abs format (unit mm)*
G04 Created by KiCad (PCBNEW 7.0.7) date 2023-11-07 21:15:51*
%MOMM*%
%LPD*%
G01*
G04 APERTURE LIST*
G04 Aperture macros list*
%AMRoundRect*
0 Rectangle with rounded corners*
0 $1 Rounding radius*
0 $2 $3 $4 $5 $6 $7 $8 $9 X,Y pos of 4 corners*
0 Add a 4 corners polygon primitive as box body*
4,1,4,$2,$3,$4,$5,$6,$7,$8,$9,$2,$3,0*
0 Add four circle primitives for the rounded corners*
1,1,$1+$1,$2,$3*
1,1,$1+$1,$4,$5*
1,1,$1+$1,$6,$7*
1,1,$1+$1,$8,$9*
0 Add four rect primitives between the rounded corners*
20,1,$1+$1,$2,$3,$4,$5,0*
20,1,$1+$1,$4,$5,$6,$7,0*
20,1,$1+$1,$6,$7,$8,$9,0*
20,1,$1+$1,$8,$9,$2,$3,0*%
G04 Aperture macros list end*
%ADD10R,1.400000X1.400000*%
%ADD11C,1.400000*%
%ADD12C,3.000000*%
%ADD13RoundRect,0.326336X-0.528664X-0.528664X0.528664X-0.528664X0.528664X0.528664X-0.528664X0.528664X0*%
%ADD14C,1.710000*%
%ADD15C,1.752600*%
%ADD16R,1.650000X1.650000*%
%ADD17C,1.650000*%
%ADD18C,4.300000*%
%ADD19RoundRect,0.225000X0.250000X-0.225000X0.250000X0.225000X-0.250000X0.225000X-0.250000X-0.225000X0*%
%ADD20RoundRect,0.225000X-0.225000X-0.250000X0.225000X-0.250000X0.225000X0.250000X-0.225000X0.250000X0*%
%ADD21RoundRect,0.250000X-0.300000X2.050000X-0.300000X-2.050000X0.300000X-2.050000X0.300000X2.050000X0*%
%ADD22RoundRect,0.250002X-5.149998X4.449998X-5.149998X-4.449998X5.149998X-4.449998X5.149998X4.449998X0*%
%ADD23R,3.500000X1.600000*%
%ADD24R,9.750000X12.200000*%
G04 APERTURE END LIST*
D10*
%TO.C,J8*%
X196450000Y-58350000D03*
D11*
X198950000Y-58350000D03*
X201450000Y-58350000D03*
X203950000Y-58350000D03*
%TD*%
D12*
%TO.C,H1*%
X125275000Y-36030000D03*
%TD*%
D13*
%TO.C,U2*%
X198530000Y-39303000D03*
D14*
X198530000Y-41843000D03*
X195990000Y-39303000D03*
X195990000Y-41843000D03*
X193450000Y-39303000D03*
X193450000Y-41843000D03*
X190910000Y-39303000D03*
X190910000Y-41843000D03*
X188370000Y-39303000D03*
X188370000Y-41843000D03*
X185830000Y-39303000D03*
X185830000Y-41843000D03*
X183290000Y-39303000D03*
X183290000Y-41843000D03*
X180750000Y-39303000D03*
X180750000Y-41843000D03*
X178210000Y-39303000D03*
X178210000Y-41843000D03*
X175670000Y-39303000D03*
X175670000Y-41843000D03*
X185830000Y-36663000D03*
X183290000Y-36663000D03*
X180750000Y-36663000D03*
X178210000Y-36663000D03*
X175670000Y-36663000D03*
%TD*%
D15*
%TO.C,J7*%
X133416600Y-55400000D03*
X130916600Y-55400000D03*
X128416600Y-55400000D03*
X125916600Y-55400000D03*
%TD*%
D16*
%TO.C,J2*%
X166399756Y-55400000D03*
D17*
X168899756Y-55400000D03*
X171399756Y-55400000D03*
X173899756Y-55400000D03*
X176399756Y-55400000D03*
%TD*%
D13*
%TO.C,U3*%
X154975000Y-39283000D03*
D14*
X154975000Y-41823000D03*
X152435000Y-39283000D03*
X152435000Y-41823000D03*
X149895000Y-39283000D03*
X149895000Y-41823000D03*
X147355000Y-39283000D03*
X147355000Y-41823000D03*
X144815000Y-39283000D03*
X144815000Y-41823000D03*
X142275000Y-39283000D03*
X142275000Y-41823000D03*
X139735000Y-39283000D03*
X139735000Y-41823000D03*
X137195000Y-39283000D03*
X137195000Y-41823000D03*
X134655000Y-39283000D03*
X134655000Y-41823000D03*
X132115000Y-39283000D03*
X132115000Y-41823000D03*
X142275000Y-36643000D03*
X139735000Y-36643000D03*
X137195000Y-36643000D03*
X134655000Y-36643000D03*
X132115000Y-36643000D03*
%TD*%
D15*
%TO.C,J6*%
X133416600Y-47070199D03*
X130916600Y-47070199D03*
X128416600Y-47070199D03*
X125916600Y-47070199D03*
%TD*%
D12*
%TO.C,H3*%
X168842000Y-36030000D03*
%TD*%
D18*
%TO.C,J10*%
X169050000Y-47750000D03*
X174050000Y-47750000D03*
%TD*%
D12*
%TO.C,H2*%
X161722000Y-36030000D03*
%TD*%
D15*
%TO.C,J4*%
X140500000Y-48383400D03*
X140500000Y-50883400D03*
X140500000Y-53383400D03*
X140500000Y-55883400D03*
%TD*%
D12*
%TO.C,H4*%
X205292000Y-36030000D03*
%TD*%
D15*
%TO.C,J5*%
X203370199Y-42683400D03*
X203370199Y-45183400D03*
X203370199Y-47683400D03*
X203370199Y-50183400D03*
%TD*%
D19*
%TO.C,C1*%
X191745000Y-48370000D03*
X191745000Y-46820000D03*
%TD*%
D20*
%TO.C,C4*%
X146080000Y-45035000D03*
X147630000Y-45035000D03*
%TD*%
D19*
%TO.C,C2*%
X191785000Y-57530000D03*
X191785000Y-55980000D03*
%TD*%
D20*
%TO.C,C3*%
X141170000Y-59375000D03*
X142720000Y-59375000D03*
%TD*%
D21*
%TO.C,IC1*%
X182675000Y-46795000D03*
D22*
X185215000Y-55945000D03*
D21*
X187755000Y-46795000D03*
%TD*%
D23*
%TO.C,IC2*%
X147674000Y-55540000D03*
D24*
X157950000Y-53000000D03*
D23*
X147674000Y-50460000D03*
%TD*%
M02*
