%TF.GenerationSoftware,KiCad,Pcbnew,7.0.7*%
%TF.CreationDate,2023-11-07T21:15:59-05:00*%
%TF.ProjectId,DriveTrain,44726976-6554-4726-9169-6e2e6b696361,rev?*%
%TF.SameCoordinates,Original*%
%TF.FileFunction,Drillmap*%
%TF.FilePolarity,Positive*%
%FSLAX45Y45*%
G04 Gerber Fmt 4.5, Leading zero omitted, Abs format (unit mm)*
G04 Created by KiCad (PCBNEW 7.0.7) date 2023-11-07 21:15:59*
%MOMM*%
%LPD*%
G01*
G04 APERTURE LIST*
%ADD10C,0.150000*%
%ADD11C,0.200000*%
%ADD12C,0.300000*%
G04 APERTURE END LIST*
D10*
X12277900Y-3316200D02*
X12277900Y-6200000D01*
X20778700Y-3316200D02*
X20778700Y-6200000D01*
X12277900Y-6200000D02*
X20778700Y-6200000D01*
X12277900Y-3316200D02*
X20778700Y-3316200D01*
D11*
D12*
X12377500Y-3453000D02*
X12677500Y-3753000D01*
X12677500Y-3453000D02*
X12377500Y-3753000D01*
X16022200Y-3453000D02*
X16322200Y-3753000D01*
X16322200Y-3453000D02*
X16022200Y-3753000D01*
X16734200Y-3453000D02*
X17034200Y-3753000D01*
X17034200Y-3453000D02*
X16734200Y-3753000D01*
X20379200Y-3453000D02*
X20679200Y-3753000D01*
X20679200Y-3453000D02*
X20379200Y-3753000D01*
D11*
X12531177Y-6518984D02*
X12531177Y-6318984D01*
X12531177Y-6318984D02*
X12578796Y-6318984D01*
X12578796Y-6318984D02*
X12607367Y-6328508D01*
X12607367Y-6328508D02*
X12626415Y-6347555D01*
X12626415Y-6347555D02*
X12635939Y-6366603D01*
X12635939Y-6366603D02*
X12645462Y-6404698D01*
X12645462Y-6404698D02*
X12645462Y-6433269D01*
X12645462Y-6433269D02*
X12635939Y-6471365D01*
X12635939Y-6471365D02*
X12626415Y-6490412D01*
X12626415Y-6490412D02*
X12607367Y-6509460D01*
X12607367Y-6509460D02*
X12578796Y-6518984D01*
X12578796Y-6518984D02*
X12531177Y-6518984D01*
X12731177Y-6518984D02*
X12731177Y-6385650D01*
X12731177Y-6423746D02*
X12740701Y-6404698D01*
X12740701Y-6404698D02*
X12750224Y-6395174D01*
X12750224Y-6395174D02*
X12769272Y-6385650D01*
X12769272Y-6385650D02*
X12788320Y-6385650D01*
X12854986Y-6518984D02*
X12854986Y-6385650D01*
X12854986Y-6318984D02*
X12845462Y-6328508D01*
X12845462Y-6328508D02*
X12854986Y-6338031D01*
X12854986Y-6338031D02*
X12864510Y-6328508D01*
X12864510Y-6328508D02*
X12854986Y-6318984D01*
X12854986Y-6318984D02*
X12854986Y-6338031D01*
X12978796Y-6518984D02*
X12959748Y-6509460D01*
X12959748Y-6509460D02*
X12950224Y-6490412D01*
X12950224Y-6490412D02*
X12950224Y-6318984D01*
X13083558Y-6518984D02*
X13064510Y-6509460D01*
X13064510Y-6509460D02*
X13054986Y-6490412D01*
X13054986Y-6490412D02*
X13054986Y-6318984D01*
X13312129Y-6518984D02*
X13312129Y-6318984D01*
X13312129Y-6318984D02*
X13378796Y-6461841D01*
X13378796Y-6461841D02*
X13445462Y-6318984D01*
X13445462Y-6318984D02*
X13445462Y-6518984D01*
X13626415Y-6518984D02*
X13626415Y-6414222D01*
X13626415Y-6414222D02*
X13616891Y-6395174D01*
X13616891Y-6395174D02*
X13597843Y-6385650D01*
X13597843Y-6385650D02*
X13559748Y-6385650D01*
X13559748Y-6385650D02*
X13540701Y-6395174D01*
X13626415Y-6509460D02*
X13607367Y-6518984D01*
X13607367Y-6518984D02*
X13559748Y-6518984D01*
X13559748Y-6518984D02*
X13540701Y-6509460D01*
X13540701Y-6509460D02*
X13531177Y-6490412D01*
X13531177Y-6490412D02*
X13531177Y-6471365D01*
X13531177Y-6471365D02*
X13540701Y-6452317D01*
X13540701Y-6452317D02*
X13559748Y-6442793D01*
X13559748Y-6442793D02*
X13607367Y-6442793D01*
X13607367Y-6442793D02*
X13626415Y-6433269D01*
X13721653Y-6385650D02*
X13721653Y-6585650D01*
X13721653Y-6395174D02*
X13740701Y-6385650D01*
X13740701Y-6385650D02*
X13778796Y-6385650D01*
X13778796Y-6385650D02*
X13797843Y-6395174D01*
X13797843Y-6395174D02*
X13807367Y-6404698D01*
X13807367Y-6404698D02*
X13816891Y-6423746D01*
X13816891Y-6423746D02*
X13816891Y-6480888D01*
X13816891Y-6480888D02*
X13807367Y-6499936D01*
X13807367Y-6499936D02*
X13797843Y-6509460D01*
X13797843Y-6509460D02*
X13778796Y-6518984D01*
X13778796Y-6518984D02*
X13740701Y-6518984D01*
X13740701Y-6518984D02*
X13721653Y-6509460D01*
X13902605Y-6499936D02*
X13912129Y-6509460D01*
X13912129Y-6509460D02*
X13902605Y-6518984D01*
X13902605Y-6518984D02*
X13893082Y-6509460D01*
X13893082Y-6509460D02*
X13902605Y-6499936D01*
X13902605Y-6499936D02*
X13902605Y-6518984D01*
X13902605Y-6395174D02*
X13912129Y-6404698D01*
X13912129Y-6404698D02*
X13902605Y-6414222D01*
X13902605Y-6414222D02*
X13893082Y-6404698D01*
X13893082Y-6404698D02*
X13902605Y-6395174D01*
X13902605Y-6395174D02*
X13902605Y-6414222D01*
X12070400Y-6747500D02*
X12270400Y-6947500D01*
X12270400Y-6747500D02*
X12070400Y-6947500D01*
X12512129Y-6738984D02*
X12635939Y-6738984D01*
X12635939Y-6738984D02*
X12569272Y-6815174D01*
X12569272Y-6815174D02*
X12597843Y-6815174D01*
X12597843Y-6815174D02*
X12616891Y-6824698D01*
X12616891Y-6824698D02*
X12626415Y-6834222D01*
X12626415Y-6834222D02*
X12635939Y-6853269D01*
X12635939Y-6853269D02*
X12635939Y-6900888D01*
X12635939Y-6900888D02*
X12626415Y-6919936D01*
X12626415Y-6919936D02*
X12616891Y-6929460D01*
X12616891Y-6929460D02*
X12597843Y-6938984D01*
X12597843Y-6938984D02*
X12540701Y-6938984D01*
X12540701Y-6938984D02*
X12521653Y-6929460D01*
X12521653Y-6929460D02*
X12512129Y-6919936D01*
X12721653Y-6919936D02*
X12731177Y-6929460D01*
X12731177Y-6929460D02*
X12721653Y-6938984D01*
X12721653Y-6938984D02*
X12712129Y-6929460D01*
X12712129Y-6929460D02*
X12721653Y-6919936D01*
X12721653Y-6919936D02*
X12721653Y-6938984D01*
X12854986Y-6738984D02*
X12874034Y-6738984D01*
X12874034Y-6738984D02*
X12893082Y-6748508D01*
X12893082Y-6748508D02*
X12902605Y-6758031D01*
X12902605Y-6758031D02*
X12912129Y-6777079D01*
X12912129Y-6777079D02*
X12921653Y-6815174D01*
X12921653Y-6815174D02*
X12921653Y-6862793D01*
X12921653Y-6862793D02*
X12912129Y-6900888D01*
X12912129Y-6900888D02*
X12902605Y-6919936D01*
X12902605Y-6919936D02*
X12893082Y-6929460D01*
X12893082Y-6929460D02*
X12874034Y-6938984D01*
X12874034Y-6938984D02*
X12854986Y-6938984D01*
X12854986Y-6938984D02*
X12835939Y-6929460D01*
X12835939Y-6929460D02*
X12826415Y-6919936D01*
X12826415Y-6919936D02*
X12816891Y-6900888D01*
X12816891Y-6900888D02*
X12807367Y-6862793D01*
X12807367Y-6862793D02*
X12807367Y-6815174D01*
X12807367Y-6815174D02*
X12816891Y-6777079D01*
X12816891Y-6777079D02*
X12826415Y-6758031D01*
X12826415Y-6758031D02*
X12835939Y-6748508D01*
X12835939Y-6748508D02*
X12854986Y-6738984D01*
X13045462Y-6738984D02*
X13064510Y-6738984D01*
X13064510Y-6738984D02*
X13083558Y-6748508D01*
X13083558Y-6748508D02*
X13093082Y-6758031D01*
X13093082Y-6758031D02*
X13102605Y-6777079D01*
X13102605Y-6777079D02*
X13112129Y-6815174D01*
X13112129Y-6815174D02*
X13112129Y-6862793D01*
X13112129Y-6862793D02*
X13102605Y-6900888D01*
X13102605Y-6900888D02*
X13093082Y-6919936D01*
X13093082Y-6919936D02*
X13083558Y-6929460D01*
X13083558Y-6929460D02*
X13064510Y-6938984D01*
X13064510Y-6938984D02*
X13045462Y-6938984D01*
X13045462Y-6938984D02*
X13026415Y-6929460D01*
X13026415Y-6929460D02*
X13016891Y-6919936D01*
X13016891Y-6919936D02*
X13007367Y-6900888D01*
X13007367Y-6900888D02*
X12997843Y-6862793D01*
X12997843Y-6862793D02*
X12997843Y-6815174D01*
X12997843Y-6815174D02*
X13007367Y-6777079D01*
X13007367Y-6777079D02*
X13016891Y-6758031D01*
X13016891Y-6758031D02*
X13026415Y-6748508D01*
X13026415Y-6748508D02*
X13045462Y-6738984D01*
X13235939Y-6738984D02*
X13254986Y-6738984D01*
X13254986Y-6738984D02*
X13274034Y-6748508D01*
X13274034Y-6748508D02*
X13283558Y-6758031D01*
X13283558Y-6758031D02*
X13293082Y-6777079D01*
X13293082Y-6777079D02*
X13302605Y-6815174D01*
X13302605Y-6815174D02*
X13302605Y-6862793D01*
X13302605Y-6862793D02*
X13293082Y-6900888D01*
X13293082Y-6900888D02*
X13283558Y-6919936D01*
X13283558Y-6919936D02*
X13274034Y-6929460D01*
X13274034Y-6929460D02*
X13254986Y-6938984D01*
X13254986Y-6938984D02*
X13235939Y-6938984D01*
X13235939Y-6938984D02*
X13216891Y-6929460D01*
X13216891Y-6929460D02*
X13207367Y-6919936D01*
X13207367Y-6919936D02*
X13197843Y-6900888D01*
X13197843Y-6900888D02*
X13188320Y-6862793D01*
X13188320Y-6862793D02*
X13188320Y-6815174D01*
X13188320Y-6815174D02*
X13197843Y-6777079D01*
X13197843Y-6777079D02*
X13207367Y-6758031D01*
X13207367Y-6758031D02*
X13216891Y-6748508D01*
X13216891Y-6748508D02*
X13235939Y-6738984D01*
X13388320Y-6938984D02*
X13388320Y-6805650D01*
X13388320Y-6824698D02*
X13397843Y-6815174D01*
X13397843Y-6815174D02*
X13416891Y-6805650D01*
X13416891Y-6805650D02*
X13445463Y-6805650D01*
X13445463Y-6805650D02*
X13464510Y-6815174D01*
X13464510Y-6815174D02*
X13474034Y-6834222D01*
X13474034Y-6834222D02*
X13474034Y-6938984D01*
X13474034Y-6834222D02*
X13483558Y-6815174D01*
X13483558Y-6815174D02*
X13502605Y-6805650D01*
X13502605Y-6805650D02*
X13531177Y-6805650D01*
X13531177Y-6805650D02*
X13550224Y-6815174D01*
X13550224Y-6815174D02*
X13559748Y-6834222D01*
X13559748Y-6834222D02*
X13559748Y-6938984D01*
X13654986Y-6938984D02*
X13654986Y-6805650D01*
X13654986Y-6824698D02*
X13664510Y-6815174D01*
X13664510Y-6815174D02*
X13683558Y-6805650D01*
X13683558Y-6805650D02*
X13712129Y-6805650D01*
X13712129Y-6805650D02*
X13731177Y-6815174D01*
X13731177Y-6815174D02*
X13740701Y-6834222D01*
X13740701Y-6834222D02*
X13740701Y-6938984D01*
X13740701Y-6834222D02*
X13750224Y-6815174D01*
X13750224Y-6815174D02*
X13769272Y-6805650D01*
X13769272Y-6805650D02*
X13797843Y-6805650D01*
X13797843Y-6805650D02*
X13816891Y-6815174D01*
X13816891Y-6815174D02*
X13826415Y-6834222D01*
X13826415Y-6834222D02*
X13826415Y-6938984D01*
X14216891Y-6729460D02*
X14045463Y-6986603D01*
X14474034Y-6738984D02*
X14493082Y-6738984D01*
X14493082Y-6738984D02*
X14512129Y-6748508D01*
X14512129Y-6748508D02*
X14521653Y-6758031D01*
X14521653Y-6758031D02*
X14531177Y-6777079D01*
X14531177Y-6777079D02*
X14540701Y-6815174D01*
X14540701Y-6815174D02*
X14540701Y-6862793D01*
X14540701Y-6862793D02*
X14531177Y-6900888D01*
X14531177Y-6900888D02*
X14521653Y-6919936D01*
X14521653Y-6919936D02*
X14512129Y-6929460D01*
X14512129Y-6929460D02*
X14493082Y-6938984D01*
X14493082Y-6938984D02*
X14474034Y-6938984D01*
X14474034Y-6938984D02*
X14454986Y-6929460D01*
X14454986Y-6929460D02*
X14445463Y-6919936D01*
X14445463Y-6919936D02*
X14435939Y-6900888D01*
X14435939Y-6900888D02*
X14426415Y-6862793D01*
X14426415Y-6862793D02*
X14426415Y-6815174D01*
X14426415Y-6815174D02*
X14435939Y-6777079D01*
X14435939Y-6777079D02*
X14445463Y-6758031D01*
X14445463Y-6758031D02*
X14454986Y-6748508D01*
X14454986Y-6748508D02*
X14474034Y-6738984D01*
X14626415Y-6919936D02*
X14635939Y-6929460D01*
X14635939Y-6929460D02*
X14626415Y-6938984D01*
X14626415Y-6938984D02*
X14616891Y-6929460D01*
X14616891Y-6929460D02*
X14626415Y-6919936D01*
X14626415Y-6919936D02*
X14626415Y-6938984D01*
X14826415Y-6938984D02*
X14712129Y-6938984D01*
X14769272Y-6938984D02*
X14769272Y-6738984D01*
X14769272Y-6738984D02*
X14750225Y-6767555D01*
X14750225Y-6767555D02*
X14731177Y-6786603D01*
X14731177Y-6786603D02*
X14712129Y-6796127D01*
X15016891Y-6938984D02*
X14902606Y-6938984D01*
X14959748Y-6938984D02*
X14959748Y-6738984D01*
X14959748Y-6738984D02*
X14940701Y-6767555D01*
X14940701Y-6767555D02*
X14921653Y-6786603D01*
X14921653Y-6786603D02*
X14902606Y-6796127D01*
X15131177Y-6824698D02*
X15112129Y-6815174D01*
X15112129Y-6815174D02*
X15102606Y-6805650D01*
X15102606Y-6805650D02*
X15093082Y-6786603D01*
X15093082Y-6786603D02*
X15093082Y-6777079D01*
X15093082Y-6777079D02*
X15102606Y-6758031D01*
X15102606Y-6758031D02*
X15112129Y-6748508D01*
X15112129Y-6748508D02*
X15131177Y-6738984D01*
X15131177Y-6738984D02*
X15169272Y-6738984D01*
X15169272Y-6738984D02*
X15188320Y-6748508D01*
X15188320Y-6748508D02*
X15197844Y-6758031D01*
X15197844Y-6758031D02*
X15207367Y-6777079D01*
X15207367Y-6777079D02*
X15207367Y-6786603D01*
X15207367Y-6786603D02*
X15197844Y-6805650D01*
X15197844Y-6805650D02*
X15188320Y-6815174D01*
X15188320Y-6815174D02*
X15169272Y-6824698D01*
X15169272Y-6824698D02*
X15131177Y-6824698D01*
X15131177Y-6824698D02*
X15112129Y-6834222D01*
X15112129Y-6834222D02*
X15102606Y-6843746D01*
X15102606Y-6843746D02*
X15093082Y-6862793D01*
X15093082Y-6862793D02*
X15093082Y-6900888D01*
X15093082Y-6900888D02*
X15102606Y-6919936D01*
X15102606Y-6919936D02*
X15112129Y-6929460D01*
X15112129Y-6929460D02*
X15131177Y-6938984D01*
X15131177Y-6938984D02*
X15169272Y-6938984D01*
X15169272Y-6938984D02*
X15188320Y-6929460D01*
X15188320Y-6929460D02*
X15197844Y-6919936D01*
X15197844Y-6919936D02*
X15207367Y-6900888D01*
X15207367Y-6900888D02*
X15207367Y-6862793D01*
X15207367Y-6862793D02*
X15197844Y-6843746D01*
X15197844Y-6843746D02*
X15188320Y-6834222D01*
X15188320Y-6834222D02*
X15169272Y-6824698D01*
X15397844Y-6938984D02*
X15283558Y-6938984D01*
X15340701Y-6938984D02*
X15340701Y-6738984D01*
X15340701Y-6738984D02*
X15321653Y-6767555D01*
X15321653Y-6767555D02*
X15302606Y-6786603D01*
X15302606Y-6786603D02*
X15283558Y-6796127D01*
X15474034Y-6738984D02*
X15474034Y-6777079D01*
X15550225Y-6738984D02*
X15550225Y-6777079D01*
X15845463Y-7015174D02*
X15835939Y-7005650D01*
X15835939Y-7005650D02*
X15816891Y-6977079D01*
X15816891Y-6977079D02*
X15807368Y-6958031D01*
X15807368Y-6958031D02*
X15797844Y-6929460D01*
X15797844Y-6929460D02*
X15788320Y-6881841D01*
X15788320Y-6881841D02*
X15788320Y-6843746D01*
X15788320Y-6843746D02*
X15797844Y-6796127D01*
X15797844Y-6796127D02*
X15807368Y-6767555D01*
X15807368Y-6767555D02*
X15816891Y-6748508D01*
X15816891Y-6748508D02*
X15835939Y-6719936D01*
X15835939Y-6719936D02*
X15845463Y-6710412D01*
X16007368Y-6805650D02*
X16007368Y-6938984D01*
X15959748Y-6729460D02*
X15912129Y-6872317D01*
X15912129Y-6872317D02*
X16035939Y-6872317D01*
X16264510Y-6938984D02*
X16264510Y-6738984D01*
X16350225Y-6938984D02*
X16350225Y-6834222D01*
X16350225Y-6834222D02*
X16340701Y-6815174D01*
X16340701Y-6815174D02*
X16321653Y-6805650D01*
X16321653Y-6805650D02*
X16293082Y-6805650D01*
X16293082Y-6805650D02*
X16274034Y-6815174D01*
X16274034Y-6815174D02*
X16264510Y-6824698D01*
X16474034Y-6938984D02*
X16454987Y-6929460D01*
X16454987Y-6929460D02*
X16445463Y-6919936D01*
X16445463Y-6919936D02*
X16435939Y-6900888D01*
X16435939Y-6900888D02*
X16435939Y-6843746D01*
X16435939Y-6843746D02*
X16445463Y-6824698D01*
X16445463Y-6824698D02*
X16454987Y-6815174D01*
X16454987Y-6815174D02*
X16474034Y-6805650D01*
X16474034Y-6805650D02*
X16502606Y-6805650D01*
X16502606Y-6805650D02*
X16521653Y-6815174D01*
X16521653Y-6815174D02*
X16531177Y-6824698D01*
X16531177Y-6824698D02*
X16540701Y-6843746D01*
X16540701Y-6843746D02*
X16540701Y-6900888D01*
X16540701Y-6900888D02*
X16531177Y-6919936D01*
X16531177Y-6919936D02*
X16521653Y-6929460D01*
X16521653Y-6929460D02*
X16502606Y-6938984D01*
X16502606Y-6938984D02*
X16474034Y-6938984D01*
X16654987Y-6938984D02*
X16635939Y-6929460D01*
X16635939Y-6929460D02*
X16626415Y-6910412D01*
X16626415Y-6910412D02*
X16626415Y-6738984D01*
X16807368Y-6929460D02*
X16788320Y-6938984D01*
X16788320Y-6938984D02*
X16750225Y-6938984D01*
X16750225Y-6938984D02*
X16731177Y-6929460D01*
X16731177Y-6929460D02*
X16721653Y-6910412D01*
X16721653Y-6910412D02*
X16721653Y-6834222D01*
X16721653Y-6834222D02*
X16731177Y-6815174D01*
X16731177Y-6815174D02*
X16750225Y-6805650D01*
X16750225Y-6805650D02*
X16788320Y-6805650D01*
X16788320Y-6805650D02*
X16807368Y-6815174D01*
X16807368Y-6815174D02*
X16816892Y-6834222D01*
X16816892Y-6834222D02*
X16816892Y-6853269D01*
X16816892Y-6853269D02*
X16721653Y-6872317D01*
X16893082Y-6929460D02*
X16912130Y-6938984D01*
X16912130Y-6938984D02*
X16950225Y-6938984D01*
X16950225Y-6938984D02*
X16969273Y-6929460D01*
X16969273Y-6929460D02*
X16978796Y-6910412D01*
X16978796Y-6910412D02*
X16978796Y-6900888D01*
X16978796Y-6900888D02*
X16969273Y-6881841D01*
X16969273Y-6881841D02*
X16950225Y-6872317D01*
X16950225Y-6872317D02*
X16921653Y-6872317D01*
X16921653Y-6872317D02*
X16902606Y-6862793D01*
X16902606Y-6862793D02*
X16893082Y-6843746D01*
X16893082Y-6843746D02*
X16893082Y-6834222D01*
X16893082Y-6834222D02*
X16902606Y-6815174D01*
X16902606Y-6815174D02*
X16921653Y-6805650D01*
X16921653Y-6805650D02*
X16950225Y-6805650D01*
X16950225Y-6805650D02*
X16969273Y-6815174D01*
X17045463Y-7015174D02*
X17054987Y-7005650D01*
X17054987Y-7005650D02*
X17074034Y-6977079D01*
X17074034Y-6977079D02*
X17083558Y-6958031D01*
X17083558Y-6958031D02*
X17093082Y-6929460D01*
X17093082Y-6929460D02*
X17102606Y-6881841D01*
X17102606Y-6881841D02*
X17102606Y-6843746D01*
X17102606Y-6843746D02*
X17093082Y-6796127D01*
X17093082Y-6796127D02*
X17083558Y-6767555D01*
X17083558Y-6767555D02*
X17074034Y-6748508D01*
X17074034Y-6748508D02*
X17054987Y-6719936D01*
X17054987Y-6719936D02*
X17045463Y-6710412D01*
X17407368Y-7015174D02*
X17397844Y-7005650D01*
X17397844Y-7005650D02*
X17378796Y-6977079D01*
X17378796Y-6977079D02*
X17369273Y-6958031D01*
X17369273Y-6958031D02*
X17359749Y-6929460D01*
X17359749Y-6929460D02*
X17350225Y-6881841D01*
X17350225Y-6881841D02*
X17350225Y-6843746D01*
X17350225Y-6843746D02*
X17359749Y-6796127D01*
X17359749Y-6796127D02*
X17369273Y-6767555D01*
X17369273Y-6767555D02*
X17378796Y-6748508D01*
X17378796Y-6748508D02*
X17397844Y-6719936D01*
X17397844Y-6719936D02*
X17407368Y-6710412D01*
X17483558Y-6805650D02*
X17483558Y-6938984D01*
X17483558Y-6824698D02*
X17493082Y-6815174D01*
X17493082Y-6815174D02*
X17512130Y-6805650D01*
X17512130Y-6805650D02*
X17540701Y-6805650D01*
X17540701Y-6805650D02*
X17559749Y-6815174D01*
X17559749Y-6815174D02*
X17569273Y-6834222D01*
X17569273Y-6834222D02*
X17569273Y-6938984D01*
X17693082Y-6938984D02*
X17674034Y-6929460D01*
X17674034Y-6929460D02*
X17664511Y-6919936D01*
X17664511Y-6919936D02*
X17654987Y-6900888D01*
X17654987Y-6900888D02*
X17654987Y-6843746D01*
X17654987Y-6843746D02*
X17664511Y-6824698D01*
X17664511Y-6824698D02*
X17674034Y-6815174D01*
X17674034Y-6815174D02*
X17693082Y-6805650D01*
X17693082Y-6805650D02*
X17721654Y-6805650D01*
X17721654Y-6805650D02*
X17740701Y-6815174D01*
X17740701Y-6815174D02*
X17750225Y-6824698D01*
X17750225Y-6824698D02*
X17759749Y-6843746D01*
X17759749Y-6843746D02*
X17759749Y-6900888D01*
X17759749Y-6900888D02*
X17750225Y-6919936D01*
X17750225Y-6919936D02*
X17740701Y-6929460D01*
X17740701Y-6929460D02*
X17721654Y-6938984D01*
X17721654Y-6938984D02*
X17693082Y-6938984D01*
X17816892Y-6805650D02*
X17893082Y-6805650D01*
X17845463Y-6738984D02*
X17845463Y-6910412D01*
X17845463Y-6910412D02*
X17854987Y-6929460D01*
X17854987Y-6929460D02*
X17874034Y-6938984D01*
X17874034Y-6938984D02*
X17893082Y-6938984D01*
X18112130Y-6805650D02*
X18112130Y-7005650D01*
X18112130Y-6815174D02*
X18131177Y-6805650D01*
X18131177Y-6805650D02*
X18169273Y-6805650D01*
X18169273Y-6805650D02*
X18188320Y-6815174D01*
X18188320Y-6815174D02*
X18197844Y-6824698D01*
X18197844Y-6824698D02*
X18207368Y-6843746D01*
X18207368Y-6843746D02*
X18207368Y-6900888D01*
X18207368Y-6900888D02*
X18197844Y-6919936D01*
X18197844Y-6919936D02*
X18188320Y-6929460D01*
X18188320Y-6929460D02*
X18169273Y-6938984D01*
X18169273Y-6938984D02*
X18131177Y-6938984D01*
X18131177Y-6938984D02*
X18112130Y-6929460D01*
X18321654Y-6938984D02*
X18302606Y-6929460D01*
X18302606Y-6929460D02*
X18293082Y-6910412D01*
X18293082Y-6910412D02*
X18293082Y-6738984D01*
X18483558Y-6938984D02*
X18483558Y-6834222D01*
X18483558Y-6834222D02*
X18474035Y-6815174D01*
X18474035Y-6815174D02*
X18454987Y-6805650D01*
X18454987Y-6805650D02*
X18416892Y-6805650D01*
X18416892Y-6805650D02*
X18397844Y-6815174D01*
X18483558Y-6929460D02*
X18464511Y-6938984D01*
X18464511Y-6938984D02*
X18416892Y-6938984D01*
X18416892Y-6938984D02*
X18397844Y-6929460D01*
X18397844Y-6929460D02*
X18388320Y-6910412D01*
X18388320Y-6910412D02*
X18388320Y-6891365D01*
X18388320Y-6891365D02*
X18397844Y-6872317D01*
X18397844Y-6872317D02*
X18416892Y-6862793D01*
X18416892Y-6862793D02*
X18464511Y-6862793D01*
X18464511Y-6862793D02*
X18483558Y-6853269D01*
X18550225Y-6805650D02*
X18626415Y-6805650D01*
X18578796Y-6738984D02*
X18578796Y-6910412D01*
X18578796Y-6910412D02*
X18588320Y-6929460D01*
X18588320Y-6929460D02*
X18607368Y-6938984D01*
X18607368Y-6938984D02*
X18626415Y-6938984D01*
X18769273Y-6929460D02*
X18750225Y-6938984D01*
X18750225Y-6938984D02*
X18712130Y-6938984D01*
X18712130Y-6938984D02*
X18693082Y-6929460D01*
X18693082Y-6929460D02*
X18683558Y-6910412D01*
X18683558Y-6910412D02*
X18683558Y-6834222D01*
X18683558Y-6834222D02*
X18693082Y-6815174D01*
X18693082Y-6815174D02*
X18712130Y-6805650D01*
X18712130Y-6805650D02*
X18750225Y-6805650D01*
X18750225Y-6805650D02*
X18769273Y-6815174D01*
X18769273Y-6815174D02*
X18778796Y-6834222D01*
X18778796Y-6834222D02*
X18778796Y-6853269D01*
X18778796Y-6853269D02*
X18683558Y-6872317D01*
X18950225Y-6938984D02*
X18950225Y-6738984D01*
X18950225Y-6929460D02*
X18931177Y-6938984D01*
X18931177Y-6938984D02*
X18893082Y-6938984D01*
X18893082Y-6938984D02*
X18874035Y-6929460D01*
X18874035Y-6929460D02*
X18864511Y-6919936D01*
X18864511Y-6919936D02*
X18854987Y-6900888D01*
X18854987Y-6900888D02*
X18854987Y-6843746D01*
X18854987Y-6843746D02*
X18864511Y-6824698D01*
X18864511Y-6824698D02*
X18874035Y-6815174D01*
X18874035Y-6815174D02*
X18893082Y-6805650D01*
X18893082Y-6805650D02*
X18931177Y-6805650D01*
X18931177Y-6805650D02*
X18950225Y-6815174D01*
X19026416Y-7015174D02*
X19035939Y-7005650D01*
X19035939Y-7005650D02*
X19054987Y-6977079D01*
X19054987Y-6977079D02*
X19064511Y-6958031D01*
X19064511Y-6958031D02*
X19074035Y-6929460D01*
X19074035Y-6929460D02*
X19083558Y-6881841D01*
X19083558Y-6881841D02*
X19083558Y-6843746D01*
X19083558Y-6843746D02*
X19074035Y-6796127D01*
X19074035Y-6796127D02*
X19064511Y-6767555D01*
X19064511Y-6767555D02*
X19054987Y-6748508D01*
X19054987Y-6748508D02*
X19035939Y-6719936D01*
X19035939Y-6719936D02*
X19026416Y-6710412D01*
M02*
