%TF.GenerationSoftware,KiCad,Pcbnew,7.0.7*%
%TF.CreationDate,2023-11-07T21:18:23-05:00*%
%TF.ProjectId,mainControllerGRR,6d61696e-436f-46e7-9472-6f6c6c657247,rev?*%
%TF.SameCoordinates,Original*%
%TF.FileFunction,Paste,Top*%
%TF.FilePolarity,Positive*%
%FSLAX46Y46*%
G04 Gerber Fmt 4.6, Leading zero omitted, Abs format (unit mm)*
G04 Created by KiCad (PCBNEW 7.0.7) date 2023-11-07 21:18:23*
%MOMM*%
%LPD*%
G01*
G04 APERTURE LIST*
G04 Aperture macros list*
%AMRoundRect*
0 Rectangle with rounded corners*
0 $1 Rounding radius*
0 $2 $3 $4 $5 $6 $7 $8 $9 X,Y pos of 4 corners*
0 Add a 4 corners polygon primitive as box body*
4,1,4,$2,$3,$4,$5,$6,$7,$8,$9,$2,$3,0*
0 Add four circle primitives for the rounded corners*
1,1,$1+$1,$2,$3*
1,1,$1+$1,$4,$5*
1,1,$1+$1,$6,$7*
1,1,$1+$1,$8,$9*
0 Add four rect primitives between the rounded corners*
20,1,$1+$1,$2,$3,$4,$5,0*
20,1,$1+$1,$4,$5,$6,$7,0*
20,1,$1+$1,$6,$7,$8,$9,0*
20,1,$1+$1,$8,$9,$2,$3,0*%
G04 Aperture macros list end*
%ADD10RoundRect,0.225000X0.250000X-0.225000X0.250000X0.225000X-0.250000X0.225000X-0.250000X-0.225000X0*%
%ADD11RoundRect,0.200000X0.200000X0.275000X-0.200000X0.275000X-0.200000X-0.275000X0.200000X-0.275000X0*%
%ADD12RoundRect,0.750000X-0.750000X0.750000X-0.750000X-0.750000X0.750000X-0.750000X0.750000X0.750000X0*%
%ADD13RoundRect,0.225000X0.225000X0.250000X-0.225000X0.250000X-0.225000X-0.250000X0.225000X-0.250000X0*%
%ADD14RoundRect,0.218750X-0.218750X-0.256250X0.218750X-0.256250X0.218750X0.256250X-0.218750X0.256250X0*%
%ADD15RoundRect,0.500000X-0.500000X-0.500000X0.500000X-0.500000X0.500000X0.500000X-0.500000X0.500000X0*%
%ADD16RoundRect,0.200000X-0.200000X-0.275000X0.200000X-0.275000X0.200000X0.275000X-0.200000X0.275000X0*%
%ADD17RoundRect,0.250000X0.300000X-2.050000X0.300000X2.050000X-0.300000X2.050000X-0.300000X-2.050000X0*%
%ADD18R,0.558800X2.286000*%
%ADD19RoundRect,0.150000X-0.150000X0.587500X-0.150000X-0.587500X0.150000X-0.587500X0.150000X0.587500X0*%
%ADD20RoundRect,0.218750X-0.256250X0.218750X-0.256250X-0.218750X0.256250X-0.218750X0.256250X0.218750X0*%
%ADD21RoundRect,0.750000X0.750000X0.750000X-0.750000X0.750000X-0.750000X-0.750000X0.750000X-0.750000X0*%
%ADD22RoundRect,0.200000X0.275000X-0.200000X0.275000X0.200000X-0.275000X0.200000X-0.275000X-0.200000X0*%
%ADD23R,3.500000X1.600000*%
%ADD24R,9.750000X12.200000*%
G04 APERTURE END LIST*
D10*
%TO.C,C6*%
X235185000Y-77770000D03*
X235185000Y-76220000D03*
%TD*%
D11*
%TO.C,R7*%
X152170000Y-65815000D03*
X150520000Y-65815000D03*
%TD*%
%TO.C,R3*%
X166960952Y-109865000D03*
X165310952Y-109865000D03*
%TD*%
D12*
%TO.C,Je1*%
X168024998Y-42215000D03*
X164404998Y-42215000D03*
%TD*%
D13*
%TO.C,C3*%
X170409048Y-109845000D03*
X168859048Y-109845000D03*
%TD*%
D14*
%TO.C,D3*%
X161888452Y-109875000D03*
X163463452Y-109875000D03*
%TD*%
%TO.C,D2*%
X162166072Y-94015000D03*
X163741072Y-94015000D03*
%TD*%
D15*
%TO.C,J7*%
X164875000Y-65925000D03*
X164875000Y-68545000D03*
X164875000Y-71125000D03*
X164875000Y-73745000D03*
%TD*%
D11*
%TO.C,R2*%
X166913810Y-94015000D03*
X165263810Y-94015000D03*
%TD*%
D12*
%TO.C,J6*%
X175924998Y-42115000D03*
X172304998Y-42115000D03*
%TD*%
D10*
%TO.C,C7*%
X240151750Y-64860000D03*
X240151750Y-63310000D03*
%TD*%
D16*
%TO.C,R8*%
X149730000Y-71485000D03*
X151380000Y-71485000D03*
%TD*%
D10*
%TO.C,C8*%
X162355000Y-78770000D03*
X162355000Y-77220000D03*
%TD*%
D16*
%TO.C,R1*%
X151670394Y-88025000D03*
X153320394Y-88025000D03*
%TD*%
D17*
%TO.C,IC3*%
X230135000Y-72485000D03*
X235215000Y-72485000D03*
%TD*%
D18*
%TO.C,IC4*%
X162345200Y-86450200D03*
X163615200Y-86450200D03*
X164885200Y-86450200D03*
X166155200Y-86450200D03*
X167425200Y-86450200D03*
X168695200Y-86450200D03*
X169965200Y-86450200D03*
X171235200Y-86450200D03*
X171235200Y-81624200D03*
X169965200Y-81624200D03*
X168695200Y-81624200D03*
X167425200Y-81624200D03*
X166155200Y-81624200D03*
X164885200Y-81624200D03*
X163615200Y-81624200D03*
X162345200Y-81624200D03*
%TD*%
D19*
%TO.C,Q1*%
X152315000Y-67767500D03*
X150415000Y-67767500D03*
X151365000Y-69642500D03*
%TD*%
D20*
%TO.C,D5*%
X240131750Y-56827500D03*
X240131750Y-58402500D03*
%TD*%
%TO.C,D1*%
X151695394Y-84607500D03*
X151695394Y-86182500D03*
%TD*%
D21*
%TO.C,J42*%
X249575000Y-45575000D03*
X249575000Y-41955000D03*
%TD*%
D22*
%TO.C,R5*%
X240141750Y-61700000D03*
X240141750Y-60050000D03*
%TD*%
D23*
%TO.C,IC1*%
X166950000Y-99410000D03*
D24*
X177226000Y-101950000D03*
D23*
X166950000Y-104490000D03*
%TD*%
D13*
%TO.C,C2*%
X170173810Y-94055000D03*
X168623810Y-94055000D03*
%TD*%
D10*
%TO.C,C13*%
X163965000Y-78770000D03*
X163965000Y-77220000D03*
%TD*%
M02*
