%TF.GenerationSoftware,KiCad,Pcbnew,7.0.7*%
%TF.CreationDate,2023-11-07T21:18:24-05:00*%
%TF.ProjectId,mainControllerGRR,6d61696e-436f-46e7-9472-6f6c6c657247,rev?*%
%TF.SameCoordinates,Original*%
%TF.FileFunction,Soldermask,Top*%
%TF.FilePolarity,Negative*%
%FSLAX46Y46*%
G04 Gerber Fmt 4.6, Leading zero omitted, Abs format (unit mm)*
G04 Created by KiCad (PCBNEW 7.0.7) date 2023-11-07 21:18:24*
%MOMM*%
%LPD*%
G01*
G04 APERTURE LIST*
G04 Aperture macros list*
%AMRoundRect*
0 Rectangle with rounded corners*
0 $1 Rounding radius*
0 $2 $3 $4 $5 $6 $7 $8 $9 X,Y pos of 4 corners*
0 Add a 4 corners polygon primitive as box body*
4,1,4,$2,$3,$4,$5,$6,$7,$8,$9,$2,$3,0*
0 Add four circle primitives for the rounded corners*
1,1,$1+$1,$2,$3*
1,1,$1+$1,$4,$5*
1,1,$1+$1,$6,$7*
1,1,$1+$1,$8,$9*
0 Add four rect primitives between the rounded corners*
20,1,$1+$1,$2,$3,$4,$5,0*
20,1,$1+$1,$4,$5,$6,$7,0*
20,1,$1+$1,$6,$7,$8,$9,0*
20,1,$1+$1,$8,$9,$2,$3,0*%
G04 Aperture macros list end*
%ADD10RoundRect,0.102000X-0.754000X-0.754000X0.754000X-0.754000X0.754000X0.754000X-0.754000X0.754000X0*%
%ADD11C,1.712000*%
%ADD12C,4.300000*%
%ADD13RoundRect,0.225000X0.250000X-0.225000X0.250000X0.225000X-0.250000X0.225000X-0.250000X-0.225000X0*%
%ADD14R,1.400000X1.400000*%
%ADD15C,1.400000*%
%ADD16RoundRect,0.200000X0.200000X0.275000X-0.200000X0.275000X-0.200000X-0.275000X0.200000X-0.275000X0*%
%ADD17RoundRect,0.102000X-0.754000X0.754000X-0.754000X-0.754000X0.754000X-0.754000X0.754000X0.754000X0*%
%ADD18RoundRect,0.750000X-0.750000X0.750000X-0.750000X-0.750000X0.750000X-0.750000X0.750000X0.750000X0*%
%ADD19RoundRect,0.225000X0.225000X0.250000X-0.225000X0.250000X-0.225000X-0.250000X0.225000X-0.250000X0*%
%ADD20RoundRect,0.218750X-0.218750X-0.256250X0.218750X-0.256250X0.218750X0.256250X-0.218750X0.256250X0*%
%ADD21RoundRect,0.102000X-1.858000X-1.858000X1.858000X-1.858000X1.858000X1.858000X-1.858000X1.858000X0*%
%ADD22C,3.920000*%
%ADD23O,1.404000X2.604000*%
%ADD24C,3.200000*%
%ADD25RoundRect,0.500000X-0.500000X-0.500000X0.500000X-0.500000X0.500000X0.500000X-0.500000X0.500000X0*%
%ADD26RoundRect,0.200000X-0.200000X-0.275000X0.200000X-0.275000X0.200000X0.275000X-0.200000X0.275000X0*%
%ADD27RoundRect,0.250000X0.300000X-2.050000X0.300000X2.050000X-0.300000X2.050000X-0.300000X-2.050000X0*%
%ADD28RoundRect,0.250002X5.149998X-4.449998X5.149998X4.449998X-5.149998X4.449998X-5.149998X-4.449998X0*%
%ADD29R,0.558800X2.286000*%
%ADD30RoundRect,0.150000X-0.150000X0.587500X-0.150000X-0.587500X0.150000X-0.587500X0.150000X0.587500X0*%
%ADD31C,2.754000*%
%ADD32RoundRect,0.102000X-1.275000X-1.275000X1.275000X-1.275000X1.275000X1.275000X-1.275000X1.275000X0*%
%ADD33RoundRect,0.218750X-0.256250X0.218750X-0.256250X-0.218750X0.256250X-0.218750X0.256250X0.218750X0*%
%ADD34R,1.650000X1.650000*%
%ADD35C,1.650000*%
%ADD36RoundRect,0.102000X-0.762000X0.762000X-0.762000X-0.762000X0.762000X-0.762000X0.762000X0.762000X0*%
%ADD37C,1.728000*%
%ADD38C,4.204000*%
%ADD39RoundRect,0.750000X0.750000X0.750000X-0.750000X0.750000X-0.750000X-0.750000X0.750000X-0.750000X0*%
%ADD40RoundRect,0.200000X0.275000X-0.200000X0.275000X0.200000X-0.275000X0.200000X-0.275000X-0.200000X0*%
%ADD41R,3.500000X1.600000*%
%ADD42R,9.750000X12.200000*%
G04 APERTURE END LIST*
D10*
%TO.C,J30*%
X229900000Y-118375000D03*
D11*
X232400000Y-118375000D03*
X234900000Y-118375000D03*
%TD*%
D12*
%TO.C,J11*%
X195850000Y-67860000D03*
X195850000Y-72860000D03*
%TD*%
D13*
%TO.C,C6*%
X235185000Y-77770000D03*
X235185000Y-76220000D03*
%TD*%
D14*
%TO.C,J23*%
X255150000Y-88010000D03*
D15*
X252650000Y-88010000D03*
X250150000Y-88010000D03*
X247650000Y-88010000D03*
%TD*%
D14*
%TO.C,J15*%
X255150000Y-96860000D03*
D15*
X252650000Y-96860000D03*
X250150000Y-96860000D03*
X247650000Y-96860000D03*
%TD*%
D16*
%TO.C,R7*%
X152170000Y-65815000D03*
X150520000Y-65815000D03*
%TD*%
D10*
%TO.C,J28*%
X252700000Y-118375000D03*
D11*
X255200000Y-118375000D03*
X257700000Y-118375000D03*
%TD*%
D10*
%TO.C,J34*%
X184299500Y-118375000D03*
D11*
X186799500Y-118375000D03*
X189299500Y-118375000D03*
%TD*%
D17*
%TO.C,J40*%
X200775000Y-99890000D03*
D11*
X200775000Y-102390000D03*
X200775000Y-104890000D03*
%TD*%
D16*
%TO.C,R3*%
X166960952Y-109865000D03*
X165310952Y-109865000D03*
%TD*%
D12*
%TO.C,J12*%
X187550000Y-67860000D03*
X187550000Y-72860000D03*
%TD*%
D18*
%TO.C,Je1*%
X168024998Y-42215000D03*
X164404998Y-42215000D03*
%TD*%
D19*
%TO.C,C3*%
X170409048Y-109845000D03*
X168859048Y-109845000D03*
%TD*%
D20*
%TO.C,D3*%
X161888452Y-109875000D03*
X163463452Y-109875000D03*
%TD*%
D21*
%TO.C,J2*%
X189725000Y-57075000D03*
D22*
X182525000Y-57075000D03*
D23*
X192875000Y-51075000D03*
X179375000Y-51075000D03*
%TD*%
D12*
%TO.C,J14*%
X170950000Y-67860000D03*
X170950000Y-72860000D03*
%TD*%
D24*
%TO.C,H3*%
X255665000Y-108435000D03*
%TD*%
D20*
%TO.C,D2*%
X162166072Y-94015000D03*
X163741072Y-94015000D03*
%TD*%
D12*
%TO.C,J8*%
X220750000Y-67860000D03*
X220750000Y-72860000D03*
%TD*%
D10*
%TO.C,J33*%
X195700000Y-118375000D03*
D11*
X198200000Y-118375000D03*
X200700000Y-118375000D03*
%TD*%
D25*
%TO.C,J7*%
X164875000Y-65925000D03*
X164875000Y-68545000D03*
X164875000Y-71125000D03*
X164875000Y-73745000D03*
%TD*%
D12*
%TO.C,J9*%
X212450000Y-67860000D03*
X212450000Y-72860000D03*
%TD*%
D16*
%TO.C,R2*%
X166913810Y-94015000D03*
X165263810Y-94015000D03*
%TD*%
D10*
%TO.C,J36*%
X241300000Y-110575000D03*
D11*
X243800000Y-110575000D03*
X246300000Y-110575000D03*
%TD*%
D10*
%TO.C,J32*%
X207100000Y-118375000D03*
D11*
X209600000Y-118375000D03*
X212100000Y-118375000D03*
%TD*%
D12*
%TO.C,J10*%
X204150000Y-67860000D03*
X204150000Y-72860000D03*
%TD*%
D14*
%TO.C,J27*%
X255150000Y-52610000D03*
D15*
X252650000Y-52610000D03*
X250150000Y-52610000D03*
X247650000Y-52610000D03*
%TD*%
D18*
%TO.C,J6*%
X175924998Y-42115000D03*
X172304998Y-42115000D03*
%TD*%
D13*
%TO.C,C7*%
X240151750Y-64860000D03*
X240151750Y-63310000D03*
%TD*%
D26*
%TO.C,R8*%
X149730000Y-71485000D03*
X151380000Y-71485000D03*
%TD*%
D13*
%TO.C,C8*%
X162355000Y-78770000D03*
X162355000Y-77220000D03*
%TD*%
D26*
%TO.C,R1*%
X151670394Y-88025000D03*
X153320394Y-88025000D03*
%TD*%
D27*
%TO.C,IC3*%
X230135000Y-72485000D03*
D28*
X232675000Y-63335000D03*
D27*
X235215000Y-72485000D03*
%TD*%
D14*
%TO.C,J26*%
X255150000Y-61460000D03*
D15*
X252650000Y-61460000D03*
X250150000Y-61460000D03*
X247650000Y-61460000D03*
%TD*%
D29*
%TO.C,IC4*%
X162345200Y-86450200D03*
X163615200Y-86450200D03*
X164885200Y-86450200D03*
X166155200Y-86450200D03*
X167425200Y-86450200D03*
X168695200Y-86450200D03*
X169965200Y-86450200D03*
X171235200Y-86450200D03*
X171235200Y-81624200D03*
X169965200Y-81624200D03*
X168695200Y-81624200D03*
X167425200Y-81624200D03*
X166155200Y-81624200D03*
X164885200Y-81624200D03*
X163615200Y-81624200D03*
X162345200Y-81624200D03*
%TD*%
D30*
%TO.C,Q1*%
X152315000Y-67767500D03*
X150415000Y-67767500D03*
X151365000Y-69642500D03*
%TD*%
D31*
%TO.C,J5*%
X235675000Y-53575000D03*
D32*
X230675000Y-53575000D03*
D11*
X238675000Y-43575000D03*
X227675000Y-43575000D03*
%TD*%
D33*
%TO.C,D5*%
X240131750Y-56827500D03*
X240131750Y-58402500D03*
%TD*%
D31*
%TO.C,J4*%
X220825000Y-53575000D03*
D32*
X215825000Y-53575000D03*
D11*
X223825000Y-43575000D03*
X212825000Y-43575000D03*
%TD*%
D34*
%TO.C,J17*%
X188585000Y-81062810D03*
D35*
X188585000Y-83562810D03*
X188585000Y-86062810D03*
X188585000Y-88562810D03*
X188585000Y-91062810D03*
%TD*%
D24*
%TO.C,H2*%
X255665000Y-43725000D03*
%TD*%
D36*
%TO.C,J1*%
X155370000Y-103135000D03*
D37*
X157910000Y-103135000D03*
X155370000Y-100595000D03*
X157910000Y-100595000D03*
X155370000Y-98055000D03*
X157910000Y-98055000D03*
X155370000Y-95515000D03*
X157910000Y-95515000D03*
X155370000Y-92975000D03*
X157910000Y-92975000D03*
X155370000Y-90435000D03*
X157910000Y-90435000D03*
X155370000Y-87895000D03*
X157910000Y-87895000D03*
X155370000Y-85355000D03*
X157910000Y-85355000D03*
X155370000Y-82815000D03*
X157910000Y-82815000D03*
X155370000Y-80275000D03*
X157910000Y-80275000D03*
X155370000Y-77735000D03*
X157910000Y-77735000D03*
X155370000Y-75195000D03*
X157910000Y-75195000D03*
X155370000Y-72655000D03*
X157910000Y-72655000D03*
X155370000Y-70115000D03*
X157910000Y-70115000D03*
X155370000Y-67575000D03*
X157910000Y-67575000D03*
X155370000Y-65035000D03*
X157910000Y-65035000D03*
X155370000Y-62495000D03*
X157910000Y-62495000D03*
X155370000Y-59955000D03*
X157910000Y-59955000D03*
X155370000Y-57415000D03*
X157910000Y-57415000D03*
X155370000Y-54875000D03*
X157910000Y-54875000D03*
D38*
X156640000Y-50005000D03*
X156640000Y-108005000D03*
X107640000Y-108005000D03*
X107640000Y-50005000D03*
%TD*%
D33*
%TO.C,D1*%
X151695394Y-84607500D03*
X151695394Y-86182500D03*
%TD*%
D12*
%TO.C,J13*%
X179250000Y-67860000D03*
X179250000Y-72860000D03*
%TD*%
D21*
%TO.C,J3*%
X206775000Y-57075000D03*
D22*
X199575000Y-57075000D03*
D23*
X209925000Y-51075000D03*
X196425000Y-51075000D03*
%TD*%
D39*
%TO.C,J42*%
X249575000Y-45575000D03*
X249575000Y-41955000D03*
%TD*%
D17*
%TO.C,J39*%
X193475000Y-99890000D03*
D11*
X193475000Y-102390000D03*
X193475000Y-104890000D03*
%TD*%
D14*
%TO.C,J25*%
X255150000Y-70310000D03*
D15*
X252650000Y-70310000D03*
X250150000Y-70310000D03*
X247650000Y-70310000D03*
%TD*%
D34*
%TO.C,J22*%
X225085000Y-81062810D03*
D35*
X225085000Y-83562810D03*
X225085000Y-86062810D03*
X225085000Y-88562810D03*
X225085000Y-91062810D03*
%TD*%
D10*
%TO.C,J29*%
X241300000Y-118375000D03*
D11*
X243800000Y-118375000D03*
X246300000Y-118375000D03*
%TD*%
D40*
%TO.C,R5*%
X240141750Y-61700000D03*
X240141750Y-60050000D03*
%TD*%
D14*
%TO.C,J24*%
X255150000Y-79160000D03*
D15*
X252650000Y-79160000D03*
X250150000Y-79160000D03*
X247650000Y-79160000D03*
%TD*%
D34*
%TO.C,J20*%
X210485000Y-81062810D03*
D35*
X210485000Y-83562810D03*
X210485000Y-86062810D03*
X210485000Y-88562810D03*
X210485000Y-91062810D03*
%TD*%
D10*
%TO.C,J31*%
X218500000Y-118375000D03*
D11*
X221000000Y-118375000D03*
X223500000Y-118375000D03*
%TD*%
D41*
%TO.C,IC1*%
X166950000Y-99410000D03*
D42*
X177226000Y-101950000D03*
D41*
X166950000Y-104490000D03*
%TD*%
D19*
%TO.C,C2*%
X170173810Y-94055000D03*
X168623810Y-94055000D03*
%TD*%
D34*
%TO.C,J19*%
X203185000Y-81062810D03*
D35*
X203185000Y-83562810D03*
X203185000Y-86062810D03*
X203185000Y-88562810D03*
X203185000Y-91062810D03*
%TD*%
D34*
%TO.C,J18*%
X195885000Y-81062810D03*
D35*
X195885000Y-83562810D03*
X195885000Y-86062810D03*
X195885000Y-88562810D03*
X195885000Y-91062810D03*
%TD*%
D34*
%TO.C,J16*%
X181285000Y-81062810D03*
D35*
X181285000Y-83562810D03*
X181285000Y-86062810D03*
X181285000Y-88562810D03*
X181285000Y-91062810D03*
%TD*%
D13*
%TO.C,C13*%
X163965000Y-78770000D03*
X163965000Y-77220000D03*
%TD*%
D17*
%TO.C,J41*%
X208075000Y-99890000D03*
D11*
X208075000Y-102390000D03*
X208075000Y-104890000D03*
%TD*%
D34*
%TO.C,J21*%
X217785000Y-81062810D03*
D35*
X217785000Y-83562810D03*
X217785000Y-86062810D03*
X217785000Y-88562810D03*
X217785000Y-91062810D03*
%TD*%
D17*
%TO.C,J38*%
X186135000Y-99850000D03*
D11*
X186135000Y-102350000D03*
X186135000Y-104850000D03*
%TD*%
D10*
%TO.C,J37*%
X229900000Y-110575000D03*
D11*
X232400000Y-110575000D03*
X234900000Y-110575000D03*
%TD*%
M02*
