%TF.GenerationSoftware,KiCad,Pcbnew,7.0.7*%
%TF.CreationDate,2023-11-07T21:18:23-05:00*%
%TF.ProjectId,mainControllerGRR,6d61696e-436f-46e7-9472-6f6c6c657247,rev?*%
%TF.SameCoordinates,Original*%
%TF.FileFunction,Copper,L4,Bot*%
%TF.FilePolarity,Positive*%
%FSLAX46Y46*%
G04 Gerber Fmt 4.6, Leading zero omitted, Abs format (unit mm)*
G04 Created by KiCad (PCBNEW 7.0.7) date 2023-11-07 21:18:23*
%MOMM*%
%LPD*%
G01*
G04 APERTURE LIST*
G04 Aperture macros list*
%AMRoundRect*
0 Rectangle with rounded corners*
0 $1 Rounding radius*
0 $2 $3 $4 $5 $6 $7 $8 $9 X,Y pos of 4 corners*
0 Add a 4 corners polygon primitive as box body*
4,1,4,$2,$3,$4,$5,$6,$7,$8,$9,$2,$3,0*
0 Add four circle primitives for the rounded corners*
1,1,$1+$1,$2,$3*
1,1,$1+$1,$4,$5*
1,1,$1+$1,$6,$7*
1,1,$1+$1,$8,$9*
0 Add four rect primitives between the rounded corners*
20,1,$1+$1,$2,$3,$4,$5,0*
20,1,$1+$1,$4,$5,$6,$7,0*
20,1,$1+$1,$6,$7,$8,$9,0*
20,1,$1+$1,$8,$9,$2,$3,0*%
G04 Aperture macros list end*
%TA.AperFunction,ComponentPad*%
%ADD10R,1.508000X1.508000*%
%TD*%
%TA.AperFunction,ComponentPad*%
%ADD11C,1.508000*%
%TD*%
%TA.AperFunction,ComponentPad*%
%ADD12C,4.300000*%
%TD*%
%TA.AperFunction,ComponentPad*%
%ADD13R,1.400000X1.400000*%
%TD*%
%TA.AperFunction,ComponentPad*%
%ADD14C,1.400000*%
%TD*%
%TA.AperFunction,ComponentPad*%
%ADD15R,3.716000X3.716000*%
%TD*%
%TA.AperFunction,ComponentPad*%
%ADD16C,3.716000*%
%TD*%
%TA.AperFunction,ComponentPad*%
%ADD17O,1.200000X2.400000*%
%TD*%
%TA.AperFunction,ComponentPad*%
%ADD18C,2.550000*%
%TD*%
%TA.AperFunction,ComponentPad*%
%ADD19R,2.550000X2.550000*%
%TD*%
%TA.AperFunction,ComponentPad*%
%ADD20R,1.650000X1.650000*%
%TD*%
%TA.AperFunction,ComponentPad*%
%ADD21C,1.650000*%
%TD*%
%TA.AperFunction,ComponentPad*%
%ADD22R,1.524000X1.524000*%
%TD*%
%TA.AperFunction,ComponentPad*%
%ADD23C,1.524000*%
%TD*%
%TA.AperFunction,ComponentPad*%
%ADD24C,4.000000*%
%TD*%
%TA.AperFunction,SMDPad,CuDef*%
%ADD25RoundRect,0.150000X-0.150000X0.587500X-0.150000X-0.587500X0.150000X-0.587500X0.150000X0.587500X0*%
%TD*%
%TA.AperFunction,SMDPad,CuDef*%
%ADD26RoundRect,0.225000X0.250000X-0.225000X0.250000X0.225000X-0.250000X0.225000X-0.250000X-0.225000X0*%
%TD*%
%TA.AperFunction,SMDPad,CuDef*%
%ADD27RoundRect,0.200000X0.200000X0.275000X-0.200000X0.275000X-0.200000X-0.275000X0.200000X-0.275000X0*%
%TD*%
%TA.AperFunction,SMDPad,CuDef*%
%ADD28R,0.300000X0.850000*%
%TD*%
%TA.AperFunction,SMDPad,CuDef*%
%ADD29RoundRect,0.200000X-0.200000X-0.275000X0.200000X-0.275000X0.200000X0.275000X-0.200000X0.275000X0*%
%TD*%
%TA.AperFunction,SMDPad,CuDef*%
%ADD30RoundRect,0.031500X0.143500X-0.263500X0.143500X0.263500X-0.143500X0.263500X-0.143500X-0.263500X0*%
%TD*%
%TA.AperFunction,SMDPad,CuDef*%
%ADD31RoundRect,0.031500X-0.263500X-0.143500X0.263500X-0.143500X0.263500X0.143500X-0.263500X0.143500X0*%
%TD*%
%TA.AperFunction,SMDPad,CuDef*%
%ADD32RoundRect,0.031500X-0.143500X0.263500X-0.143500X-0.263500X0.143500X-0.263500X0.143500X0.263500X0*%
%TD*%
%TA.AperFunction,SMDPad,CuDef*%
%ADD33RoundRect,0.031500X0.263500X0.143500X-0.263500X0.143500X-0.263500X-0.143500X0.263500X-0.143500X0*%
%TD*%
%TA.AperFunction,SMDPad,CuDef*%
%ADD34RoundRect,0.225000X-0.225000X-0.250000X0.225000X-0.250000X0.225000X0.250000X-0.225000X0.250000X0*%
%TD*%
%TA.AperFunction,SMDPad,CuDef*%
%ADD35R,3.500000X1.600000*%
%TD*%
%TA.AperFunction,SMDPad,CuDef*%
%ADD36R,9.750000X12.200000*%
%TD*%
%TA.AperFunction,SMDPad,CuDef*%
%ADD37RoundRect,0.225000X0.225000X0.250000X-0.225000X0.250000X-0.225000X-0.250000X0.225000X-0.250000X0*%
%TD*%
%TA.AperFunction,SMDPad,CuDef*%
%ADD38RoundRect,0.200000X0.275000X-0.200000X0.275000X0.200000X-0.275000X0.200000X-0.275000X-0.200000X0*%
%TD*%
%TA.AperFunction,SMDPad,CuDef*%
%ADD39RoundRect,0.218750X0.218750X0.256250X-0.218750X0.256250X-0.218750X-0.256250X0.218750X-0.256250X0*%
%TD*%
%TA.AperFunction,SMDPad,CuDef*%
%ADD40RoundRect,0.218750X-0.256250X0.218750X-0.256250X-0.218750X0.256250X-0.218750X0.256250X0.218750X0*%
%TD*%
%TA.AperFunction,SMDPad,CuDef*%
%ADD41RoundRect,0.225000X-0.250000X0.225000X-0.250000X-0.225000X0.250000X-0.225000X0.250000X0.225000X0*%
%TD*%
%TA.AperFunction,ViaPad*%
%ADD42C,0.800000*%
%TD*%
%TA.AperFunction,ViaPad*%
%ADD43C,0.600000*%
%TD*%
%TA.AperFunction,ViaPad*%
%ADD44C,1.000000*%
%TD*%
%TA.AperFunction,Conductor*%
%ADD45C,0.500000*%
%TD*%
%TA.AperFunction,Conductor*%
%ADD46C,0.800000*%
%TD*%
%TA.AperFunction,Conductor*%
%ADD47C,0.300000*%
%TD*%
%TA.AperFunction,Conductor*%
%ADD48C,1.000000*%
%TD*%
%TA.AperFunction,Conductor*%
%ADD49C,0.200000*%
%TD*%
%TA.AperFunction,Conductor*%
%ADD50C,0.250000*%
%TD*%
G04 APERTURE END LIST*
D10*
%TO.P,J30,1,1*%
%TO.N,GND*%
X229900000Y-118375000D03*
D11*
%TO.P,J30,2,2*%
%TO.N,+5V*%
X232400000Y-118375000D03*
%TO.P,J30,3,3*%
%TO.N,DIO2_5V*%
X234900000Y-118375000D03*
%TD*%
D12*
%TO.P,J11,1,1*%
%TO.N,+12V*%
X195850000Y-67860000D03*
%TO.P,J11,2,2*%
%TO.N,GND*%
X195850000Y-72860000D03*
%TD*%
D13*
%TO.P,J23,1,1*%
%TO.N,+5V*%
X255150000Y-88010000D03*
D14*
%TO.P,J23,2,2*%
%TO.N,GND*%
X252650000Y-88010000D03*
%TO.P,J23,3,3*%
%TO.N,SCL*%
X250150000Y-88010000D03*
%TO.P,J23,4,4*%
%TO.N,SDA*%
X247650000Y-88010000D03*
%TD*%
D13*
%TO.P,J15,1,1*%
%TO.N,+5V*%
X255150000Y-96860000D03*
D14*
%TO.P,J15,2,2*%
%TO.N,GND*%
X252650000Y-96860000D03*
%TO.P,J15,3,3*%
%TO.N,SCL*%
X250150000Y-96860000D03*
%TO.P,J15,4,4*%
%TO.N,SDA*%
X247650000Y-96860000D03*
%TD*%
D10*
%TO.P,J28,1,1*%
%TO.N,GND*%
X252700000Y-118375000D03*
D11*
%TO.P,J28,2,2*%
%TO.N,+5V*%
X255200000Y-118375000D03*
%TO.P,J28,3,3*%
%TO.N,DIO0_5V*%
X257700000Y-118375000D03*
%TD*%
D10*
%TO.P,J34,1,1*%
%TO.N,GND*%
X184299500Y-118375000D03*
D11*
%TO.P,J34,2,2*%
%TO.N,+5V*%
X186799500Y-118375000D03*
%TO.P,J34,3,3*%
%TO.N,DIO6_5V*%
X189299500Y-118375000D03*
%TD*%
D10*
%TO.P,J40,1,1*%
%TO.N,GND*%
X200775000Y-99890000D03*
D11*
%TO.P,J40,2,2*%
%TO.N,+5V*%
X200775000Y-102390000D03*
%TO.P,J40,3,3*%
%TO.N,Net-(IC4-CH2)*%
X200775000Y-104890000D03*
%TD*%
D12*
%TO.P,J12,1,1*%
%TO.N,+12V*%
X187550000Y-67860000D03*
%TO.P,J12,2,2*%
%TO.N,GND*%
X187550000Y-72860000D03*
%TD*%
D15*
%TO.P,J2,1,+*%
%TO.N,+12V*%
X189725000Y-57075000D03*
D16*
%TO.P,J2,2,-*%
%TO.N,GND*%
X182525000Y-57075000D03*
D17*
%TO.P,J2,S1*%
%TO.N,N/C*%
X192875000Y-51075000D03*
%TO.P,J2,S2*%
X179375000Y-51075000D03*
%TD*%
D12*
%TO.P,J14,1,1*%
%TO.N,+12V*%
X170950000Y-67860000D03*
%TO.P,J14,2,2*%
%TO.N,GND*%
X170950000Y-72860000D03*
%TD*%
%TO.P,J8,1,1*%
%TO.N,+12V*%
X220750000Y-67860000D03*
%TO.P,J8,2,2*%
%TO.N,GND*%
X220750000Y-72860000D03*
%TD*%
D10*
%TO.P,J33,1,1*%
%TO.N,GND*%
X195700000Y-118375000D03*
D11*
%TO.P,J33,2,2*%
%TO.N,+5V*%
X198200000Y-118375000D03*
%TO.P,J33,3,3*%
%TO.N,DIO5_5V*%
X200700000Y-118375000D03*
%TD*%
D12*
%TO.P,J9,1,1*%
%TO.N,+12V*%
X212450000Y-67860000D03*
%TO.P,J9,2,2*%
%TO.N,GND*%
X212450000Y-72860000D03*
%TD*%
D10*
%TO.P,J36,1,1*%
%TO.N,GND*%
X241300000Y-110575000D03*
D11*
%TO.P,J36,2,2*%
%TO.N,+5V*%
X243800000Y-110575000D03*
%TO.P,J36,3,3*%
%TO.N,IMU1_5V*%
X246300000Y-110575000D03*
%TD*%
D10*
%TO.P,J32,1,1*%
%TO.N,GND*%
X207100000Y-118375000D03*
D11*
%TO.P,J32,2,2*%
%TO.N,+5V*%
X209600000Y-118375000D03*
%TO.P,J32,3,3*%
%TO.N,DIO4_5V*%
X212100000Y-118375000D03*
%TD*%
D12*
%TO.P,J10,1,1*%
%TO.N,+12V*%
X204150000Y-67860000D03*
%TO.P,J10,2,2*%
%TO.N,GND*%
X204150000Y-72860000D03*
%TD*%
D13*
%TO.P,J27,1,1*%
%TO.N,+5V*%
X255150000Y-52610000D03*
D14*
%TO.P,J27,2,2*%
%TO.N,GND*%
X252650000Y-52610000D03*
%TO.P,J27,3,3*%
%TO.N,SCL*%
X250150000Y-52610000D03*
%TO.P,J27,4,4*%
%TO.N,SDA*%
X247650000Y-52610000D03*
%TD*%
D13*
%TO.P,J26,1,1*%
%TO.N,+5V*%
X255150000Y-61460000D03*
D14*
%TO.P,J26,2,2*%
%TO.N,GND*%
X252650000Y-61460000D03*
%TO.P,J26,3,3*%
%TO.N,SCL*%
X250150000Y-61460000D03*
%TO.P,J26,4,4*%
%TO.N,SDA*%
X247650000Y-61460000D03*
%TD*%
D18*
%TO.P,J5,N,N*%
%TO.N,GND*%
X235675000Y-53575000D03*
D19*
%TO.P,J5,P,P*%
%TO.N,+3V3*%
X230675000Y-53575000D03*
D11*
%TO.P,J5,S1*%
%TO.N,N/C*%
X238675000Y-43575000D03*
%TO.P,J5,S2*%
X227675000Y-43575000D03*
%TD*%
D18*
%TO.P,J4,N,N*%
%TO.N,GND*%
X220825000Y-53575000D03*
D19*
%TO.P,J4,P,P*%
%TO.N,+5V*%
X215825000Y-53575000D03*
D11*
%TO.P,J4,S1*%
%TO.N,N/C*%
X223825000Y-43575000D03*
%TO.P,J4,S2*%
X212825000Y-43575000D03*
%TD*%
D20*
%TO.P,J17,1,1*%
%TO.N,A1EStop*%
X188585000Y-81062810D03*
D21*
%TO.P,J17,2,2*%
%TO.N,RxD*%
X188585000Y-83562810D03*
%TO.P,J17,3,3*%
%TO.N,TxD*%
X188585000Y-86062810D03*
%TO.P,J17,4,4*%
%TO.N,SCL*%
X188585000Y-88562810D03*
%TO.P,J17,5,5*%
%TO.N,SDA*%
X188585000Y-91062810D03*
%TD*%
D22*
%TO.P,J1,1,3V3*%
%TO.N,unconnected-(J1-3V3-Pad1)*%
X155370000Y-103135000D03*
D23*
%TO.P,J1,2,5V*%
%TO.N,5V_BRAIN*%
X157910000Y-103135000D03*
%TO.P,J1,3,SDA/GPIO2*%
%TO.N,SDA_3.3V*%
X155370000Y-100595000D03*
%TO.P,J1,4,5V*%
%TO.N,unconnected-(J1-5V-Pad4)*%
X157910000Y-100595000D03*
%TO.P,J1,5,SCL/GPIO3*%
%TO.N,SCL_3.3V*%
X155370000Y-98055000D03*
%TO.P,J1,6,GND*%
%TO.N,GND*%
X157910000Y-98055000D03*
%TO.P,J1,7,GCLK0/GPIO4*%
%TO.N,ADC*%
X155370000Y-95515000D03*
%TO.P,J1,8,GPIO14/TXD*%
%TO.N,RxD*%
X157910000Y-95515000D03*
%TO.P,J1,9,GND*%
%TO.N,GND*%
X155370000Y-92975000D03*
%TO.P,J1,10,GPIO15/RXD*%
%TO.N,TxD*%
X157910000Y-92975000D03*
%TO.P,J1,11,GPIO17*%
%TO.N,DIO6*%
X155370000Y-90435000D03*
%TO.P,J1,12,GPIO18/PWM0*%
%TO.N,DIO5*%
X157910000Y-90435000D03*
%TO.P,J1,13,GPIO27*%
%TO.N,Net-(J1-GPIO27)*%
X155370000Y-87895000D03*
%TO.P,J1,14,GND*%
%TO.N,GND*%
X157910000Y-87895000D03*
%TO.P,J1,15,GPIO22*%
%TO.N,IMU0*%
X155370000Y-85355000D03*
%TO.P,J1,16,GPIO23*%
%TO.N,IMU2*%
X157910000Y-85355000D03*
%TO.P,J1,17,3V3*%
%TO.N,unconnected-(J1-3V3-Pad17)*%
X155370000Y-82815000D03*
%TO.P,J1,18,GPIO24*%
%TO.N,DIO4*%
X157910000Y-82815000D03*
%TO.P,J1,19,MOSI0/GPIO10*%
%TO.N,MOSI*%
X155370000Y-80275000D03*
%TO.P,J1,20,GND*%
%TO.N,GND*%
X157910000Y-80275000D03*
%TO.P,J1,21,MISO0/GPIO9*%
%TO.N,MISO*%
X155370000Y-77735000D03*
%TO.P,J1,22,GPIO25*%
%TO.N,DIO3*%
X157910000Y-77735000D03*
%TO.P,J1,23,SCLK0/GPIO11*%
%TO.N,SCK*%
X155370000Y-75195000D03*
%TO.P,J1,24,~{CE0}/GPIO8*%
%TO.N,DIO2*%
X157910000Y-75195000D03*
%TO.P,J1,25,GND*%
%TO.N,GND*%
X155370000Y-72655000D03*
%TO.P,J1,26,~{CE1}/GPIO7*%
%TO.N,DIO1*%
X157910000Y-72655000D03*
%TO.P,J1,27,ID_SD/GPIO0*%
%TO.N,unconnected-(J1-ID_SD{slash}GPIO0-Pad27)*%
X155370000Y-70115000D03*
%TO.P,J1,28,ID_SC/GPIO1*%
%TO.N,unconnected-(J1-ID_SC{slash}GPIO1-Pad28)*%
X157910000Y-70115000D03*
%TO.P,J1,29,GCLK1/GPIO5*%
%TO.N,IMU1*%
X155370000Y-67575000D03*
%TO.P,J1,30,GND*%
%TO.N,GND*%
X157910000Y-67575000D03*
%TO.P,J1,31,GCLK2/GPIO6*%
%TO.N,DIO0*%
X155370000Y-65035000D03*
%TO.P,J1,32,PWM0/GPIO12*%
%TO.N,A6EStop*%
X157910000Y-65035000D03*
%TO.P,J1,33,PWM1/GPIO13*%
%TO.N,A5EStop*%
X155370000Y-62495000D03*
%TO.P,J1,34,GND*%
%TO.N,GND*%
X157910000Y-62495000D03*
%TO.P,J1,35,GPIO19/MISO1*%
%TO.N,A3EStop*%
X155370000Y-59955000D03*
%TO.P,J1,36,GPIO16*%
%TO.N,A4EStop*%
X157910000Y-59955000D03*
%TO.P,J1,37,GPIO26*%
%TO.N,A1EStop*%
X155370000Y-57415000D03*
%TO.P,J1,38,GPIO20/MOSI1*%
%TO.N,A2EStop*%
X157910000Y-57415000D03*
%TO.P,J1,39,GND*%
%TO.N,GND*%
X155370000Y-54875000D03*
%TO.P,J1,40,GPIO21/SCLK1*%
%TO.N,A0EStop*%
X157910000Y-54875000D03*
D24*
%TO.P,J1,S1*%
%TO.N,N/C*%
X156640000Y-50005000D03*
%TO.P,J1,S2*%
X156640000Y-108005000D03*
%TO.P,J1,S3*%
X107640000Y-108005000D03*
%TO.P,J1,S4*%
X107640000Y-50005000D03*
%TD*%
D12*
%TO.P,J13,1,1*%
%TO.N,+12V*%
X179250000Y-67860000D03*
%TO.P,J13,2,2*%
%TO.N,GND*%
X179250000Y-72860000D03*
%TD*%
D15*
%TO.P,J3,1,+*%
%TO.N,+12V*%
X206775000Y-57075000D03*
D16*
%TO.P,J3,2,-*%
%TO.N,GND*%
X199575000Y-57075000D03*
D17*
%TO.P,J3,S1*%
%TO.N,N/C*%
X209925000Y-51075000D03*
%TO.P,J3,S2*%
X196425000Y-51075000D03*
%TD*%
D10*
%TO.P,J39,1,1*%
%TO.N,GND*%
X193475000Y-99890000D03*
D11*
%TO.P,J39,2,2*%
%TO.N,+5V*%
X193475000Y-102390000D03*
%TO.P,J39,3,3*%
%TO.N,Net-(IC4-CH1)*%
X193475000Y-104890000D03*
%TD*%
D13*
%TO.P,J25,1,1*%
%TO.N,+5V*%
X255150000Y-70310000D03*
D14*
%TO.P,J25,2,2*%
%TO.N,GND*%
X252650000Y-70310000D03*
%TO.P,J25,3,3*%
%TO.N,SCL*%
X250150000Y-70310000D03*
%TO.P,J25,4,4*%
%TO.N,SDA*%
X247650000Y-70310000D03*
%TD*%
D20*
%TO.P,J22,1,1*%
%TO.N,A6EStop*%
X225085000Y-81062810D03*
D21*
%TO.P,J22,2,2*%
%TO.N,RxD*%
X225085000Y-83562810D03*
%TO.P,J22,3,3*%
%TO.N,TxD*%
X225085000Y-86062810D03*
%TO.P,J22,4,4*%
%TO.N,SCL*%
X225085000Y-88562810D03*
%TO.P,J22,5,5*%
%TO.N,SDA*%
X225085000Y-91062810D03*
%TD*%
D10*
%TO.P,J29,1,1*%
%TO.N,GND*%
X241300000Y-118375000D03*
D11*
%TO.P,J29,2,2*%
%TO.N,+5V*%
X243800000Y-118375000D03*
%TO.P,J29,3,3*%
%TO.N,DIO1_5V*%
X246300000Y-118375000D03*
%TD*%
D13*
%TO.P,J24,1,1*%
%TO.N,+5V*%
X255150000Y-79160000D03*
D14*
%TO.P,J24,2,2*%
%TO.N,GND*%
X252650000Y-79160000D03*
%TO.P,J24,3,3*%
%TO.N,SCL*%
X250150000Y-79160000D03*
%TO.P,J24,4,4*%
%TO.N,SDA*%
X247650000Y-79160000D03*
%TD*%
D20*
%TO.P,J20,1,1*%
%TO.N,A4EStop*%
X210485000Y-81062810D03*
D21*
%TO.P,J20,2,2*%
%TO.N,RxD*%
X210485000Y-83562810D03*
%TO.P,J20,3,3*%
%TO.N,TxD*%
X210485000Y-86062810D03*
%TO.P,J20,4,4*%
%TO.N,SCL*%
X210485000Y-88562810D03*
%TO.P,J20,5,5*%
%TO.N,SDA*%
X210485000Y-91062810D03*
%TD*%
D10*
%TO.P,J31,1,1*%
%TO.N,GND*%
X218500000Y-118375000D03*
D11*
%TO.P,J31,2,2*%
%TO.N,+5V*%
X221000000Y-118375000D03*
%TO.P,J31,3,3*%
%TO.N,DIO3_5V*%
X223500000Y-118375000D03*
%TD*%
D20*
%TO.P,J19,1,1*%
%TO.N,A3EStop*%
X203185000Y-81062810D03*
D21*
%TO.P,J19,2,2*%
%TO.N,RxD*%
X203185000Y-83562810D03*
%TO.P,J19,3,3*%
%TO.N,TxD*%
X203185000Y-86062810D03*
%TO.P,J19,4,4*%
%TO.N,SCL*%
X203185000Y-88562810D03*
%TO.P,J19,5,5*%
%TO.N,SDA*%
X203185000Y-91062810D03*
%TD*%
D20*
%TO.P,J18,1,1*%
%TO.N,A2EStop*%
X195885000Y-81062810D03*
D21*
%TO.P,J18,2,2*%
%TO.N,RxD*%
X195885000Y-83562810D03*
%TO.P,J18,3,3*%
%TO.N,TxD*%
X195885000Y-86062810D03*
%TO.P,J18,4,4*%
%TO.N,SCL*%
X195885000Y-88562810D03*
%TO.P,J18,5,5*%
%TO.N,SDA*%
X195885000Y-91062810D03*
%TD*%
D20*
%TO.P,J16,1,1*%
%TO.N,A0EStop*%
X181285000Y-81062810D03*
D21*
%TO.P,J16,2,2*%
%TO.N,RxD*%
X181285000Y-83562810D03*
%TO.P,J16,3,3*%
%TO.N,TxD*%
X181285000Y-86062810D03*
%TO.P,J16,4,4*%
%TO.N,SCL*%
X181285000Y-88562810D03*
%TO.P,J16,5,5*%
%TO.N,SDA*%
X181285000Y-91062810D03*
%TD*%
D10*
%TO.P,J41,1,1*%
%TO.N,GND*%
X208075000Y-99890000D03*
D11*
%TO.P,J41,2,2*%
%TO.N,+5V*%
X208075000Y-102390000D03*
%TO.P,J41,3,3*%
%TO.N,Net-(IC4-CH3)*%
X208075000Y-104890000D03*
%TD*%
D20*
%TO.P,J21,1,1*%
%TO.N,A5EStop*%
X217785000Y-81062810D03*
D21*
%TO.P,J21,2,2*%
%TO.N,RxD*%
X217785000Y-83562810D03*
%TO.P,J21,3,3*%
%TO.N,TxD*%
X217785000Y-86062810D03*
%TO.P,J21,4,4*%
%TO.N,SCL*%
X217785000Y-88562810D03*
%TO.P,J21,5,5*%
%TO.N,SDA*%
X217785000Y-91062810D03*
%TD*%
D10*
%TO.P,J38,1,1*%
%TO.N,GND*%
X186135000Y-99850000D03*
D11*
%TO.P,J38,2,2*%
%TO.N,+5V*%
X186135000Y-102350000D03*
%TO.P,J38,3,3*%
%TO.N,Net-(IC4-CH0)*%
X186135000Y-104850000D03*
%TD*%
D10*
%TO.P,J37,1,1*%
%TO.N,GND*%
X229900000Y-110575000D03*
D11*
%TO.P,J37,2,2*%
%TO.N,+5V*%
X232400000Y-110575000D03*
%TO.P,J37,3,3*%
%TO.N,IMU2_5V*%
X234900000Y-110575000D03*
%TD*%
D25*
%TO.P,Q7,1,G*%
%TO.N,+3V3*%
X188265000Y-111367500D03*
%TO.P,Q7,2,S*%
%TO.N,DIO6*%
X190165000Y-111367500D03*
%TO.P,Q7,3,D*%
%TO.N,DIO6_5V*%
X189215000Y-113242500D03*
%TD*%
D26*
%TO.P,C10,1*%
%TO.N,+3V3*%
X133155000Y-74460000D03*
%TO.P,C10,2*%
%TO.N,GND*%
X133155000Y-72910000D03*
%TD*%
D27*
%TO.P,R26,1*%
%TO.N,+5V*%
X229770000Y-104185000D03*
%TO.P,R26,2*%
%TO.N,IMU2_5V*%
X228120000Y-104185000D03*
%TD*%
D28*
%TO.P,IC5,1,GND*%
%TO.N,GND*%
X151380000Y-106750000D03*
%TO.P,IC5,2,VREF1*%
%TO.N,+3V3*%
X151880000Y-106750000D03*
%TO.P,IC5,3,SCL1*%
%TO.N,SCL_3.3V*%
X152380000Y-106750000D03*
%TO.P,IC5,4,SDA1*%
%TO.N,SDA_3.3V*%
X152880000Y-106750000D03*
%TO.P,IC5,5,SDA2*%
%TO.N,SDA*%
X152880000Y-109900000D03*
%TO.P,IC5,6,SCL2*%
%TO.N,SCL*%
X152380000Y-109900000D03*
%TO.P,IC5,7,VREF2*%
%TO.N,+5V*%
X151880000Y-109900000D03*
%TO.P,IC5,8,EN*%
X151380000Y-109900000D03*
%TD*%
D25*
%TO.P,Q9,1,G*%
%TO.N,+3V3*%
X245315000Y-103267500D03*
%TO.P,Q9,2,S*%
%TO.N,IMU1*%
X247215000Y-103267500D03*
%TO.P,Q9,3,D*%
%TO.N,IMU1_5V*%
X246265000Y-105142500D03*
%TD*%
D29*
%TO.P,R14,1*%
%TO.N,+5V*%
X221870000Y-115285000D03*
%TO.P,R14,2*%
%TO.N,DIO3_5V*%
X223520000Y-115285000D03*
%TD*%
D30*
%TO.P,U3,1,AP_SDO/AP_AD0*%
%TO.N,MISO*%
X137015000Y-75103514D03*
%TO.P,U3,2,RESV_2*%
%TO.N,unconnected-(U3-RESV_2-Pad2)*%
X136515000Y-75103514D03*
%TO.P,U3,3,RESV_3*%
%TO.N,unconnected-(U3-RESV_3-Pad3)*%
X136015000Y-75103514D03*
%TO.P,U3,4,INT1/INT*%
%TO.N,unconnected-(U3-INT1{slash}INT-Pad4)*%
X135515000Y-75103514D03*
D31*
%TO.P,U3,5,VDDIO*%
%TO.N,+3V3*%
X135350000Y-74438514D03*
%TO.P,U3,6,GND*%
%TO.N,GND*%
X135350000Y-73938514D03*
%TO.P,U3,7,RESV_7*%
X135350000Y-73438514D03*
D32*
%TO.P,U3,8,VDD*%
%TO.N,+3V3*%
X135515000Y-72773514D03*
%TO.P,U3,9,INT2/FSYNC/CLKIN*%
%TO.N,GND*%
X136015000Y-72773514D03*
%TO.P,U3,10,RESV_10*%
%TO.N,unconnected-(U3-RESV_10-Pad10)*%
X136515000Y-72773514D03*
%TO.P,U3,11,RESV_11*%
%TO.N,GND*%
X137015000Y-72773514D03*
D33*
%TO.P,U3,12,AP_CS*%
%TO.N,IMU1*%
X137180000Y-73438514D03*
%TO.P,U3,13,AP_SCL/AP_SCLK*%
%TO.N,SCK*%
X137180000Y-73938514D03*
%TO.P,U3,14,AP_SDA/AP_SDIO/AP_SDI*%
%TO.N,MOSI*%
X137180000Y-74438514D03*
%TD*%
D34*
%TO.P,C5,1*%
%TO.N,GND*%
X144030000Y-52175000D03*
%TO.P,C5,2*%
%TO.N,+12V*%
X145580000Y-52175000D03*
%TD*%
D29*
%TO.P,R25,1*%
%TO.N,+5V*%
X244620000Y-107285000D03*
%TO.P,R25,2*%
%TO.N,IMU1_5V*%
X246270000Y-107285000D03*
%TD*%
%TO.P,R6,1*%
%TO.N,+12V*%
X147270000Y-52175000D03*
%TO.P,R6,2*%
%TO.N,Net-(D6-A)*%
X148920000Y-52175000D03*
%TD*%
D30*
%TO.P,U4,1,AP_SDO/AP_AD0*%
%TO.N,MISO*%
X137015000Y-79103514D03*
%TO.P,U4,2,RESV_2*%
%TO.N,unconnected-(U4-RESV_2-Pad2)*%
X136515000Y-79103514D03*
%TO.P,U4,3,RESV_3*%
%TO.N,unconnected-(U4-RESV_3-Pad3)*%
X136015000Y-79103514D03*
%TO.P,U4,4,INT1/INT*%
%TO.N,unconnected-(U4-INT1{slash}INT-Pad4)*%
X135515000Y-79103514D03*
D31*
%TO.P,U4,5,VDDIO*%
%TO.N,+3V3*%
X135350000Y-78438514D03*
%TO.P,U4,6,GND*%
%TO.N,GND*%
X135350000Y-77938514D03*
%TO.P,U4,7,RESV_7*%
X135350000Y-77438514D03*
D32*
%TO.P,U4,8,VDD*%
%TO.N,+3V3*%
X135515000Y-76773514D03*
%TO.P,U4,9,INT2/FSYNC/CLKIN*%
%TO.N,GND*%
X136015000Y-76773514D03*
%TO.P,U4,10,RESV_10*%
%TO.N,unconnected-(U4-RESV_10-Pad10)*%
X136515000Y-76773514D03*
%TO.P,U4,11,RESV_11*%
%TO.N,GND*%
X137015000Y-76773514D03*
D33*
%TO.P,U4,12,AP_CS*%
%TO.N,IMU2*%
X137180000Y-77438514D03*
%TO.P,U4,13,AP_SCL/AP_SCLK*%
%TO.N,SCK*%
X137180000Y-77938514D03*
%TO.P,U4,14,AP_SDA/AP_SDIO/AP_SDI*%
%TO.N,MOSI*%
X137180000Y-78438514D03*
%TD*%
D29*
%TO.P,R11,1*%
%TO.N,+3V3*%
X232760000Y-97715000D03*
%TO.P,R11,2*%
%TO.N,DIO2*%
X234410000Y-97715000D03*
%TD*%
D26*
%TO.P,C4,1*%
%TO.N,GND*%
X152265000Y-64270000D03*
%TO.P,C4,2*%
%TO.N,5V_BRAIN*%
X152265000Y-62720000D03*
%TD*%
%TO.P,C12,1*%
%TO.N,+3V3*%
X151515000Y-104680000D03*
%TO.P,C12,2*%
%TO.N,GND*%
X151515000Y-103130000D03*
%TD*%
D29*
%TO.P,R15,1*%
%TO.N,+3V3*%
X211270000Y-109215000D03*
%TO.P,R15,2*%
%TO.N,DIO4*%
X212920000Y-109215000D03*
%TD*%
D35*
%TO.P,IC2,1,INPUT*%
%TO.N,+12V*%
X147250000Y-57610000D03*
D36*
%TO.P,IC2,2,GND*%
%TO.N,GND*%
X136974000Y-60150000D03*
D35*
%TO.P,IC2,3,OUTPUT*%
%TO.N,5V_BRAIN*%
X147250000Y-62690000D03*
%TD*%
D26*
%TO.P,C11,1*%
%TO.N,+3V3*%
X133155000Y-78460000D03*
%TO.P,C11,2*%
%TO.N,GND*%
X133155000Y-76910000D03*
%TD*%
D30*
%TO.P,U2,1,AP_SDO/AP_AD0*%
%TO.N,MISO*%
X137015000Y-71103514D03*
%TO.P,U2,2,RESV_2*%
%TO.N,unconnected-(U2-RESV_2-Pad2)*%
X136515000Y-71103514D03*
%TO.P,U2,3,RESV_3*%
%TO.N,unconnected-(U2-RESV_3-Pad3)*%
X136015000Y-71103514D03*
%TO.P,U2,4,INT1/INT*%
%TO.N,unconnected-(U2-INT1{slash}INT-Pad4)*%
X135515000Y-71103514D03*
D31*
%TO.P,U2,5,VDDIO*%
%TO.N,+3V3*%
X135350000Y-70438514D03*
%TO.P,U2,6,GND*%
%TO.N,GND*%
X135350000Y-69938514D03*
%TO.P,U2,7,RESV_7*%
X135350000Y-69438514D03*
D32*
%TO.P,U2,8,VDD*%
%TO.N,+3V3*%
X135515000Y-68773514D03*
%TO.P,U2,9,INT2/FSYNC/CLKIN*%
%TO.N,GND*%
X136015000Y-68773514D03*
%TO.P,U2,10,RESV_10*%
%TO.N,unconnected-(U2-RESV_10-Pad10)*%
X136515000Y-68773514D03*
%TO.P,U2,11,RESV_11*%
%TO.N,GND*%
X137015000Y-68773514D03*
D33*
%TO.P,U2,12,AP_CS*%
%TO.N,IMU0*%
X137180000Y-69438514D03*
%TO.P,U2,13,AP_SCL/AP_SCLK*%
%TO.N,SCK*%
X137180000Y-69938514D03*
%TO.P,U2,14,AP_SDA/AP_SDIO/AP_SDI*%
%TO.N,MOSI*%
X137180000Y-70438514D03*
%TD*%
D25*
%TO.P,Q2,1,G*%
%TO.N,+3V3*%
X237765000Y-99667500D03*
%TO.P,Q2,2,S*%
%TO.N,DIO1*%
X239665000Y-99667500D03*
%TO.P,Q2,3,D*%
%TO.N,DIO1_5V*%
X238715000Y-101542500D03*
%TD*%
D26*
%TO.P,C9,1*%
%TO.N,+3V3*%
X133155000Y-70460000D03*
%TO.P,C9,2*%
%TO.N,GND*%
X133155000Y-68910000D03*
%TD*%
D29*
%TO.P,R17,1*%
%TO.N,+3V3*%
X199780000Y-109315000D03*
%TO.P,R17,2*%
%TO.N,DIO5*%
X201430000Y-109315000D03*
%TD*%
D37*
%TO.P,C14,1*%
%TO.N,+5V*%
X151390000Y-112315000D03*
%TO.P,C14,2*%
%TO.N,GND*%
X149840000Y-112315000D03*
%TD*%
D25*
%TO.P,Q10,1,G*%
%TO.N,+3V3*%
X227165000Y-100267500D03*
%TO.P,Q10,2,S*%
%TO.N,IMU2*%
X229065000Y-100267500D03*
%TO.P,Q10,3,D*%
%TO.N,IMU2_5V*%
X228115000Y-102142500D03*
%TD*%
%TO.P,Q6,1,G*%
%TO.N,+3V3*%
X199715000Y-111467500D03*
%TO.P,Q6,2,S*%
%TO.N,DIO5*%
X201615000Y-111467500D03*
%TO.P,Q6,3,D*%
%TO.N,DIO5_5V*%
X200665000Y-113342500D03*
%TD*%
D38*
%TO.P,R4,1*%
%TO.N,5V_BRAIN*%
X152265000Y-61100000D03*
%TO.P,R4,2*%
%TO.N,Net-(D4-A)*%
X152265000Y-59450000D03*
%TD*%
D27*
%TO.P,R10,1*%
%TO.N,+5V*%
X240340000Y-103415000D03*
%TO.P,R10,2*%
%TO.N,DIO1_5V*%
X238690000Y-103415000D03*
%TD*%
D25*
%TO.P,Q4,1,G*%
%TO.N,+3V3*%
X222565000Y-111367500D03*
%TO.P,Q4,2,S*%
%TO.N,DIO3*%
X224465000Y-111367500D03*
%TO.P,Q4,3,D*%
%TO.N,DIO3_5V*%
X223515000Y-113242500D03*
%TD*%
D29*
%TO.P,R16,1*%
%TO.N,+5V*%
X210470000Y-115385000D03*
%TO.P,R16,2*%
%TO.N,DIO4_5V*%
X212120000Y-115385000D03*
%TD*%
%TO.P,R20,1*%
%TO.N,+3V3*%
X245430000Y-101115000D03*
%TO.P,R20,2*%
%TO.N,IMU1*%
X247080000Y-101115000D03*
%TD*%
%TO.P,R21,1*%
%TO.N,+3V3*%
X227230000Y-98115000D03*
%TO.P,R21,2*%
%TO.N,IMU2*%
X228880000Y-98115000D03*
%TD*%
%TO.P,R9,1*%
%TO.N,+3V3*%
X237860000Y-97515000D03*
%TO.P,R9,2*%
%TO.N,DIO1*%
X239510000Y-97515000D03*
%TD*%
D39*
%TO.P,D6,1,K*%
%TO.N,GND*%
X152342500Y-52175000D03*
%TO.P,D6,2,A*%
%TO.N,Net-(D6-A)*%
X150767500Y-52175000D03*
%TD*%
D25*
%TO.P,Q3,1,G*%
%TO.N,+3V3*%
X232615000Y-99867500D03*
%TO.P,Q3,2,S*%
%TO.N,DIO2*%
X234515000Y-99867500D03*
%TO.P,Q3,3,D*%
%TO.N,DIO2_5V*%
X233565000Y-101742500D03*
%TD*%
%TO.P,Q5,1,G*%
%TO.N,+3V3*%
X211115000Y-111367500D03*
%TO.P,Q5,2,S*%
%TO.N,DIO4*%
X213015000Y-111367500D03*
%TO.P,Q5,3,D*%
%TO.N,DIO4_5V*%
X212065000Y-113242500D03*
%TD*%
D40*
%TO.P,D4,1,K*%
%TO.N,GND*%
X152265000Y-56227500D03*
%TO.P,D4,2,A*%
%TO.N,Net-(D4-A)*%
X152265000Y-57802500D03*
%TD*%
D41*
%TO.P,C1,1*%
%TO.N,5V_BRAIN*%
X161635000Y-103230000D03*
%TO.P,C1,2*%
%TO.N,GND*%
X161635000Y-104780000D03*
%TD*%
D29*
%TO.P,R12,1*%
%TO.N,+5V*%
X231960000Y-104205000D03*
%TO.P,R12,2*%
%TO.N,DIO2_5V*%
X233610000Y-104205000D03*
%TD*%
%TO.P,R22,1*%
%TO.N,+5V*%
X198990000Y-115385000D03*
%TO.P,R22,2*%
%TO.N,DIO5_5V*%
X200640000Y-115385000D03*
%TD*%
%TO.P,R23,1*%
%TO.N,+5V*%
X187590000Y-115385000D03*
%TO.P,R23,2*%
%TO.N,DIO6_5V*%
X189240000Y-115385000D03*
%TD*%
%TO.P,R13,1*%
%TO.N,+3V3*%
X222670000Y-109215000D03*
%TO.P,R13,2*%
%TO.N,DIO3*%
X224320000Y-109215000D03*
%TD*%
%TO.P,R18,1*%
%TO.N,+3V3*%
X188380000Y-109215000D03*
%TO.P,R18,2*%
%TO.N,DIO6*%
X190030000Y-109215000D03*
%TD*%
D42*
%TO.N,+5V*%
X154500000Y-112300000D03*
D43*
%TO.N,GND*%
X222800000Y-101700000D03*
X140100000Y-48900000D03*
D42*
X231870000Y-72480000D03*
D43*
X195800000Y-62200000D03*
X231000000Y-98600000D03*
X237500000Y-89100000D03*
X203999242Y-112177188D03*
D44*
X126900000Y-60900000D03*
D43*
X222298814Y-103484330D03*
X200600000Y-95200000D03*
X171400000Y-118400000D03*
X259611241Y-49560976D03*
X138200000Y-75800000D03*
X231215783Y-90850492D03*
X166700000Y-58800000D03*
X214600000Y-87100000D03*
X230900000Y-97100000D03*
X240939267Y-79886373D03*
X258500000Y-112700000D03*
X140900000Y-51100000D03*
X147900000Y-69200000D03*
X200300000Y-87300000D03*
X203700000Y-119300000D03*
X214700000Y-82100000D03*
X241200000Y-51300000D03*
X183200000Y-63700000D03*
X151700000Y-91200000D03*
X229500000Y-88700000D03*
X191500000Y-43800000D03*
X152300000Y-73100000D03*
X231580073Y-47495457D03*
D44*
X127100000Y-75000000D03*
D43*
X168300000Y-55900000D03*
X190300000Y-104400000D03*
X244600000Y-92800000D03*
X164300000Y-59300000D03*
X215383345Y-119447236D03*
X168400000Y-90700000D03*
X135800000Y-47600000D03*
X213600000Y-100700000D03*
X240140000Y-65880000D03*
X208300000Y-65800000D03*
X201400000Y-62200000D03*
X176000000Y-56400000D03*
X249220268Y-57380488D03*
X225900000Y-97800000D03*
X225900000Y-52100000D03*
X164300000Y-56300000D03*
X161700000Y-48600000D03*
X205613398Y-50614912D03*
X134900000Y-51200000D03*
X199800000Y-72800000D03*
X219300000Y-106500000D03*
X166100000Y-44800000D03*
X224900000Y-47100000D03*
X193508199Y-95192329D03*
X187100000Y-52700000D03*
X162123911Y-95076089D03*
X164000000Y-76100000D03*
X157000000Y-119100000D03*
X256900000Y-48100000D03*
X171300000Y-94000000D03*
D42*
X172320000Y-44300000D03*
D43*
X214900000Y-110500000D03*
X221800000Y-47700000D03*
X227000000Y-106000000D03*
X193200000Y-62200000D03*
X152940366Y-48379316D03*
X161500000Y-89300000D03*
X248900000Y-75100000D03*
D44*
X129500000Y-61800000D03*
D43*
X214700000Y-84700000D03*
X214900000Y-89600000D03*
X162744007Y-98290058D03*
X208000000Y-44400000D03*
X186600000Y-109800000D03*
X225494358Y-59860862D03*
X250097728Y-111766227D03*
X166000000Y-61100000D03*
X164200000Y-107400000D03*
X241300000Y-55400000D03*
X238594928Y-83203142D03*
X133200000Y-71900000D03*
X149800000Y-110100000D03*
X165300000Y-96900000D03*
X142200000Y-76100000D03*
X241300000Y-48000000D03*
X240900000Y-69900000D03*
X241582930Y-43299356D03*
X207800000Y-89900000D03*
X160500000Y-104800000D03*
X200200000Y-92400000D03*
X249000000Y-66300000D03*
X176300000Y-115200000D03*
X231200000Y-79900000D03*
X152868642Y-97824753D03*
X196600000Y-112800000D03*
X207800000Y-84700000D03*
X151695394Y-83324606D03*
X165000000Y-79599500D03*
X200800000Y-44400000D03*
X168634367Y-60746807D03*
X173900000Y-61400000D03*
X134400000Y-72100000D03*
X185400000Y-84500000D03*
X161600000Y-96800000D03*
X220200000Y-58900000D03*
X149860000Y-111270000D03*
X155900000Y-114900000D03*
X161200000Y-61800000D03*
X224300000Y-94800000D03*
X215825396Y-98139894D03*
X175866048Y-119267562D03*
X171400000Y-112200000D03*
X140200000Y-75800000D03*
X215596214Y-113215669D03*
X237298485Y-103613298D03*
X236700000Y-77800000D03*
X183500000Y-72900000D03*
X164400000Y-61000000D03*
X167400000Y-51900000D03*
X252300000Y-66500000D03*
X223600000Y-96600000D03*
X170400000Y-108800000D03*
X159218998Y-119204713D03*
X151200000Y-119200000D03*
X153460000Y-52180000D03*
X235805714Y-43903785D03*
X150600000Y-48500000D03*
X156300000Y-116800000D03*
X212500000Y-51900000D03*
X145600000Y-71100000D03*
X144400000Y-77700000D03*
D44*
X170990000Y-101950000D03*
D43*
X149400000Y-115500000D03*
X245000000Y-113800000D03*
X258700000Y-75000000D03*
X216600000Y-74000000D03*
X218968091Y-98818054D03*
X192133724Y-46963076D03*
X144960520Y-65983345D03*
X226300000Y-110000000D03*
X164200000Y-117100000D03*
X203500000Y-62100000D03*
X250060512Y-109496043D03*
X259500000Y-121300000D03*
X214772576Y-92112527D03*
X133300000Y-75900000D03*
X250000000Y-106900000D03*
X243400000Y-80000000D03*
X203700000Y-48900000D03*
X161890000Y-108780000D03*
X146200000Y-64500000D03*
X149500000Y-117300000D03*
X235800000Y-98700000D03*
X244800000Y-84100000D03*
X216674505Y-70181245D03*
X195446593Y-109921953D03*
X241000000Y-101500000D03*
X216800000Y-100800000D03*
X216500830Y-65070231D03*
X259500000Y-41700000D03*
X133364688Y-47486129D03*
X236200000Y-101900000D03*
X200800000Y-51900000D03*
X181000000Y-60600000D03*
X215867789Y-58686487D03*
X258800000Y-84200000D03*
X241000000Y-98700000D03*
D44*
X129400000Y-53900000D03*
D43*
X165200000Y-48600000D03*
X243300000Y-63000000D03*
X229400000Y-48300000D03*
X213100000Y-98300000D03*
X222100000Y-89600000D03*
X160998485Y-69792539D03*
X179400000Y-115500000D03*
X134500000Y-76100000D03*
X203997728Y-109281731D03*
X180800000Y-112900000D03*
X255600000Y-113300000D03*
X158600000Y-117100000D03*
X252600000Y-75300000D03*
X148100000Y-73200000D03*
X167000000Y-111400000D03*
X135000000Y-49000000D03*
X173627423Y-49981245D03*
X174600000Y-79700000D03*
X150585297Y-81561729D03*
X185400000Y-87500000D03*
X192200000Y-119500000D03*
X184059690Y-112845836D03*
D44*
X130000000Y-79400000D03*
D43*
X211200000Y-62200000D03*
X200100000Y-82200000D03*
X152800000Y-81300000D03*
X142690000Y-52160000D03*
X164000000Y-100300000D03*
X144800000Y-73600000D03*
X189800000Y-95100000D03*
X201300000Y-46900000D03*
X192900000Y-92400000D03*
X176700000Y-52500000D03*
X208400000Y-71100000D03*
X132400000Y-51200000D03*
X149800000Y-105900000D03*
X247700000Y-47900000D03*
X153384216Y-71715140D03*
X202511013Y-95084216D03*
X243500000Y-43600000D03*
X176600000Y-61300000D03*
X162400000Y-76100000D03*
X185900000Y-95200000D03*
X153000000Y-79400000D03*
X248700000Y-92900000D03*
X165600000Y-50000000D03*
X186200000Y-43900000D03*
X151800000Y-96100000D03*
X154207228Y-116822881D03*
X151400000Y-93200000D03*
X207300000Y-51600000D03*
X174099886Y-82782930D03*
X234000000Y-114100000D03*
X148900000Y-95900000D03*
X168700000Y-54000000D03*
X137000000Y-67900000D03*
X159200000Y-56300000D03*
D44*
X127800000Y-80900000D03*
D43*
X217856434Y-47597728D03*
D44*
X130200000Y-60200000D03*
D43*
X169200000Y-58400000D03*
X180800000Y-43800000D03*
X218900000Y-111500000D03*
X240400000Y-85900000D03*
D42*
X164404998Y-44400000D03*
D43*
X154200000Y-113600000D03*
X147400000Y-77800000D03*
X183100000Y-50500000D03*
X185400000Y-82300000D03*
X241900000Y-41300000D03*
D44*
X127000000Y-67700000D03*
D43*
X183300000Y-70700000D03*
X166000000Y-53800000D03*
X221100000Y-102800000D03*
X188700000Y-50000000D03*
X149100000Y-119000000D03*
X200000000Y-89800000D03*
X174800000Y-65500000D03*
X214600000Y-108900000D03*
X165600000Y-106200000D03*
X192694358Y-84820439D03*
X132200000Y-49100000D03*
X238300000Y-86400000D03*
X238000000Y-114600000D03*
X208000000Y-82300000D03*
X182400000Y-112800000D03*
X196000000Y-111400000D03*
X250900000Y-102000000D03*
X239160000Y-56830000D03*
X218400000Y-62200000D03*
X152300000Y-113600000D03*
X213645849Y-104210598D03*
X185400000Y-61500000D03*
X168500000Y-121100000D03*
X221900000Y-92300000D03*
D44*
X129700000Y-74700000D03*
D43*
X150500000Y-106740000D03*
D44*
X127200000Y-51100000D03*
D43*
X174300000Y-109600000D03*
X151510000Y-101960000D03*
X170600000Y-46900000D03*
X151500000Y-117000000D03*
X184600000Y-109500000D03*
X161000000Y-67500000D03*
X185600000Y-113100000D03*
X221400000Y-97800000D03*
X175400000Y-82000000D03*
X142300000Y-71100000D03*
X242800000Y-52500000D03*
X238900000Y-71800000D03*
X197700000Y-104300000D03*
X252400000Y-92800000D03*
D44*
X153600000Y-63100000D03*
D43*
X222900000Y-60500000D03*
X161100000Y-72600000D03*
X177600000Y-93300000D03*
X142200000Y-68100000D03*
X175000000Y-63900000D03*
X174023911Y-81623911D03*
X193100000Y-112900000D03*
X182100000Y-61300000D03*
X206000000Y-46700000D03*
X208100000Y-93000000D03*
X153400000Y-73900000D03*
X181638778Y-46863833D03*
X169600000Y-104900000D03*
X204000000Y-44300000D03*
X152270000Y-55090000D03*
X249800000Y-104200000D03*
X235200000Y-105400000D03*
X141200000Y-77700000D03*
X207800000Y-112500000D03*
X213500000Y-62200000D03*
X173600000Y-86200000D03*
X243800000Y-95800000D03*
X256800000Y-103600000D03*
X175400000Y-84800000D03*
X151800000Y-98200000D03*
X152809832Y-95501732D03*
X187400000Y-46800000D03*
X233539666Y-43887244D03*
X242900000Y-59000000D03*
D44*
X127300000Y-47600000D03*
D43*
X229900000Y-82900000D03*
X246400000Y-43800000D03*
X229900000Y-78000000D03*
X212400000Y-46800000D03*
X140900000Y-70500000D03*
X237900000Y-109700000D03*
X241236996Y-76760219D03*
X173400000Y-84200000D03*
X145600000Y-76100000D03*
X222800000Y-105900000D03*
D44*
X129276703Y-67299413D03*
D43*
X227900000Y-82900000D03*
X163800000Y-111500000D03*
D44*
X127200000Y-54400000D03*
D43*
X242533724Y-106242051D03*
D44*
X129700000Y-51200000D03*
D43*
X205000000Y-100700000D03*
X239300000Y-80100000D03*
X166000000Y-90900000D03*
X173700000Y-115900000D03*
D44*
X129900000Y-48100000D03*
D43*
X137900000Y-80200000D03*
X252648107Y-84067619D03*
X192800000Y-90000000D03*
X138800000Y-47600000D03*
X133200000Y-67800000D03*
X222000000Y-87500000D03*
X150700000Y-50100000D03*
D44*
X127000000Y-64200000D03*
D43*
X192800000Y-87400000D03*
X163300000Y-75200000D03*
X219200000Y-114000000D03*
X205100000Y-103800000D03*
X200150549Y-65789743D03*
X258500000Y-104800000D03*
X154100000Y-106400000D03*
X185600000Y-89700000D03*
X238157305Y-119533938D03*
X161700000Y-118900000D03*
X216963562Y-109687030D03*
X230900000Y-114000000D03*
X241112942Y-72988986D03*
X191800000Y-109900000D03*
X222200000Y-84900000D03*
X191600000Y-76100000D03*
X138078730Y-51257362D03*
D44*
X129400000Y-63900000D03*
D43*
X258800000Y-93000000D03*
X212500000Y-58700000D03*
X200100000Y-69700000D03*
X221595531Y-81443907D03*
X226700000Y-116400000D03*
X208900000Y-62200000D03*
X203800000Y-116000000D03*
X172800000Y-57300000D03*
X164900000Y-51900000D03*
X241600000Y-105300000D03*
X162400000Y-59100000D03*
X168700000Y-108300000D03*
D44*
X129500000Y-70700000D03*
D43*
X214400000Y-105500000D03*
X156000000Y-113600000D03*
X146089730Y-67704432D03*
X249400000Y-119500000D03*
X249591786Y-116182702D03*
X224200000Y-57100000D03*
X163573846Y-54656605D03*
X207900000Y-87200000D03*
X197500000Y-95200000D03*
X152800000Y-119200000D03*
X150600000Y-77700000D03*
X140400000Y-68000000D03*
X233700000Y-79900000D03*
X193600000Y-110000000D03*
X185300000Y-92500000D03*
X205000000Y-106200000D03*
D42*
X247410000Y-41960000D03*
D43*
X235300000Y-47300000D03*
D44*
X127300000Y-78400000D03*
D43*
X227900000Y-94700000D03*
X230700000Y-102300000D03*
X205600000Y-112500000D03*
X198100000Y-62100000D03*
X240900000Y-83000000D03*
X174400000Y-59200000D03*
X148800000Y-88700000D03*
X215400000Y-116300000D03*
X148800000Y-92200000D03*
X236800000Y-80000000D03*
X215900000Y-95600000D03*
X232000000Y-86200000D03*
X179300000Y-118000000D03*
X164198371Y-118904428D03*
X143800000Y-68700000D03*
X221700000Y-95000000D03*
X164500000Y-89200000D03*
X170109841Y-113407456D03*
X153500000Y-114700000D03*
X240400000Y-92400000D03*
X161300000Y-58600000D03*
X174300000Y-118400000D03*
X141200000Y-73900000D03*
X190200000Y-100000000D03*
X215800000Y-104100000D03*
X208400000Y-74100000D03*
X244600000Y-47900000D03*
X258700000Y-66200000D03*
X162200000Y-60800000D03*
X174300000Y-46700000D03*
X244200000Y-89800000D03*
X219100000Y-109000000D03*
X143100000Y-47600000D03*
X138900000Y-68000000D03*
X194156434Y-111509841D03*
X241300000Y-67700000D03*
X259300000Y-46800000D03*
X155100000Y-119100000D03*
X254148571Y-103623809D03*
X207600000Y-109200000D03*
D44*
X126800000Y-57700000D03*
D43*
X197800000Y-42700000D03*
X161800000Y-117300000D03*
X216776103Y-111738051D03*
X208000000Y-95500000D03*
X230200000Y-44100000D03*
X242950036Y-50736923D03*
X216300000Y-62300000D03*
X176900000Y-117700000D03*
X218600000Y-105500000D03*
X168488973Y-97269947D03*
X192800000Y-82400000D03*
X225328954Y-63020097D03*
X206300000Y-110700000D03*
X200100000Y-84700000D03*
X197700000Y-99700000D03*
X161000000Y-50100000D03*
X172700000Y-53300000D03*
X232100000Y-93600000D03*
X161100000Y-63900000D03*
X232500000Y-78300000D03*
X213100000Y-95700000D03*
X173800000Y-93000000D03*
X192300000Y-116200000D03*
X194600000Y-112800000D03*
X166400000Y-55500000D03*
X218900000Y-95900000D03*
X236000000Y-103200000D03*
X178400000Y-119400000D03*
X252400000Y-47800000D03*
X241900000Y-113900000D03*
X148800000Y-98500000D03*
X153500000Y-76700000D03*
X178400000Y-112900000D03*
X219400000Y-101100000D03*
X168550150Y-106490272D03*
X172900000Y-88000000D03*
X252400000Y-57700000D03*
X136114500Y-67900000D03*
D44*
X127200000Y-71400000D03*
D43*
X147100000Y-72100000D03*
X238100000Y-116400000D03*
X137600000Y-49000000D03*
X138300000Y-72100000D03*
X258900000Y-57400000D03*
X175600000Y-49700000D03*
D44*
X129646593Y-57330109D03*
D43*
X248700000Y-84000000D03*
X226802271Y-119402371D03*
X151895457Y-74886811D03*
D42*
%TO.N,+12V*%
X165800000Y-46600000D03*
D43*
%TO.N,+3V3*%
X153400000Y-65800000D03*
X160900000Y-66300000D03*
D42*
X242700000Y-95800000D03*
%TO.N,SDA*%
X244100000Y-88000000D03*
D43*
%TO.N,SCL*%
X243420000Y-81150000D03*
X229540000Y-85760000D03*
D42*
%TO.N,DIO6*%
X192400000Y-111600000D03*
X153649500Y-103600000D03*
D43*
X160500000Y-106800000D03*
X166800000Y-112500000D03*
D42*
X184400000Y-110499500D03*
D43*
%TO.N,DIO5*%
X165100000Y-101800000D03*
X159500000Y-100800000D03*
X203100000Y-112700000D03*
%TO.N,IMU0*%
X148800000Y-85400000D03*
X148800000Y-74000000D03*
%TO.N,MOSI*%
X159300000Y-81700000D03*
X140300000Y-77700000D03*
X151100000Y-78500000D03*
X139300000Y-74400000D03*
X139200000Y-70400000D03*
%TO.N,MISO*%
X151100000Y-75100000D03*
%TO.N,SCK*%
X140099503Y-70400000D03*
X141100000Y-76200000D03*
X140100000Y-73800000D03*
%TO.N,IMU2*%
X230400000Y-100400000D03*
X174787832Y-111198589D03*
X167600000Y-116900000D03*
X138500000Y-76600000D03*
X139000000Y-79900000D03*
X148500000Y-101300000D03*
X176300000Y-109700000D03*
D42*
X222900000Y-100500000D03*
D43*
%TO.N,DIO4*%
X172200000Y-111523911D03*
X153300000Y-86500000D03*
X148700000Y-103600000D03*
X167700000Y-115600000D03*
X214800000Y-111500000D03*
%TO.N,DIO3*%
X225800000Y-109200000D03*
D42*
X179300000Y-82700000D03*
D43*
X180300000Y-94300000D03*
X223900000Y-105900000D03*
%TO.N,DIO2*%
X178000000Y-59600000D03*
X226100000Y-78500000D03*
X160800000Y-75295000D03*
X235500000Y-97700000D03*
X168100000Y-51200000D03*
X161100000Y-56000000D03*
X186300000Y-60900000D03*
%TO.N,DIO1*%
X160100000Y-55900000D03*
X160100000Y-63800000D03*
X166100000Y-49300000D03*
X241000000Y-97600000D03*
X239500000Y-87200000D03*
%TO.N,IMU1*%
X249500000Y-101100000D03*
X166100000Y-48000000D03*
X241300000Y-87200000D03*
X140955378Y-73044622D03*
X148000000Y-68300000D03*
%TO.N,A5EStop*%
X182500000Y-63000000D03*
X191800000Y-69600000D03*
X169400000Y-63000000D03*
X172100000Y-63000000D03*
%TO.N,A6EStop*%
X172200000Y-62099500D03*
X162100000Y-62100000D03*
X169750000Y-62050000D03*
X181500000Y-62100000D03*
X225100000Y-76500000D03*
%TO.N,A4EStop*%
X169300000Y-59300000D03*
X180100000Y-60700000D03*
X172300000Y-60700000D03*
%TO.N,A2EStop*%
X168200000Y-57100000D03*
%TO.N,DIO0_5V*%
X145100000Y-68100000D03*
X166100000Y-45650000D03*
X151400000Y-73000000D03*
D42*
%TO.N,IMU2_5V*%
X228200000Y-106100000D03*
%TO.N,5V_BRAIN*%
X161600000Y-101500000D03*
X147200000Y-64800000D03*
D43*
%TO.N,Net-(IC4-CH0)*%
X162800000Y-91100000D03*
X173250000Y-93950000D03*
X165800000Y-95800000D03*
X162400000Y-89100000D03*
%TO.N,Net-(IC4-CH1)*%
X163600000Y-89000000D03*
X171500000Y-92300000D03*
X179000000Y-94000000D03*
X163600000Y-91000000D03*
X163600000Y-92400000D03*
%TO.N,Net-(IC4-CH2)*%
X164100000Y-106500000D03*
%TO.N,Net-(IC4-CH3)*%
X166200000Y-84699500D03*
X207100000Y-93100000D03*
X207100000Y-95200000D03*
X186500000Y-76700500D03*
X171400000Y-77900000D03*
X179500000Y-78900000D03*
X175073911Y-76026089D03*
%TO.N,Net-(IC4-CH4)*%
X164800000Y-88400000D03*
X165700000Y-78000000D03*
%TO.N,Net-(IC4-CH5)*%
X172208533Y-77086933D03*
X165500000Y-89100000D03*
%TO.N,Net-(IC4-CH6)*%
X173000000Y-77200000D03*
X170000000Y-88900000D03*
%TO.N,Net-(IC4-CH7)*%
X171200000Y-88800000D03*
X173814133Y-77361956D03*
%TO.N,ADC*%
X169954177Y-79541868D03*
%TD*%
D45*
%TO.N,+5V*%
X244620000Y-106250000D02*
X241785000Y-103415000D01*
D46*
X151405000Y-112300000D02*
X151390000Y-112315000D01*
D45*
X232000000Y-104245000D02*
X232000000Y-110175000D01*
X243800000Y-109100000D02*
X243800000Y-110575000D01*
D47*
X151390000Y-109910000D02*
X151380000Y-109900000D01*
D45*
X187590000Y-115385000D02*
X187590000Y-116210000D01*
X232000000Y-110175000D02*
X232400000Y-110575000D01*
X210470000Y-115385000D02*
X210470000Y-116230000D01*
X186799500Y-117000500D02*
X186799500Y-118375000D01*
X220900000Y-117100000D02*
X220900000Y-118275000D01*
X229770000Y-104185000D02*
X231940000Y-104185000D01*
X198990000Y-116410000D02*
X198200000Y-117200000D01*
X187590000Y-116210000D02*
X186799500Y-117000500D01*
D47*
X151880000Y-109900000D02*
X151380000Y-109900000D01*
X151380000Y-112305000D02*
X151390000Y-112315000D01*
D46*
X154500000Y-112300000D02*
X151405000Y-112300000D01*
D45*
X209600000Y-117100000D02*
X209600000Y-118375000D01*
X221870000Y-116130000D02*
X220900000Y-117100000D01*
X221870000Y-115285000D02*
X221870000Y-116130000D01*
X231940000Y-104185000D02*
X231960000Y-104205000D01*
D47*
X151390000Y-112315000D02*
X151390000Y-109910000D01*
D45*
X198200000Y-117200000D02*
X198200000Y-118375000D01*
X151425000Y-112350000D02*
X151390000Y-112315000D01*
X241785000Y-103415000D02*
X240340000Y-103415000D01*
X220900000Y-118275000D02*
X221000000Y-118375000D01*
X244620000Y-108280000D02*
X243800000Y-109100000D01*
X210470000Y-116230000D02*
X209600000Y-117100000D01*
X198990000Y-115385000D02*
X198990000Y-116410000D01*
X244620000Y-107285000D02*
X244620000Y-108280000D01*
X244620000Y-107285000D02*
X244620000Y-106250000D01*
X231960000Y-104205000D02*
X232000000Y-104245000D01*
D48*
%TO.N,GND*%
X136974000Y-60150000D02*
X130250000Y-60150000D01*
D49*
X137015000Y-68773514D02*
X137015000Y-67915000D01*
X133155000Y-68910000D02*
X133155000Y-67845000D01*
D45*
X152265000Y-55095000D02*
X152270000Y-55090000D01*
D49*
X137015000Y-72300000D02*
X137015000Y-72285000D01*
X136015000Y-76240674D02*
X136015000Y-76215000D01*
X137200000Y-76100000D02*
X137900000Y-76100000D01*
X133155000Y-67845000D02*
X133200000Y-67800000D01*
X137200000Y-72100000D02*
X138300000Y-72100000D01*
X136256351Y-72100000D02*
X136717298Y-72100000D01*
X136015000Y-76240674D02*
X136155674Y-76100000D01*
X136015000Y-67999500D02*
X136114500Y-67900000D01*
X137015000Y-76300000D02*
X137015000Y-76115000D01*
X151515000Y-101965000D02*
X151510000Y-101960000D01*
X136800000Y-76100000D02*
X137000000Y-76100000D01*
X137015000Y-72285000D02*
X136985000Y-72285000D01*
X136015000Y-77149326D02*
X136015000Y-76773514D01*
D45*
X153130000Y-64270000D02*
X153600000Y-63800000D01*
D49*
X136015000Y-73149326D02*
X136015000Y-72773514D01*
X133155000Y-71945000D02*
X133155000Y-72910000D01*
D45*
X149840000Y-111290000D02*
X149860000Y-111270000D01*
X152265000Y-56227500D02*
X152265000Y-55095000D01*
D49*
X137015000Y-76285000D02*
X137200000Y-76100000D01*
X135350000Y-73438514D02*
X135725812Y-73438514D01*
X136015000Y-72100000D02*
X136256351Y-72100000D01*
X133200000Y-71900000D02*
X133155000Y-71945000D01*
X137900000Y-76100000D02*
X138200000Y-75800000D01*
X135725812Y-73438514D02*
X136015000Y-73149326D01*
X135800000Y-72100000D02*
X134400000Y-72100000D01*
X135350000Y-73438514D02*
X135350000Y-73938514D01*
X136000000Y-76100000D02*
X135900000Y-76100000D01*
X135350000Y-77938514D02*
X135350000Y-77438514D01*
D45*
X152342500Y-52175000D02*
X153455000Y-52175000D01*
D49*
X135725812Y-77438514D02*
X136015000Y-77149326D01*
X135350000Y-77438514D02*
X135725812Y-77438514D01*
X136256351Y-72100000D02*
X136200000Y-72100000D01*
X136015000Y-76215000D02*
X135900000Y-76100000D01*
D45*
X153600000Y-63800000D02*
X153600000Y-63100000D01*
X144030000Y-52175000D02*
X142705000Y-52175000D01*
D49*
X137015000Y-76300000D02*
X137015000Y-76285000D01*
X136717298Y-72100000D02*
X137000000Y-72100000D01*
X137015000Y-67915000D02*
X137000000Y-67900000D01*
X137015000Y-72115000D02*
X137015000Y-72300000D01*
X136015000Y-69149326D02*
X136015000Y-68773514D01*
X137015000Y-76773514D02*
X137015000Y-76300000D01*
X136015000Y-72300000D02*
X136000000Y-72300000D01*
X136015000Y-72300000D02*
X136015000Y-72100000D01*
X136015000Y-72773514D02*
X136015000Y-72300000D01*
X137015000Y-76115000D02*
X137000000Y-76100000D01*
X136000000Y-72300000D02*
X135800000Y-72100000D01*
D45*
X152265000Y-64270000D02*
X153130000Y-64270000D01*
D49*
X135350000Y-69938514D02*
X135350000Y-69438514D01*
X137015000Y-76285000D02*
X136985000Y-76285000D01*
X136717298Y-72100000D02*
X136800000Y-72100000D01*
X136155674Y-76100000D02*
X136000000Y-76100000D01*
D45*
X153455000Y-52175000D02*
X153460000Y-52180000D01*
D49*
X133155000Y-76910000D02*
X133155000Y-76045000D01*
D45*
X160520000Y-104780000D02*
X160500000Y-104800000D01*
D49*
X136800000Y-72100000D02*
X137200000Y-72100000D01*
X135725812Y-69438514D02*
X136015000Y-69149326D01*
X135350000Y-69438514D02*
X135725812Y-69438514D01*
D45*
X142705000Y-52175000D02*
X142690000Y-52160000D01*
D49*
X150500000Y-106740000D02*
X150510000Y-106750000D01*
D48*
X130250000Y-60150000D02*
X130200000Y-60200000D01*
D49*
X136015000Y-76300000D02*
X136015000Y-76115000D01*
X151515000Y-103130000D02*
X151515000Y-101965000D01*
X136985000Y-72285000D02*
X136800000Y-72100000D01*
X137000000Y-76100000D02*
X137200000Y-76100000D01*
X136015000Y-76300000D02*
X136015000Y-76240674D01*
X137015000Y-72300000D02*
X137015000Y-72773514D01*
X133155000Y-76045000D02*
X133300000Y-75900000D01*
X136015000Y-72285000D02*
X136200000Y-72100000D01*
X136015000Y-72300000D02*
X136015000Y-72285000D01*
X136155674Y-76100000D02*
X136800000Y-76100000D01*
X136200000Y-72100000D02*
X135800000Y-72100000D01*
X135900000Y-76100000D02*
X134500000Y-76100000D01*
X137015000Y-72285000D02*
X137200000Y-72100000D01*
D45*
X161635000Y-104780000D02*
X160520000Y-104780000D01*
D49*
X136015000Y-68773514D02*
X136015000Y-67999500D01*
X136015000Y-76773514D02*
X136015000Y-76300000D01*
X137000000Y-72100000D02*
X137015000Y-72115000D01*
X150510000Y-106750000D02*
X151380000Y-106750000D01*
X136985000Y-76285000D02*
X136800000Y-76100000D01*
X136015000Y-76115000D02*
X136000000Y-76100000D01*
D45*
X149840000Y-112315000D02*
X149840000Y-111290000D01*
D46*
%TO.N,+12V*%
X164600000Y-46600000D02*
X165800000Y-46600000D01*
X147270000Y-52175000D02*
X147270000Y-57590000D01*
X147400000Y-52045000D02*
X147400000Y-49100000D01*
X147270000Y-52175000D02*
X145580000Y-52175000D01*
X147400000Y-49100000D02*
X149500000Y-47000000D01*
X147270000Y-52175000D02*
X147400000Y-52045000D01*
X147270000Y-57590000D02*
X147250000Y-57610000D01*
X164200000Y-47000000D02*
X164600000Y-46600000D01*
X149500000Y-47000000D02*
X164200000Y-47000000D01*
D45*
%TO.N,+3V3*%
X222670000Y-109215000D02*
X222670000Y-108000000D01*
X232760000Y-97715000D02*
X232760000Y-99722500D01*
X237860000Y-95860000D02*
X237800000Y-95800000D01*
X188380000Y-108420000D02*
X188380000Y-109215000D01*
D47*
X148100000Y-104700000D02*
X151495000Y-104700000D01*
D45*
X237860000Y-96200000D02*
X237860000Y-95860000D01*
X147100000Y-81000000D02*
X134200000Y-81000000D01*
X232760000Y-96300000D02*
X232760000Y-96260000D01*
D49*
X135515000Y-72773514D02*
X134726486Y-72773514D01*
D45*
X232760000Y-97715000D02*
X232760000Y-96300000D01*
X211300000Y-107600000D02*
X210800000Y-107600000D01*
X147600000Y-114600000D02*
X147600000Y-105100000D01*
X237800000Y-96200000D02*
X237400000Y-95800000D01*
D49*
X133155000Y-78460000D02*
X132660000Y-78460000D01*
X135515000Y-67585000D02*
X136000000Y-67100000D01*
D45*
X199780000Y-108080000D02*
X199300000Y-107600000D01*
X232760000Y-99722500D02*
X232615000Y-99867500D01*
X226800000Y-95800000D02*
X226700000Y-95800000D01*
D49*
X134200000Y-74460000D02*
X134400000Y-74460000D01*
D45*
X232300000Y-95800000D02*
X227800000Y-95800000D01*
D49*
X132100000Y-76200000D02*
X133155000Y-75145000D01*
X134400000Y-78460000D02*
X134400000Y-78300000D01*
X131700000Y-72500000D02*
X133155000Y-71045000D01*
D45*
X199300000Y-107600000D02*
X189200000Y-107600000D01*
X211270000Y-108100000D02*
X211300000Y-108100000D01*
D49*
X134200000Y-78460000D02*
X134400000Y-78460000D01*
X154600000Y-66300000D02*
X154100000Y-65800000D01*
D45*
X211270000Y-107630000D02*
X211300000Y-107600000D01*
D49*
X134400000Y-74460000D02*
X134600000Y-74460000D01*
D45*
X232760000Y-96300000D02*
X232800000Y-96300000D01*
X211270000Y-108100000D02*
X211270000Y-107630000D01*
D49*
X136000000Y-67100000D02*
X153000000Y-67100000D01*
X135139188Y-76773514D02*
X135515000Y-76773514D01*
X134300000Y-70300000D02*
X134300000Y-69300000D01*
D45*
X227165000Y-100267500D02*
X227165000Y-98180000D01*
X226000000Y-95800000D02*
X224900000Y-96900000D01*
D49*
X153000000Y-67100000D02*
X153400000Y-66700000D01*
D45*
X227230000Y-98115000D02*
X227230000Y-96300000D01*
X199800000Y-108100000D02*
X200300000Y-107600000D01*
D49*
X154100000Y-65800000D02*
X153400000Y-65800000D01*
D45*
X232760000Y-96260000D02*
X232300000Y-95800000D01*
X237860000Y-97515000D02*
X237860000Y-96200000D01*
X237860000Y-96200000D02*
X237800000Y-96200000D01*
X211100000Y-111352500D02*
X211115000Y-111367500D01*
D49*
X134400000Y-77512702D02*
X135139188Y-76773514D01*
D45*
X188265000Y-109330000D02*
X188380000Y-109215000D01*
X148800000Y-121100000D02*
X147600000Y-119900000D01*
X211300000Y-108100000D02*
X210800000Y-107600000D01*
D47*
X148100000Y-104700000D02*
X148000000Y-104700000D01*
D45*
X211300000Y-108100000D02*
X211800000Y-107600000D01*
X200300000Y-107600000D02*
X199800000Y-107600000D01*
X175832500Y-111367500D02*
X166100000Y-121100000D01*
D47*
X151880000Y-105975000D02*
X151880000Y-106750000D01*
D49*
X133155000Y-71045000D02*
X133155000Y-70460000D01*
D45*
X232760000Y-96300000D02*
X232760000Y-95840000D01*
X222300000Y-107600000D02*
X211800000Y-107600000D01*
D49*
X134726486Y-72773514D02*
X134400000Y-73100000D01*
D47*
X148000000Y-104700000D02*
X147600000Y-105100000D01*
D49*
X134600000Y-78460000D02*
X135328514Y-78460000D01*
D45*
X237400000Y-95800000D02*
X233300000Y-95800000D01*
X232800000Y-96300000D02*
X233300000Y-95800000D01*
X222700000Y-108000000D02*
X223100000Y-107600000D01*
X188265000Y-111367500D02*
X175832500Y-111367500D01*
X222670000Y-108000000D02*
X222670000Y-107630000D01*
X242700000Y-100100000D02*
X242700000Y-95800000D01*
D47*
X151500000Y-105595000D02*
X151880000Y-105975000D01*
D45*
X227230000Y-96300000D02*
X227230000Y-95830000D01*
X245430000Y-103152500D02*
X245315000Y-103267500D01*
X224300000Y-107600000D02*
X223100000Y-107600000D01*
D49*
X135328514Y-78460000D02*
X135350000Y-78438514D01*
D45*
X222670000Y-108000000D02*
X222670000Y-107970000D01*
D49*
X134440000Y-78300000D02*
X134600000Y-78460000D01*
D45*
X188265000Y-111367500D02*
X188265000Y-109330000D01*
D49*
X134440000Y-78300000D02*
X134360000Y-78300000D01*
D45*
X245430000Y-101115000D02*
X243715000Y-101115000D01*
D47*
X148000000Y-104700000D02*
X147600000Y-104300000D01*
D45*
X147600000Y-115400000D02*
X147600000Y-115000000D01*
X199800000Y-107600000D02*
X199300000Y-107600000D01*
D49*
X133155000Y-74460000D02*
X132160000Y-74460000D01*
D45*
X211270000Y-109215000D02*
X211270000Y-108100000D01*
X211800000Y-107600000D02*
X211300000Y-107600000D01*
X222670000Y-107630000D02*
X222700000Y-107600000D01*
D49*
X134360000Y-74300000D02*
X134200000Y-74460000D01*
X134300000Y-70460000D02*
X134300000Y-70300000D01*
D45*
X223100000Y-107600000D02*
X222700000Y-107600000D01*
D49*
X134400000Y-78300000D02*
X134440000Y-78300000D01*
D45*
X147600000Y-119900000D02*
X147600000Y-115400000D01*
X237860000Y-97515000D02*
X237860000Y-99572500D01*
X199780000Y-108100000D02*
X199800000Y-108100000D01*
X147600000Y-104700000D02*
X147600000Y-104300000D01*
D49*
X135488514Y-68800000D02*
X135515000Y-68773514D01*
D45*
X245430000Y-101115000D02*
X245430000Y-103152500D01*
D49*
X134800000Y-68800000D02*
X135488514Y-68800000D01*
D45*
X242700000Y-95800000D02*
X238300000Y-95800000D01*
X199780000Y-108100000D02*
X199780000Y-107620000D01*
D49*
X134300000Y-70300000D02*
X134260000Y-70300000D01*
D45*
X210800000Y-107600000D02*
X200300000Y-107600000D01*
D49*
X132160000Y-74460000D02*
X131700000Y-74000000D01*
X134500000Y-70460000D02*
X135328514Y-70460000D01*
X134600000Y-74460000D02*
X135328514Y-74460000D01*
D45*
X237860000Y-96200000D02*
X237900000Y-96200000D01*
X147600000Y-105100000D02*
X147600000Y-104700000D01*
D49*
X134300000Y-69300000D02*
X134800000Y-68800000D01*
X133155000Y-75145000D02*
X133155000Y-74460000D01*
D45*
X227800000Y-95800000D02*
X227200000Y-95800000D01*
D47*
X151515000Y-104680000D02*
X151500000Y-104695000D01*
D45*
X147600000Y-115000000D02*
X147600000Y-114600000D01*
X222670000Y-109215000D02*
X222670000Y-111262500D01*
X211270000Y-109215000D02*
X211100000Y-109385000D01*
D49*
X134360000Y-78300000D02*
X134200000Y-78460000D01*
D47*
X148100000Y-104700000D02*
X147600000Y-104700000D01*
D45*
X227165000Y-98180000D02*
X227230000Y-98115000D01*
D49*
X134100000Y-70460000D02*
X134300000Y-70460000D01*
D45*
X147600000Y-81500000D02*
X147100000Y-81000000D01*
D49*
X134400000Y-74300000D02*
X134400000Y-74460000D01*
X134300000Y-70460000D02*
X134500000Y-70460000D01*
D45*
X211100000Y-109385000D02*
X211100000Y-111352500D01*
X232800000Y-95800000D02*
X232300000Y-95800000D01*
D47*
X151500000Y-104695000D02*
X151500000Y-105595000D01*
D45*
X227300000Y-96300000D02*
X226800000Y-95800000D01*
X133155000Y-79955000D02*
X133155000Y-78460000D01*
D49*
X132100000Y-77900000D02*
X132100000Y-76200000D01*
X134440000Y-74300000D02*
X134600000Y-74460000D01*
D45*
X227300000Y-96300000D02*
X227800000Y-95800000D01*
D49*
X135328514Y-70460000D02*
X135350000Y-70438514D01*
D45*
X227230000Y-95830000D02*
X227200000Y-95800000D01*
X238300000Y-95800000D02*
X237800000Y-95800000D01*
D49*
X133155000Y-78460000D02*
X134200000Y-78460000D01*
X134400000Y-78460000D02*
X134600000Y-78460000D01*
X134400000Y-73100000D02*
X134400000Y-74300000D01*
X132660000Y-78460000D02*
X132100000Y-77900000D01*
D47*
X151495000Y-104700000D02*
X151515000Y-104680000D01*
D45*
X237900000Y-96200000D02*
X238300000Y-95800000D01*
D49*
X135515000Y-68773514D02*
X135515000Y-67585000D01*
D45*
X189200000Y-107600000D02*
X188380000Y-108420000D01*
D49*
X134340000Y-70300000D02*
X134500000Y-70460000D01*
D45*
X237800000Y-95800000D02*
X237400000Y-95800000D01*
X233300000Y-95800000D02*
X232800000Y-95800000D01*
D49*
X133155000Y-74460000D02*
X134200000Y-74460000D01*
X134400000Y-74300000D02*
X134440000Y-74300000D01*
D45*
X147600000Y-104300000D02*
X147600000Y-81500000D01*
D49*
X153400000Y-66700000D02*
X153400000Y-65800000D01*
D45*
X237860000Y-99572500D02*
X237765000Y-99667500D01*
D49*
X134300000Y-70300000D02*
X134340000Y-70300000D01*
D45*
X224900000Y-96900000D02*
X224900000Y-107000000D01*
X227230000Y-96300000D02*
X227300000Y-96300000D01*
X166100000Y-121100000D02*
X148800000Y-121100000D01*
D49*
X131700000Y-74000000D02*
X131700000Y-72500000D01*
X133155000Y-70460000D02*
X134100000Y-70460000D01*
D45*
X226700000Y-95800000D02*
X226000000Y-95800000D01*
D49*
X134400000Y-78300000D02*
X134400000Y-77512702D01*
X160900000Y-66300000D02*
X154600000Y-66300000D01*
D45*
X134200000Y-81000000D02*
X133155000Y-79955000D01*
X199780000Y-108100000D02*
X199780000Y-108080000D01*
D49*
X134400000Y-74300000D02*
X134360000Y-74300000D01*
D45*
X243715000Y-101115000D02*
X242700000Y-100100000D01*
X222700000Y-107600000D02*
X222300000Y-107600000D01*
X222670000Y-111262500D02*
X222565000Y-111367500D01*
D49*
X135328514Y-74460000D02*
X135350000Y-74438514D01*
D45*
X222670000Y-108000000D02*
X222700000Y-108000000D01*
X199780000Y-109315000D02*
X199780000Y-108100000D01*
X232760000Y-95840000D02*
X232800000Y-95800000D01*
X199780000Y-107620000D02*
X199800000Y-107600000D01*
X199780000Y-111402500D02*
X199715000Y-111467500D01*
X227200000Y-95800000D02*
X226700000Y-95800000D01*
X224900000Y-107000000D02*
X224300000Y-107600000D01*
X222670000Y-107970000D02*
X222300000Y-107600000D01*
X199780000Y-109315000D02*
X199780000Y-111402500D01*
D49*
X134260000Y-70300000D02*
X134100000Y-70460000D01*
D46*
%TO.N,Net-(D4-A)*%
X152265000Y-59450000D02*
X152265000Y-57802500D01*
%TO.N,Net-(D6-A)*%
X148920000Y-52175000D02*
X150767500Y-52175000D01*
D49*
%TO.N,SDA*%
X153400000Y-111500000D02*
X159200000Y-111500000D01*
D47*
X232200000Y-88000000D02*
X229137190Y-91062810D01*
X229137190Y-91062810D02*
X225085000Y-91062810D01*
D49*
X152880000Y-109900000D02*
X152880000Y-110980000D01*
X160700000Y-108800000D02*
X178437190Y-91062810D01*
D47*
X244100000Y-88000000D02*
X232200000Y-88000000D01*
D49*
X159200000Y-111500000D02*
X160700000Y-110000000D01*
X178437190Y-91062810D02*
X181285000Y-91062810D01*
X160700000Y-110000000D02*
X160700000Y-108800000D01*
X152880000Y-110980000D02*
X153400000Y-111500000D01*
%TO.N,SCL*%
X155600000Y-111000000D02*
X158400000Y-111000000D01*
X153400000Y-108800000D02*
X155600000Y-111000000D01*
D47*
X243420000Y-81150000D02*
X233360000Y-81150000D01*
D49*
X152600000Y-108800000D02*
X153400000Y-108800000D01*
X160002308Y-108297692D02*
X179737190Y-88562810D01*
D47*
X233360000Y-81150000D02*
X229540000Y-84970000D01*
D49*
X152380000Y-109020000D02*
X152600000Y-108800000D01*
X160002308Y-109397692D02*
X160002308Y-108297692D01*
X152380000Y-109900000D02*
X152380000Y-109020000D01*
D47*
X229540000Y-84970000D02*
X229540000Y-85760000D01*
D49*
X158400000Y-111000000D02*
X160002308Y-109397692D01*
X179737190Y-88562810D02*
X181285000Y-88562810D01*
%TO.N,DIO6*%
X153649500Y-104649500D02*
X154100000Y-105100000D01*
D45*
X190165000Y-111367500D02*
X190165000Y-109350000D01*
D49*
X170000000Y-112500000D02*
X172000500Y-110499500D01*
D45*
X190165000Y-109350000D02*
X190030000Y-109215000D01*
D49*
X159700000Y-105100000D02*
X160500000Y-105900000D01*
X160500000Y-105900000D02*
X160500000Y-106800000D01*
X172000500Y-110499500D02*
X184400000Y-110499500D01*
X192400000Y-111600000D02*
X190397500Y-111600000D01*
X153649500Y-103600000D02*
X153649500Y-104649500D01*
X190397500Y-111600000D02*
X190165000Y-111367500D01*
X154100000Y-105100000D02*
X159700000Y-105100000D01*
X166800000Y-112500000D02*
X170000000Y-112500000D01*
%TO.N,TxD*%
X172225000Y-93075000D02*
X179237190Y-86062810D01*
X158010000Y-93075000D02*
X172225000Y-93075000D01*
X179237190Y-86062810D02*
X181285000Y-86062810D01*
%TO.N,RxD*%
X178637190Y-83562810D02*
X181285000Y-83562810D01*
X170400000Y-91800000D02*
X178637190Y-83562810D01*
X156700000Y-92500000D02*
X157400000Y-91800000D01*
X157015000Y-95615000D02*
X156700000Y-95300000D01*
X158010000Y-95615000D02*
X157015000Y-95615000D01*
X157400000Y-91800000D02*
X170400000Y-91800000D01*
X156700000Y-95300000D02*
X156700000Y-92500000D01*
D45*
%TO.N,DIO5*%
X201600000Y-111452500D02*
X201615000Y-111467500D01*
D49*
X203100000Y-111900000D02*
X202667500Y-111467500D01*
D45*
X201600000Y-109485000D02*
X201600000Y-111452500D01*
D49*
X159500000Y-100800000D02*
X162800000Y-100800000D01*
X163800000Y-101800000D02*
X165100000Y-101800000D01*
X202667500Y-111467500D02*
X201615000Y-111467500D01*
X203100000Y-112700000D02*
X203100000Y-111900000D01*
D45*
X201430000Y-109315000D02*
X201600000Y-109485000D01*
D49*
X162800000Y-100800000D02*
X163800000Y-101800000D01*
%TO.N,IMU0*%
X142100000Y-69000000D02*
X138500000Y-69000000D01*
X148855000Y-85455000D02*
X155470000Y-85455000D01*
X148800000Y-74000000D02*
X147100000Y-74000000D01*
X148800000Y-85400000D02*
X148855000Y-85455000D01*
X147100000Y-74000000D02*
X142100000Y-69000000D01*
X138061486Y-69438514D02*
X137180000Y-69438514D01*
X138500000Y-69000000D02*
X138061486Y-69438514D01*
%TO.N,MOSI*%
X140300000Y-78200000D02*
X140300000Y-77700000D01*
X151100000Y-78500000D02*
X151038514Y-78438514D01*
X139200000Y-70400000D02*
X139161486Y-70438514D01*
X139300000Y-74400000D02*
X139261486Y-74438514D01*
X140300000Y-78238514D02*
X140500000Y-78438514D01*
X140300000Y-78200000D02*
X140300000Y-78238514D01*
X155700000Y-81700000D02*
X155470000Y-81470000D01*
X140300000Y-78438514D02*
X140300000Y-78200000D01*
X139261486Y-74438514D02*
X137180000Y-74438514D01*
X140100000Y-78438514D02*
X137180000Y-78438514D01*
X155470000Y-81470000D02*
X155470000Y-80375000D01*
X140500000Y-78438514D02*
X140300000Y-78438514D01*
X139161486Y-70438514D02*
X137180000Y-70438514D01*
X140300000Y-78438514D02*
X140100000Y-78438514D01*
X159300000Y-81700000D02*
X155700000Y-81700000D01*
X151038514Y-78438514D02*
X140500000Y-78438514D01*
X140300000Y-78238514D02*
X140100000Y-78438514D01*
%TO.N,MISO*%
X143200000Y-75103514D02*
X143000000Y-75103514D01*
X151100000Y-75100000D02*
X151096486Y-75103514D01*
X151600000Y-79200000D02*
X152965000Y-77835000D01*
X143200000Y-74900000D02*
X143200000Y-75103514D01*
X137015000Y-79103514D02*
X137111486Y-79200000D01*
X143200000Y-74903514D02*
X143000000Y-75103514D01*
X143400000Y-75103514D02*
X143200000Y-75103514D01*
X152965000Y-77835000D02*
X155470000Y-77835000D01*
X151096486Y-75103514D02*
X143400000Y-75103514D01*
X143200000Y-74300000D02*
X143200000Y-74900000D01*
X141400000Y-75103514D02*
X141200000Y-75103514D01*
X140900000Y-75103514D02*
X137015000Y-75103514D01*
X143200000Y-74900000D02*
X143200000Y-74903514D01*
X137015000Y-71103514D02*
X140003514Y-71103514D01*
X141200000Y-75103514D02*
X140900000Y-75103514D01*
X137111486Y-79200000D02*
X151600000Y-79200000D01*
X140003514Y-71103514D02*
X143200000Y-74300000D01*
X143200000Y-74903514D02*
X143400000Y-75103514D01*
X143000000Y-75103514D02*
X141400000Y-75103514D01*
%TO.N,SCK*%
X141100000Y-76900000D02*
X141300000Y-77100000D01*
X141300000Y-77100000D02*
X151551471Y-77100000D01*
X153356471Y-75295000D02*
X155470000Y-75295000D01*
X141100000Y-76200000D02*
X141100000Y-76900000D01*
X140900000Y-77100000D02*
X141100000Y-77100000D01*
X138812957Y-69938514D02*
X137180000Y-69938514D01*
X141100000Y-76900000D02*
X140900000Y-77100000D01*
X151551471Y-77100000D02*
X153356471Y-75295000D01*
X138561486Y-73938514D02*
X138700000Y-73800000D01*
X138461486Y-77938514D02*
X139300000Y-77100000D01*
X140099503Y-70400000D02*
X140099503Y-70099503D01*
X137180000Y-77938514D02*
X138461486Y-77938514D01*
X139300000Y-77100000D02*
X140900000Y-77100000D01*
X141100000Y-76900000D02*
X141100000Y-77100000D01*
X139051471Y-69700000D02*
X138812957Y-69938514D01*
X139700000Y-69700000D02*
X139051471Y-69700000D01*
X141100000Y-77100000D02*
X141300000Y-77100000D01*
X138700000Y-73800000D02*
X140100000Y-73800000D01*
X137180000Y-73938514D02*
X138561486Y-73938514D01*
X140099503Y-70099503D02*
X139700000Y-69700000D01*
%TO.N,IMU2*%
X150100000Y-79900000D02*
X148400000Y-79900000D01*
X158010000Y-85455000D02*
X158010000Y-84410000D01*
X229197500Y-100400000D02*
X229065000Y-100267500D01*
X173200000Y-111600000D02*
X173601411Y-111198589D01*
X230400000Y-100400000D02*
X229197500Y-100400000D01*
X138500000Y-77000000D02*
X138061486Y-77438514D01*
X138061486Y-77438514D02*
X137180000Y-77438514D01*
X157800000Y-84200000D02*
X154400000Y-84200000D01*
X154400000Y-84200000D02*
X153500000Y-83300000D01*
X176300000Y-109700000D02*
X182800000Y-109700000D01*
X182800000Y-109700000D02*
X185600000Y-106900000D01*
X148000000Y-79900000D02*
X139000000Y-79900000D01*
X148200000Y-80100000D02*
X148200000Y-80000000D01*
X148200000Y-100300000D02*
X148200000Y-80100000D01*
X148300000Y-79900000D02*
X148000000Y-79900000D01*
X148500000Y-101300000D02*
X148500000Y-100600000D01*
X215500000Y-106900000D02*
X221900000Y-100500000D01*
D45*
X228880000Y-100082500D02*
X229065000Y-100267500D01*
D49*
X148200000Y-80000000D02*
X148300000Y-79900000D01*
X158010000Y-84410000D02*
X157800000Y-84200000D01*
X173601411Y-111198589D02*
X174787832Y-111198589D01*
X185600000Y-106900000D02*
X215500000Y-106900000D01*
X168800000Y-116900000D02*
X173200000Y-112500000D01*
X148500000Y-100600000D02*
X148200000Y-100300000D01*
X148200000Y-80000000D02*
X148100000Y-79900000D01*
X138500000Y-76600000D02*
X138500000Y-77000000D01*
X148400000Y-79900000D02*
X148300000Y-79900000D01*
X148200000Y-80100000D02*
X148400000Y-79900000D01*
X148200000Y-80100000D02*
X148000000Y-79900000D01*
D45*
X228880000Y-98115000D02*
X228880000Y-100082500D01*
D49*
X148100000Y-79900000D02*
X148000000Y-79900000D01*
X167600000Y-116900000D02*
X168800000Y-116900000D01*
X173200000Y-112500000D02*
X173200000Y-111600000D01*
X221900000Y-100500000D02*
X222900000Y-100500000D01*
X153500000Y-83300000D02*
X150100000Y-79900000D01*
D45*
%TO.N,DIO4*%
X213015000Y-111367500D02*
X213015000Y-109310000D01*
D49*
X213147500Y-111500000D02*
X213015000Y-111367500D01*
X172200000Y-111523911D02*
X172200000Y-112600000D01*
X148700000Y-102600000D02*
X148700000Y-103600000D01*
X214800000Y-111500000D02*
X213147500Y-111500000D01*
X151000000Y-95700000D02*
X151000000Y-100300000D01*
X153300000Y-93400000D02*
X151000000Y-95700000D01*
X172200000Y-112600000D02*
X169200000Y-115600000D01*
D45*
X213015000Y-109310000D02*
X212920000Y-109215000D01*
D49*
X169200000Y-115600000D02*
X167700000Y-115600000D01*
X151000000Y-100300000D02*
X148700000Y-102600000D01*
X153300000Y-86500000D02*
X153300000Y-93400000D01*
D45*
%TO.N,DIO3*%
X224320000Y-109215000D02*
X224400000Y-109295000D01*
D49*
X225800000Y-109200000D02*
X224335000Y-109200000D01*
X179300000Y-82000000D02*
X179300000Y-82700000D01*
X159445000Y-76400000D02*
X159745000Y-76700000D01*
X164248529Y-76700000D02*
X164548529Y-76400000D01*
X223900000Y-99000000D02*
X219200000Y-94300000D01*
X219200000Y-94300000D02*
X180300000Y-94300000D01*
X224335000Y-109200000D02*
X224320000Y-109215000D01*
X173700000Y-76400000D02*
X179300000Y-82000000D01*
X159745000Y-76700000D02*
X164248529Y-76700000D01*
X158010000Y-77835000D02*
X159445000Y-76400000D01*
X223900000Y-105900000D02*
X223900000Y-99000000D01*
D45*
X224400000Y-111302500D02*
X224465000Y-111367500D01*
X224400000Y-109295000D02*
X224400000Y-111302500D01*
D49*
X164548529Y-76400000D02*
X173700000Y-76400000D01*
%TO.N,DIO2*%
X235500000Y-97700000D02*
X234425000Y-97700000D01*
X160800000Y-75295000D02*
X161305000Y-75295000D01*
X161800000Y-74800000D02*
X161800000Y-65800000D01*
X226100000Y-66900000D02*
X226100000Y-78500000D01*
X161800000Y-65800000D02*
X163300000Y-64300000D01*
X220100000Y-60900000D02*
X226100000Y-66900000D01*
X168100000Y-51200000D02*
X169100000Y-51200000D01*
D45*
X234410000Y-97715000D02*
X234410000Y-99762500D01*
D49*
X186300000Y-60900000D02*
X220100000Y-60900000D01*
X234425000Y-97700000D02*
X234410000Y-97715000D01*
X177500000Y-59600000D02*
X178000000Y-59600000D01*
X163300000Y-64300000D02*
X163300000Y-58651471D01*
X163300000Y-58651471D02*
X161100000Y-56451471D01*
X161100000Y-56451471D02*
X161100000Y-56000000D01*
X161305000Y-75295000D02*
X161800000Y-74800000D01*
D45*
X234410000Y-99762500D02*
X234515000Y-99867500D01*
D49*
X169100000Y-51200000D02*
X177500000Y-59600000D01*
%TO.N,DIO1*%
X241000000Y-97600000D02*
X239595000Y-97600000D01*
X220400000Y-59800000D02*
X180400000Y-59800000D01*
X180400000Y-59800000D02*
X169900000Y-49300000D01*
X229400000Y-87200000D02*
X226900000Y-84700000D01*
X226900000Y-84700000D02*
X226900000Y-66300000D01*
X160100000Y-63800000D02*
X160100000Y-55900000D01*
X239595000Y-97600000D02*
X239510000Y-97515000D01*
X239500000Y-87200000D02*
X229400000Y-87200000D01*
D45*
X239665000Y-99667500D02*
X239665000Y-97670000D01*
X239665000Y-97670000D02*
X239510000Y-97515000D01*
D49*
X226900000Y-66300000D02*
X220400000Y-59800000D01*
X169900000Y-49300000D02*
X166100000Y-49300000D01*
%TO.N,IMU1*%
X155445000Y-67700000D02*
X155470000Y-67675000D01*
X138800000Y-73400000D02*
X139155378Y-73044622D01*
X139155378Y-73044622D02*
X140955378Y-73044622D01*
D45*
X247215000Y-101250000D02*
X247080000Y-101115000D01*
D49*
X244030000Y-55730000D02*
X244030000Y-82870000D01*
X137180000Y-73438514D02*
X137218514Y-73400000D01*
X244030000Y-82870000D02*
X241300000Y-85600000D01*
X148000000Y-68300000D02*
X148700000Y-68300000D01*
X241300000Y-85600000D02*
X241300000Y-87200000D01*
X213000000Y-51000000D02*
X239300000Y-51000000D01*
X148700000Y-68300000D02*
X149300000Y-67700000D01*
X239300000Y-51000000D02*
X244030000Y-55730000D01*
D45*
X247215000Y-103267500D02*
X247215000Y-101250000D01*
D49*
X149300000Y-67700000D02*
X155445000Y-67700000D01*
X137218514Y-73400000D02*
X138800000Y-73400000D01*
X249500000Y-101100000D02*
X247095000Y-101100000D01*
X166100000Y-48000000D02*
X210000000Y-48000000D01*
X210000000Y-48000000D02*
X213000000Y-51000000D01*
X247095000Y-101100000D02*
X247080000Y-101115000D01*
%TO.N,A5EStop*%
X191800000Y-64300000D02*
X190500000Y-63000000D01*
X191800000Y-69600000D02*
X191800000Y-64300000D01*
X172100000Y-63000000D02*
X169400000Y-63000000D01*
X190500000Y-63000000D02*
X182500000Y-63000000D01*
%TO.N,A3EStop*%
X154055000Y-60055000D02*
X155470000Y-60055000D01*
X182400000Y-73900000D02*
X182400000Y-65700000D01*
X182400000Y-65700000D02*
X169400000Y-52700000D01*
X185800000Y-77300000D02*
X182400000Y-73900000D01*
X201462810Y-81062810D02*
X197700000Y-77300000D01*
X154850000Y-52700000D02*
X153400000Y-54150000D01*
X197700000Y-77300000D02*
X185800000Y-77300000D01*
X153400000Y-54150000D02*
X153400000Y-59400000D01*
X203185000Y-81062810D02*
X201462810Y-81062810D01*
X153400000Y-59400000D02*
X154055000Y-60055000D01*
X169400000Y-52700000D02*
X154850000Y-52700000D01*
%TO.N,A1EStop*%
X163700000Y-53300000D02*
X164500000Y-54100000D01*
X182600000Y-77500000D02*
X186162810Y-81062810D01*
X173500000Y-62200000D02*
X173500000Y-73000000D01*
X155100000Y-53300000D02*
X163700000Y-53300000D01*
X153900000Y-57000000D02*
X153900000Y-54500000D01*
X164500000Y-54100000D02*
X164500000Y-55348529D01*
X164500000Y-55348529D02*
X170551471Y-61400000D01*
X153900000Y-54500000D02*
X155100000Y-53300000D01*
X178000000Y-77500000D02*
X182600000Y-77500000D01*
X172700000Y-61400000D02*
X173500000Y-62200000D01*
X173500000Y-73000000D02*
X178000000Y-77500000D01*
X155470000Y-57515000D02*
X154415000Y-57515000D01*
X154415000Y-57515000D02*
X153900000Y-57000000D01*
X186162810Y-81062810D02*
X188585000Y-81062810D01*
X170551471Y-61400000D02*
X172700000Y-61400000D01*
%TO.N,A6EStop*%
X169799500Y-62099500D02*
X172200000Y-62099500D01*
X190800000Y-62100000D02*
X192200000Y-63500000D01*
X225100000Y-67200000D02*
X225100000Y-76500000D01*
X192200000Y-63500000D02*
X221400000Y-63500000D01*
X169750000Y-62050000D02*
X169799500Y-62099500D01*
X162100000Y-64000000D02*
X160965000Y-65135000D01*
X162100000Y-62100000D02*
X162100000Y-64000000D01*
X181500000Y-62100000D02*
X190800000Y-62100000D01*
X221400000Y-63500000D02*
X225100000Y-67200000D01*
X160965000Y-65135000D02*
X158010000Y-65135000D01*
%TO.N,A4EStop*%
X208862810Y-81062810D02*
X203800000Y-76000000D01*
X170100000Y-59300000D02*
X171500000Y-60700000D01*
X203800000Y-76000000D02*
X194000000Y-76000000D01*
X186000000Y-75900000D02*
X184600000Y-74500000D01*
X171500000Y-60700000D02*
X172300000Y-60700000D01*
X210485000Y-81062810D02*
X208862810Y-81062810D01*
X184600000Y-66400000D02*
X180100000Y-61900000D01*
X180100000Y-61900000D02*
X180100000Y-60700000D01*
X194000000Y-76000000D02*
X193300000Y-75300000D01*
X193300000Y-75300000D02*
X190300000Y-75300000D01*
X189700000Y-75900000D02*
X186000000Y-75900000D01*
X190300000Y-75300000D02*
X189700000Y-75900000D01*
X169300000Y-59300000D02*
X170100000Y-59300000D01*
X184600000Y-74500000D02*
X184600000Y-66400000D01*
%TO.N,A2EStop*%
X190200000Y-79100000D02*
X192162810Y-81062810D01*
X175900000Y-73900000D02*
X178300000Y-76300000D01*
X170500000Y-57100000D02*
X175900000Y-62500000D01*
X175900000Y-62500000D02*
X175900000Y-73900000D01*
X183200000Y-76300000D02*
X186000000Y-79100000D01*
X192162810Y-81062810D02*
X195885000Y-81062810D01*
X168200000Y-57100000D02*
X170500000Y-57100000D01*
X178300000Y-76300000D02*
X183200000Y-76300000D01*
X186000000Y-79100000D02*
X190200000Y-79100000D01*
%TO.N,A0EStop*%
X181285000Y-81062810D02*
X179262810Y-81062810D01*
X167600000Y-74600000D02*
X167600000Y-61200000D01*
X179262810Y-81062810D02*
X174000000Y-75800000D01*
X168800000Y-75800000D02*
X167600000Y-74600000D01*
X161375000Y-54975000D02*
X158010000Y-54975000D01*
X174000000Y-75800000D02*
X168800000Y-75800000D01*
X167600000Y-61200000D02*
X161375000Y-54975000D01*
%TO.N,DIO0_5V*%
X166100000Y-45650000D02*
X166150000Y-45600000D01*
X145100000Y-69000000D02*
X145100000Y-68100000D01*
X209300000Y-45600000D02*
X213300000Y-49600000D01*
X259600000Y-117600000D02*
X258825000Y-118375000D01*
X258825000Y-118375000D02*
X257700000Y-118375000D01*
X166150000Y-45600000D02*
X209300000Y-45600000D01*
X213300000Y-49600000D02*
X257400000Y-49600000D01*
X151400000Y-73000000D02*
X149100000Y-73000000D01*
X149100000Y-73000000D02*
X145100000Y-69000000D01*
X257400000Y-49600000D02*
X259600000Y-51800000D01*
X259600000Y-51800000D02*
X259600000Y-117600000D01*
D45*
%TO.N,DIO1_5V*%
X238715000Y-101542500D02*
X238715000Y-103390000D01*
X238715000Y-103390000D02*
X238690000Y-103415000D01*
X245200000Y-114900000D02*
X246300000Y-116000000D01*
X239800000Y-114900000D02*
X245200000Y-114900000D01*
X238690000Y-103415000D02*
X238690000Y-113790000D01*
X238690000Y-113790000D02*
X239800000Y-114900000D01*
X246300000Y-116000000D02*
X246300000Y-118375000D01*
%TO.N,DIO2_5V*%
X235905000Y-104205000D02*
X237000000Y-105300000D01*
X234900000Y-116600000D02*
X234900000Y-118375000D01*
X233565000Y-101742500D02*
X233565000Y-104160000D01*
X237000000Y-105300000D02*
X237000000Y-114500000D01*
X237000000Y-114500000D02*
X234900000Y-116600000D01*
X233565000Y-104160000D02*
X233610000Y-104205000D01*
X233610000Y-104205000D02*
X235905000Y-104205000D01*
%TO.N,DIO3_5V*%
X223520000Y-118355000D02*
X223500000Y-118375000D01*
X223520000Y-115285000D02*
X223520000Y-118355000D01*
X223515000Y-115280000D02*
X223520000Y-115285000D01*
X223515000Y-113242500D02*
X223515000Y-115280000D01*
%TO.N,DIO4_5V*%
X212065000Y-115330000D02*
X212120000Y-115385000D01*
X212120000Y-118355000D02*
X212100000Y-118375000D01*
X212120000Y-115385000D02*
X212120000Y-118355000D01*
X212065000Y-113242500D02*
X212065000Y-115330000D01*
%TO.N,DIO5_5V*%
X200640000Y-115385000D02*
X200640000Y-118315000D01*
X200665000Y-115360000D02*
X200640000Y-115385000D01*
X200640000Y-118315000D02*
X200700000Y-118375000D01*
X200665000Y-113342500D02*
X200665000Y-115360000D01*
%TO.N,DIO6_5V*%
X189240000Y-115385000D02*
X189240000Y-118315500D01*
X189240000Y-113267500D02*
X189215000Y-113242500D01*
X189240000Y-118315500D02*
X189299500Y-118375000D01*
X189240000Y-115385000D02*
X189240000Y-113267500D01*
%TO.N,IMU1_5V*%
X246270000Y-105147500D02*
X246265000Y-105142500D01*
X246270000Y-110545000D02*
X246300000Y-110575000D01*
X246270000Y-107285000D02*
X246270000Y-110545000D01*
X246270000Y-107285000D02*
X246270000Y-105147500D01*
%TO.N,IMU2_5V*%
X228115000Y-102142500D02*
X228115000Y-104180000D01*
X228120000Y-104185000D02*
X228120000Y-106020000D01*
X228115000Y-104180000D02*
X228120000Y-104185000D01*
X228120000Y-106020000D02*
X228200000Y-106100000D01*
%TO.N,5V_BRAIN*%
X161600000Y-103195000D02*
X161635000Y-103230000D01*
X161630000Y-103235000D02*
X158010000Y-103235000D01*
D46*
X152265000Y-62720000D02*
X152265000Y-61100000D01*
X147250000Y-62690000D02*
X152235000Y-62690000D01*
X152235000Y-62690000D02*
X152265000Y-62720000D01*
D45*
X161600000Y-101500000D02*
X161600000Y-103195000D01*
X147200000Y-62740000D02*
X147250000Y-62690000D01*
X147200000Y-64800000D02*
X147200000Y-62740000D01*
D47*
X161635000Y-103230000D02*
X161630000Y-103235000D01*
%TO.N,SCL_3.3V*%
X152380000Y-106750000D02*
X152380000Y-99620000D01*
X153845000Y-98155000D02*
X155470000Y-98155000D01*
X152380000Y-99620000D02*
X153845000Y-98155000D01*
%TO.N,SDA_3.3V*%
X154305000Y-100695000D02*
X155470000Y-100695000D01*
X152900000Y-106730000D02*
X152900000Y-102100000D01*
X152900000Y-102100000D02*
X154305000Y-100695000D01*
X152880000Y-106750000D02*
X152900000Y-106730000D01*
D49*
%TO.N,Net-(IC4-CH0)*%
X162800000Y-90600000D02*
X162400000Y-90200000D01*
X162400000Y-90200000D02*
X162400000Y-89100000D01*
X165800000Y-95800000D02*
X170500000Y-95800000D01*
X173300000Y-93900000D02*
X173250000Y-93950000D01*
X170500000Y-95800000D02*
X172350000Y-93950000D01*
X162800000Y-91100000D02*
X162800000Y-90600000D01*
X172350000Y-93950000D02*
X173250000Y-93950000D01*
%TO.N,Net-(IC4-CH1)*%
X191890000Y-104890000D02*
X193475001Y-104890000D01*
X190200000Y-96200000D02*
X191500000Y-97500000D01*
X179000000Y-94900000D02*
X179200000Y-95100000D01*
X163600000Y-89000000D02*
X163600000Y-91000000D01*
X184100000Y-96200000D02*
X190200000Y-96200000D01*
X179200000Y-95100000D02*
X183000000Y-95100000D01*
X183000000Y-95100000D02*
X184100000Y-96200000D01*
X163600000Y-92400000D02*
X171400000Y-92400000D01*
X191500000Y-97500000D02*
X191500000Y-104500000D01*
X179000000Y-94000000D02*
X179000000Y-94900000D01*
X171400000Y-92400000D02*
X171500000Y-92300000D01*
X191500000Y-104500000D02*
X191890000Y-104890000D01*
%TO.N,Net-(IC4-CH2)*%
X164100000Y-106500000D02*
X164800000Y-106500000D01*
X164800000Y-106500000D02*
X165500000Y-107200000D01*
X165500000Y-107200000D02*
X170000000Y-107200000D01*
X184700000Y-106300000D02*
X197300000Y-106300000D01*
X171800000Y-109000000D02*
X182000000Y-109000000D01*
X198409480Y-105190520D02*
X200474480Y-105190520D01*
X170000000Y-107200000D02*
X171800000Y-109000000D01*
X182000000Y-109000000D02*
X184700000Y-106300000D01*
X197300000Y-106300000D02*
X198409480Y-105190520D01*
D50*
%TO.N,Net-(IC4-CH3)*%
X203200000Y-103900000D02*
X204190000Y-104890000D01*
D49*
X171200000Y-80300000D02*
X166800500Y-84699500D01*
X207100000Y-81800000D02*
X207100000Y-93100000D01*
X175626089Y-76026089D02*
X178400000Y-78800000D01*
X171200000Y-80300000D02*
X171400000Y-80100000D01*
X175073911Y-76026089D02*
X175626089Y-76026089D01*
X188300000Y-76700000D02*
X202000000Y-76700000D01*
X171400000Y-80100000D02*
X171400000Y-79519500D01*
X186500000Y-76700500D02*
X188299500Y-76700500D01*
D50*
X203200000Y-103900000D02*
X203200000Y-96500000D01*
D49*
X202000000Y-76700000D02*
X207100000Y-81800000D01*
X178400000Y-78800000D02*
X179500000Y-78800000D01*
D50*
X204500000Y-95200000D02*
X207100000Y-95200000D01*
D49*
X171400000Y-79519500D02*
X171400000Y-77900000D01*
X166800500Y-84699500D02*
X166200000Y-84699500D01*
D50*
X203200000Y-96500000D02*
X204500000Y-95200000D01*
X204190000Y-104890000D02*
X208075000Y-104890000D01*
D49*
X188299500Y-76700500D02*
X188300000Y-76700000D01*
%TO.N,Net-(IC4-CH4)*%
X170600000Y-79900000D02*
X170600000Y-78500000D01*
X164800000Y-81300000D02*
X165900000Y-80200000D01*
X165900000Y-80200000D02*
X170300000Y-80200000D01*
X170300000Y-80200000D02*
X170600000Y-79900000D01*
X164800000Y-88400000D02*
X164800000Y-81300000D01*
X170100000Y-78000000D02*
X165700000Y-78000000D01*
X170600000Y-78500000D02*
X170100000Y-78000000D01*
%TO.N,Net-(IC4-CH5)*%
X165500000Y-87100000D02*
X165500000Y-89100000D01*
X172208533Y-77086933D02*
X172208533Y-80391467D01*
X172208533Y-80391467D02*
X165500000Y-87100000D01*
%TO.N,Net-(IC4-CH6)*%
X173000000Y-80700000D02*
X168100000Y-85600000D01*
X168100000Y-87900000D02*
X169100000Y-88900000D01*
X169100000Y-88900000D02*
X170000000Y-88900000D01*
X168100000Y-85600000D02*
X168100000Y-87900000D01*
X173000000Y-77200000D02*
X173000000Y-80700000D01*
%TO.N,Net-(IC4-CH7)*%
X171600000Y-88800000D02*
X171200000Y-88800000D01*
X172000000Y-88400000D02*
X171600000Y-88800000D01*
X172000000Y-82800000D02*
X172000000Y-88400000D01*
X173814133Y-77361956D02*
X173876089Y-77423912D01*
X173876089Y-80923911D02*
X172000000Y-82800000D01*
X173876089Y-77423912D02*
X173876089Y-80923911D01*
%TO.N,ADC*%
X154215000Y-95615000D02*
X155470000Y-95615000D01*
X160500000Y-80700000D02*
X160500000Y-88200000D01*
X153900000Y-95300000D02*
X154215000Y-95615000D01*
X168800000Y-79000000D02*
X162200000Y-79000000D01*
X159500000Y-89200000D02*
X154700000Y-89200000D01*
X160500000Y-88200000D02*
X159500000Y-89200000D01*
X162200000Y-79000000D02*
X160500000Y-80700000D01*
X169341868Y-79541868D02*
X168800000Y-79000000D01*
X154700000Y-89200000D02*
X153900000Y-90000000D01*
X169954177Y-79541868D02*
X169341868Y-79541868D01*
X153900000Y-90000000D02*
X153900000Y-95300000D01*
%TD*%
M02*
