M48
; DRILL file {KiCad 7.0.7} date Tue Nov  7 21:18:31 2023
; FORMAT={-:-/ absolute / metric / decimal}
; #@! TF.CreationDate,2023-11-07T21:18:31-05:00
; #@! TF.GenerationSoftware,Kicad,Pcbnew,7.0.7
; #@! TF.FileFunction,Plated,1,4,PTH
FMAT,2
METRIC
; #@! TA.AperFunction,Plated,PTH,ViaDrill
T1C0.300
; #@! TA.AperFunction,Plated,PTH,ViaDrill
T2C0.400
; #@! TA.AperFunction,Plated,PTH,ViaDrill
T3C0.500
; #@! TA.AperFunction,Plated,PTH,ComponentDrill
T4C0.600
; #@! TA.AperFunction,Plated,PTH,ComponentDrill
T5C0.900
; #@! TA.AperFunction,Plated,PTH,ComponentDrill
T6C1.000
; #@! TA.AperFunction,Plated,PTH,ComponentDrill
T7C1.016
; #@! TA.AperFunction,Plated,PTH,ComponentDrill
T8C1.100
; #@! TA.AperFunction,Plated,PTH,ComponentDrill
T9C1.700
; #@! TA.AperFunction,Plated,PTH,ComponentDrill
T10C2.700
; #@! TA.AperFunction,Plated,PTH,ComponentDrill
T11C2.750
%
G90
G05
T1
X132.2Y-49.1
X132.4Y-51.2
X133.2Y-67.8
X133.2Y-71.9
X133.3Y-75.9
X133.365Y-47.486
X134.4Y-72.1
X134.5Y-76.1
X134.9Y-51.2
X135.0Y-49.0
X135.8Y-47.6
X136.114Y-67.9
X137.0Y-67.9
X137.6Y-49.0
X137.9Y-80.2
X138.079Y-51.257
X138.2Y-75.8
X138.3Y-72.1
X138.5Y-76.6
X138.8Y-47.6
X138.9Y-68.0
X139.0Y-79.9
X139.2Y-70.4
X139.3Y-74.4
X140.1Y-70.4
X140.1Y-48.9
X140.1Y-73.8
X140.2Y-75.8
X140.3Y-77.7
X140.4Y-68.0
X140.9Y-51.1
X140.9Y-70.5
X140.955Y-73.045
X141.1Y-76.2
X141.2Y-73.9
X141.2Y-77.7
X142.2Y-68.1
X142.2Y-76.1
X142.3Y-71.1
X142.69Y-52.16
X143.1Y-47.6
X143.8Y-68.7
X144.4Y-77.7
X144.8Y-73.6
X144.961Y-65.983
X145.1Y-68.1
X145.6Y-71.1
X145.6Y-76.1
X146.09Y-67.704
X146.2Y-64.5
X147.1Y-72.1
X147.4Y-77.8
X147.9Y-69.2
X148.0Y-68.3
X148.1Y-73.2
X148.5Y-101.3
X148.7Y-103.6
X148.8Y-74.0
X148.8Y-85.4
X148.8Y-88.7
X148.8Y-92.2
X148.8Y-98.5
X148.9Y-95.9
X149.1Y-119.0
X149.4Y-115.5
X149.5Y-117.3
X149.8Y-105.9
X149.8Y-110.1
X149.86Y-111.27
X150.5Y-106.74
X150.585Y-81.562
X150.6Y-48.5
X150.6Y-77.7
X150.7Y-50.1
X151.1Y-75.1
X151.1Y-78.5
X151.2Y-119.2
X151.4Y-73.0
X151.4Y-93.2
X151.5Y-117.0
X151.51Y-101.96
X151.695Y-83.325
X151.7Y-91.2
X151.8Y-96.1
X151.8Y-98.2
X151.895Y-74.887
X152.27Y-55.09
X152.3Y-73.1
X152.3Y-113.6
X152.8Y-81.3
X152.8Y-119.2
X152.81Y-95.502
X152.869Y-97.825
X152.94Y-48.379
X153.0Y-79.4
X153.3Y-86.5
X153.384Y-71.715
X153.4Y-65.8
X153.4Y-73.9
X153.46Y-52.18
X153.5Y-76.7
X153.5Y-114.7
X154.1Y-106.4
X154.2Y-113.6
X154.207Y-116.823
X155.1Y-119.1
X155.9Y-114.9
X156.0Y-113.6
X156.3Y-116.8
X157.0Y-119.1
X158.6Y-117.1
X159.2Y-56.3
X159.219Y-119.205
X159.3Y-81.7
X159.5Y-100.8
X160.1Y-55.9
X160.1Y-63.8
X160.5Y-104.8
X160.5Y-106.8
X160.8Y-75.295
X160.9Y-66.3
X160.998Y-69.793
X161.0Y-50.1
X161.0Y-67.5
X161.1Y-56.0
X161.1Y-63.9
X161.1Y-72.6
X161.2Y-61.8
X161.3Y-58.6
X161.5Y-89.3
X161.6Y-96.8
X161.7Y-48.6
X161.7Y-118.9
X161.8Y-117.3
X161.89Y-108.78
X162.1Y-62.1
X162.124Y-95.076
X162.2Y-60.8
X162.4Y-59.1
X162.4Y-76.1
X162.4Y-89.1
X162.744Y-98.29
X162.8Y-91.1
X163.3Y-75.2
X163.574Y-54.657
X163.6Y-89.0
X163.6Y-91.0
X163.6Y-92.4
X163.8Y-111.5
X164.0Y-76.1
X164.0Y-100.3
X164.1Y-106.5
X164.198Y-118.904
X164.2Y-107.4
X164.2Y-117.1
X164.3Y-56.3
X164.3Y-59.3
X164.4Y-61.0
X164.5Y-89.2
X164.8Y-88.4
X164.9Y-51.9
X165.0Y-79.599
X165.1Y-101.8
X165.2Y-48.6
X165.3Y-96.9
X165.5Y-89.1
X165.6Y-50.0
X165.6Y-106.2
X165.7Y-78.0
X165.8Y-95.8
X166.0Y-53.8
X166.0Y-61.1
X166.0Y-90.9
X166.1Y-44.8
X166.1Y-45.65
X166.1Y-48.0
X166.1Y-49.3
X166.2Y-84.7
X166.4Y-55.5
X166.7Y-58.8
X166.8Y-112.5
X167.0Y-111.4
X167.4Y-51.9
X167.6Y-116.9
X167.7Y-115.6
X168.1Y-51.2
X168.2Y-57.1
X168.3Y-55.9
X168.4Y-90.7
X168.489Y-97.27
X168.5Y-121.1
X168.55Y-106.49
X168.634Y-60.747
X168.7Y-54.0
X168.7Y-108.3
X169.2Y-58.4
X169.3Y-59.3
X169.4Y-63.0
X169.6Y-104.9
X169.75Y-62.05
X169.954Y-79.542
X170.0Y-88.9
X170.11Y-113.407
X170.4Y-108.8
X170.6Y-46.9
X171.2Y-88.8
X171.3Y-94.0
X171.4Y-77.9
X171.4Y-112.2
X171.4Y-118.4
X171.5Y-92.3
X172.1Y-63.0
X172.2Y-62.099
X172.2Y-111.524
X172.209Y-77.087
X172.3Y-60.7
X172.7Y-53.3
X172.8Y-57.3
X172.9Y-88.0
X173.0Y-77.2
X173.25Y-93.95
X173.4Y-84.2
X173.6Y-86.2
X173.627Y-49.981
X173.7Y-115.9
X173.8Y-93.0
X173.814Y-77.362
X173.9Y-61.4
X174.024Y-81.624
X174.1Y-82.783
X174.3Y-46.7
X174.3Y-109.6
X174.3Y-118.4
X174.4Y-59.2
X174.6Y-79.7
X174.788Y-111.199
X174.8Y-65.5
X175.0Y-63.9
X175.074Y-76.026
X175.4Y-82.0
X175.4Y-84.8
X175.6Y-49.7
X175.866Y-119.268
X176.0Y-56.4
X176.3Y-109.7
X176.3Y-115.2
X176.6Y-61.3
X176.7Y-52.5
X176.9Y-117.7
X177.6Y-93.3
X178.0Y-59.6
X178.4Y-112.9
X178.4Y-119.4
X179.0Y-94.0
X179.3Y-118.0
X179.4Y-115.5
X179.5Y-78.9
X180.1Y-60.7
X180.3Y-94.3
X180.8Y-43.8
X180.8Y-112.9
X181.0Y-60.6
X181.5Y-62.1
X181.639Y-46.864
X182.1Y-61.3
X182.4Y-112.8
X182.5Y-63.0
X183.1Y-50.5
X183.2Y-63.7
X183.3Y-70.7
X183.5Y-72.9
X184.06Y-112.846
X184.6Y-109.5
X185.3Y-92.5
X185.4Y-61.5
X185.4Y-82.3
X185.4Y-84.5
X185.4Y-87.5
X185.6Y-89.7
X185.6Y-113.1
X185.9Y-95.2
X186.2Y-43.9
X186.3Y-60.9
X186.5Y-76.7
X186.6Y-109.8
X187.1Y-52.7
X187.4Y-46.8
X188.7Y-50.0
X189.8Y-95.1
X190.2Y-100.0
X190.3Y-104.4
X191.5Y-43.8
X191.6Y-76.1
X191.8Y-69.6
X191.8Y-109.9
X192.134Y-46.963
X192.2Y-119.5
X192.3Y-116.2
X192.694Y-84.82
X192.8Y-82.4
X192.8Y-87.4
X192.8Y-90.0
X192.9Y-92.4
X193.1Y-112.9
X193.2Y-62.2
X193.508Y-95.192
X193.6Y-110.0
X194.156Y-111.51
X194.6Y-112.8
X195.447Y-109.922
X195.8Y-62.2
X196.0Y-111.4
X196.6Y-112.8
X197.5Y-95.2
X197.7Y-99.7
X197.7Y-104.3
X197.8Y-42.7
X198.1Y-62.1
X199.8Y-72.8
X200.0Y-89.8
X200.1Y-69.7
X200.1Y-82.2
X200.1Y-84.7
X200.151Y-65.79
X200.2Y-92.4
X200.3Y-87.3
X200.6Y-95.2
X200.8Y-44.4
X200.8Y-51.9
X201.3Y-46.9
X201.4Y-62.2
X202.511Y-95.084
X203.1Y-112.7
X203.5Y-62.1
X203.7Y-48.9
X203.7Y-119.3
X203.8Y-116.0
X203.998Y-109.282
X203.999Y-112.177
X204.0Y-44.3
X205.0Y-100.7
X205.0Y-106.2
X205.1Y-103.8
X205.6Y-112.5
X205.613Y-50.615
X206.0Y-46.7
X206.3Y-110.7
X207.1Y-93.1
X207.1Y-95.2
X207.3Y-51.6
X207.6Y-109.2
X207.8Y-84.7
X207.8Y-89.9
X207.8Y-112.5
X207.9Y-87.2
X208.0Y-44.4
X208.0Y-82.3
X208.0Y-95.5
X208.1Y-93.0
X208.3Y-65.8
X208.4Y-71.1
X208.4Y-74.1
X208.9Y-62.2
X211.2Y-62.2
X212.4Y-46.8
X212.5Y-51.9
X212.5Y-58.7
X213.1Y-95.7
X213.1Y-98.3
X213.5Y-62.2
X213.6Y-100.7
X213.646Y-104.211
X214.4Y-105.5
X214.6Y-87.1
X214.6Y-108.9
X214.7Y-82.1
X214.7Y-84.7
X214.773Y-92.113
X214.8Y-111.5
X214.9Y-89.6
X214.9Y-110.5
X215.383Y-119.447
X215.4Y-116.3
X215.596Y-113.216
X215.8Y-104.1
X215.825Y-98.14
X215.868Y-58.686
X215.9Y-95.6
X216.3Y-62.3
X216.501Y-65.07
X216.6Y-74.0
X216.675Y-70.181
X216.776Y-111.738
X216.8Y-100.8
X216.964Y-109.687
X217.856Y-47.598
X218.4Y-62.2
X218.6Y-105.5
X218.9Y-95.9
X218.9Y-111.5
X218.968Y-98.818
X219.1Y-109.0
X219.2Y-114.0
X219.3Y-106.5
X219.4Y-101.1
X220.2Y-58.9
X221.1Y-102.8
X221.4Y-97.8
X221.596Y-81.444
X221.7Y-95.0
X221.8Y-47.7
X221.9Y-92.3
X222.0Y-87.5
X222.1Y-89.6
X222.2Y-84.9
X222.299Y-103.484
X222.8Y-101.7
X222.8Y-105.9
X222.9Y-60.5
X223.6Y-96.6
X223.9Y-105.9
X224.2Y-57.1
X224.3Y-94.8
X224.9Y-47.1
X225.1Y-76.5
X225.329Y-63.02
X225.494Y-59.861
X225.8Y-109.2
X225.9Y-52.1
X225.9Y-97.8
X226.1Y-78.5
X226.3Y-110.0
X226.7Y-116.4
X226.802Y-119.402
X227.0Y-106.0
X227.9Y-82.9
X227.9Y-94.7
X229.4Y-48.3
X229.5Y-88.7
X229.54Y-85.76
X229.9Y-78.0
X229.9Y-82.9
X230.2Y-44.1
X230.4Y-100.4
X230.7Y-102.3
X230.9Y-97.1
X230.9Y-114.0
X231.0Y-98.6
X231.2Y-79.9
X231.216Y-90.85
X231.58Y-47.495
X232.0Y-86.2
X232.1Y-93.6
X232.5Y-78.3
X233.54Y-43.887
X233.7Y-79.9
X234.0Y-114.1
X235.2Y-105.4
X235.3Y-47.3
X235.5Y-97.7
X235.8Y-98.7
X235.806Y-43.904
X236.0Y-103.2
X236.2Y-101.9
X236.7Y-77.8
X236.8Y-80.0
X237.298Y-103.613
X237.5Y-89.1
X237.9Y-109.7
X238.0Y-114.6
X238.1Y-116.4
X238.157Y-119.534
X238.3Y-86.4
X238.595Y-83.203
X238.9Y-71.8
X239.16Y-56.83
X239.3Y-80.1
X239.5Y-87.2
X240.14Y-65.88
X240.4Y-85.9
X240.4Y-92.4
X240.9Y-69.9
X240.9Y-83.0
X240.939Y-79.886
X241.0Y-97.6
X241.0Y-98.7
X241.0Y-101.5
X241.113Y-72.989
X241.2Y-51.3
X241.237Y-76.76
X241.3Y-48.0
X241.3Y-55.4
X241.3Y-67.7
X241.3Y-87.2
X241.583Y-43.299
X241.6Y-105.3
X241.9Y-41.3
X241.9Y-113.9
X242.534Y-106.242
X242.8Y-52.5
X242.9Y-59.0
X242.95Y-50.737
X243.3Y-63.0
X243.4Y-80.0
X243.42Y-81.15
X243.5Y-43.6
X243.8Y-95.8
X244.2Y-89.8
X244.6Y-47.9
X244.6Y-92.8
X244.8Y-84.1
X245.0Y-113.8
X246.4Y-43.8
X247.7Y-47.9
X248.7Y-84.0
X248.7Y-92.9
X248.9Y-75.1
X249.0Y-66.3
X249.22Y-57.38
X249.4Y-119.5
X249.5Y-101.1
X249.592Y-116.183
X249.8Y-104.2
X250.0Y-106.9
X250.061Y-109.496
X250.098Y-111.766
X250.9Y-102.0
X252.3Y-66.5
X252.4Y-47.8
X252.4Y-57.7
X252.4Y-92.8
X252.6Y-75.3
X252.648Y-84.068
X254.149Y-103.624
X255.6Y-113.3
X256.8Y-103.6
X256.9Y-48.1
X258.5Y-104.8
X258.5Y-112.7
X258.7Y-66.2
X258.7Y-75.0
X258.8Y-84.2
X258.8Y-93.0
X258.9Y-57.4
X259.3Y-46.8
X259.5Y-41.7
X259.5Y-121.3
X259.611Y-49.561
T2
X147.2Y-64.8
X153.649Y-103.6
X154.5Y-112.3
X161.6Y-101.5
X164.405Y-44.4
X165.8Y-46.6
X172.32Y-44.3
X179.3Y-82.7
X184.4Y-110.499
X192.4Y-111.6
X222.9Y-100.5
X228.2Y-106.1
X231.87Y-72.48
X242.7Y-95.8
X244.1Y-88.0
X247.41Y-41.96
T3
X126.8Y-57.7
X126.9Y-60.9
X127.0Y-64.2
X127.0Y-67.7
X127.1Y-75.0
X127.2Y-51.1
X127.2Y-54.4
X127.2Y-71.4
X127.3Y-47.6
X127.3Y-78.4
X127.8Y-80.9
X129.277Y-67.299
X129.4Y-53.9
X129.4Y-63.9
X129.5Y-61.8
X129.5Y-70.7
X129.647Y-57.33
X129.7Y-51.2
X129.7Y-74.7
X129.9Y-48.1
X130.0Y-79.4
X130.2Y-60.2
X153.6Y-63.1
X170.99Y-101.95
T5
X247.65Y-52.61
X247.65Y-61.46
X247.65Y-70.31
X247.65Y-79.16
X247.65Y-88.01
X247.65Y-96.86
X250.15Y-52.61
X250.15Y-61.46
X250.15Y-70.31
X250.15Y-79.16
X250.15Y-88.01
X250.15Y-96.86
X252.65Y-52.61
X252.65Y-61.46
X252.65Y-70.31
X252.65Y-79.16
X252.65Y-88.01
X252.65Y-96.86
X255.15Y-52.61
X255.15Y-61.46
X255.15Y-70.31
X255.15Y-79.16
X255.15Y-88.01
X255.15Y-96.86
T6
X184.299Y-118.375
X186.135Y-99.85
X186.135Y-102.35
X186.135Y-104.85
X186.799Y-118.375
X189.299Y-118.375
X193.475Y-99.89
X193.475Y-102.39
X193.475Y-104.89
X195.7Y-118.375
X198.2Y-118.375
X200.7Y-118.375
X200.775Y-99.89
X200.775Y-102.39
X200.775Y-104.89
X207.1Y-118.375
X208.075Y-99.89
X208.075Y-102.39
X208.075Y-104.89
X209.6Y-118.375
X212.1Y-118.375
X212.825Y-43.575
X218.5Y-118.375
X221.0Y-118.375
X223.5Y-118.375
X223.825Y-43.575
X227.675Y-43.575
X229.9Y-110.575
X229.9Y-118.375
X232.4Y-110.575
X232.4Y-118.375
X234.9Y-110.575
X234.9Y-118.375
X238.675Y-43.575
X241.3Y-110.575
X241.3Y-118.375
X243.8Y-110.575
X243.8Y-118.375
X246.3Y-110.575
X246.3Y-118.375
X252.7Y-118.375
X255.2Y-118.375
X257.7Y-118.375
T7
X155.37Y-54.875
X155.37Y-57.415
X155.37Y-59.955
X155.37Y-62.495
X155.37Y-65.035
X155.37Y-67.575
X155.37Y-70.115
X155.37Y-72.655
X155.37Y-75.195
X155.37Y-77.735
X155.37Y-80.275
X155.37Y-82.815
X155.37Y-85.355
X155.37Y-87.895
X155.37Y-90.435
X155.37Y-92.975
X155.37Y-95.515
X155.37Y-98.055
X155.37Y-100.595
X155.37Y-103.135
X157.91Y-54.875
X157.91Y-57.415
X157.91Y-59.955
X157.91Y-62.495
X157.91Y-65.035
X157.91Y-67.575
X157.91Y-70.115
X157.91Y-72.655
X157.91Y-75.195
X157.91Y-77.735
X157.91Y-80.275
X157.91Y-82.815
X157.91Y-85.355
X157.91Y-87.895
X157.91Y-90.435
X157.91Y-92.975
X157.91Y-95.515
X157.91Y-98.055
X157.91Y-100.595
X157.91Y-103.135
T8
X181.285Y-81.063
X181.285Y-83.563
X181.285Y-86.063
X181.285Y-88.563
X181.285Y-91.063
X188.585Y-81.063
X188.585Y-83.563
X188.585Y-86.063
X188.585Y-88.563
X188.585Y-91.063
X195.885Y-81.063
X195.885Y-83.563
X195.885Y-86.063
X195.885Y-88.563
X195.885Y-91.063
X203.185Y-81.063
X203.185Y-83.563
X203.185Y-86.063
X203.185Y-88.563
X203.185Y-91.063
X210.485Y-81.063
X210.485Y-83.563
X210.485Y-86.063
X210.485Y-88.563
X210.485Y-91.063
X217.785Y-81.063
X217.785Y-83.563
X217.785Y-86.063
X217.785Y-88.563
X217.785Y-91.063
X225.085Y-81.063
X225.085Y-83.563
X225.085Y-86.063
X225.085Y-88.563
X225.085Y-91.063
T9
X215.825Y-53.575
X220.825Y-53.575
X230.675Y-53.575
X235.675Y-53.575
T10
X170.95Y-67.86
X170.95Y-72.86
X179.25Y-67.86
X179.25Y-72.86
X182.525Y-57.075
X187.55Y-67.86
X187.55Y-72.86
X189.725Y-57.075
X195.85Y-67.86
X195.85Y-72.86
X199.575Y-57.075
X204.15Y-67.86
X204.15Y-72.86
X206.775Y-57.075
X212.45Y-67.86
X212.45Y-72.86
X220.75Y-67.86
X220.75Y-72.86
T11
X107.64Y-50.005
X107.64Y-108.005
X156.64Y-50.005
X156.64Y-108.005
T4
G00X179.375Y-50.525
M15
G01X179.375Y-51.625
M16
G05
G00X192.875Y-50.525
M15
G01X192.875Y-51.625
M16
G05
G00X196.425Y-50.525
M15
G01X196.425Y-51.625
M16
G05
G00X209.925Y-50.525
M15
G01X209.925Y-51.625
M16
G05
T0
M30
