%TF.GenerationSoftware,KiCad,Pcbnew,7.0.7*%
%TF.CreationDate,2023-11-07T21:18:23-05:00*%
%TF.ProjectId,mainControllerGRR,6d61696e-436f-46e7-9472-6f6c6c657247,rev?*%
%TF.SameCoordinates,Original*%
%TF.FileFunction,Paste,Bot*%
%TF.FilePolarity,Positive*%
%FSLAX46Y46*%
G04 Gerber Fmt 4.6, Leading zero omitted, Abs format (unit mm)*
G04 Created by KiCad (PCBNEW 7.0.7) date 2023-11-07 21:18:23*
%MOMM*%
%LPD*%
G01*
G04 APERTURE LIST*
G04 Aperture macros list*
%AMRoundRect*
0 Rectangle with rounded corners*
0 $1 Rounding radius*
0 $2 $3 $4 $5 $6 $7 $8 $9 X,Y pos of 4 corners*
0 Add a 4 corners polygon primitive as box body*
4,1,4,$2,$3,$4,$5,$6,$7,$8,$9,$2,$3,0*
0 Add four circle primitives for the rounded corners*
1,1,$1+$1,$2,$3*
1,1,$1+$1,$4,$5*
1,1,$1+$1,$6,$7*
1,1,$1+$1,$8,$9*
0 Add four rect primitives between the rounded corners*
20,1,$1+$1,$2,$3,$4,$5,0*
20,1,$1+$1,$4,$5,$6,$7,0*
20,1,$1+$1,$6,$7,$8,$9,0*
20,1,$1+$1,$8,$9,$2,$3,0*%
G04 Aperture macros list end*
%ADD10RoundRect,0.150000X-0.150000X0.587500X-0.150000X-0.587500X0.150000X-0.587500X0.150000X0.587500X0*%
%ADD11RoundRect,0.225000X0.250000X-0.225000X0.250000X0.225000X-0.250000X0.225000X-0.250000X-0.225000X0*%
%ADD12RoundRect,0.200000X0.200000X0.275000X-0.200000X0.275000X-0.200000X-0.275000X0.200000X-0.275000X0*%
%ADD13R,0.300000X0.850000*%
%ADD14RoundRect,0.200000X-0.200000X-0.275000X0.200000X-0.275000X0.200000X0.275000X-0.200000X0.275000X0*%
%ADD15RoundRect,0.031500X0.143500X-0.263500X0.143500X0.263500X-0.143500X0.263500X-0.143500X-0.263500X0*%
%ADD16RoundRect,0.031500X-0.263500X-0.143500X0.263500X-0.143500X0.263500X0.143500X-0.263500X0.143500X0*%
%ADD17RoundRect,0.031500X-0.143500X0.263500X-0.143500X-0.263500X0.143500X-0.263500X0.143500X0.263500X0*%
%ADD18RoundRect,0.031500X0.263500X0.143500X-0.263500X0.143500X-0.263500X-0.143500X0.263500X-0.143500X0*%
%ADD19RoundRect,0.225000X-0.225000X-0.250000X0.225000X-0.250000X0.225000X0.250000X-0.225000X0.250000X0*%
%ADD20R,3.500000X1.600000*%
%ADD21R,9.750000X12.200000*%
%ADD22RoundRect,0.225000X0.225000X0.250000X-0.225000X0.250000X-0.225000X-0.250000X0.225000X-0.250000X0*%
%ADD23RoundRect,0.200000X0.275000X-0.200000X0.275000X0.200000X-0.275000X0.200000X-0.275000X-0.200000X0*%
%ADD24RoundRect,0.218750X0.218750X0.256250X-0.218750X0.256250X-0.218750X-0.256250X0.218750X-0.256250X0*%
%ADD25RoundRect,0.218750X-0.256250X0.218750X-0.256250X-0.218750X0.256250X-0.218750X0.256250X0.218750X0*%
%ADD26RoundRect,0.225000X-0.250000X0.225000X-0.250000X-0.225000X0.250000X-0.225000X0.250000X0.225000X0*%
G04 APERTURE END LIST*
D10*
%TO.C,Q7*%
X188265000Y-111367500D03*
X190165000Y-111367500D03*
X189215000Y-113242500D03*
%TD*%
D11*
%TO.C,C10*%
X133155000Y-74460000D03*
X133155000Y-72910000D03*
%TD*%
D12*
%TO.C,R26*%
X229770000Y-104185000D03*
X228120000Y-104185000D03*
%TD*%
D13*
%TO.C,IC5*%
X151380000Y-106750000D03*
X151880000Y-106750000D03*
X152380000Y-106750000D03*
X152880000Y-106750000D03*
X152880000Y-109900000D03*
X152380000Y-109900000D03*
X151880000Y-109900000D03*
X151380000Y-109900000D03*
%TD*%
D10*
%TO.C,Q9*%
X245315000Y-103267500D03*
X247215000Y-103267500D03*
X246265000Y-105142500D03*
%TD*%
D14*
%TO.C,R14*%
X221870000Y-115285000D03*
X223520000Y-115285000D03*
%TD*%
D15*
%TO.C,U3*%
X137015000Y-75103514D03*
X136515000Y-75103514D03*
X136015000Y-75103514D03*
X135515000Y-75103514D03*
D16*
X135350000Y-74438514D03*
X135350000Y-73938514D03*
X135350000Y-73438514D03*
D17*
X135515000Y-72773514D03*
X136015000Y-72773514D03*
X136515000Y-72773514D03*
X137015000Y-72773514D03*
D18*
X137180000Y-73438514D03*
X137180000Y-73938514D03*
X137180000Y-74438514D03*
%TD*%
D19*
%TO.C,C5*%
X144030000Y-52175000D03*
X145580000Y-52175000D03*
%TD*%
D14*
%TO.C,R25*%
X244620000Y-107285000D03*
X246270000Y-107285000D03*
%TD*%
%TO.C,R6*%
X147270000Y-52175000D03*
X148920000Y-52175000D03*
%TD*%
D15*
%TO.C,U4*%
X137015000Y-79103514D03*
X136515000Y-79103514D03*
X136015000Y-79103514D03*
X135515000Y-79103514D03*
D16*
X135350000Y-78438514D03*
X135350000Y-77938514D03*
X135350000Y-77438514D03*
D17*
X135515000Y-76773514D03*
X136015000Y-76773514D03*
X136515000Y-76773514D03*
X137015000Y-76773514D03*
D18*
X137180000Y-77438514D03*
X137180000Y-77938514D03*
X137180000Y-78438514D03*
%TD*%
D14*
%TO.C,R11*%
X232760000Y-97715000D03*
X234410000Y-97715000D03*
%TD*%
D11*
%TO.C,C4*%
X152265000Y-64270000D03*
X152265000Y-62720000D03*
%TD*%
%TO.C,C12*%
X151515000Y-104680000D03*
X151515000Y-103130000D03*
%TD*%
D14*
%TO.C,R15*%
X211270000Y-109215000D03*
X212920000Y-109215000D03*
%TD*%
D20*
%TO.C,IC2*%
X147250000Y-57610000D03*
D21*
X136974000Y-60150000D03*
D20*
X147250000Y-62690000D03*
%TD*%
D11*
%TO.C,C11*%
X133155000Y-78460000D03*
X133155000Y-76910000D03*
%TD*%
D15*
%TO.C,U2*%
X137015000Y-71103514D03*
X136515000Y-71103514D03*
X136015000Y-71103514D03*
X135515000Y-71103514D03*
D16*
X135350000Y-70438514D03*
X135350000Y-69938514D03*
X135350000Y-69438514D03*
D17*
X135515000Y-68773514D03*
X136015000Y-68773514D03*
X136515000Y-68773514D03*
X137015000Y-68773514D03*
D18*
X137180000Y-69438514D03*
X137180000Y-69938514D03*
X137180000Y-70438514D03*
%TD*%
D10*
%TO.C,Q2*%
X237765000Y-99667500D03*
X239665000Y-99667500D03*
X238715000Y-101542500D03*
%TD*%
D11*
%TO.C,C9*%
X133155000Y-70460000D03*
X133155000Y-68910000D03*
%TD*%
D14*
%TO.C,R17*%
X199780000Y-109315000D03*
X201430000Y-109315000D03*
%TD*%
D22*
%TO.C,C14*%
X151390000Y-112315000D03*
X149840000Y-112315000D03*
%TD*%
D10*
%TO.C,Q10*%
X227165000Y-100267500D03*
X229065000Y-100267500D03*
X228115000Y-102142500D03*
%TD*%
%TO.C,Q6*%
X199715000Y-111467500D03*
X201615000Y-111467500D03*
X200665000Y-113342500D03*
%TD*%
D23*
%TO.C,R4*%
X152265000Y-61100000D03*
X152265000Y-59450000D03*
%TD*%
D12*
%TO.C,R10*%
X240340000Y-103415000D03*
X238690000Y-103415000D03*
%TD*%
D10*
%TO.C,Q4*%
X222565000Y-111367500D03*
X224465000Y-111367500D03*
X223515000Y-113242500D03*
%TD*%
D14*
%TO.C,R16*%
X210470000Y-115385000D03*
X212120000Y-115385000D03*
%TD*%
%TO.C,R20*%
X245430000Y-101115000D03*
X247080000Y-101115000D03*
%TD*%
%TO.C,R21*%
X227230000Y-98115000D03*
X228880000Y-98115000D03*
%TD*%
%TO.C,R9*%
X237860000Y-97515000D03*
X239510000Y-97515000D03*
%TD*%
D24*
%TO.C,D6*%
X152342500Y-52175000D03*
X150767500Y-52175000D03*
%TD*%
D10*
%TO.C,Q3*%
X232615000Y-99867500D03*
X234515000Y-99867500D03*
X233565000Y-101742500D03*
%TD*%
%TO.C,Q5*%
X211115000Y-111367500D03*
X213015000Y-111367500D03*
X212065000Y-113242500D03*
%TD*%
D25*
%TO.C,D4*%
X152265000Y-56227500D03*
X152265000Y-57802500D03*
%TD*%
D26*
%TO.C,C1*%
X161635000Y-103230000D03*
X161635000Y-104780000D03*
%TD*%
D14*
%TO.C,R12*%
X231960000Y-104205000D03*
X233610000Y-104205000D03*
%TD*%
%TO.C,R22*%
X198990000Y-115385000D03*
X200640000Y-115385000D03*
%TD*%
%TO.C,R23*%
X187590000Y-115385000D03*
X189240000Y-115385000D03*
%TD*%
%TO.C,R13*%
X222670000Y-109215000D03*
X224320000Y-109215000D03*
%TD*%
%TO.C,R18*%
X188380000Y-109215000D03*
X190030000Y-109215000D03*
%TD*%
M02*
