%TF.GenerationSoftware,KiCad,Pcbnew,7.0.7*%
%TF.CreationDate,2023-11-07T21:18:32-05:00*%
%TF.ProjectId,mainControllerGRR,6d61696e-436f-46e7-9472-6f6c6c657247,rev?*%
%TF.SameCoordinates,Original*%
%TF.FileFunction,Drillmap*%
%TF.FilePolarity,Positive*%
%FSLAX45Y45*%
G04 Gerber Fmt 4.5, Leading zero omitted, Abs format (unit mm)*
G04 Created by KiCad (PCBNEW 7.0.7) date 2023-11-07 21:18:32*
%MOMM*%
%LPD*%
G01*
G04 APERTURE LIST*
%ADD10C,0.100000*%
%ADD11C,0.200000*%
%ADD12C,0.320000*%
G04 APERTURE END LIST*
D10*
X26063500Y-12207800D02*
X26063500Y-3977800D01*
X26063500Y-3977800D02*
X16182200Y-3977800D01*
X12481000Y-8214000D02*
X12481000Y-4600000D01*
X16182200Y-4600000D02*
X12481000Y-4600000D01*
X14687200Y-12207800D02*
X14687200Y-8214000D01*
X14687200Y-8214000D02*
X12481000Y-8214000D01*
X16182200Y-3977800D02*
X16182200Y-4600000D01*
X14687200Y-12207800D02*
X26063500Y-12207800D01*
D11*
D12*
X25406500Y-4212500D02*
X25726500Y-4532500D01*
X25726500Y-4212500D02*
X25406500Y-4532500D01*
X25406500Y-10683500D02*
X25726500Y-11003500D01*
X25726500Y-10683500D02*
X25406500Y-11003500D01*
D11*
X12736777Y-12524284D02*
X12736777Y-12324284D01*
X12736777Y-12324284D02*
X12784396Y-12324284D01*
X12784396Y-12324284D02*
X12812967Y-12333808D01*
X12812967Y-12333808D02*
X12832015Y-12352855D01*
X12832015Y-12352855D02*
X12841539Y-12371903D01*
X12841539Y-12371903D02*
X12851062Y-12409998D01*
X12851062Y-12409998D02*
X12851062Y-12438569D01*
X12851062Y-12438569D02*
X12841539Y-12476665D01*
X12841539Y-12476665D02*
X12832015Y-12495712D01*
X12832015Y-12495712D02*
X12812967Y-12514760D01*
X12812967Y-12514760D02*
X12784396Y-12524284D01*
X12784396Y-12524284D02*
X12736777Y-12524284D01*
X12936777Y-12524284D02*
X12936777Y-12390950D01*
X12936777Y-12429046D02*
X12946301Y-12409998D01*
X12946301Y-12409998D02*
X12955824Y-12400474D01*
X12955824Y-12400474D02*
X12974872Y-12390950D01*
X12974872Y-12390950D02*
X12993920Y-12390950D01*
X13060586Y-12524284D02*
X13060586Y-12390950D01*
X13060586Y-12324284D02*
X13051062Y-12333808D01*
X13051062Y-12333808D02*
X13060586Y-12343331D01*
X13060586Y-12343331D02*
X13070110Y-12333808D01*
X13070110Y-12333808D02*
X13060586Y-12324284D01*
X13060586Y-12324284D02*
X13060586Y-12343331D01*
X13184396Y-12524284D02*
X13165348Y-12514760D01*
X13165348Y-12514760D02*
X13155824Y-12495712D01*
X13155824Y-12495712D02*
X13155824Y-12324284D01*
X13289158Y-12524284D02*
X13270110Y-12514760D01*
X13270110Y-12514760D02*
X13260586Y-12495712D01*
X13260586Y-12495712D02*
X13260586Y-12324284D01*
X13517729Y-12524284D02*
X13517729Y-12324284D01*
X13517729Y-12324284D02*
X13584396Y-12467141D01*
X13584396Y-12467141D02*
X13651062Y-12324284D01*
X13651062Y-12324284D02*
X13651062Y-12524284D01*
X13832015Y-12524284D02*
X13832015Y-12419522D01*
X13832015Y-12419522D02*
X13822491Y-12400474D01*
X13822491Y-12400474D02*
X13803443Y-12390950D01*
X13803443Y-12390950D02*
X13765348Y-12390950D01*
X13765348Y-12390950D02*
X13746301Y-12400474D01*
X13832015Y-12514760D02*
X13812967Y-12524284D01*
X13812967Y-12524284D02*
X13765348Y-12524284D01*
X13765348Y-12524284D02*
X13746301Y-12514760D01*
X13746301Y-12514760D02*
X13736777Y-12495712D01*
X13736777Y-12495712D02*
X13736777Y-12476665D01*
X13736777Y-12476665D02*
X13746301Y-12457617D01*
X13746301Y-12457617D02*
X13765348Y-12448093D01*
X13765348Y-12448093D02*
X13812967Y-12448093D01*
X13812967Y-12448093D02*
X13832015Y-12438569D01*
X13927253Y-12390950D02*
X13927253Y-12590950D01*
X13927253Y-12400474D02*
X13946301Y-12390950D01*
X13946301Y-12390950D02*
X13984396Y-12390950D01*
X13984396Y-12390950D02*
X14003443Y-12400474D01*
X14003443Y-12400474D02*
X14012967Y-12409998D01*
X14012967Y-12409998D02*
X14022491Y-12429046D01*
X14022491Y-12429046D02*
X14022491Y-12486188D01*
X14022491Y-12486188D02*
X14012967Y-12505236D01*
X14012967Y-12505236D02*
X14003443Y-12514760D01*
X14003443Y-12514760D02*
X13984396Y-12524284D01*
X13984396Y-12524284D02*
X13946301Y-12524284D01*
X13946301Y-12524284D02*
X13927253Y-12514760D01*
X14108205Y-12505236D02*
X14117729Y-12514760D01*
X14117729Y-12514760D02*
X14108205Y-12524284D01*
X14108205Y-12524284D02*
X14098682Y-12514760D01*
X14098682Y-12514760D02*
X14108205Y-12505236D01*
X14108205Y-12505236D02*
X14108205Y-12524284D01*
X14108205Y-12400474D02*
X14117729Y-12409998D01*
X14117729Y-12409998D02*
X14108205Y-12419522D01*
X14108205Y-12419522D02*
X14098682Y-12409998D01*
X14098682Y-12409998D02*
X14108205Y-12400474D01*
X14108205Y-12400474D02*
X14108205Y-12419522D01*
X12276000Y-12752800D02*
X12476000Y-12952800D01*
X12476000Y-12752800D02*
X12276000Y-12952800D01*
X12717729Y-12744284D02*
X12841539Y-12744284D01*
X12841539Y-12744284D02*
X12774872Y-12820474D01*
X12774872Y-12820474D02*
X12803443Y-12820474D01*
X12803443Y-12820474D02*
X12822491Y-12829998D01*
X12822491Y-12829998D02*
X12832015Y-12839522D01*
X12832015Y-12839522D02*
X12841539Y-12858569D01*
X12841539Y-12858569D02*
X12841539Y-12906188D01*
X12841539Y-12906188D02*
X12832015Y-12925236D01*
X12832015Y-12925236D02*
X12822491Y-12934760D01*
X12822491Y-12934760D02*
X12803443Y-12944284D01*
X12803443Y-12944284D02*
X12746301Y-12944284D01*
X12746301Y-12944284D02*
X12727253Y-12934760D01*
X12727253Y-12934760D02*
X12717729Y-12925236D01*
X12927253Y-12925236D02*
X12936777Y-12934760D01*
X12936777Y-12934760D02*
X12927253Y-12944284D01*
X12927253Y-12944284D02*
X12917729Y-12934760D01*
X12917729Y-12934760D02*
X12927253Y-12925236D01*
X12927253Y-12925236D02*
X12927253Y-12944284D01*
X13012967Y-12763331D02*
X13022491Y-12753808D01*
X13022491Y-12753808D02*
X13041539Y-12744284D01*
X13041539Y-12744284D02*
X13089158Y-12744284D01*
X13089158Y-12744284D02*
X13108205Y-12753808D01*
X13108205Y-12753808D02*
X13117729Y-12763331D01*
X13117729Y-12763331D02*
X13127253Y-12782379D01*
X13127253Y-12782379D02*
X13127253Y-12801427D01*
X13127253Y-12801427D02*
X13117729Y-12829998D01*
X13117729Y-12829998D02*
X13003443Y-12944284D01*
X13003443Y-12944284D02*
X13127253Y-12944284D01*
X13251062Y-12744284D02*
X13270110Y-12744284D01*
X13270110Y-12744284D02*
X13289158Y-12753808D01*
X13289158Y-12753808D02*
X13298682Y-12763331D01*
X13298682Y-12763331D02*
X13308205Y-12782379D01*
X13308205Y-12782379D02*
X13317729Y-12820474D01*
X13317729Y-12820474D02*
X13317729Y-12868093D01*
X13317729Y-12868093D02*
X13308205Y-12906188D01*
X13308205Y-12906188D02*
X13298682Y-12925236D01*
X13298682Y-12925236D02*
X13289158Y-12934760D01*
X13289158Y-12934760D02*
X13270110Y-12944284D01*
X13270110Y-12944284D02*
X13251062Y-12944284D01*
X13251062Y-12944284D02*
X13232015Y-12934760D01*
X13232015Y-12934760D02*
X13222491Y-12925236D01*
X13222491Y-12925236D02*
X13212967Y-12906188D01*
X13212967Y-12906188D02*
X13203443Y-12868093D01*
X13203443Y-12868093D02*
X13203443Y-12820474D01*
X13203443Y-12820474D02*
X13212967Y-12782379D01*
X13212967Y-12782379D02*
X13222491Y-12763331D01*
X13222491Y-12763331D02*
X13232015Y-12753808D01*
X13232015Y-12753808D02*
X13251062Y-12744284D01*
X13441539Y-12744284D02*
X13460586Y-12744284D01*
X13460586Y-12744284D02*
X13479634Y-12753808D01*
X13479634Y-12753808D02*
X13489158Y-12763331D01*
X13489158Y-12763331D02*
X13498682Y-12782379D01*
X13498682Y-12782379D02*
X13508205Y-12820474D01*
X13508205Y-12820474D02*
X13508205Y-12868093D01*
X13508205Y-12868093D02*
X13498682Y-12906188D01*
X13498682Y-12906188D02*
X13489158Y-12925236D01*
X13489158Y-12925236D02*
X13479634Y-12934760D01*
X13479634Y-12934760D02*
X13460586Y-12944284D01*
X13460586Y-12944284D02*
X13441539Y-12944284D01*
X13441539Y-12944284D02*
X13422491Y-12934760D01*
X13422491Y-12934760D02*
X13412967Y-12925236D01*
X13412967Y-12925236D02*
X13403443Y-12906188D01*
X13403443Y-12906188D02*
X13393920Y-12868093D01*
X13393920Y-12868093D02*
X13393920Y-12820474D01*
X13393920Y-12820474D02*
X13403443Y-12782379D01*
X13403443Y-12782379D02*
X13412967Y-12763331D01*
X13412967Y-12763331D02*
X13422491Y-12753808D01*
X13422491Y-12753808D02*
X13441539Y-12744284D01*
X13593920Y-12944284D02*
X13593920Y-12810950D01*
X13593920Y-12829998D02*
X13603443Y-12820474D01*
X13603443Y-12820474D02*
X13622491Y-12810950D01*
X13622491Y-12810950D02*
X13651063Y-12810950D01*
X13651063Y-12810950D02*
X13670110Y-12820474D01*
X13670110Y-12820474D02*
X13679634Y-12839522D01*
X13679634Y-12839522D02*
X13679634Y-12944284D01*
X13679634Y-12839522D02*
X13689158Y-12820474D01*
X13689158Y-12820474D02*
X13708205Y-12810950D01*
X13708205Y-12810950D02*
X13736777Y-12810950D01*
X13736777Y-12810950D02*
X13755824Y-12820474D01*
X13755824Y-12820474D02*
X13765348Y-12839522D01*
X13765348Y-12839522D02*
X13765348Y-12944284D01*
X13860586Y-12944284D02*
X13860586Y-12810950D01*
X13860586Y-12829998D02*
X13870110Y-12820474D01*
X13870110Y-12820474D02*
X13889158Y-12810950D01*
X13889158Y-12810950D02*
X13917729Y-12810950D01*
X13917729Y-12810950D02*
X13936777Y-12820474D01*
X13936777Y-12820474D02*
X13946301Y-12839522D01*
X13946301Y-12839522D02*
X13946301Y-12944284D01*
X13946301Y-12839522D02*
X13955824Y-12820474D01*
X13955824Y-12820474D02*
X13974872Y-12810950D01*
X13974872Y-12810950D02*
X14003443Y-12810950D01*
X14003443Y-12810950D02*
X14022491Y-12820474D01*
X14022491Y-12820474D02*
X14032015Y-12839522D01*
X14032015Y-12839522D02*
X14032015Y-12944284D01*
X14422491Y-12734760D02*
X14251063Y-12991903D01*
X14679634Y-12744284D02*
X14698682Y-12744284D01*
X14698682Y-12744284D02*
X14717729Y-12753808D01*
X14717729Y-12753808D02*
X14727253Y-12763331D01*
X14727253Y-12763331D02*
X14736777Y-12782379D01*
X14736777Y-12782379D02*
X14746301Y-12820474D01*
X14746301Y-12820474D02*
X14746301Y-12868093D01*
X14746301Y-12868093D02*
X14736777Y-12906188D01*
X14736777Y-12906188D02*
X14727253Y-12925236D01*
X14727253Y-12925236D02*
X14717729Y-12934760D01*
X14717729Y-12934760D02*
X14698682Y-12944284D01*
X14698682Y-12944284D02*
X14679634Y-12944284D01*
X14679634Y-12944284D02*
X14660586Y-12934760D01*
X14660586Y-12934760D02*
X14651063Y-12925236D01*
X14651063Y-12925236D02*
X14641539Y-12906188D01*
X14641539Y-12906188D02*
X14632015Y-12868093D01*
X14632015Y-12868093D02*
X14632015Y-12820474D01*
X14632015Y-12820474D02*
X14641539Y-12782379D01*
X14641539Y-12782379D02*
X14651063Y-12763331D01*
X14651063Y-12763331D02*
X14660586Y-12753808D01*
X14660586Y-12753808D02*
X14679634Y-12744284D01*
X14832015Y-12925236D02*
X14841539Y-12934760D01*
X14841539Y-12934760D02*
X14832015Y-12944284D01*
X14832015Y-12944284D02*
X14822491Y-12934760D01*
X14822491Y-12934760D02*
X14832015Y-12925236D01*
X14832015Y-12925236D02*
X14832015Y-12944284D01*
X15032015Y-12944284D02*
X14917729Y-12944284D01*
X14974872Y-12944284D02*
X14974872Y-12744284D01*
X14974872Y-12744284D02*
X14955825Y-12772855D01*
X14955825Y-12772855D02*
X14936777Y-12791903D01*
X14936777Y-12791903D02*
X14917729Y-12801427D01*
X15108206Y-12763331D02*
X15117729Y-12753808D01*
X15117729Y-12753808D02*
X15136777Y-12744284D01*
X15136777Y-12744284D02*
X15184396Y-12744284D01*
X15184396Y-12744284D02*
X15203444Y-12753808D01*
X15203444Y-12753808D02*
X15212967Y-12763331D01*
X15212967Y-12763331D02*
X15222491Y-12782379D01*
X15222491Y-12782379D02*
X15222491Y-12801427D01*
X15222491Y-12801427D02*
X15212967Y-12829998D01*
X15212967Y-12829998D02*
X15098682Y-12944284D01*
X15098682Y-12944284D02*
X15222491Y-12944284D01*
X15393920Y-12744284D02*
X15355825Y-12744284D01*
X15355825Y-12744284D02*
X15336777Y-12753808D01*
X15336777Y-12753808D02*
X15327253Y-12763331D01*
X15327253Y-12763331D02*
X15308206Y-12791903D01*
X15308206Y-12791903D02*
X15298682Y-12829998D01*
X15298682Y-12829998D02*
X15298682Y-12906188D01*
X15298682Y-12906188D02*
X15308206Y-12925236D01*
X15308206Y-12925236D02*
X15317729Y-12934760D01*
X15317729Y-12934760D02*
X15336777Y-12944284D01*
X15336777Y-12944284D02*
X15374872Y-12944284D01*
X15374872Y-12944284D02*
X15393920Y-12934760D01*
X15393920Y-12934760D02*
X15403444Y-12925236D01*
X15403444Y-12925236D02*
X15412967Y-12906188D01*
X15412967Y-12906188D02*
X15412967Y-12858569D01*
X15412967Y-12858569D02*
X15403444Y-12839522D01*
X15403444Y-12839522D02*
X15393920Y-12829998D01*
X15393920Y-12829998D02*
X15374872Y-12820474D01*
X15374872Y-12820474D02*
X15336777Y-12820474D01*
X15336777Y-12820474D02*
X15317729Y-12829998D01*
X15317729Y-12829998D02*
X15308206Y-12839522D01*
X15308206Y-12839522D02*
X15298682Y-12858569D01*
X15536777Y-12744284D02*
X15555825Y-12744284D01*
X15555825Y-12744284D02*
X15574872Y-12753808D01*
X15574872Y-12753808D02*
X15584396Y-12763331D01*
X15584396Y-12763331D02*
X15593920Y-12782379D01*
X15593920Y-12782379D02*
X15603444Y-12820474D01*
X15603444Y-12820474D02*
X15603444Y-12868093D01*
X15603444Y-12868093D02*
X15593920Y-12906188D01*
X15593920Y-12906188D02*
X15584396Y-12925236D01*
X15584396Y-12925236D02*
X15574872Y-12934760D01*
X15574872Y-12934760D02*
X15555825Y-12944284D01*
X15555825Y-12944284D02*
X15536777Y-12944284D01*
X15536777Y-12944284D02*
X15517729Y-12934760D01*
X15517729Y-12934760D02*
X15508206Y-12925236D01*
X15508206Y-12925236D02*
X15498682Y-12906188D01*
X15498682Y-12906188D02*
X15489158Y-12868093D01*
X15489158Y-12868093D02*
X15489158Y-12820474D01*
X15489158Y-12820474D02*
X15498682Y-12782379D01*
X15498682Y-12782379D02*
X15508206Y-12763331D01*
X15508206Y-12763331D02*
X15517729Y-12753808D01*
X15517729Y-12753808D02*
X15536777Y-12744284D01*
X15679634Y-12744284D02*
X15679634Y-12782379D01*
X15755825Y-12744284D02*
X15755825Y-12782379D01*
X16051063Y-13020474D02*
X16041539Y-13010950D01*
X16041539Y-13010950D02*
X16022491Y-12982379D01*
X16022491Y-12982379D02*
X16012968Y-12963331D01*
X16012968Y-12963331D02*
X16003444Y-12934760D01*
X16003444Y-12934760D02*
X15993920Y-12887141D01*
X15993920Y-12887141D02*
X15993920Y-12849046D01*
X15993920Y-12849046D02*
X16003444Y-12801427D01*
X16003444Y-12801427D02*
X16012968Y-12772855D01*
X16012968Y-12772855D02*
X16022491Y-12753808D01*
X16022491Y-12753808D02*
X16041539Y-12725236D01*
X16041539Y-12725236D02*
X16051063Y-12715712D01*
X16117729Y-12763331D02*
X16127253Y-12753808D01*
X16127253Y-12753808D02*
X16146301Y-12744284D01*
X16146301Y-12744284D02*
X16193920Y-12744284D01*
X16193920Y-12744284D02*
X16212968Y-12753808D01*
X16212968Y-12753808D02*
X16222491Y-12763331D01*
X16222491Y-12763331D02*
X16232015Y-12782379D01*
X16232015Y-12782379D02*
X16232015Y-12801427D01*
X16232015Y-12801427D02*
X16222491Y-12829998D01*
X16222491Y-12829998D02*
X16108206Y-12944284D01*
X16108206Y-12944284D02*
X16232015Y-12944284D01*
X16470110Y-12944284D02*
X16470110Y-12744284D01*
X16555825Y-12944284D02*
X16555825Y-12839522D01*
X16555825Y-12839522D02*
X16546301Y-12820474D01*
X16546301Y-12820474D02*
X16527253Y-12810950D01*
X16527253Y-12810950D02*
X16498682Y-12810950D01*
X16498682Y-12810950D02*
X16479634Y-12820474D01*
X16479634Y-12820474D02*
X16470110Y-12829998D01*
X16679634Y-12944284D02*
X16660587Y-12934760D01*
X16660587Y-12934760D02*
X16651063Y-12925236D01*
X16651063Y-12925236D02*
X16641539Y-12906188D01*
X16641539Y-12906188D02*
X16641539Y-12849046D01*
X16641539Y-12849046D02*
X16651063Y-12829998D01*
X16651063Y-12829998D02*
X16660587Y-12820474D01*
X16660587Y-12820474D02*
X16679634Y-12810950D01*
X16679634Y-12810950D02*
X16708206Y-12810950D01*
X16708206Y-12810950D02*
X16727253Y-12820474D01*
X16727253Y-12820474D02*
X16736777Y-12829998D01*
X16736777Y-12829998D02*
X16746301Y-12849046D01*
X16746301Y-12849046D02*
X16746301Y-12906188D01*
X16746301Y-12906188D02*
X16736777Y-12925236D01*
X16736777Y-12925236D02*
X16727253Y-12934760D01*
X16727253Y-12934760D02*
X16708206Y-12944284D01*
X16708206Y-12944284D02*
X16679634Y-12944284D01*
X16860587Y-12944284D02*
X16841539Y-12934760D01*
X16841539Y-12934760D02*
X16832015Y-12915712D01*
X16832015Y-12915712D02*
X16832015Y-12744284D01*
X17012968Y-12934760D02*
X16993920Y-12944284D01*
X16993920Y-12944284D02*
X16955825Y-12944284D01*
X16955825Y-12944284D02*
X16936777Y-12934760D01*
X16936777Y-12934760D02*
X16927253Y-12915712D01*
X16927253Y-12915712D02*
X16927253Y-12839522D01*
X16927253Y-12839522D02*
X16936777Y-12820474D01*
X16936777Y-12820474D02*
X16955825Y-12810950D01*
X16955825Y-12810950D02*
X16993920Y-12810950D01*
X16993920Y-12810950D02*
X17012968Y-12820474D01*
X17012968Y-12820474D02*
X17022492Y-12839522D01*
X17022492Y-12839522D02*
X17022492Y-12858569D01*
X17022492Y-12858569D02*
X16927253Y-12877617D01*
X17098682Y-12934760D02*
X17117730Y-12944284D01*
X17117730Y-12944284D02*
X17155825Y-12944284D01*
X17155825Y-12944284D02*
X17174873Y-12934760D01*
X17174873Y-12934760D02*
X17184396Y-12915712D01*
X17184396Y-12915712D02*
X17184396Y-12906188D01*
X17184396Y-12906188D02*
X17174873Y-12887141D01*
X17174873Y-12887141D02*
X17155825Y-12877617D01*
X17155825Y-12877617D02*
X17127253Y-12877617D01*
X17127253Y-12877617D02*
X17108206Y-12868093D01*
X17108206Y-12868093D02*
X17098682Y-12849046D01*
X17098682Y-12849046D02*
X17098682Y-12839522D01*
X17098682Y-12839522D02*
X17108206Y-12820474D01*
X17108206Y-12820474D02*
X17127253Y-12810950D01*
X17127253Y-12810950D02*
X17155825Y-12810950D01*
X17155825Y-12810950D02*
X17174873Y-12820474D01*
X17251063Y-13020474D02*
X17260587Y-13010950D01*
X17260587Y-13010950D02*
X17279634Y-12982379D01*
X17279634Y-12982379D02*
X17289158Y-12963331D01*
X17289158Y-12963331D02*
X17298682Y-12934760D01*
X17298682Y-12934760D02*
X17308206Y-12887141D01*
X17308206Y-12887141D02*
X17308206Y-12849046D01*
X17308206Y-12849046D02*
X17298682Y-12801427D01*
X17298682Y-12801427D02*
X17289158Y-12772855D01*
X17289158Y-12772855D02*
X17279634Y-12753808D01*
X17279634Y-12753808D02*
X17260587Y-12725236D01*
X17260587Y-12725236D02*
X17251063Y-12715712D01*
X17612968Y-13020474D02*
X17603444Y-13010950D01*
X17603444Y-13010950D02*
X17584396Y-12982379D01*
X17584396Y-12982379D02*
X17574873Y-12963331D01*
X17574873Y-12963331D02*
X17565349Y-12934760D01*
X17565349Y-12934760D02*
X17555825Y-12887141D01*
X17555825Y-12887141D02*
X17555825Y-12849046D01*
X17555825Y-12849046D02*
X17565349Y-12801427D01*
X17565349Y-12801427D02*
X17574873Y-12772855D01*
X17574873Y-12772855D02*
X17584396Y-12753808D01*
X17584396Y-12753808D02*
X17603444Y-12725236D01*
X17603444Y-12725236D02*
X17612968Y-12715712D01*
X17689158Y-12810950D02*
X17689158Y-12944284D01*
X17689158Y-12829998D02*
X17698682Y-12820474D01*
X17698682Y-12820474D02*
X17717730Y-12810950D01*
X17717730Y-12810950D02*
X17746301Y-12810950D01*
X17746301Y-12810950D02*
X17765349Y-12820474D01*
X17765349Y-12820474D02*
X17774873Y-12839522D01*
X17774873Y-12839522D02*
X17774873Y-12944284D01*
X17898682Y-12944284D02*
X17879634Y-12934760D01*
X17879634Y-12934760D02*
X17870111Y-12925236D01*
X17870111Y-12925236D02*
X17860587Y-12906188D01*
X17860587Y-12906188D02*
X17860587Y-12849046D01*
X17860587Y-12849046D02*
X17870111Y-12829998D01*
X17870111Y-12829998D02*
X17879634Y-12820474D01*
X17879634Y-12820474D02*
X17898682Y-12810950D01*
X17898682Y-12810950D02*
X17927254Y-12810950D01*
X17927254Y-12810950D02*
X17946301Y-12820474D01*
X17946301Y-12820474D02*
X17955825Y-12829998D01*
X17955825Y-12829998D02*
X17965349Y-12849046D01*
X17965349Y-12849046D02*
X17965349Y-12906188D01*
X17965349Y-12906188D02*
X17955825Y-12925236D01*
X17955825Y-12925236D02*
X17946301Y-12934760D01*
X17946301Y-12934760D02*
X17927254Y-12944284D01*
X17927254Y-12944284D02*
X17898682Y-12944284D01*
X18022492Y-12810950D02*
X18098682Y-12810950D01*
X18051063Y-12744284D02*
X18051063Y-12915712D01*
X18051063Y-12915712D02*
X18060587Y-12934760D01*
X18060587Y-12934760D02*
X18079634Y-12944284D01*
X18079634Y-12944284D02*
X18098682Y-12944284D01*
X18317730Y-12810950D02*
X18317730Y-13010950D01*
X18317730Y-12820474D02*
X18336777Y-12810950D01*
X18336777Y-12810950D02*
X18374873Y-12810950D01*
X18374873Y-12810950D02*
X18393920Y-12820474D01*
X18393920Y-12820474D02*
X18403444Y-12829998D01*
X18403444Y-12829998D02*
X18412968Y-12849046D01*
X18412968Y-12849046D02*
X18412968Y-12906188D01*
X18412968Y-12906188D02*
X18403444Y-12925236D01*
X18403444Y-12925236D02*
X18393920Y-12934760D01*
X18393920Y-12934760D02*
X18374873Y-12944284D01*
X18374873Y-12944284D02*
X18336777Y-12944284D01*
X18336777Y-12944284D02*
X18317730Y-12934760D01*
X18527254Y-12944284D02*
X18508206Y-12934760D01*
X18508206Y-12934760D02*
X18498682Y-12915712D01*
X18498682Y-12915712D02*
X18498682Y-12744284D01*
X18689158Y-12944284D02*
X18689158Y-12839522D01*
X18689158Y-12839522D02*
X18679635Y-12820474D01*
X18679635Y-12820474D02*
X18660587Y-12810950D01*
X18660587Y-12810950D02*
X18622492Y-12810950D01*
X18622492Y-12810950D02*
X18603444Y-12820474D01*
X18689158Y-12934760D02*
X18670111Y-12944284D01*
X18670111Y-12944284D02*
X18622492Y-12944284D01*
X18622492Y-12944284D02*
X18603444Y-12934760D01*
X18603444Y-12934760D02*
X18593920Y-12915712D01*
X18593920Y-12915712D02*
X18593920Y-12896665D01*
X18593920Y-12896665D02*
X18603444Y-12877617D01*
X18603444Y-12877617D02*
X18622492Y-12868093D01*
X18622492Y-12868093D02*
X18670111Y-12868093D01*
X18670111Y-12868093D02*
X18689158Y-12858569D01*
X18755825Y-12810950D02*
X18832015Y-12810950D01*
X18784396Y-12744284D02*
X18784396Y-12915712D01*
X18784396Y-12915712D02*
X18793920Y-12934760D01*
X18793920Y-12934760D02*
X18812968Y-12944284D01*
X18812968Y-12944284D02*
X18832015Y-12944284D01*
X18974873Y-12934760D02*
X18955825Y-12944284D01*
X18955825Y-12944284D02*
X18917730Y-12944284D01*
X18917730Y-12944284D02*
X18898682Y-12934760D01*
X18898682Y-12934760D02*
X18889158Y-12915712D01*
X18889158Y-12915712D02*
X18889158Y-12839522D01*
X18889158Y-12839522D02*
X18898682Y-12820474D01*
X18898682Y-12820474D02*
X18917730Y-12810950D01*
X18917730Y-12810950D02*
X18955825Y-12810950D01*
X18955825Y-12810950D02*
X18974873Y-12820474D01*
X18974873Y-12820474D02*
X18984396Y-12839522D01*
X18984396Y-12839522D02*
X18984396Y-12858569D01*
X18984396Y-12858569D02*
X18889158Y-12877617D01*
X19155825Y-12944284D02*
X19155825Y-12744284D01*
X19155825Y-12934760D02*
X19136777Y-12944284D01*
X19136777Y-12944284D02*
X19098682Y-12944284D01*
X19098682Y-12944284D02*
X19079635Y-12934760D01*
X19079635Y-12934760D02*
X19070111Y-12925236D01*
X19070111Y-12925236D02*
X19060587Y-12906188D01*
X19060587Y-12906188D02*
X19060587Y-12849046D01*
X19060587Y-12849046D02*
X19070111Y-12829998D01*
X19070111Y-12829998D02*
X19079635Y-12820474D01*
X19079635Y-12820474D02*
X19098682Y-12810950D01*
X19098682Y-12810950D02*
X19136777Y-12810950D01*
X19136777Y-12810950D02*
X19155825Y-12820474D01*
X19232016Y-13020474D02*
X19241539Y-13010950D01*
X19241539Y-13010950D02*
X19260587Y-12982379D01*
X19260587Y-12982379D02*
X19270111Y-12963331D01*
X19270111Y-12963331D02*
X19279635Y-12934760D01*
X19279635Y-12934760D02*
X19289158Y-12887141D01*
X19289158Y-12887141D02*
X19289158Y-12849046D01*
X19289158Y-12849046D02*
X19279635Y-12801427D01*
X19279635Y-12801427D02*
X19270111Y-12772855D01*
X19270111Y-12772855D02*
X19260587Y-12753808D01*
X19260587Y-12753808D02*
X19241539Y-12725236D01*
X19241539Y-12725236D02*
X19232016Y-12715712D01*
M02*
